<svg id="Layer_1" data-name="Layer 1" xmlns="http://www.w3.org/2000/svg" viewBox="0 0 566.93 166.8">
    <defs>
        <style>
            .cls-3{fill: hsla(204, 6%, 20%, 1);fill-rule:evenodd}
            .fs0{fill: hsla(204, 6%, 11%, 1);}
            .fs1{fill: hsla(204, 6%, 14%, 1);}
        </style>
    </defs>
    <path class="fs0" d="M224.35 188.8H224v-1.3h-.17v1.3h-1.65v.2h-.74v-.42h-.91v-1.33h-.1v1.33h-1.05v-.25h-.18v.25H217v.42h-1.18v8h-4.94v2h-1.44v-26.8h.32v-.52h.34v-1.73h-.66v-1.78l2.27-1.8v-.57h.46v-1.6H181v-.05a.22.22 0 0 0-.22-.22h-1.23a.22.22 0 0 0-.22.22v2.11h-6.1V163a.13.13 0 0 0-.13-.13h-.35V147h-.49v15.91h-.31a.13.13 0 0 0-.13.13v3.22h-2v.85h-.6v-5.93h-6.42v-1h-3V154a.61.61 0 0 0-.61-.61H154a.61.61 0 0 0-.6.61v6.18h-4.6v.67h-13.31v2.76h.92v71.63h32.81v-.12h40.2v-6.69h1.44v5.85h4.94v2.25h20.53V189h-12zm116.31-5.65a.16.16 0 0 0-.16-.16h-.44a.16.16 0 0 0-.15.15h-1.85v-.89h-.87V182a.16.16 0 0 0-.16-.16h-.63v-.16h-.22v-.32h-.13v.32h-.54v.16h-.25v-2.47h-.09v2.47h-.38a.16.16 0 0 0-.16.16v.23h-4.24v.89h-7.67v21h17.64v-1.79h5.5v-18.42h-5.19zm-319-.7h-2.28v.55h-1.46v-.57H16.7v-1.22h-.61v1.22h-2.8v.57h-1.16v52.91h14.53V183h-5zm336.35 3.78h-1.42v-4.81H351v-.25h-.82v.25H350v1.8h-1.2v.51h.28v.76h-.32v-.25h-1.64v.25h-.25V192h6.35v-.36h2.53v.29h2.28v.55h2.75v-7.08h-2.75zM98 176.23h-6v.37h-7.8v2.07h.13v21.93h-5v-7.92h-2.17v.52h-1.47v-.27H73.5v.27H54.1v37.08h24.66v-.8h5.59v.4h22.85v-52.62H98zm27.62.53h-1.54v-.41h-4.38v.41h-4.39v-.66h-.73v-1.22h-2v1.22h-2v.66h-.35v61.45h15.29v-6.41h3v-51.91h-3zm152.45 21.38h-.49v.32h-.37v-.32h-.49v3.13h-2.08v-11.89h-.07v-.25h-.46v-.27H272v.51h-4.88v47h5.5v1.79h14.57v-33.69h1.53v-6h-10.65zM388 182.69h-1.82v-1.29h-1.22v-.32h-3.87v.32h-1.19v-.21h-5.09v.21h-.91v6.06h-.62l-.73-1.23h-4.75v1.23H366v27.42h15.61v-1.68h4.51v-3h4.77v-.08h1.31v-27.66H388zm172.55 24.82V207h-6.21v1.55h-.87v-7.95h-3.2v-.48h-1.67v-4.36h-.19v4.36h-.87v-.39h-1.94v.39h-2v.48h-4.75v36.91h14.64v-23.6h.87v24.69h6.21V209h.19v-1.46zm-111.33-25.38h-2.9v-3.41H444v.28h-5.22v14.06h7.48v-4.51h10.06V187H461v-6.58h-11.78zm46.64-19.89h-13.18v3.88h-3v-1.16h-2v-1.26h-1.26v1.26h-4v1.16h-2v3.49h-2.52v7.17h-4v11.05h6.5v2.91h27.24v-24.63h-1.75zm-57.59 38.49h-5.14v2.71h.35v5.65h-4v-16.92l-1.42-3.81v-3.48h-.9V181h-.93v-.15h-3.82v.15h-2.31v-.49h-.39v-.39h-.83v.39h-3v.49h-.59v49.41h11.87v-.25l2.32.19v-4.83h8.13V225h4.9v-23.91h-4.24zm-31.84-23.25a.22.22 0 0 0-.22-.22h-3.43a.22.22 0 0 0-.22.22v.33h-1.26v-.39h-1.66V177h-.44v.44h-.5v-.33h-.44v.33h-.72v.39h-.61v-2.33h-.61v2.33h-1.71v3.07h-.85V211h.85v.5h15.76v-33.69h-3.93z" transform="translate(0 -78.06)" />
    <path class="fs1" d="M141.08 182.46h-.7v-.07a.22.22 0 0 0-.22-.22h-.44a.22.22 0 0 0-.22.22v.07h-1.48v-.39h-2v-.49h3.15v-3.91h-8v3.91h.58v.49h-1.17v-.34H130v-.27a.22.22 0 0 0-.22-.22h-3a.22.22 0 0 0-.22.22v.61h-.76v.73h-7.89v-15h2a.47.47 0 0 0 .47-.47v-7.53a.47.47 0 0 0-.47-.47h-2v-7.88h-1.41v7.88h-2a.47.47 0 0 0-.47.47v7.52a.47.47 0 0 0 .47.47h2v12.42h-3.36v-1.41h1l-3.58-3.61h-12.7L94 178.38v.53h.44v3.89H77.92v.73h1v.22l3 1.44v1.18h-.36v.73h.36v10h-.36v.73h.36v17.46h-3.24v-3.58h-.84v-.6h-3.49v.6h-2.77v3.58h-6.29V235h19v-.53h62.15v-36.66h.36v-.73h-.36v-10h.36v-.73h-.36v-1.18l3-1.44v-.22h1v-.73h-9.31zm-5.63-.39h-2.87v-.49h2.88zm421.77 35.62v-5.49h-13.15v4.12h-2.64v-93.5h-9.94v-1.9H531v-.42h-1.43v-.05a.37.37 0 0 0-.37-.37h-.26a.37.37 0 0 0-.37.37v.48h-.64v-.27h-.48v-.21a.37.37 0 0 0-.37-.37h-.26a.37.37 0 0 0-.37.37v.48h-1.22v-.48a.37.37 0 0 0-.37-.37h-.27a.37.37 0 0 0-.37.37v.48h-.53v-9.33h-.36v9.32h-.43v-3.11h-1.05v-.59a.14.14 0 0 0-.14-.14h-.44v-.36h-.62V104.5h-.33v12.58h-.14a.15.15 0 0 0-.15.14v.59h-1.45v-.66a.15.15 0 0 0-.15-.15h-.88a.7.7 0 0 0-1.39 0 .67.67 0 0 0 .24.51v.29h-.73v-.5s.21-.47.21-1.06-.09-1.06-.21-1.06-.21.48-.21 1.06v.15h-.37a1.9 1.9 0 0 0 .13-.67c0-.7-.33-1.27-.74-1.27s-.74.57-.74 1.27a1.9 1.9 0 0 0 .13.67h-.23a.46.46 0 0 0-.4-.25.49.49 0 0 0 0 1 .45.45 0 0 0 .15 0v.66h-1.09v-.73a.47.47 0 0 0-.47-.47h-.32v-28h.09a.1.1 0 0 0 .1-.1v-1.38a.1.1 0 0 0-.1-.1h-.8a.1.1 0 0 0-.1.1v1.37a.1.1 0 0 0 .1.1h.1v4.06h-.77V93h.77v3.57h-.77v.36h.77v3.57h-.77v.36h.77v3.57h-.77v.36h.77v3.57h-.77v.36h.77v7.86h-.48a.47.47 0 0 0-.47.47v.11h-2.47v.63H507v-.19h-1v.19h-.58v-.63h-.16a.64.64 0 0 0-1.27 0 .49.49 0 0 0 .06.23v.38h-.54v-.27a.24.24 0 0 0 .1 0c.24 0 .44-.43.44-1s-.2-1-.44-1-.43.43-.43 1h-1.38v2.68h.35v3.47h-16.83v110.63h46.39v6h31v-21.6zM24.93 205.38H19v-2.14H7.55v5.35h1.07V211H4.88v28.07h28.07V211h-8zm198.25 4h-8.73v-7.22h-20.72v16h17.51v18.18h11.94v2H236v-41.16h-12.82zM334 185.72h-4.71v10h18.64v-1.18h1.18v-9.61H334zm97.4 6.8h-8.11v-2.45h-2.1v-1.61h2.59v-2.84h-12.49v-3.09h-15.37v3.09h-18.65v2.84h2.6v1.61h-2.1v26.18h8.11v26.45h45.51v-9.1h11.31V218h-11.31zm-126.26-28.93h-4.35v-2.51h-5.54v-3.69H295v3.69h-.92v-.79h-.79v-.66h-.53v.66h-1.19v-9.23H291v9.23h-2.9v.79h-9.6v55.79h-2.07v-11.28h-15.87v17.64h7.35v11.28h10.59v7.4h48.92v-80.83h-22.28z" transform="translate(0 -78.06)" />
    <g id="Front">
        <path class="cls-3" d="M528.27 109.33h-92.13v47.64h92.13v-47.64z"/>
        <path class="cls-3" d="M528.44 111h-.5v.39h.5V111zm.41 8.27h-1.41v.21h1.41v-.21z"/>
        <path class="cls-3" d="M528.71 119.41h-.74v.89l.74-.77v-.12zm.14 28.75h-1.41v.22h1.41v-.22z"/>
        <path class="cls-3" d="M528.71 148.31h-.74v.88l.74-.76v-.12zm1.95-40.17h-40.35v.43h40.35v-.43z"/>
        <path class="cls-3" d="M528.73 107.71h-36.79v.68h37.6l-.81-.68zm1.24.68h-3.65v1.77l3.65-1.46v-.31z"/>
        <path class="cls-3" d="M528.75 109.02h-.77v.59h.58l.19-.59zm-1.87-.63h-36.64v6.07h36.64v-6.07zm-90.74-4.14h4.81v8h-4.81v-8z"/>
        <path class="cls-3" d="M436.14 102.92h.58v1.74h-.58v-1.74zm1.75.03h1.31v1.93h-1.31v-1.93zm2.48-.03h.58v1.74h-.58v-1.74zm-2.45-.49h1.25v.21h-1.25v-.21z"/>
        <path class="cls-3" d="M435.94 102.82l.28-.19h4.65l.27.19v.21h-5.2v-.21zm4.83 2.73h20.77v6.28h-20.77v-6.28z"/>
        <path class="cls-3" d="M461.18 105.86h1v4.8h-1v-4.8zm34.25-2.66h-32.14v7.72h32.14v-7.72z"/>
        <path class="cls-3" d="M495.07 182.52h.93a.06.06 0 0 1 .06.06v4.23a.06.06 0 0 1-.06.06h-.89a.06.06 0 0 1-.06-.06v-4.23a.06.06 0 0 1 .06-.06z" transform="translate(0 -78.06)"/>
        <path class="cls-3" d="M496.19 105.23h-.42v.39h.42v-.39z"/>
        <path class="cls-3" d="M463.64 182.52h-.89a.06.06 0 0 0-.06.06v5.51a.06.06 0 0 0 .06.06h.89a.06.06 0 0 0 .06-.06v-5.51a.06.06 0 0 0-.06-.06z" transform="translate(0 -78.06)"/>
        <path class="cls-3" d="M462.52 105.23h.42v.39h-.42v-.39z"/>
        <path class="cls-3" d="M463.65 180.43h.69a.2.2 0 0 1 .2.2v1.13a.2.2 0 0 1-.2.2h-.69a.2.2 0 0 1-.2-.2v-1.13a.2.2 0 0 1 .2-.2zm2.73 0h.69a.2.2 0 0 1 .2.2v1.13a.2.2 0 0 1-.2.2h-.69a.2.2 0 0 1-.2-.2v-1.13a.2.2 0 0 1 .2-.2z" transform="translate(0 -78.06)"/>
        <path class="cls-3" d="M464.04 102.69h2.64v1.18h-2.64v-1.18z"/>
        <path class="cls-3" d="M491.55 180.43h.69a.2.2 0 0 1 .2.2v1.13a.2.2 0 0 1-.2.2h-.69a.2.2 0 0 1-.2-.2v-1.13a.2.2 0 0 1 .2-.2zm2.72 0h.73a.2.2 0 0 1 .2.2v1.13a.2.2 0 0 1-.2.2h-.69a.2.2 0 0 1-.2-.2v-1.13a.2.2 0 0 1 .2-.2z" transform="translate(0 -78.06)"/>
        <path class="cls-3" d="M491.93 102.69h2.65v1.18h-2.65v-1.18zm-15.6-12.28h5.09v2.79h-14.61l9.52-2.79z"/>
        <path class="cls-3" d="M465.86 93.17h14.47v.72h-14.47v-.72z"/>
        <path class="cls-3" d="M466.29 93.72h2.28v.4h-2.28v-.4z"/>
        <path class="cls-3" d="M466.68 94.03h.52v.89l-.52-.66v-.23zm15.68-3.62h-5.1v2.79h14.62l-9.52-2.79z"/>
        <path class="cls-3" d="M492.83 93.17h-14.47v.72h14.47v-.72z"/>
        <path class="cls-3" d="M492.39 93.72h-2.27v.4h2.27v-.4z"/>
        <path class="cls-3" d="M492.01 94.03h-.53v.89l.53-.66v-.23z"/>
        <path class="cls-3" d="M467.06 171.57h24.56v12.57h-24.56v-12.57zm11.89 2a1.42 1.42 0 0 1 1.41 1.41v.48h-.21v.38h.21v4.63h-2.83v-4.63h.2v-.38h-.2V175a1.42 1.42 0 0 1 1.41-1.41zm-3.85 0a1.42 1.42 0 0 1 1.41 1.41v.48h-.2v.38h.2v4.63h-2.83v-4.63h.2v-.38h-.2V175a1.42 1.42 0 0 1 1.41-1.41zm-3.85 0a1.42 1.42 0 0 1 1.41 1.41v.48h-.2v.38h.2v4.63h-2.83v-4.63h.2v-.38h-.2V175a1.42 1.42 0 0 1 1.41-1.41zm16.18 0a1.42 1.42 0 0 1 1.41 1.41v.48h-.2v.38h.2v4.63H486v-4.63h.2v-.38h-.2V175a1.42 1.42 0 0 1 1.41-1.41z" transform="translate(0 -78.06)"/>
        <path class="cls-3" d="M0 155.2h566.93v11.6H0v-11.6z"/>
        <path class="cls-3" d="M23.29 86.52h48.82v74.84H23.29V86.52z"/>
        <path class="cls-3" d="M23.94 83.65h47.52v6.91H23.94v-6.91z"/>
        <path class="cls-3" d="M23.5 83.85h48.39v-1.34l-10.33-9.47H33.84L23.5 82.51v1.34z"/>
        <path class="cls-3" d="M34.58 49.43h-.46l-.35 25.04h1.21l-.4-25.04zm26.28 0h.45l.36 25.04h-1.21l.4-25.04z"/>
        <path class="cls-3" d="M34.5 69.17h26.44v4.25H34.5v-4.25z"/>
        <path class="cls-3" d="M34.8 146.39h.84a.11.11 0 0 1 .1.11v.79a.11.11 0 0 1-.1.11h-.84a.11.11 0 0 1-.1-.11v-.79a.11.11 0 0 1 .1-.11zm2.08 0h.84a.11.11 0 0 1 .1.11v.79a.11.11 0 0 1-.1.11h-.84a.11.11 0 0 1-.1-.11v-.79a.11.11 0 0 1 .1-.11zm2.12 0h.84a.11.11 0 0 1 .1.11v.79a.11.11 0 0 1-.1.11H39a.11.11 0 0 1-.1-.11v-.79a.11.11 0 0 1 .1-.11zm2 0h.84a.11.11 0 0 1 .1.11v.79a.11.11 0 0 1-.1.11H41a.11.11 0 0 1-.1-.11v-.79a.11.11 0 0 1 .1-.11zm2.13 0H44a.11.11 0 0 1 .1.11v.79a.11.11 0 0 1-.1.11h-.84a.11.11 0 0 1-.1-.11v-.79a.11.11 0 0 1 .1-.11zm2.08 0h.84a.11.11 0 0 1 .1.11v.79a.11.11 0 0 1-.1.11h-.84a.11.11 0 0 1-.1-.11v-.79a.11.11 0 0 1 .1-.11zm2.09 0h.84a.11.11 0 0 1 .1.11v.79a.11.11 0 0 1-.1.11h-.84a.11.11 0 0 1-.1-.11v-.79a.11.11 0 0 1 .1-.11zm2.08 0h.84a.11.11 0 0 1 .1.11v.79a.11.11 0 0 1-.1.11h-.84a.11.11 0 0 1-.1-.11v-.79a.11.11 0 0 1 .1-.11zm2.08 0h.84a.11.11 0 0 1 .1.11v.79a.11.11 0 0 1-.1.11h-.84a.11.11 0 0 1-.1-.11v-.79a.11.11 0 0 1 .1-.11zm2.08 0h.84a.11.11 0 0 1 .1.11v.79a.11.11 0 0 1-.1.11h-.84a.11.11 0 0 1-.1-.11v-.79a.11.11 0 0 1 .1-.11zm2.09 0h.84a.11.11 0 0 1 .1.11v.79a.11.11 0 0 1-.1.11h-.84a.11.11 0 0 1-.1-.11v-.79a.11.11 0 0 1 .1-.11zm2.08 0h.84a.11.11 0 0 1 .1.11v.79a.11.11 0 0 1-.1.11h-.84a.11.11 0 0 1-.1-.11v-.79a.11.11 0 0 1 .1-.11zm2.08 0h.84a.11.11 0 0 1 .1.11v.79a.11.11 0 0 1-.1.11h-.84a.11.11 0 0 1-.1-.11v-.79a.11.11 0 0 1 .1-.11zm56.73 60.25a56.1 56.1 0 0 1 13.42 0v24.91h-13.42v-24.91zm-23.76 0a56.12 56.12 0 0 1 13.42 0v24.91H92.76v-24.91z" transform="translate(0 -78.06)"/>
        <path class="cls-3" d="M136.89 133.7l-8.74-1.33v4.48l8.74-1.28v-1.87zm0 4.81l-8.74-1.33v4.48l8.74-1.28v-1.87zm0 4.8l-8.74-1.33v4.48l8.74-1.28v-1.87zm0 4.8l-8.74-1.33v4.48l8.74-1.28v-1.87zm-52.1-17.89l8.75.3V135l-8.75-2.91v-1.87zm0 4.8l8.75.3v4.49l-8.75-2.92v-1.87zm0 4.8l8.75.31v4.48l-8.75-2.92v-1.87zm0 4.81l8.75.3v4.48l-8.75-2.91v-1.87zm0 4.8l8.75.31v4.48l-8.75-2.92v-1.87z"/>
        <path class="cls-3" d="M86.36 131.56h9.42v19.8h-9.42v-19.8zm17.48-.74l14.8 1.62v20.96h-14.8v-22.58z"/>
        <path class="cls-3" d="M85.99 150.34h44.83v6.61H85.99v-6.61z"/>
        <path class="cls-3" d="M353.75 173.08a.71.71 0 1 1-.71.71.71.71 0 0 1 .71-.71zm.13-4.79s.26-.45.07-.7-.71-.15-.61.26.15.36.12.47-.35.07-.55.39-.29.77-.5 1-.45.47-.35.74.35.06.37-.24a.8.8 0 0 1 .35-.62c.25-.24.37-.62.41-.36a4.33 4.33 0 0 1 0 1.29 2.43 2.43 0 0 0 0 1.2 3 3 0 0 0 .3.69 6.44 6.44 0 0 0 .95 0 1.22 1.22 0 0 0-.09-.7 5.07 5.07 0 0 1-.09-1.61c0-.44 0-1.11.11-1.1a1.43 1.43 0 0 1 .92.61c.14.35.51.23.42 0s-.51-.47-.73-.74a2.28 2.28 0 0 0-.72-.47 1 1 0 0 0-.4-.14z" transform="translate(0 -78.06)"/>
        <path class="cls-3" d="M353.53 94.1h.43v1.28h-.43V94.1zm.22 1.86l.85.33.85.32v1.31l-.85.33-.85.33-.86-.33-.84-.33v-1.31l.84-.32.86-.33z"/>
        <path class="cls-3" d="M352.15 97.62h3.2v2.94h-3.2v-2.94zm-.23-.86h3.65v.36h-3.65v-.36z"/>
        <path class="cls-3" d="M351.92 97.81h3.65v.36h-3.65v-.36zm-.12 1.88h3.89v.36h-3.89v-.36z"/>
        <path class="cls-3" d="M351.93 99.89h3.64v12.37h-3.64V99.89z"/>
        <path class="cls-3" d="M355.81 107.62h-4.12v2.44h4.12v-2.44z"/>
        <path class="cls-3" d="M356.25 109.44h-5v2.44h5v-2.44z"/>
        <path class="cls-3" d="M350.31 111.08h6.88v1.77h-6.88v-1.77z"/>
        <path class="cls-3" d="M350.14 111.78h7.22v1.78h-7.22v-1.78z"/>
        <path class="cls-3" d="M357.49 111.92h-7.48v.29h7.48v-.29zm28.29 1.3h-64.06v.67h64.06v-.67z"/>
        <path class="cls-3" d="M385.63 113.65h-1.11v.93h1.11v-.93z"/>
        <path class="cls-3" d="M385.43 114.4h-1.06v.8h1.06v-.8z"/>
        <path class="cls-3" d="M385.32 115.07h-.7v.76l.7-.45v-.31z"/>
        <path class="cls-3" d="M385.08 115.34h-.87v2.26h.87v-2.26z"/>
        <path class="cls-3" d="M385.84 117.5h-2.29v1.33h2.29v-1.33z"/>
        <path class="cls-3" d="M386.41 118.39h-1.14v1.55l1.14-.89v-.66z"/>
        <path class="cls-3" d="M386.08 118.57h-2.66v5.78h2.66v-5.78z"/>
        <path class="cls-3" d="M386.67 122.54h-1.05v.81h1.05v-.81z"/>
        <path class="cls-3" d="M384.27 123.06h39.14v37.01h-39.14v-37.01z"/>
        <path class="cls-3" d="M422.97 152.36l2.05.73v6.98h-2.05v-7.71z"/>
        <path class="cls-3" d="M424.1 156.68l1.59.73v2.66h-1.59v-3.39zm-11.34-34.08h7.8v1.76h-7.8v-1.76z"/>
        <path class="cls-3" d="M413.01 121.82h6.88v1.41h-6.88v-1.41z"/>
        <path class="cls-3" d="M420.03 122.03h-.64v.25h.64v-.25zm3.96 2.26h-1.03v.6h1.03v-.6z"/>
        <path class="cls-3" d="M423.84 124.75h-.79v.93l.79-.71v-.22zm-1.03 3.43h2.56v1.24h-2.56v-1.24z"/>
        <path class="cls-3" d="M425.21 129.29h-2.57v.49h2.57v-.49z"/>
        <path class="cls-3" d="M425.27 129.7h-2.58v.17h2.58v-.17z"/>
        <path class="cls-3" d="M425.06 129.8h-2.24v.86l2.24-.63v-.23zm-2.24-6.84h.74v.78h-.74v-.78z"/>
        <path class="cls-3" d="M424.14 130.18h-5.78v29.89h5.78v-29.89zm-102.27-16.53h1.11v.93h-1.11v-.93z"/>
        <path class="cls-3" d="M322.07 114.4h1.06v.8h-1.06v-.8z"/>
        <path class="cls-3" d="M322.18 115.07h.7v.76l-.7-.45v-.31z"/>
        <path class="cls-3" d="M322.41 115.34h.88v2.26h-.88v-2.26z"/>
        <path class="cls-3" d="M321.66 117.5h2.29v1.33h-2.29v-1.33z"/>
        <path class="cls-3" d="M321.09 118.39h1.14v1.55l-1.14-.89v-.66z"/>
        <path class="cls-3" d="M321.42 118.57h2.66v5.78h-2.66v-5.78z"/>
        <path class="cls-3" d="M320.83 122.54h1.05v.81h-1.05v-.81z"/>
        <path class="cls-3" d="M322.94 123.06h-38.85v37.01h38.85v-37.01z"/>
        <path class="cls-3" d="M284.53 152.36l-2.06.73v6.98h2.06v-7.71z"/>
        <path class="cls-3" d="M283.4 156.68l-1.59.73v2.66h1.59v-3.39zm11.34-34.08h-7.8v1.76h7.8v-1.76z"/>
        <path class="cls-3" d="M294.49 121.82h-6.88v1.41h6.88v-1.41z"/>
        <path class="cls-3" d="M287.47 122.03h.63v.25h-.63v-.25zm-3.96 2.26h1.03v.6h-1.03v-.6z"/>
        <path class="cls-3" d="M283.66 124.75h.79v.93l-.79-.71v-.22zm1.03 3.43h-2.56v1.24h2.56v-1.24z"/>
        <path class="cls-3" d="M282.29 129.29h2.56v.49h-2.56v-.49z"/>
        <path class="cls-3" d="M282.23 129.7h2.58v.17h-2.58v-.17z"/>
        <path class="cls-3" d="M282.44 129.8h2.24v.86l-2.24-.63v-.23zm2.24-6.84h-.74v.78h.74v-.78z"/>
        <path class="cls-3" d="M283.36 130.18h5.78v29.89h-5.78v-29.89zm39.05-16.62h62.68v46.51h-62.68v-46.51zM141.9 136.84h18.74v21.47H141.9v-21.47z"/>
        <path class="cls-3" d="M140.35 157.41h3.15v.9h-3.15v-.9zm1.69-21.72h12.43v2.41h-12.43v-2.41z"/>
        <path class="cls-3" d="M153.66 133.4l-3.03 1.96v.96h3.03v-2.92zm-12.09 3.16h.79v.75l-.79-.42v-.33zm.07 3.09h.64v.71l-.64-.49v-.22zm0 14.1h.64v.71l-.64-.49v-.22z"/>
        <path class="cls-3" d="M153.2 129.11l6.69-2.54v11.69h-6.69v-9.15z"/>
        <path class="cls-3" d="M156.65 127.34h2.22v.89h-2.22v-.89zm-4.29 1.62h1.81v.25h-1.81v-.25z"/>
        <path class="cls-3" d="M152.58 129.1h1.04v1.59l-1.04-.84v-.75zm7.05-8.31h13.16v8.26h-13.16v-8.26z"/>
        <path class="cls-3" d="M159.43 121.32h.55v1.06l-.55-.64v-.42z"/>
        <path class="cls-3" d="M159.28 120.62h4.18v.84h-4.18v-.84z"/>
        <path class="cls-3" d="M162.88 119.14h4.38v2.73h-4.38v-2.73z"/>
        <path class="cls-3" d="M167.08 117.77h5.53v4.32h-5.53v-4.32zm4.01-1.58l2.7-1.68v2.21h-2.7v-.53z"/>
        <path class="cls-3" d="M171.22 116.58h.84v.43h-.84v-.43z"/>
        <path class="cls-3" d="M171.89 116.37h2.15v2.32h-2.15v-2.32zm2.09-8.36l3.49-1.39v9h-3.49v-7.61z"/>
        <path class="cls-3" d="M176.06 106.19l3.49-1.38v9h-3.49v-7.62zm-2.3 4.39h.75v2h-1.12l.37-2z"/>
        <path class="cls-3" d="M173.63 112.36h1.17v4.87h-1.17v-4.87zm45.86 24.48h-18.74v21.47h18.74v-21.47z"/>
        <path class="cls-3" d="M221.04 157.41h-3.15v.9h3.15v-.9zm-1.69-21.72h-12.43v2.41h12.43v-2.41z"/>
        <path class="cls-3" d="M207.74 133.4l3.02 1.96v.96h-3.02v-2.92zm12.08 3.16h-.79v.75l.79-.42v-.33zm-.07 3.09h-.63v.71l.63-.49v-.22zm0 14.1h-.63v.71l.63-.49v-.22z"/>
        <path class="cls-3" d="M208.19 129.11l-6.69-2.54v11.9h6.69v-9.36z"/>
        <path class="cls-3" d="M204.74 127.34h-2.22v.89h2.22v-.89zm4.29 1.62h-1.81v.25h1.81v-.25z"/>
        <path class="cls-3" d="M208.81 129.1h-1.04v1.59l1.04-.84v-.75zm-7.05-8.31H188.6v8.26h13.16v-8.26z"/>
        <path class="cls-3" d="M201.96 121.32h-.55v1.06l.55-.64v-.42z"/>
        <path class="cls-3" d="M202.12 120.62h-4.18v.84h4.18v-.84z"/>
        <path class="cls-3" d="M198.51 119.14h-4.38v2.73h4.38v-2.73z"/>
        <path class="cls-3" d="M194.31 117.77h-5.53v4.32h5.53v-4.32zm-4.01-1.58l-2.7-1.68v2.21h2.7v-.53z"/>
        <path class="cls-3" d="M190.17 116.58h-.84v.43h.84v-.43z"/>
        <path class="cls-3" d="M189.5 116.37h-2.15v2.32h2.15v-2.32zm-2.09-8.36l-3.49-1.39v9h3.49v-7.61z"/>
        <path class="cls-3" d="M185.33 106.19l-3.49-1.38v9h3.49v-7.62zm2.3 4.39h-.75v2H188l-.37-2z"/>
        <path class="cls-3" d="M187.76 112.36h-1.17v4.87h1.17v-4.87zm-28.69 15.83h43.25v30.12h-43.25v-30.12z"/>
        <path class="cls-3" d="M172.38 115.37h16.63v19.76h-16.63v-19.76z"/>
        <path class="cls-3" d="M176.45 178.47h8.5v16.63h-8.5v-16.63zm4.25.5a1.27 1.27 0 0 1 1.26 1.2h-.26v.36h.3v2h-2.54v-2h.27v-.36h-.26a1.27 1.27 0 0 1 1.27-1.2zm-2.77 0c.45 0 .83.53.85 1.2h-.17v.36h.17v2h-1.7v-2h.18v-.36h-.17c0-.67.4-1.2.85-1.2zm5.53 0c.45 0 .83.53.85 1.2h-.17v.36h.18v2h-1.7v-2h.17v-.36h-.17c0-.67.4-1.2.85-1.2z" transform="translate(0 -78.06)"/>
        <path class="cls-3" d="M185.49 100.39h-9.59v-.29h9.59v.29z"/>
        <path class="cls-3" d="M180.82 93.71h-.57l-3.97 6.61h8.83l-3.97-6.61h-.32z"/>
        <path class="cls-3" d="M176.21 100.23h8.97v.52h-8.97v-.52z"/>
        <path class="cls-3" d="M180.18 170.71h1a.1.1 0 0 1 .1.1v1.3a.1.1 0 0 1-.1.1h-1a.1.1 0 0 1-.1-.1v-1.3a.1.1 0 0 1 .1-.1z" transform="translate(0 -78.06)"/>
        <path class="cls-3" d="M179.92 171.57h1.54v.1h-1.54v-.1zm.67-6.06h.22a.13.13 0 0 1 .13.13v5.29a.13.13 0 0 1-.13.13h-.22a.13.13 0 0 1-.13-.13v-5.29a.13.13 0 0 1 .13-.13z" transform="translate(0 -78.06)"/>
        <path class="cls-3" d="M179.22 167.35v-.22a.13.13 0 0 1 .13-.13H182a.13.13 0 0 1 .13.13v.22a.13.13 0 0 1-.13.13h-2.69a.13.13 0 0 1-.13-.13z" transform="translate(0 -78.06)"/>
        <path class="cls-3" d="M240.54 39.03h17.01v13.3h-17.01v-13.3z"/>
        <path class="cls-3" d="M228.88 51.63l13.02-10.82 8.52 11.61h-21.54v-.79z"/>
        <path class="cls-3" d="M237.84 42.42h2.79v2.34h-2.79v-2.34z"/>
        <path class="cls-3" d="M238.04 42.03h4v1.02h-4v-1.02z"/>
        <path class="cls-3" d="M239 40.75h2.4v1.57h-3.06l.66-1.57z"/>
        <path class="cls-3" d="M239.26 40.38h.78v.61h-.78v-.61zm1.38-8.92h.41v4.31l1 3.49h-1.41v-7.8zm28.56 20.17l-13.01-10.82-8.53 11.61h21.54v-.79z"/>
        <path class="cls-3" d="M260.24 42.42h-2.79v2.34h2.79v-2.34z"/>
        <path class="cls-3" d="M260.05 42.03h-4.01v1.02h4.01v-1.02z"/>
        <path class="cls-3" d="M259.08 40.75h-2.39v1.57h3.06l-.67-1.57z"/>
        <path class="cls-3" d="M258.83 40.38h-.79v.61h.79v-.61zm-1.38-8.92h-.41v4.31l-1.01 3.49h1.42v-7.8zm-8.11 8.09h-.59V1.92h.59v37.63z"/>
        <path class="cls-3" d="M247.58 19.57h2.92v.62h-2.92v-.62zm0 4.17h2.92v.62h-2.92v-.62zm0 3.86h2.92v.62h-2.92v-.62zm0 6h2.92v.63h-2.92v-.63z"/>
        <path class="cls-3" d="M246.25 34.03h5.58v.63h-5.58v-.63zM249.93 0h.27v3.98h-.27V0z"/>
        <path class="cls-3" d="M249.04 2.85h.98v.61h-.98v-.61zm.06.94h.92v.58h-.92v-.58z"/>
        <path class="cls-3" d="M248.37 82.77h1.34a.15.15 0 0 1 .15.15v.61a.15.15 0 0 1-.15.15h-1.34a.15.15 0 0 1-.15-.15v-.61a.15.15 0 0 1 .15-.15z" transform="translate(0 -78.06)"/>
        <path class="cls-3" d="M249.56 4.34h.24v.49h-.24v-.49z"/>
        <path class="cls-3" d="M247.88 83.2h.43a.09.09 0 0 1 .09.09v1.81a.09.09 0 0 1-.09.09h-.43a.09.09 0 0 1-.09-.09v-1.81a.09.09 0 0 1 .09-.09z" transform="translate(0 -78.06)"/>
        <path class="cls-3" d="M248.15 6.52h.74v.24h-.74v-.24z"/>
        <path class="cls-3" d="M248.58 87h.42a.06.06 0 0 1 .06.06v1a.06.06 0 0 1-.06.06h-.43a.06.06 0 0 1-.06-.06v-1a.06.06 0 0 1 .06-.06z" transform="translate(0 -78.06)"/>
        <path class="cls-3" d="M249.16 85.71h.55a.12.12 0 0 1 .12.12v1.9a.12.12 0 0 1-.12.12h-.55a.12.12 0 0 1-.12-.12v-1.9a.12.12 0 0 1 .12-.12z" transform="translate(0 -78.06)"/>
        <path class="cls-3" d="M249.68 86.11h.24a.15.15 0 0 1 .15.15v.34a.15.15 0 0 1-.15.15h-.24a.15.15 0 0 1-.15-.15v-.34a.15.15 0 0 1 .15-.15z" transform="translate(0 -78.06)"/>
        <path class="cls-3" d="M245.19 28.48h.26v10.83h-.26V28.48zm7.79 4.03h.27v6.95h-.27v-6.95z"/>
        <path class="cls-3" d="M242.46 116.33h.78c.09 0 .17.05.17.12v.67c0 .06-.08.12-.17.12h-.78c-.09 0-.16-.05-.16-.12v-.67c0-.07.07-.12.16-.12zm1.77 0h.77c.09 0 .17.05.17.12v.67c0 .06-.07.12-.17.12h-.78c-.09 0-.17-.05-.17-.12v-.67c0-.07.07-.12.17-.12zm1.77 0h.78c.09 0 .16.05.16.12v.67c0 .06-.08.12-.16.12H246c-.09 0-.16-.05-.16-.12v-.67c0-.07.08-.12.16-.12zm1.77 0h.78c.09 0 .17.05.17.12v.67c0 .06-.07.12-.17.12h-.78c-.09 0-.17-.05-.17-.12v-.67c0-.07.07-.12.17-.12zm1.77 0h.78c.09 0 .17.05.17.12v.67c0 .06-.08.12-.17.12h-.78c-.09 0-.17-.05-.17-.12v-.67c0-.07.07-.12.17-.12zm1.77 0h.78c.09 0 .16.05.16.12v.67c0 .06-.07.12-.16.12h-.78c-.09 0-.17-.05-.17-.12v-.67c0-.07.07-.12.17-.12zm1.77 0h.78c.09 0 .17.05.17.12v.67c0 .06-.07.12-.17.12h-.78c-.09 0-.17-.05-.17-.12v-.67c0-.07.07-.12.17-.12zm1.76 0h.78c.09 0 .17.05.17.12v.67c0 .06-.07.12-.17.12h-.78c-.09 0-.17-.05-.17-.12v-.67c0-.07.08-.12.17-.12z" transform="translate(0 -78.06)"/>
        <path class="cls-3" d="M248.82 35.75h-.27l-.2 3.57h.47v-3.57zm1.09 1.24h-.84v2.26h.84v-2.26zm1.91-.22h.17v2.26h-.17v-2.26zm1.28.92h.65v.99h-.65v-.99zm-8.64-.5h1.21v2.33h-1.21v-2.33z"/>
        <path class="cls-3" d="M244.66 36.99h.34v.47h-.34v-.47zm3.62-8.96l-.26-.05-2.01 11.39.27.05 2-11.39zm1.52 0l.27-.05 2 11.39-.26.05-2.01-11.39zm-1.51-3.88h1.5v3.76h-1.5v-3.76zm-22.36 39.64h46.23v93.59h-46.23V63.79z"/>
        <path class="cls-3" d="M229.18 52.1h21.02v12.48h-21.02V52.1z"/>
        <path class="cls-3" d="M228.81 132.89h.66a.1.1 0 0 1 .1.1v.72a.1.1 0 0 1-.1.1h-.66a.1.1 0 0 1-.1-.1V133a.1.1 0 0 1 .1-.1zm-2.43 4.73h1a.17.17 0 0 1 .16.16v.53a.16.16 0 0 1-.16.16h-1a.16.16 0 0 1-.16-.16v-.53a.17.17 0 0 1 .16-.16z" transform="translate(0 -78.06)"/>
        <path class="cls-3" d="M229.63 138.31H226a.17.17 0 0 0-.16.16v2a.17.17 0 0 0 .16.16h3.61a.17.17 0 0 0 .16-.16v-2a.16.16 0 0 0-.16-.16z" transform="translate(0 -78.06)"/>
        <path class="cls-3" d="M224.71 62.28h5.6v.56h-5.6v-.56z"/>
        <path class="cls-3" d="M224.98 62.68h4.43v1.17l-3.18.21-1.25-.92v-.46zm.44 10.78h2.21v1.17l-1.59.21-.62-.92v-.46zm43.49-21.36h-21.02v12.48h21.02V52.1z"/>
        <path class="cls-3" d="M269.27 132.89h-.66a.1.1 0 0 0-.1.1v.72a.1.1 0 0 0 .1.1h.66a.1.1 0 0 0 .1-.1V133a.1.1 0 0 0-.1-.1zm2.43 4.73h-1a.17.17 0 0 0-.16.16v.53a.16.16 0 0 0 .16.16h1a.16.16 0 0 0 .16-.16v-.53a.17.17 0 0 0-.16-.16z" transform="translate(0 -78.06)"/>
        <path class="cls-3" d="M268.45 138.31h3.61a.17.17 0 0 1 .16.16v2a.17.17 0 0 1-.16.16h-3.61a.17.17 0 0 1-.17-.16v-2a.17.17 0 0 1 .17-.16z" transform="translate(0 -78.06)"/>
        <path class="cls-3" d="M273.38 62.28h-5.61v.56h5.61v-.56z"/>
        <path class="cls-3" d="M273.11 62.68h-4.43v1.17l3.18.21 1.25-.92v-.46zm-.45 10.78h-2.2v1.17l1.58.21.62-.92v-.46zM8.9 143.43h12.67v15.29H8.9v-15.29zm54.42 1.52h15.43v12.53H63.32v-12.53z"/>
        <path class="cls-3" d="M76.13 149.08h15.15v9.23H76.13v-9.23zm194.49-5.9h6.67v14.63h-6.67v-14.63zm9.04-4.73h11.62v22.59h-11.62v-22.59zm-56.8 3.44h-7.75v17.86h7.75v-17.86zm193.4-3.23h12.19v20.54h-12.19v-20.54z"/>
        <path class="cls-3" d="M439.84 146.21h-14.6v11.55h14.6v-11.55z"/>
        <path class="cls-3" d="M432.62 143.8h7.87v7.86h-7.87v-7.86zm98.84.8h25.67V160h-25.67v-15.4z"/>
        <path class="cls-3" d="M560.01 151.82h-5.29v9.15h5.29v-9.15zm-26.75-7.99h10.55v3.9h-10.55v-3.9z"/>
        <path class="cls-3" d="M542.97 143.24H545v2.47h-2.03v-2.47zm-2.81.3h-3.35v1.13h3.35v-1.13zm-10.01 4.29l2.66-1.53v13.76h-2.66v-12.23zm27.37-3.6h-2.66v9.42h2.66v-9.42z"/>
    </g>
</svg>