<svg xmlns="http://www.w3.org/2000/svg" viewBox="0 0 539 877.3">
  <style>
		.c0 {fill:#eaeaea;}
		.b0 {fill:#f27621;}
		.s0{fill:#3c4481;}
		.s1{fill:#8e3983;}
		.s2{fill:#fa3640;}
		.s3{fill:#f69227;}
		.s4{fill:#edcb46;}
		.badge {fill: #f27621; transform: scale(1.01);transform-origin: center;}
	</style>
  <g class="badge">
    <circle cx="299.5" cy="608.5" r="182.9" fill="#eaeaea"/>
    <path class="st7" d="M328.6 779.3c-57.5 8.8-107.6-6.7-149.7-46.8-25.7-24.5-42.2-54.6-48.8-89.5-10.3-53.9 2-102.6 36.7-145.2 16.6-20.4 37.2-35.8 61-46.8.9-.4 1.8-1.2 3.1-.8-9.9 10.2-18.4 21.4-25 33.9-9.4 17.6-14.5 36.2-13.2 56.3 1.7 26.9 13.9 47.8 35.8 63.3 11.3 8 23.2 15 34 23.7 6.2 5 12.1 10.2 16.3 17.1 7.8 12.7-.5 26.1-10.9 28.9-8.8 2.4-18.9-3.1-22.3-11.9-3.1-8.2 1.2-18.7 9.4-22.9 1.1-.6 2.3-1 3.8-1.7-6.9-3.2-13.4-3.2-19.7.8-9.8 6.2-14.9 15.6-17 26.7-5.7 30.3 3.1 56.5 23.9 78.6 18.1 19.2 41.2 29.3 66.8 33.8 3.3.6 6.7 1 10 1.4 1.9.9 4.2-.7 5.8 1.1z"/>
    <path class="st7" d="M469.8 578.8c-6.3-36.6-22.9-68.1-49.5-94-29.9-29.1-65.8-45.6-107.5-48.9-26.8-2.1-52.8 1.9-77.8 11.8-1.8.7-2.9 1.8-3.9 3.5-5.7 10.1-9.1 20.9-10 32.4-1.3 16.8 2.2 32.4 13.1 45.7 7.9 9.6 18.4 15.7 29.3 21.1 10.5 5.2 21.4 9.5 31.7 15.1 15.2 8.3 26.8 19.6 31.5 37 2.6 9.7 3.6 19.7 5 29.7 1.2 8.8 2.3 17.6 6.6 25.6 3.4 6.3 8.2 10.9 15.3 12.8 6.3 1.6 12.7-.8 16.4-6.2 3.3-4.8 2.9-9.7-1.5-15.5-2-2.6-4.3-5-6.4-7.5-9.1-10.9-9-28.5.3-39.2.5-.5.7-1.6 1.9-1.3.1 1.5.1 3 .3 4.4 1.3 10.3 5.6 19 14.6 24.8 3.3 2.1 7.1 3.4 11.2 2.4 6.7-1.5 10.7-8.3 9.6-16-1-7.4-5.5-12.6-11-17.1-7-5.7-14.7-10.7-20.9-17.4-7.4-7.9-13.1-16.7-15.4-28.1 6.1 5.3 12.6 9 19.4 12.3 4.7 2.2 9.4 4.4 14.1 6.4 18.6 8.2 32.7 21.1 41.5 39.5 5.1 10.7 7.4 22.2 9.1 33.8 1.9 13.4 2.2 26.7-.7 40-4.7 21.5-14.1 40.6-28.9 57.3.7 0 1 .1 1.1 0 .6-.4 1.2-.9 1.8-1.3 19-16 34.2-35 45-57.4 16.1-33.7 21.1-69 14.7-105.7zm-188.7-39.6c-.2 1.3-.5 2.7-1.6 4-3.6-7.5-10.1-11.8-16.7-15.9-4.9-3-9.8-5.8-14.3-9.3-7.9-6.1-11.1-14.4-10.7-24.1.5-15.3 7.1-27.8 18.3-38 2.2-2 4.7-3.8 7.9-4.3-7.5 8.1-10.5 17.9-10.6 28.5-.1 12.1 4.5 22.4 13.3 30.7 3.7 3.5 7.2 7.1 10.1 11.4 3.3 5.1 5.4 10.6 4.3 17z"/>
  </g>
</svg>
