<svg xmlns="http://www.w3.org/2000/svg" viewBox="0 0 539 877.3">
  <style>
		.c0 {fill:#eaeaea;}
		.b0 {fill:#f27621;}
		.s0{fill:#3c4481;}
		.s1{fill:#8e3983;}
		.s2{fill:#fa3640;}
		.s3{fill:#f69227;}
		.s4{fill:#edcb46;}
		.badge {fill: #f27621; transform: scale(1.01);transform-origin: center;}
	</style>
  <g>
    <path class="s0" d="M538.3 606c-11-126.5-94.5-187.4-176.6-201-83.6-13.6-164.6 23.4-203.5 86.4 40.5-61.8 121-95.7 201.7-80.8 79.3 14.8 157.7 75.1 166.6 195.4h-46.9c0 242.7-362.2 242.7-362.2 0V309H23.5V0H0v606c10.9 200 165 280.3 298.4 270.5 135.8-9.8 250.8-109.8 239.9-270.5z" />
    <path class="s1" d="M526.5 606c-8.9-120.3-87.3-180.5-166.7-195.4-80.6-14.9-161.2 19-201.7 80.8 42.1-60.5 122.2-91.3 199.9-75.1 76.7 16 150 75.6 156.7 189.7h-35.1c0 242.7-362.2 242.7-362.2 0V309H47V0H23.5v606c8.7 184.3 150.1 260.7 274.9 252.8 126.7-7.9 236.9-100 228.1-252.8z" />
    <path class="s2" d="M514.8 606c-6.8-114.1-80.1-173.7-156.7-189.7-77.7-16.1-157.7 14.6-199.9 75.1 43.8-59.2 123.3-86.8 198.1-69.5 73.9 17.3 142 76.2 146.7 184.1h-23.4c0 242.7-362.2 242.7-362.2 0V309h-47V0H47v606c6.5 168.5 135.2 241 251.5 235.1 117.6-5.9 222.8-90.2 216.3-235.1z" />
    <path class="s3" d="M503.1 606c-4.8-107.9-72.9-166.8-146.8-184.1-74.7-17.4-154.3 10.3-198.1 69.5 91.6-118.9 326.4-85.9 333.1 114.6h-11.7c0 242.7-362.2 242.7-362.2 0V309H93.9V0H70.4v606c4.4 152.8 120.3 221.3 228 217.4 108.7-3.9 209-80.3 204.7-217.4z" />
    <path class="s4" d="M491.3 606c-6.7-200.5-241.5-233.5-333.1-114.6 96.6-116.3 320.6-73.5 321.4 115.1-.5 242.2-362.2 242-362.2-.5V0H93.9v606c2.2 137.1 105.4 201.7 204.5 199.7 99.7-2 195.1-70.5 192.9-199.7z" />
  </g>
  <g class="badge">
    <circle class="c0" cx="299.5" cy="608.5" r="182.9" />
    <path class="st6" d="M349 489.9c0-4.4-.1-8.9.1-13.3.1-2.2-.6-2.8-2.8-2.8-13.5.1-27.1 0-40.6.1-2.7 0-3.5-.7-3.3-3.3.2-2.9-.1-5.9.1-8.9.1-2.2-.7-2.9-2.9-2.9-8.7.1-17.3 0-26 .1-2.5 0-3.4-.6-3.2-3.2.2-3.5 0-7 .1-10.5.1-1.9-.6-2.3-2.4-2.3-5.6.1-11.2 0-16.7-.4 48.3-13.3 94.8-8.8 137.4 17.9 59 36.9 87.7 91.2 83.2 160.6-4.1 63.1-36.9 109.4-91.9 141.2V662.1l-.1.1c2.4-1.7 5.1-.9 7.7-1 7.9-.2 7.2.8 7.2-7.1 0-6.4-.1-12.9 0-19.3.1-3.9.7-4.5 4.7-4.6h7c1.2 0 2.4.1 3.1-1.1.5-1.3.4-2.7.4-4.1V510.8c0-1.4.1-2.8-.5-4-.9-1.2-2.2-1-3.5-1h-7.6c-2.4 0-3.5-1.2-3.6-3.5-.1-2.5 0-5.1-.1-7.6-.1-3.6-.3-4-4-4h-37c-1.6 0-3.3.2-4.8-.8zM239.3 662.2c0 34.8-.1 69.5-.1 104.3v3.7c-1 .5-1.8-.1-2.5-.4-58.1-24.5-95-67.3-106.9-129.4-13.5-70.1 15.9-137.1 75.2-176.8l2.1-1.5c1.4.6.8 1.8.8 2.8 0 23.3 0 46.5.1 69.8 0 2.5-.8 3.5-3.2 3.5h-7.6c-1.2 0-2.4-.1-3.2 1-.7 1.3-.5 2.7-.5 4v66.2c0 1.4-.1 2.8.5 4 .8 1.1 2 1 3.2 1h6.3c4.7 0 5.2.5 5.2 5.3V639c0 6.9-.4 6.3 6.3 6.4 2.9.1 5.9-.8 8.6 1l-.1-.1c1.7 2.4.9 5.1 1 7.6.2 8.1-.8 7.1 7.3 7.3 2.5.1 5.2-.7 7.5 1z"/>
    <path class="st6" d="M348.7 521.4c0 9.5-.1 19 0 28.5 0 2.2-.7 2.9-2.9 2.9-8.6-.1-17.1-.1-25.7 0-2.3 0-2.8-.8-2.8-2.9.1-19.2.1-38.5 0-57.7 0-2.1.6-2.7 2.7-2.6 8.7.1 17.3.1 26 0 2.1 0 2.7.7 2.6 2.7 0 9.7.1 19.4.1 29.1zM255 459.3c.1 1.4.2 2.7.2 4.1 0 18.5 0 36.9.1 55.4 0 2.4-.6 3-3 3-9.4-.3-18.8.3-28.1-.3-.5-.9-.3-1.9-.3-2.8 0-18.9 0-37.7-.1-56.6 0-2.5.7-3.2 3.2-3.1 8.4.2 16.9 0 25.3.1.8-.1 1.8-.4 2.7.2zm46.7 38.7c0 7.1-.1 14.2 0 21.2 0 1.9-.6 2.6-2.5 2.5-8.7-.1-17.3-.1-26 0-1.8 0-2.4-.5-2.4-2.3.1-14.2.1-28.3 0-42.5 0-1.8.5-2.4 2.3-2.4 8.7.1 17.3.1 26 0 2.3 0 2.6.9 2.6 2.8V498z"/>
    <path class="st6" d="M255 459.3c-9.2 0-18.4.1-27.5 0-2.6 0-3.4.7-3.4 3.3.1 19.6 0 39.2 0 58.8-1.1-.9-.5-2.2-.5-3.3 0-18.5-.1-36.9 0-55.4 0-2.5-.6-3.4-3.1-3.2-2.6.2-5.2 0-8-.6l10.5-5.7c.3.4.5.5.5.7.2 4.9.2 4.9 5.1 4.9H252c.9.1 2-.3 3 .5zm140.5 108.9c-1.4-1-3-.8-4.5-.8h-20.8c-1.4 0-2.7.2-4-.5-1.1-.8-1-2-1-3.1 0-2.7.1-5.5-.1-8.2-.1-1.3-.3-2.8-1.8-3-4.8-.5-9.6-1.3-14.3.5 0 4.3-.1 8.7-.1 13 0 1.4 0 2.4-1.9 2.4-15-.1-30-.1-44.9-.2-.8.9-.9 2.1-.9 3.3v8.2c0 1.1.1 2.3-1 3.1-1.2.5-2.5.4-3.7.4h-53.2c-1.9.1-3-.7-2.9-2.8v-8.2c0-1.8.8-2.7 2.7-2.8h53.5c1.7 0 3.6.4 5.1-1 .3-9.1.1-18.2.1-27.3 0-3.4 0-3.5-3.4-3.5h-86.2c-4.7 0-4.8 0-4.8 4.7v68.5c0 4.1.7 4.7 4.8 4.8 2.2.1 4.4.1 6.7 0 2.5-.1 3.6 1 3.6 3.6-.1 5.1-.1 10.1 0 15.2.1 3.8-.5 7.6.4 11.4.2.4.4.7.8.9 3.6 1.1 7.3.4 11 .5 3.5.1 3.6.3 3.8 3.8s-.6 7.1.5 10.6l.4.4c9.6 0 19.2 0 28.8-.1 2.1 0 2.4.8 2.4 2.6-.1 3.5-.1 7 0 10.5.1 2-.5 2.8-2.6 2.7-3.3-.2-6.6.1-9.8-.1-2.5-.1-3.2.6-3.2 3.1.1 30.6.1 61.3 0 91.9 0 2.1.5 3.1 2.8 3.7 35.1 8.5 69.5 6.5 103.4-6 2.6-1 3.3-2.3 3.3-5-.1-33.4 0-66.8-.1-100.2 0-2.6.6-3.5 3.3-3.3 4.2.3 8.4.1 12.7.1.1-.2.3-.3.4-.5.7-1.5.6-3.1.6-4.7V635c0-3.3.4-3.6 3.7-3.7 2.1-.1 4.2 0 6.3 0 4.4-.1 5.1-.7 5.1-5.2V572c-.3-1.2-.1-2.6-1-3.8zm-57.3 128.2c-8.6-.2-17.1 0-25.7-.1-2.4 0-3 .6-3 3 .1 13.9 0 27.9.1 41.8 0 2.4-.6 3.1-3 3-3.4-.2-6.8-.2-10.1 0-2.3.1-2.7-.8-2.7-2.9.1-9.6 0-19.2 0-28.8 0-9.7.1-19.4 0-29.2 0-2 .5-2.7 2.6-2.7 14 .1 28.1.1 42.1 0 2.1 0 2.7.7 2.6 2.7-.1 3.4-.2 6.8 0 10.1.2 2.4-.5 3.2-2.9 3.1zm57.4-167c0 7-.1 13.9 0 20.9 0 1.9-.6 2.6-2.5 2.5-8.8-.1-17.5-.1-26.3 0-2 0-2.5-.7-2.5-2.6.1-14.2.1-28.3 0-42.5 0-1.8.6-2.3 2.4-2.3 8.9.1 17.7.1 26.6 0 1.8 0 2.3.6 2.3 2.4-.1 7.2 0 14.4 0 21.6z"/>
  </g>
</svg>
