<svg id="logo" xmlns="http://www.w3.org/2000/svg" xmlns:xlink="http://www.w3.org/1999/xlink" viewBox="0 0 254.6 243.7">
	<style>
		.st3{fill:#eb8136}.st4{fill:#eb7d34}.st5{fill:#eb7a2f}.st6{enable-background:new}.st7{fill:#fff}
	</style>
	<g id="Layer_3">
		<circle class="st3" cx="10.9" cy="8.9" r="8.9"/>
		<circle class="st3" cx="34.1" cy="8.9" r="8.9"/>
		<circle class="st3" cx="57.2" cy="8.9" r="8.9"/>
		<circle class="st3" cx="80.4" cy="8.9" r="8.9"/>
		<circle class="st3" cx="103.6" cy="8.9" r="8.9"/>
		<circle class="st3" cx="173.1" cy="8.9" r="8.9"/>
		<circle class="st3" cx="196.3" cy="8.9" r="8.9"/>
		<circle class="st3" cx="219.5" cy="8.9" r="8.9"/>
		<circle class="st3" cx="10.9" cy="32.1" r="8.9"/>
		<circle class="st3" cx="34.1" cy="32.1" r="8.9"/>
		<circle class="st3" cx="57.2" cy="32.1" r="8.9"/>
		<circle class="st3" cx="80.4" cy="32.1" r="8.9"/>
		<circle class="st3" cx="103.6" cy="32.1" r="8.9"/>
		<circle class="st3" cx="149.9" cy="32.1" r="8.9"/>
		<circle class="st3" cx="173.1" cy="32.1" r="8.9"/>
		<circle class="st3" cx="196.3" cy="32.1" r="8.9"/>
		<circle class="st3" cx="219.5" cy="32.1" r="8.9"/>
		<circle class="st3" cx="242.7" cy="32.1" r="8.9"/>
		<circle class="st3" cx="10.9" cy="55.3" r="8.9"/>
		<circle class="st3" cx="34.1" cy="55.3" r="8.9"/>
		<circle class="st3" cx="149.9" cy="55.3" r="8.9"/>
		<circle class="st3" cx="173.1" cy="55.3" r="8.9"/>
		<circle class="st3" cx="219.5" cy="55.3" r="8.9"/>
		<circle class="st3" cx="242.7" cy="55.3" r="8.9"/>
		<circle class="st3" cx="10.9" cy="78.4" r="8.9"/>
		<circle class="st3" cx="34.1" cy="78.4" r="8.9"/>
		<circle class="st3" cx="57.2" cy="78.4" r="8.9"/>
		<circle class="st3" cx="80.4" cy="78.4" r="8.9"/>
		<circle class="st3" cx="149.9" cy="78.4" r="8.9"/>
		<circle class="st3" cx="173.1" cy="78.4" r="8.9"/>
		<circle class="st3" cx="196.3" cy="78.4" r="8.9"/>
		<circle class="st3" cx="219.5" cy="78.4" r="8.9"/>
		<circle class="st3" cx="242.7" cy="78.4" r="8.9"/>
		<circle class="st3" cx="34.1" cy="101.6" r="8.9"/>
		<circle class="st3" cx="57.2" cy="101.6" r="8.9"/>
		<circle class="st3" cx="80.4" cy="101.6" r="8.9"/>
		<circle class="st3" cx="103.6" cy="101.6" r="8.9"/>
		<circle class="st3" cx="173.1" cy="101.6" r="8.9"/>
		<circle class="st3" cx="196.3" cy="101.6" r="8.9"/>
		<circle class="st3" cx="219.5" cy="101.6" r="8.9"/>
		<circle class="st3" cx="242.7" cy="101.6" r="8.9"/>
		<circle class="st3" cx="80.4" cy="124.8" r="8.9"/>
		<circle class="st3" cx="103.6" cy="124.8" r="8.9"/>
		<circle class="st3" cx="219.5" cy="124.8" r="8.9"/>
		<circle class="st3" cx="242.7" cy="124.8" r="8.9"/>
		<circle class="st4" cx="34.1" cy="148" r="8.9"/>
		<circle class="st4" cx="57.2" cy="148" r="8.9"/>
		<circle class="st4" cx="80.4" cy="148" r="8.9"/>
		<circle class="st4" cx="103.6" cy="148" r="8.9"/>
		<circle class="st4" cx="173.1" cy="148" r="8.9"/>
		<circle class="st4" cx="196.3" cy="148" r="8.9"/>
		<circle class="st4" cx="219.5" cy="148" r="8.9"/>
		<circle class="st4" cx="242.7" cy="148" r="8.9"/>
		<circle class="st5" cx="34.1" cy="171.2" r="8.9"/>
		<circle class="st5" cx="57.2" cy="171.2" r="8.9"/>
		<circle class="st5" cx="80.4" cy="171.2" r="8.9"/>
		<circle class="st5" cx="173.1" cy="171.2" r="8.9"/>
		<circle class="st5" cx="196.3" cy="171.2" r="8.9"/>
		<circle class="st5" cx="219.5" cy="171.2" r="8.9"/>
		<g class="st6">
			<path class="st7" d="M14 229.5H2.5v-34.4H14c7.1 0 11 4.6 11 10.3v14.2c-.1 5.8-3.9 9.9-11 9.9zm3.5-23.9c0-2.7-1.3-4.3-4.1-4.3H9.9v22.1h3.5c2.8 0 4.1-1.6 4.1-4.3v-13.5zm26.1 23.9l-1.4-6.8h-7.1l-1.4 6.8h-6.9l8.1-34.4H43l8 34.4h-7.4zm-4.8-24.8l-2.6 12.6h5.1l-2.5-12.6zm26.8 10.6v14.3h-7.4v-14.3l-8.9-20.2h7.8l5.2 13.6 5-13.6h7.4l-9.1 20.2zm20.5 15.1c-6.8 0-11.1-3.9-11.1-9.8v-1.8h6.8v1.1c0 2.9 1.4 4.4 4.1 4.4 2.6 0 3.9-1.5 3.9-3.9 0-2.5-2-4-5.9-6.1-4.1-2.2-8.5-5-8.5-10.2 0-5.3 3.8-10 10.8-10 6.3 0 10.5 4.2 10.5 9.7v1.4H90v-1.1c0-2.3-1.3-4.1-3.9-4.1-2.2 0-3.6 1.3-3.6 3.4 0 2.4 2 3.8 6.4 6.1 4.8 2.6 8.2 5.3 8.2 10.3.1 5.8-4.1 10.6-11 10.6z"/>
			</g>
			<g class="st6">
			<path class="st7" d="M114.1 230.4c-4.7 0-7.8-4.4-6.7-11s5.8-11 10.5-11 7.8 4.4 6.7 11-5.8 11-10.5 11zm3.6-20.3c-3.5 0-5.4 2.5-6.7 9.3-1.2 6.9-.1 9.3 3.4 9.3 3.4 0 5.4-2.4 6.6-9.3 1.2-6.8.2-9.3-3.3-9.3zm15.9-4.3c1.3-7.4 3.3-11.6 8.7-11.6 3.3 0 4.6 2 4.3 3.7-.2 1.3-1.2 2.3-2.3 2.3s-1.8-.9-1.7-2c.2-.9.9-1.7 1.8-2-.2-.4-1.1-.8-2.3-.8-1.9 0-3.7 1.1-4.2 4.1l-1.7 9.7c2.2-.1 3.6-.1 4-.1.4 0 .7.3.7.9-.2.6-.6.9-1 .9-.5 0-1.8-.1-4-.1l-3.6 20.4c-1.9 10.7-5.4 12.1-8 12.1-2.4 0-3.7-2-3.4-3.7.2-1.2 1-2 2.1-2 1 0 1.7.8 1.5 1.9-.2.8-.8 1.5-1.7 1.8.2.5.9.9 1.5.9 1.7 0 2.9-.8 3.7-5.5l4.5-25.8c-2 0-3.1.1-3.6.1-.4 0-.7-.3-.6-.9.1-.6.5-.9.9-.9s1.5 0 3.6.1l.8-3.5z"/>
			</g>
			<g class="st6">
			<path class="st7" d="M165.1 230.4c-7.3 0-11.5-4.7-11.5-10.7v-14.9c0-5.9 4.2-10.7 11.5-10.7 7.2 0 10.9 4.3 10.9 10v3.4h-6.6v-3.2c0-2.4-1.4-3.9-4.1-3.9s-4.1 1.6-4.1 3.8v16.1c0 2.2 1.4 3.8 4.1 3.8s4.1-1.6 4.1-3.9V217h6.6v3.4c0 5.7-3.7 10-10.9 10zm25.9 0c-7.1 0-11.3-4.4-11.3-10.5v-15.1c0-6.1 4.2-10.5 11.3-10.5 7.1 0 11.3 4.4 11.3 10.5v15.1c0 6.1-4.2 10.5-11.3 10.5zm3.9-26c0-2.3-1.4-3.9-3.9-3.9-2.4 0-3.8 1.6-3.8 3.9v15.9c0 2.3 1.4 3.9 3.8 3.9 2.5 0 3.9-1.6 3.9-3.9v-15.9zm23.5 25.1h-11.5v-34.4h11.5c7.1 0 11 4.6 11 10.3v14.2c0 5.8-3.9 9.9-11 9.9zm3.6-23.9c0-2.7-1.3-4.3-4.1-4.3h-3.5v22.1h3.5c2.8 0 4.1-1.6 4.1-4.3v-13.5zm12 23.9v-34.4h19.2v6.2h-11.8v7.6h8.1v5.6h-8.1v8.6h11.8v6.5H234z"/>
		</g>
	</g>
</svg>