<?xml version="1.0" standalone="no"?>
<!DOCTYPE svg PUBLIC "-//W3C//DTD SVG 1.1//EN" "http://www.w3.org/Graphics/SVG/1.1/DTD/svg11.dtd" >
<svg xmlns="http://www.w3.org/2000/svg">
<metadata>
Created by FontPrep 20130207 at Sat Oct 10 18:05:55 2015
 By Matthew Higley
Joe Prince A^(c)2013. All Rights Reserved.
</metadata>
<defs>
<font id="618c33abdbbe8e13f43a4162914a25fc" horiz-adv-x='1024' >
  <font-face 
    font-family="KlinicSlab-BoldItalic"
    font-weight="400"
    font-style="italic"
    font-stretch="normal"
    units-per-em="2048"
    panose-1="0 0 0 0 0 0 0 0 0 0"
    ascent="1536"
    descent="-512"
    x-height="885"
    cap-height="1247"
    bbox="-227 -612 2322 1976"
    underline-thickness="102"
    underline-position="-102"
    unicode-range="U+0020-FB06"
  />
<missing-glyph horiz-adv-x="870" 
d="M119 180l377 443l-222 442zM973 1065l-377 -442l221 -443zM952 1161h-626l231 -465zM135 86h627l-232 463zM0 0l219 1247h871l-220 -1247h-870z" />
    <glyph glyph-name="f_f" unicode="ff" horiz-adv-x="1288" 
d="M768 1270q-225 0 -258 -189l-35 -196h395l43 248q6 47 31 114q-108 23 -176 23zM-68 -430q-72 0 -139 14l33 178q41 -10 98 -10t93 28t51 107l143 811h-166l33 187h166l37 202q66 362 467 363q133 0 307 -45q90 66 239 65q78 0 170 -18l-30 -172q-57 8 -119 8
q-142 0 -170 -160l-43 -243h231l-33 -187h-231l-135 -764q-57 -330 -369 -329q-72 0 -139 14l33 178q41 -10 98 -10t93 28t50 107l138 776h-396l-141 -798q-58 -330 -369 -330z" />
    <glyph glyph-name="fi" unicode="fi" horiz-adv-x="1187" 
d="M-68 -430q-72 0 -139 14l33 178q41 -10 98 -10t93 28t51 107l143 811h-166l33 187h166l41 227q63 358 469 358q129 0 329 -49l-49 -168q-162 37 -260 37q-227 0 -260 -184l-39 -221h600l-114 -639q-16 -94 69 -94q45 0 90 16l-28 -170q-78 -20 -148 -21q-137 0 -186 77
t-27 202l80 442h-369l-141 -798q-58 -330 -369 -330z" />
    <glyph glyph-name="fl" unicode="fl" horiz-adv-x="1189" 
d="M946 -23q-143 0 -189 78t-26 201l180 1022q-90 12 -137 12q-227 0 -260 -184l-39 -221h232l-33 -187h-232l-141 -798q-57 -330 -369 -330q-72 0 -139 14l33 178q41 -10 98 -10t93 28t51 107l143 811h-166l33 187h166l41 227q63 358 469 358q90 0 213 -22h207l-213 -1202
q-16 -94 67 -94q47 0 92 16l-28 -170q-78 -21 -146 -21z" />
    <glyph glyph-name="f_f_i" unicode="ffi" horiz-adv-x="1814" 
d="M768 1270q-225 0 -258 -189l-35 -196h395l41 227q12 70 41 133q-102 25 -184 25zM-68 -430q-72 0 -139 14l33 178q41 -10 98 -10t93 28t51 107l143 811h-166l33 187h166l37 202q66 362 467 363q152 0 335 -53q113 74 297 73q129 0 330 -49l-49 -168q-162 37 -260 37
q-227 0 -260 -184l-39 -221h600l-115 -639q-16 -94 70 -94q45 0 90 16l-29 -170q-78 -20 -147 -21q-137 0 -187 77q-49 77 -26 202l80 442h-369l-135 -764q-57 -330 -369 -329q-72 0 -139 14l33 178q41 -10 98 -10t93 28t50 107l138 776h-396l-141 -798q-58 -330 -369 -330z
" />
    <glyph glyph-name="f_f_l" unicode="ffl" horiz-adv-x="1816" 
d="M768 1270q-225 0 -258 -189l-35 -196h395l41 227q12 70 41 133q-102 25 -184 25zM-68 -430q-72 0 -139 14l33 178q41 -10 98 -10t93 28t51 107l143 811h-166l33 187h166l37 202q66 362 467 363q152 0 335 -53q113 74 297 73q90 0 213 -22h207l-213 -1202q-16 -94 68 -94
q47 0 92 16l-29 -170q-78 -20 -145 -21q-143 0 -190 78q-46 78 -25 201l180 1022q-90 12 -137 12q-227 0 -260 -184l-39 -221h231l-33 -187h-231l-135 -764q-57 -330 -369 -329q-72 0 -139 14l33 178q41 -10 98 -10t93 28t50 107l138 776h-396l-141 -798q-58 -330 -369 -330
z" />
    <glyph glyph-name="f_f_b" unicode="ffb" horiz-adv-x="2357" 
d="M768 1270q-225 0 -258 -189l-35 -196h395l41 227q12 70 41 133q-102 25 -184 25zM1782 152q118 0 192 100t74 230q0 252 -184 251q-119 0 -193 -100q-74 -99 -74 -229q0 -252 185 -252zM-68 -430q-72 0 -139 14l33 178q41 -10 98 -10t93 28t51 107l143 811h-166l33 187
h166l37 202q66 362 467 363q152 0 335 -53q113 74 297 73q90 0 213 -22h207l-117 -647q121 106 267 106t240 -105q96 -105 96 -317q0 -211 -134 -359t-326 -148t-276 155l-24 -133h-213l225 1278q-90 12 -137 12q-227 0 -260 -184l-39 -221h231l-33 -187h-231l-135 -764
q-57 -330 -369 -329q-72 0 -139 14l33 178q41 -10 98 -10t93 28t50 107l138 776h-396l-141 -798q-58 -330 -369 -330z" />
    <glyph glyph-name="f_f_h" unicode="ffh" horiz-adv-x="2381" 
d="M768 1270q-225 0 -258 -189l-35 -196h395l41 227q12 70 41 133q-102 25 -184 25zM565 -395q-72 0 -139 14l33 178q41 -10 98 -10t93 28t50 107l138 776h-396l-141 -798q-57 -330 -369 -330q-72 0 -139 14l33 178q41 -10 98 -10t93 28t51 107l143 811h-166l33 187h166
l37 202q66 362 467 363q152 0 335 -53q113 74 297 73q90 0 213 -22h207l-119 -678q163 137 301 137t204 -81t42 -216l-65 -364q-16 -94 69 -94q45 0 90 16l-28 -170q-78 -20 -148 -21q-141 0 -186 79t-25 200l62 338q23 131 -82 131q-111 0 -268 -150l-103 -575h-231
l225 1278q-90 12 -137 12q-227 0 -260 -184l-39 -221h231l-33 -187h-231l-135 -764q-58 -329 -369 -329z" />
    <glyph glyph-name="f_f_j" unicode="ffj" horiz-adv-x="1759" 
d="M768 1270q-225 0 -258 -189l-35 -196h395l41 227q12 70 41 133q-102 25 -184 25zM-68 -430q-72 0 -139 14l33 178q41 -10 98 -10t93 28t51 107l143 811h-166l33 187h166l37 202q66 362 467 363q152 0 335 -53q113 74 297 73q129 0 330 -49l-49 -168q-162 37 -260 37
q-227 0 -260 -184l-39 -221h600l-162 -916q-57 -330 -356 -329q-70 0 -152 24l33 176q55 -18 106 -18t86 28t50 107l129 741h-367l-135 -764q-57 -330 -369 -329q-72 0 -139 14l33 178q41 -10 98 -10t93 28t50 107l138 776h-396l-141 -798q-58 -330 -369 -330z" />
    <glyph glyph-name="f_f_k" unicode="ffk" horiz-adv-x="2316" 
d="M768 1270q-225 0 -258 -189l-35 -196h395l41 227q12 70 41 133q-102 25 -184 25zM-68 -430q-72 0 -139 14l33 178q41 -10 98 -10t93 28t51 107l143 811h-166l33 187h166l37 202q66 362 467 363q152 0 335 -53q113 74 297 73q90 0 213 -22h207l-114 -645q141 104 265 104
q125 0 199 -60t74 -175t-83 -195t-218 -115l76 -133q43 -73 96 -73t131 41l-33 -179q-76 -41 -151 -41q-150 0 -238 162l-127 238l17 84q127 8 216 57t89 130q1 81 -103 81t-241 -106l-111 -623h-231l223 1278q-86 12 -135 12q-227 0 -260 -184l-39 -221h231l-33 -187h-231
l-135 -764q-57 -330 -369 -329q-72 0 -139 14l33 178q41 -10 98 -10t93 28t50 107l138 776h-396l-141 -798q-58 -330 -369 -330z" />
    <glyph glyph-name="f_f_t" unicode="fft" horiz-adv-x="1939" 
d="M510 1081l-35 -196h395l43 248q6 47 31 114q-109 23 -176 23q-225 -1 -258 -189zM565 -395q-72 0 -139 14l33 178q41 -10 98 -10t93 28t50 107l138 776h-396l-141 -798q-57 -330 -369 -330q-72 0 -139 14l33 178q41 -10 98 -10t93 28t51 107l143 811h-166l33 187h166
l37 202q66 362 467 363q133 0 307 -45q90 66 239 65q78 0 170 -18l-30 -172q-57 8 -119 8q-142 0 -170 -160l-43 -243h366l39 225h234l-41 -225h235l-32 -183h-234l-82 -464q-8 -46 17 -64q24 -18 78 -18t171 41l-30 -170q-106 -49 -241 -49q-134 0 -190 77q-56 78 -34 203
l78 444h-367l-135 -768q-58 -329 -369 -329z" />
    <glyph glyph-name="f_b" unicode="fb" horiz-adv-x="1730" 
d="M1155 152q119 0 193 100t74 230q-1 251 -185 251q-119 0 -193 -100q-74 -99 -74 -229q0 -252 185 -252zM1323 907q145 0 241 -105t95 -317t-135 -360t-326 -148t-274 156l-25 -133h-213l225 1278q-90 12 -137 12q-227 0 -260 -184l-39 -221h232l-33 -187h-232l-141 -798
q-57 -330 -369 -330q-72 0 -139 14l33 178q41 -10 98 -10t93 28t51 107l143 811h-166l33 187h166l41 227q63 358 469 358q90 0 213 -22h207l-117 -647q121 106 266 106z" />
    <glyph glyph-name="f_h" unicode="fh" horiz-adv-x="1755" 
d="M774 1290q-227 0 -260 -184l-39 -221h232l-33 -187h-232l-141 -798q-57 -330 -369 -330q-72 0 -139 14l33 178q41 -10 98 -10t93 28t51 107l143 811h-166l33 187h166l41 227q63 358 469 358q90 0 213 -22h207l-119 -678q164 137 301 137t204 -81t42 -216l-66 -364
q-16 -94 70 -94q45 0 90 16l-29 -170q-78 -20 -147 -21q-141 0 -187 79q-45 79 -24 200l61 338q23 131 -82 131q-111 0 -268 -150l-102 -575h-232l225 1278q-90 12 -137 12z" />
    <glyph glyph-name="f_j" unicode="fj" horiz-adv-x="1132" 
d="M-68 -430q-72 0 -139 14l33 178q41 -10 98 -10t93 28t51 107l143 811h-166l33 187h166l41 227q63 358 469 358q129 0 329 -49l-49 -168q-162 37 -260 37q-227 0 -260 -184l-39 -221h600l-168 -951q-57 -330 -356 -329q-70 0 -152 24l33 176q54 -18 106 -18t87 28t49 107
l135 776h-367l-141 -798q-58 -330 -369 -330z" />
    <glyph glyph-name="f_k" unicode="fk" horiz-adv-x="1689" 
d="M774 1290q-227 0 -260 -184l-39 -221h232l-33 -187h-232l-141 -798q-57 -330 -369 -330q-72 0 -139 14l33 178q41 -10 98 -10t93 28t51 107l143 811h-166l33 187h166l41 227q63 358 469 358q90 0 213 -22h207l-115 -645q141 104 265 104t199 -60t75 -175t-84 -195
q-83 -80 -218 -115l76 -133q43 -73 96 -73t131 41l-32 -179q-76 -41 -152 -41q-150 0 -237 162l-127 238l16 84q127 8 216 57t89 130t-104 81t-240 -106l-110 -623h-232l223 1278q-86 12 -135 12z" />
    <glyph glyph-name="f_t" unicode="ft" horiz-adv-x="1312" 
d="M-68 -430q-72 0 -139 14l33 178q41 -10 98 -10t93 28t51 107l143 811h-166l33 187h166l43 248q31 180 125 259t256 78q78 0 170 -18l-31 -172q-57 8 -119 8q-140 0 -170 -160l-43 -243h367l39 225h233l-41 -225h236l-33 -183h-234l-81 -464q-8 -45 16 -64q25 -18 79 -18
t171 41l-31 -170q-106 -49 -240 -49t-191 77q-56 78 -34 203l78 444h-367l-141 -802q-58 -330 -369 -330z" />
    <glyph glyph-name="t_t" unicode="tt" horiz-adv-x="1339" 
d="M982 -23q-134 0 -190 78t-34 203l78 444h-412l-82 -464q-8 -45 16 -64q25 -18 79 -18t171 41l-30 -170q-106 -49 -241 -49t-191 77q-56 78 -33 203l77 444h-151l33 183h151l39 225h234l-41 -225h413l39 225h234l-41 -225h235l-32 -183h-234l-82 -464q-8 -46 17 -64
q24 -18 78 -18t171 41l-30 -170q-107 -50 -241 -50z" />
    <glyph glyph-name=".notdef" horiz-adv-x="870" 
d="M119 180l377 443l-222 442zM973 1065l-377 -442l221 -443zM952 1161h-626l231 -465zM135 86h627l-232 463zM0 0l219 1247h871l-220 -1247h-870z" />
    <glyph glyph-name=".null" horiz-adv-x="0" 
 />
    <glyph glyph-name="nonmarkingreturn" horiz-adv-x="681" 
 />
    <glyph glyph-name="space" unicode=" " horiz-adv-x="436" 
 />
    <glyph glyph-name="exclam" unicode="!" horiz-adv-x="544" 
d="M207 -20q-59 0 -101 40q-40 40 -40 100t40 101t100 41t101 -41t41 -100t-41 -100t-100 -41zM152 360l118 887h254l-192 -887h-180z" />
    <glyph glyph-name="quotedbl" unicode="&#x22;" horiz-adv-x="782" 
d="M508 784l86 490h207l-86 -490h-207zM158 784l86 490h207l-86 -490h-207z" />
    <glyph glyph-name="numbersign" unicode="#" horiz-adv-x="1175" 
d="M430 397h229l80 260h-227zM135 25l70 225h-170l26 147h191l82 260h-176l26 148h199l70 227h176l-72 -227h229l72 227h178l-71 -227h180l-27 -148h-203l-81 -260h188l-27 -147h-207l-71 -225h-178l71 225h-229l-70 -225h-176z" />
    <glyph glyph-name="dollar" unicode="$" horiz-adv-x="1005" 
d="M342 775q0 -50 38 -81t109 -59l46 256q-89 -2 -141 -34t-52 -82zM668 262q0 49 -41 82t-121 66l-47 -267q209 0 209 119zM139 350q55 0 88 -28t33 -66q0 -37 -16 -66q76 -37 157 -45l52 283q-76 29 -118 47t-98 55q-108 71 -108 204q0 132 104 223t306 92h22l25 131h57
l-25 -136q140 -16 232 -75t92 -142q0 -49 -33 -87t-87 -38t-89 31t-35 68t13 61q-57 18 -121 27l-47 -275q61 -24 81 -30t72 -30q53 -24 76 -44q24 -20 54 -51q53 -54 54 -173q0 -118 -100 -211t-313 -93q-25 0 -37 2l-33 -193h-57l35 197q-154 16 -255 81t-102 156
q0 51 33 88t88 37z" />
    <glyph glyph-name="percent" unicode="%" horiz-adv-x="1384" 
d="M236 -6l-84 84l987 923l82 -83zM985 119q51 0 86 44t35 126q0 117 -80 117q-51 0 -86 -44t-35 -126q0 -117 80 -117zM988 0q-241 0 -243 223q0 125 76 213t202 88q241 0 243 -223q0 -125 -76 -213t-202 -88zM350 594q51 0 86 44t35 126q0 117 -80 117q-51 0 -86 -44
t-35 -126q0 -117 80 -117zM353 475q-242 0 -242 223q0 125 75 213q76 88 202 88q241 0 243 -223q0 -125 -76 -213t-202 -88z" />
    <glyph glyph-name="ampersand" unicode="&#x26;" horiz-adv-x="1308" 
d="M605 1100q-58 0 -103 -38t-45 -110t75 -174q94 47 144 95q49 47 49 105t-31 90t-89 32zM260 320q0 -70 46 -114t150 -44t214 76l-230 301q-88 -49 -134 -99t-46 -120zM434 -27q-190 0 -294 85q-103 84 -103 230t79 234t216 160q-94 125 -94 260t105 230q105 96 263 96
t238 -75t80 -200t-75 -206t-210 -150l186 -244q100 145 142 340h299l-31 -172h-117q-57 -193 -172 -328q60 -71 124 -71t114 16l-33 -180q-70 -20 -133 -21q-147 0 -232 109q-162 -113 -352 -113z" />
    <glyph glyph-name="quotesingle" unicode="'" horiz-adv-x="432" 
d="M158 784l86 490h207l-86 -490h-207z" />
    <glyph glyph-name="parenleft" unicode="(" horiz-adv-x="595" 
d="M45 313q0 303 127 596t354 539h238q-498 -567 -498 -1147q0 -174 43 -363t129 -344h-231q-78 156 -120 352t-42 367z" />
    <glyph glyph-name="parenright" unicode=")" horiz-adv-x="598" 
d="M330 741q0 173 -43 363t-129 344h231q78 -156 120 -352t42 -367q0 -303 -127 -596t-354 -539h-238q498 567 498 1147z" />
    <glyph glyph-name="asterisk" unicode="*" horiz-adv-x="774" 
d="M217 1167q69 75 137 -27q20 -30 47 -73t48 -70l-9 -8q-33 12 -116 40t-103 44q-21 17 -21 47t17 47zM705 883q57 -44 10 -100t-105 -13q-14 10 -59 82t-66 100l9 9q35 -14 115 -41q81 -27 96 -37zM735 1016q-20 -9 -111 -18t-126 -15l-4 8q29 23 99 80t97 70
q75 27 95 -33q19 -61 -50 -92zM147 840q-20 63 52 94q22 10 112 18t125 15l2 -9q-29 -23 -99 -80t-97 -69q-70 -30 -95 31zM467 1006q0 38 -10 122t-4 114q5 30 31 48t54 13q64 -9 52 -82q-6 -27 -52 -105t-61 -112zM397 647q-68 8 -53 82q6 29 51 107q44 77 60 110l10 -2
q3 -47 11 -122q9 -76 3 -110t-30 -52q-25 -17 -52 -13z" />
    <glyph glyph-name="plus" unicode="+" horiz-adv-x="995" 
d="M324 55l61 348h-344l31 177h344l61 348h185l-62 -348h344l-31 -177h-344l-61 -348h-184z" />
    <glyph glyph-name="comma" unicode="," horiz-adv-x="454" 
d="M164 262q59 0 98 -41t39 -102q0 -90 -91 -198t-208 -187l-78 82q147 121 180 186q-84 37 -84 121q0 55 42 97q43 42 102 42z" />
    <glyph glyph-name="hyphen" unicode="-" horiz-adv-x="806" 
d="M84 381l35 194h590l-35 -194h-590z" />
    <glyph glyph-name="period" unicode="." horiz-adv-x="452" 
d="M162 -20q-59 0 -101 40q-41 40 -41 100t41 101t101 41t100 -41q41 -41 41 -100t-41 -100t-100 -41z" />
    <glyph glyph-name="slash" unicode="/" horiz-adv-x="1120" 
d="M-115 -406l1139 1854h215l-1137 -1854h-217z" />
    <glyph glyph-name="zero" unicode="0" horiz-adv-x="1093" 
d="M485 154q100 0 169 66q128 122 127 361q-1 240 -185 240q-100 1 -170 -65q-127 -119 -127 -361q0 -241 186 -241zM469 -23q-209 0 -308 112q-99 111 -99 327t131 392q67 87 175 138t246 51q209 0 308 -111q98 -112 98 -327t-130 -392q-66 -87 -174 -139t-247 -51z" />
    <glyph glyph-name="one" unicode="1" horiz-adv-x="780" 
d="M20 0l31 174h209l107 608q-84 -76 -156 -76q-73 0 -97 48q-24 47 5 110l309 111h203l-142 -801h164l-30 -174h-603z" />
    <glyph glyph-name="two" unicode="2" horiz-adv-x="954" 
d="M653 691q0 136 -147 136q-76 0 -144 -28q8 -18 8 -58t-32 -76q-33 -36 -93 -36t-94 36t-34 89q0 112 132 178t286 66q155 0 253 -72q98 -70 98 -218t-128 -272q-129 -125 -367 -250h424l-35 -186h-737l-41 125q37 25 138 84t177 108t160 114t130 133t46 127z" />
    <glyph glyph-name="three" unicode="3" horiz-adv-x="1028" 
d="M391 -287q-170 1 -301 59t-131 173q0 61 40 101t100 40q61 0 97 -31q60 -51 23 -141q68 -27 152 -27q133 -1 205 63t71 156q0 92 -73 138t-193 45h-68l33 168h60q150 0 228 59t79 156q0 152 -181 151q-86 0 -153 -26q8 -18 8 -56t-39 -76t-101 -38t-95 37t-33 90
q0 112 134 178t309 66t282 -77q106 -77 106 -209t-76 -214t-204 -121q217 -82 217 -285q0 -156 -129 -268t-367 -111z" />
    <glyph glyph-name="four" unicode="4" horiz-adv-x="1021" 
d="M633 877q0 -131 -135 -335t-275 -325h336l23 123q70 86 163 262h99l-70 -385h166l-29 -168h-159l-27 -151h158l-29 -162h-578l29 162h189l26 151h-508l-55 154q180 174 321 391q140 217 175 391q78 27 129 -2t51 -106z" />
    <glyph glyph-name="five" unicode="5" horiz-adv-x="1044" 
d="M422 -287q-174 0 -305 72t-131 188q0 63 40 103t101 39q61 0 94 -35t33 -76t-12 -72q68 -41 180 -41t189 72q77 71 77 181t-56 163t-144 53t-158 -36q-72 -36 -113 -82l-149 71q111 258 178 660h712q47 -221 -178 -221q-53 0 -197 15t-180 17q-27 -154 -84 -311
q106 63 245 63q138 0 250 -96t112 -282t-136 -316q-136 -129 -368 -129z" />
    <glyph glyph-name="six" unicode="6" horiz-adv-x="1099" 
d="M307 364q-1 -106 49 -159t156 -53t176 80q72 80 72 186q0 212 -180 213q-115 0 -194 -81q-79 -80 -79 -186zM637 793q174 -1 268 -93t94 -274t-136 -316q-136 -133 -347 -133q-210 0 -322 108t-112 370t148 521q73 126 197 206q123 80 273 80t250 -62t101 -166
q0 -57 -34 -99q-33 -42 -99 -42t-103 35t-37 76t19 69q-47 18 -103 19q-129 0 -220 -122t-128 -290q117 113 291 113z" />
    <glyph glyph-name="seven" unicode="7" horiz-adv-x="978" 
d="M360 -287q-125 0 -124 121q0 154 152 420q153 266 345 506q-61 -14 -163 12t-168 27q-130 0 -158 -178h-195l64 354h174l-23 -123q63 131 189 131q67 0 163 -44t154 -42q35 100 135 100q57 1 87 -31t30 -82t-57 -126q-105 -140 -151 -202t-123 -181t-113 -202
q-94 -221 -119 -443q-54 -17 -99 -17z" />
    <glyph glyph-name="eight" unicode="8" horiz-adv-x="1110" 
d="M655 1096q-104 0 -169 -56q-64 -56 -64 -136q1 -165 172 -165q102 -1 168 61t65 150q0 146 -172 146zM502 147q114 0 189 69t75 163q0 186 -207 186q-125 -1 -201 -67t-75 -172q-1 -179 219 -179zM492 -23q-230 -1 -338 91t-107 234q0 142 85 232t218 128
q-154 74 -153 243q0 147 122 252q123 105 333 105t306 -82t96 -200t-65 -202q-66 -86 -190 -127q92 -35 147 -105t55 -175q0 -168 -140 -281q-139 -113 -369 -113z" />
    <glyph glyph-name="nine" unicode="9" horiz-adv-x="1073" 
d="M309 559q0 -213 197 -213q102 0 180 83t78 181t-51 154q-51 57 -157 57t-176 -81t-71 -181zM422 -287q-154 -1 -280 59q-124 60 -124 173q0 63 40 100t98 37t94 -36q35 -36 35 -76t-9 -62q51 -23 130 -23q134 -1 212 105t113 325q-113 -133 -287 -133t-273 98t-99 278
q0 182 136 310t359 129q422 0 422 -479q0 -259 -113 -506q-60 -131 -180 -215t-274 -84z" />
    <glyph glyph-name="colon" unicode=":" horiz-adv-x="505" 
d="M289 578q-59 0 -101 40q-41 40 -41 100t41 101q40 41 100 41t101 -41t41 -100t-41 -100t-100 -41zM182 -20q-59 0 -100 40t-41 100t41 101t100 41q58 0 100 -41t42 -100t-41 -101q-42 -40 -101 -40z" />
    <glyph glyph-name="semicolon" unicode=";" horiz-adv-x="507" 
d="M184 262q58 0 98 -41t40 -102q0 -90 -92 -198t-207 -187l-78 82q147 121 180 186q-84 37 -84 121q0 55 42 97t101 42zM289 578q-59 0 -101 40q-41 40 -41 100t41 101q40 41 100 41t101 -41t41 -100t-41 -100t-100 -41z" />
    <glyph glyph-name="less" unicode="&#x3c;" horiz-adv-x="944" 
d="M756 47l-711 395l16 99l850 395l-34 -205l-562 -246l476 -245z" />
    <glyph glyph-name="equal" unicode="=" horiz-adv-x="1101" 
d="M133 627l33 184h872l-32 -184h-873zM53 172l33 184h872l-32 -184h-873z" />
    <glyph glyph-name="greater" unicode="&#x3e;" horiz-adv-x="944" 
d="M23 47l34 205l561 246l-475 245l35 193l711 -395l-17 -99z" />
    <glyph glyph-name="question" unicode="?" horiz-adv-x="790" 
d="M274 -20q-57 0 -99 40t-42 100t42 101t99 41q58 0 100 -41t42 -100t-42 -101q-43 -40 -100 -40zM561 989q0 113 -155 113q-98 0 -250 -43l30 174q150 43 286 43t230 -70q96 -70 97 -200q0 -86 -45 -161q-44 -75 -106 -129t-124 -106q-143 -122 -125 -250h-206
q-22 165 111 298q56 56 114 106q142 124 143 225z" />
    <glyph glyph-name="at" unicode="@" horiz-adv-x="1560" 
d="M670 231q106 -1 194 101t88 236t-127 134q-111 0 -195 -99t-85 -224q0 -148 125 -148zM1065 307q0 -104 72 -104q83 1 159 113t76 282q0 219 -127 345t-350 126q-267 0 -499 -204t-232 -482q0 -219 141 -360t365 -142q176 0 360 107l43 -92q-219 -121 -416 -121
q-268 0 -435 177t-167 431q0 215 124 400t320 289t406 106q254 0 414 -156t160 -400t-112 -385q-112 -140 -269 -141q-94 0 -135 47t-41 103h-9q-121 -150 -305 -150q-96 0 -167 73t-70 204q0 182 132 322t312 141q89 0 145 -38t74 -98h6q37 72 56 103h127
q-158 -362 -158 -496z" />
    <glyph glyph-name="A" unicode="A" horiz-adv-x="1409" 
d="M543 547h364l-98 471zM-88 0l33 188h147l506 871h-170l33 188h516l242 -1059h149l-33 -188h-549l33 188h164l-37 170h-510l-96 -170h164l-33 -188h-559z" />
    <glyph glyph-name="B" unicode="B" horiz-adv-x="1275" 
d="M733 723q127 0 197 54t69 138q0 145 -202 146h-219l-60 -338h215zM668 186q126 0 200 54t74 143q0 160 -221 160h-234l-63 -357h244zM809 1247q199 0 313 -86t113 -225q0 -102 -68 -186t-211 -121q219 -55 220 -254q0 -155 -140 -265t-379 -110h-667l33 188h167l154 871
h-168l33 188h600z" />
    <glyph glyph-name="C" unicode="C" horiz-adv-x="1267" 
d="M670 -25q-260 0 -424 150t-164 420q0 307 207 517t538 210q233 0 469 -109l-55 -350h-221l41 229q-115 37 -234 37q-227 1 -364 -153t-137 -358t103 -298q103 -96 273 -96q231 0 463 137l-37 -227q-198 -109 -458 -109z" />
    <glyph glyph-name="D" unicode="D" horiz-adv-x="1425" 
d="M614 188q256 0 385 144t129 370q0 176 -86 266t-274 91h-186l-154 -871h186zM788 1247q290 0 438 -140t148 -416t-181 -474q-91 -101 -244 -159t-349 -58h-610l33 188h167l154 871h-168l33 188h579z" />
    <glyph glyph-name="E" unicode="E" 
d="M-10 0l33 188h167l154 871h-168l33 188h1028l-63 -366h-220l31 178h-403l-60 -338h469l-33 -189h-469l-61 -344h410l32 187h222l-66 -375h-1036z" />
    <glyph glyph-name="F" unicode="F" horiz-adv-x="1134" 
d="M-10 0l33 188h167l154 871h-168l33 188h1012l-68 -383h-219l35 193h-387l-66 -367h442l-32 -192h-443l-55 -310h178l-33 -188h-583z" />
    <glyph glyph-name="G" unicode="G" horiz-adv-x="1425" 
d="M721 -25q-293 0 -465 152t-172 424q0 317 219 519t553 202q274 0 516 -115l-55 -321h-223l32 196q-131 41 -258 41q-233 0 -388 -141t-154 -369q0 -182 106 -284t318 -103q135 0 251 39l50 283h-260l32 184h584l-33 -184h-102l-72 -424q-82 -39 -213 -69t-266 -30z" />
    <glyph glyph-name="H" unicode="H" horiz-adv-x="1564" 
d="M-10 0l33 188h167l154 871h-168l33 188h575l-32 -188h-170l-60 -338h592l60 338h-170l32 188h576l-33 -188h-168l-154 -871h168l-32 -188h-576l33 188h170l59 336h-592l-59 -336h170l-33 -188h-575z" />
    <glyph glyph-name="I" unicode="I" horiz-adv-x="735" 
d="M-10 0l33 188h167l154 871h-168l33 188h573l-32 -188h-168l-154 -871h168l-33 -188h-573z" />
    <glyph glyph-name="J" unicode="J" horiz-adv-x="671" 
d="M-57 -369l-66 148q229 100 254 250l182 1030h-147l33 188h532l-33 -188h-147l-186 -1049q-32 -177 -153 -260q-122 -82 -269 -119z" />
    <glyph glyph-name="K" unicode="K" horiz-adv-x="1411" 
d="M-10 0l33 188h167l154 871h-168l33 188h567l-33 -188h-161l-154 -871h188l-32 -188h-594zM965 0l-402 612l2 15l479 436h-129l31 184h547l-33 -188h-129l-491 -455l274 -416h213l-33 -188h-329z" />
    <glyph glyph-name="L" unicode="L" horiz-adv-x="1134" 
d="M-10 0l33 188h167l154 871h-168l33 188h604l-33 -188h-198l-154 -871h403l37 201h219l-69 -389h-1028z" />
    <glyph glyph-name="M" unicode="M" horiz-adv-x="1869" 
d="M-16 0l32 188h154l184 871h-155l32 188h517l163 -856l451 856h530l-32 -188h-156l-123 -871h154l-33 -188h-524l32 188h154l119 836l-520 -942h-195l-199 942l-176 -836h154l-33 -188h-530z" />
    <glyph glyph-name="N" unicode="N" horiz-adv-x="1542" 
d="M-10 0l33 188h167l154 871h-168l33 188h399l457 -880l121 692h-168l33 188h561l-33 -188h-168l-186 -1059h-211l-471 901l-127 -713h168l-33 -188h-561z" />
    <glyph glyph-name="O" unicode="O" horiz-adv-x="1456" 
d="M676 174q207 0 346 146t139 374q0 180 -93 280t-257 99q-207 0 -344 -148t-137 -376q0 -179 91 -277t255 -98zM670 -25q-270 0 -428 151t-158 417q0 307 204 518t529 211q270 0 430 -153t160 -417q-1 -305 -205 -516t-532 -211z" />
    <glyph glyph-name="P" unicode="P" horiz-adv-x="1220" 
d="M690 625q158 -1 231 75t73 166q-1 193 -228 193h-184l-76 -434h184zM770 1247q233 0 350 -100t117 -265t-123 -296q-63 -68 -179 -109t-269 -41h-193l-45 -248h209l-33 -188h-614l33 188h167l154 871h-168l33 188h561z" />
    <glyph glyph-name="Q" unicode="Q" horiz-adv-x="1454" 
d="M676 174q207 0 346 146t139 374q0 180 -93 280t-257 99q-207 0 -344 -148t-137 -376q0 -179 91 -277t255 -98zM84 543q0 307 204 518t529 211q270 0 430 -153t160 -409t-138 -446t-372 -258l195 -137l-160 -180l-340 291q-236 20 -372 168t-136 395z" />
    <glyph glyph-name="R" unicode="R" horiz-adv-x="1320" 
d="M709 641q161 0 233 72t72 168q0 178 -232 178h-200l-74 -418h201zM797 1247q231 0 345 -103q114 -104 114 -254t-93 -254q-92 -104 -248 -142l136 -306h161l-32 -188h-297l-201 457h-207l-47 -269h168l-33 -188h-573l33 188h167l154 871h-168l33 188h588z" />
    <glyph glyph-name="S" unicode="S" horiz-adv-x="1091" 
d="M989 354q0 -184 -130 -282t-375 -97q-245 0 -468 72l56 311h213l-31 -163q120 -31 238 -31t189 47t71 123t-62 122t-148 74q-87 28 -175 64q-88 35 -150 109q-61 75 -61 188q0 170 128 275q128 106 345 106t444 -72l-53 -305h-217l31 166q-84 23 -196 23t-178 -47
q-66 -46 -65 -106q0 -60 33 -95t85 -57q51 -22 115 -42q147 -46 243 -116q52 -39 85 -108t33 -159z" />
    <glyph glyph-name="T" unicode="T" horiz-adv-x="1206" 
d="M207 0l33 188h184l154 871h-234l-33 -191h-215l68 379h1134l-67 -379h-215l33 191h-234l-153 -871h184l-33 -188h-606z" />
    <glyph glyph-name="U" unicode="U" horiz-adv-x="1411" 
d="M632 -25q-232 -1 -362 141q-131 142 -86 392l99 551h-168l32 188h574l-33 -188h-168l-106 -594q-24 -133 38 -206t189 -73t216 69t112 206l106 598h-174l33 188h567l-33 -188h-168l-106 -602q-41 -233 -185 -358q-145 -124 -377 -124z" />
    <glyph glyph-name="V" unicode="V" horiz-adv-x="1355" 
d="M461 0l-234 1059h-147l33 188h553l-33 -188h-168l162 -778l428 778h-168l33 188h565l-33 -188h-147l-607 -1059h-237z" />
    <glyph glyph-name="W" unicode="W" horiz-adv-x="1914" 
d="M381 0l-156 1059h-139l33 188h534l-32 -188h-177l109 -785l379 705l-14 80h-158l33 188h563l-33 -188h-178l117 -776l372 776h-174l33 188h543l-33 -188h-141l-516 -1059h-238l-121 668l-366 -668h-240z" />
    <glyph glyph-name="X" unicode="X" horiz-adv-x="1357" 
d="M-70 0l33 184h139l465 459l-270 420h-137l30 184h555l-30 -182h-160l170 -266l270 266h-155l30 182h574l-33 -186h-137l-440 -436l284 -443h135l-32 -182h-549l33 182h159l-186 289l-291 -289h156l-33 -182h-580z" />
    <glyph glyph-name="Y" unicode="Y" horiz-adv-x="1306" 
d="M264 0l33 188h176l43 242l-293 629h-143l33 188h565l-33 -186h-178l188 -418l338 418h-178l33 186h584l-33 -188h-137l-506 -617l-45 -254h176l-33 -188h-590z" />
    <glyph glyph-name="Z" unicode="Z" horiz-adv-x="1216" 
d="M51 0l-55 115l856 934h-457l-35 -201h-219l70 399h963l67 -106l-866 -942h491l37 211h219l-71 -410h-1000z" />
    <glyph glyph-name="bracketleft" unicode="[" horiz-adv-x="632" 
d="M-12 -406l327 1854h445l-29 -158h-231l-271 -1538h232l-29 -158h-444z" />
    <glyph glyph-name="backslash" unicode="\" horiz-adv-x="1083" 
d="M672 -406l-482 1854h216l483 -1854h-217z" />
    <glyph glyph-name="bracketright" unicode="]" horiz-adv-x="632" 
d="M-129 -406l29 158h231l270 1538h-231l29 158h444l-328 -1854h-444z" />
    <glyph glyph-name="asciicircum" unicode="^" horiz-adv-x="923" 
d="M100 690l439 606h127l225 -606h-203l-117 387l-252 -387h-219z" />
    <glyph glyph-name="underscore" unicode="_" horiz-adv-x="1110" 
d="M-18 -203l24 144h891l-25 -144h-890z" />
    <glyph glyph-name="grave" unicode="`" horiz-adv-x="708" 
d="M487 1030l-356 275l148 159l294 -342z" />
    <glyph glyph-name="a" unicode="a" horiz-adv-x="1124" 
d="M731 482q0 250 -182 251q-117 0 -193 -101q-76 -102 -76 -230q1 -250 183 -250q117 0 193 101t75 229zM396 -23q-162 -1 -258 105t-95 318q0 212 134 360q135 148 317 147q182 0 270 -133l20 111h232l-115 -639q-16 -94 70 -94q45 0 90 16l-29 -170q-78 -20 -145 -21
q-180 0 -205 146q-124 -146 -286 -146z" />
    <glyph glyph-name="b" unicode="b" horiz-adv-x="1075" 
d="M500 152q118 0 192 100t74 230q0 252 -184 251q-119 0 -193 -100q-74 -99 -74 -229q0 -252 185 -252zM544 -23q-192 0 -276 156l-24 -133h-213l223 1266h-127l33 182h358l-117 -647q121 106 267 106t240 -105q96 -105 96 -317t-134 -360t-326 -148z" />
    <glyph glyph-name="c" unicode="c" horiz-adv-x="847" 
d="M465 -23q-199 1 -311 105t-111 313q0 209 136 361t384 151q154 0 275 -47l-33 -170q-106 43 -215 43q-152 0 -230 -96t-77 -240q0 -246 237 -245q119 0 225 41l-32 -181q-113 -35 -248 -35z" />
    <glyph glyph-name="d" unicode="d" horiz-adv-x="1124" 
d="M731 482q0 250 -182 251q-117 0 -193 -101q-76 -102 -76 -230q1 -250 183 -250q117 0 193 101t75 229zM396 -23q-162 -1 -258 105t-95 318q0 212 134 360q133 148 315 147q182 0 270 -131l88 490h-170l33 182h401l-213 -1202q-16 -94 70 -94q45 0 90 16l-29 -170
q-78 -20 -147 -21q-178 0 -203 146q-124 -146 -286 -146z" />
    <glyph glyph-name="e" unicode="e" horiz-adv-x="894" 
d="M631 659q0 80 -92 80t-160 -66q-67 -67 -96 -173q348 16 348 159zM444 -23q-171 -1 -287 99t-116 315t145 366t363 150q143 1 218 -67t75 -176q0 -301 -572 -332q23 -178 217 -178q115 0 293 77l-35 -184q-130 -70 -301 -70z" />
    <glyph glyph-name="f" unicode="f" horiz-adv-x="661" 
d="M-68 -430q-72 0 -139 14l33 178q41 -10 98 -10t93 28t51 107l143 811h-166l33 187h166l43 248q31 180 125 259t256 78q78 0 170 -18l-31 -172q-57 8 -119 8q-140 0 -170 -160l-43 -243h232l-33 -187h-232l-141 -798q-58 -330 -369 -330z" />
    <glyph glyph-name="g" unicode="g" horiz-adv-x="954" 
d="M301 -260q82 0 135 15q88 25 88 73q0 32 -44 58t-132 61t-121 51q-150 -84 -149 -160q0 -98 223 -98zM494 748q-94 0 -148 -66t-53 -154q0 -137 133 -137q94 0 147 66t54 153q0 138 -133 138zM-145 -197q0 168 268 289q-10 20 -10 53q0 78 82 152q-115 79 -115 231
t113 266t299 113q74 0 145 -22h360l-32 -180l-144 10q18 -49 19 -105q0 -152 -113 -266t-299 -113q-49 0 -106 11q-21 -33 1 -55q31 -32 161 -77q266 -92 266 -268q0 -96 -83 -175q-101 -97 -355 -97t-356 66q-101 67 -101 167z" />
    <glyph glyph-name="h" unicode="h" horiz-adv-x="1099" 
d="M700 907q138 0 204 -81t42 -216l-65 -364q-16 -94 69 -94q45 0 90 16l-28 -170q-78 -20 -148 -21q-141 0 -186 79t-25 200l62 338q23 131 -82 131q-111 0 -268 -150l-103 -575h-231l223 1266h-148l33 182h379l-119 -678q163 137 301 137z" />
    <glyph glyph-name="i" unicode="i" horiz-adv-x="571" 
d="M379 1018q-63 0 -109 45q-45 45 -45 108t45 109q44 46 108 45q64 0 109 -45q45 -44 45 -108t-45 -109t-108 -45zM330 -23q-143 0 -190 78q-46 78 -25 201l80 446h-148l33 183h379l-115 -639q-16 -94 68 -94q47 0 92 16l-29 -170q-77 -21 -145 -21z" />
    <glyph glyph-name="j" unicode="j" horiz-adv-x="528" 
d="M-59 -430q-70 0 -152 24l33 177q128 -42 192 9q35 28 49 107l144 815h-160l33 183h391l-174 -985q-57 -330 -356 -330zM391 1018q-63 0 -108 45t-45 108t45 109t108 45q63 0 109 -45q46 -44 45 -108q1 -64 -45 -109t-109 -45z" />
    <glyph glyph-name="k" unicode="k" horiz-adv-x="1034" 
d="M668 907q124 0 200 -60q74 -60 74 -175t-83 -195t-218 -115l76 -133q43 -73 96 -73t131 41l-33 -179q-76 -41 -151 -41q-150 0 -238 162l-127 238l17 84q127 8 216 57t89 130t-104 81t-240 -106l-111 -623h-231l223 1266h-127l33 182h358l-115 -645q141 104 265 104z" />
    <glyph glyph-name="l" unicode="l" horiz-adv-x="522" 
d="M279 -23q-143 0 -190 78q-46 78 -26 201l179 1010h-148l33 182h379l-213 -1202q-16 -94 67 -94q47 0 93 16l-29 -170q-77 -21 -145 -21z" />
    <glyph glyph-name="m" unicode="m" horiz-adv-x="1615" 
d="M730 907q159 0 208 -145q150 145 303 145q117 0 181 -77t40 -212l-65 -372q-16 -94 69 -94q45 0 90 16l-28 -170q-78 -20 -148 -21q-141 0 -187 79t-26 200l64 356q18 113 -76 113t-213 -111l-108 -614h-230l109 612q18 113 -76 113t-219 -117l-107 -608h-229l125 702
h-144l33 183h359l-19 -105q135 127 294 127z" />
    <glyph glyph-name="n" unicode="n" horiz-adv-x="1153" 
d="M768 907q124 0 190 -81t41 -216l-65 -364q-16 -94 70 -94q45 0 90 16l-29 -170q-78 -20 -147 -21q-141 0 -187 79q-45 79 -24 200l61 338q23 131 -82 131q-111 0 -270 -152l-103 -573h-231l125 702h-144l33 183h365l-23 -125q172 147 330 147z" />
    <glyph glyph-name="o" unicode="o" horiz-adv-x="1038" 
d="M461 152q125 0 195 108t71 248q0 225 -178 225q-125 1 -196 -107t-70 -249q0 -225 178 -225zM455 -23q-190 -1 -302 103t-112 311t136 362t378 154q190 0 302 -103t112 -310t-136 -362t-378 -155z" />
    <glyph glyph-name="p" unicode="p" horiz-adv-x="1124" 
d="M815 482q0 250 -182 251q-117 0 -193 -101q-76 -102 -76 -230q1 -250 183 -250q117 0 193 101t75 229zM602 -23q-182 0 -270 132l-92 -517h-232l197 1110h-135l32 183h344l-18 -107q122 129 278 129t251 -105t95 -317t-134 -360t-316 -148z" />
    <glyph glyph-name="q" unicode="q" horiz-adv-x="1075" 
d="M731 482q0 252 -184 251q-119 0 -193 -100q-74 -99 -74 -229q1 -252 185 -252q119 0 193 100t73 230zM379 -23q-145 -1 -241 105t-95 318q0 212 134 360t326 147q192 0 277 -159l25 137h211l-195 -1110h150l-33 -183h-381l86 490q-119 -105 -264 -105z" />
    <glyph glyph-name="r" unicode="r" horiz-adv-x="897" 
d="M733 907q76 0 124 -42t48 -128t-28 -168l-211 11q14 66 14 77q0 51 -51 52q-86 0 -215 -142l-101 -567h-231l125 702h-144l33 183h365l-25 -142q143 164 297 164z" />
    <glyph glyph-name="s" unicode="s" horiz-adv-x="792" 
d="M288 -23q-144 0 -288 64l29 170q150 -63 282 -64q164 0 164 93q0 80 -199 136q-74 22 -136 84t-62 172t95 193q95 82 254 82t300 -51l-29 -164q-127 49 -239 49q-152 0 -152 -86q0 -39 41 -65t99 -47q59 -20 117 -48t100 -84t41 -122q1 -66 -15 -111t-55 -94t-121 -78
t-226 -29z" />
    <glyph glyph-name="t" unicode="t" horiz-adv-x="694" 
d="M336 -23q-134 0 -190 78t-33 203l77 444h-151l33 183h151l39 225h234l-41 -225h235l-33 -183h-233l-82 -464q-8 -45 16 -64q25 -18 79 -18t171 41l-30 -170q-108 -50 -242 -50z" />
    <glyph glyph-name="u" unicode="u" horiz-adv-x="1138" 
d="M346 -23q-124 0 -190 81t-41 216l78 428h-144l33 183h373l-109 -594q-23 -131 82 -131q111 0 268 149l105 576h231l-117 -652q-16 -94 70 -94q45 0 90 17l-26 -158q-78 -20 -148 -21q-188 0 -217 156q-172 -156 -338 -156z" />
    <glyph glyph-name="v" unicode="v" horiz-adv-x="978" 
d="M735 688q0 35 -42 35t-107 -41l-66 133q128 92 240 92t153 -53t41 -129q0 -266 -450 -725h-189l-165 709h-134l33 176h289l125 -666q272 307 272 469z" />
    <glyph glyph-name="w" unicode="w" horiz-adv-x="1447" 
d="M1159 721q-37 0 -112 -43l-56 135q125 94 229 94t152 -53q47 -53 47 -139q1 -133 -107 -325t-290 -390h-188l-91 362q-98 -184 -239 -362h-195l-164 709h-127l33 176h275l131 -652q147 201 219 396l-19 80h-131l33 176h281l135 -664q109 121 174 250q66 129 65 207
q0 23 -9 33t-46 10z" />
    <glyph glyph-name="x" unicode="x" horiz-adv-x="987" 
d="M142 170q34 0 80 59t147 224l-140 260h-129l25 172h266l113 -258q94 158 151 219t141 61t134 -65q34 -44 76 -123l-119 -76q-37 72 -74 72t-72 -51t-141 -236l137 -256h131l-28 -172h-260l-115 260q-99 -152 -163 -218t-137 -65q-73 0 -118 43q-17 16 -27 26
q-16 14 -41 64q-25 51 -30 56l119 76q40 -72 74 -72z" />
    <glyph glyph-name="y" unicode="y" horiz-adv-x="1024" 
d="M760 651q0 68 -50 68t-116 -43l-68 133q119 98 258 98q199 0 199 -215q0 -132 -83 -324t-211 -369t-302 -303t-335 -126t-279 129l100 127q86 -72 172 -72q158 0 375 246h-164l-98 707h-133l32 178h308l104 -826q123 154 207 324t84 268z" />
    <glyph glyph-name="z" unicode="z" horiz-adv-x="931" 
d="M250 27q-72 0 -197 -37l-59 104l557 629h-258l-25 -158h-190l53 320h698l52 -101l-539 -602l203 -18q69 0 99 37t63 129l167 -47q-57 -217 -164 -273q-52 -26 -110 -26t-169 22q-109 22 -181 21z" />
    <glyph glyph-name="braceleft" unicode="{" horiz-adv-x="661" 
d="M627 1470q80 0 151 -22l-22 -137q-46 14 -96 14t-78 -15q-62 -32 -62 -173q0 -33 2 -95q4 -134 0 -195q-12 -171 -84 -243t-176 -94q150 -39 150 -244q0 -106 -67 -266t-66 -215q0 -70 83 -70q47 0 113 13l-24 -142q-83 -20 -140 -20q-123 0 -182 63t-59 147t67 248
q68 163 68 238q0 158 -203 172l29 168q106 7 184 57q45 29 80 119q18 52 18 151l-4 158q0 183 71 283t247 100z" />
    <glyph glyph-name="bar" unicode="|" horiz-adv-x="518" 
d="M-12 -406l327 1854h213l-327 -1854h-213z" />
    <glyph glyph-name="braceright" unicode="}" horiz-adv-x="659" 
d="M33 -434q-80 0 -152 22l23 138q45 -14 95 -14t79 14q61 33 61 174q0 33 -2 95t-4 136q-3 119 43 231q32 76 120 126q44 26 101 38q-150 39 -149 244q0 106 66 266q67 160 67 215q0 70 -84 70q-47 0 -113 -12l25 141q82 20 139 20q123 0 182 -63q60 -63 60 -147t-68 -248
q-68 -162 -67 -238q0 -158 202 -172l-28 -168q-112 -7 -173 -48q-110 -73 -110 -278l4 -159q0 -184 -70 -284q-71 -99 -247 -99z" />
    <glyph glyph-name="asciitilde" unicode="~" horiz-adv-x="1210" 
d="M816 545q50 0 97 36t67 62q19 27 50 74l121 -66q-76 -135 -160 -222t-180 -87t-217 82q-122 82 -182 82t-104 -31t-62 -54t-60 -89l-123 61q132 234 245 286q52 23 122 23t142 -40t134 -78q60 -39 110 -39z" />
    <glyph glyph-name="exclamdown" unicode="&#xa1;" horiz-adv-x="507" 
d="M293 625q-59 0 -100 42t-41 99t41 99t100 42t100 -42t41 -99t-41 -99t-100 -42zM-25 -360l193 886h180l-119 -886h-254z" />
    <glyph glyph-name="cent" unicode="&#xa2;" horiz-adv-x="946" 
d="M537 788q-131 0 -204 -103t-73 -231t62 -182l266 510q-23 6 -51 6zM68 449q0 203 126 339t343 136q68 0 118 -15l93 178l63 -20l-94 -178q160 -72 153 -273h-178q0 94 -45 138l-268 -514q25 -8 63 -9q152 0 213 172h185q-84 -307 -410 -307q-66 0 -121 13l-129 -248
l-63 20l131 250q-180 80 -180 318z" />
    <glyph glyph-name="sterling" unicode="&#xa3;" horiz-adv-x="1114" 
d="M989 168q-153 -186 -343 -186q-95 0 -213 24q-117 24 -187 25q-70 0 -172 -37l-35 106q219 78 219 244q0 31 -16 117h-174l14 84h139q-14 76 -14 131q0 158 119 266t333 107q257 0 348 -161q45 -79 31 -173h-211q27 176 -170 176q-113 0 -171 -58t-58 -161q0 -51 14 -127
h328l-14 -84h-295q12 -70 12 -96q0 -102 -86 -189q27 -2 99 -16q171 -33 264 15q57 30 116 104z" />
    <glyph glyph-name="currency" unicode="&#xa4;" horiz-adv-x="1177" 
d="M864 571q0 240 -244 240q-120 0 -213 -94t-93 -214q0 -121 62 -181t182 -60t213 95t93 214zM533 94q-140 0 -242 74l-131 -115l-101 123l129 105q-53 90 -53 211q0 186 127 319l-102 117l131 110l98 -127q123 68 260 68t238 -76l135 119l98 -123l-133 -108
q55 -94 55 -211q0 -178 -122 -316l106 -119l-131 -110l-100 131q-122 -72 -262 -72z" />
    <glyph glyph-name="yen" unicode="&#xa5;" horiz-adv-x="1298" 
d="M293 0l26 150h150l18 106h-323l16 86h324l4 25l-62 118h-241l14 86h182l-151 297h-123l29 160h489l-29 -162h-137l162 -338l279 338h-138l29 162h506l-29 -160h-121l-258 -297h181l-15 -86h-241l-103 -118l-4 -25h324l-17 -86h-323l-19 -106h150l-27 -150h-522z" />
    <glyph glyph-name="brokenbar" unicode="&#xa6;" horiz-adv-x="524" 
d="M-8 -406l147 836h213l-147 -836h-213zM190 721l129 727h213l-129 -727h-213z" />
    <glyph glyph-name="section" unicode="&#xa7;" horiz-adv-x="905" 
d="M610 424q0 61 -48 92q-48 30 -111 56q-64 26 -86 36q-92 -45 -93 -102q0 -31 26 -59t56 -43q30 -14 89 -40q58 -26 89 -42q78 41 78 102zM698 86q0 -122 -93 -194t-239 -72t-254 60t-108 145q0 45 31 79t82 35q51 -1 81 -27t30 -62t-17 -66q45 -31 128 -31t126 27
q43 26 43 74t-67 91t-147 72t-148 91q-67 62 -66 151q0 141 168 227q-53 59 -53 148q0 130 102 202q103 72 231 72t229 -48t101 -142q0 -47 -29 -82t-81 -35q-52 -1 -82 25t-31 60q0 34 16 68q-41 20 -113 20t-110 -28q-39 -29 -39 -74q0 -44 43 -76q44 -32 104 -57t120 -53
t104 -84q44 -55 43 -131q0 -143 -164 -227q59 -70 59 -158z" />
    <glyph glyph-name="dieresis" unicode="&#xa8;" horiz-adv-x="892" 
d="M639 1026q-55 0 -94 39t-39 94t39 94t94 39t94 -39t39 -94t-39 -94t-94 -39zM242 1026q-55 0 -95 39q-39 39 -38 94q0 55 38 94q39 39 95 39t94 -39q39 -39 39 -94t-39 -94t-94 -39z" />
    <glyph glyph-name="copyright" unicode="&#xa9;" horiz-adv-x="1464" 
d="M738 172q-156 0 -260 96q-103 96 -103 272t105 274q105 97 276 97q125 0 254 -51v-221h-140v131q-53 14 -102 14q-106 0 -168 -60t-61 -175q0 -115 60 -181q59 -66 167 -65q108 0 240 66v-136q-112 -61 -268 -61zM735 -12q229 0 392 162t163 391t-163 392t-392 163
t-391 -163t-162 -392t162 -391t391 -162zM735 -109q-269 1 -459 191t-190 458t190 459t458 191t460 -190q190 -190 190 -459q0 -268 -190 -459t-459 -191z" />
    <glyph glyph-name="ordfeminine" unicode="&#xaa;" horiz-adv-x="714" 
d="M332 721q66 0 129 72l12 71h-82q-125 0 -125 -84q0 -59 66 -59zM278 604q-184 0 -184 171q0 91 81 141t218 51h99l6 34q8 49 -15 71t-97 22t-191 -41l22 131q111 37 225 37q114 1 181 -51q66 -52 45 -166l-45 -254h69l-22 -132h-230l13 66q-89 -80 -175 -80zM55 397
l19 107h571l-18 -107h-572z" />
    <glyph glyph-name="guillemotleft" unicode="&#xab;" horiz-adv-x="1177" 
d="M795 137l-250 385l2 8l385 385h266l-420 -409l252 -369h-235zM305 137l-250 385l2 8l385 385h267l-420 -409l252 -369h-236z" />
    <glyph glyph-name="logicalnot" unicode="&#xac;" horiz-adv-x="1038" 
d="M717 279l47 272h-651l26 145h805l-74 -417h-153z" />
    <glyph glyph-name="uni00AD" unicode="&#xad;" horiz-adv-x="806" 
d="M84 381l35 194h590l-35 -194h-590z" />
    <glyph glyph-name="registered" unicode="&#xae;" horiz-adv-x="872" 
d="M449 868h57q59 0 59 52q0 47 -61 47h-55v-99zM324 694v56h49v217h-49v57h182q66 0 102 -30t35 -74q0 -68 -65 -93l47 -77h51v-56h-103l-69 119h-55v-63h51v-56h-176zM491 565q121 0 207 86t86 207t-86 208t-208 87t-207 -87q-86 -87 -86 -208t86 -207t208 -86zM490 500
q-148 0 -252 105t-104 254t104 253t252 104t254 -104t106 -252t-106 -254t-254 -106z" />
    <glyph glyph-name="macron" unicode="&#xaf;" horiz-adv-x="858" 
d="M119 1059l31 172h581l-31 -172h-581z" />
    <glyph glyph-name="degree" unicode="&#xb0;" horiz-adv-x="770" 
d="M488 1186q-76 0 -138 -62t-61 -137q-1 -74 41 -118t119 -44q77 -1 137 61t61 136q0 74 -42 119q-41 45 -117 45zM791 1027q0 -135 -106 -235t-239 -100t-217 79t-84 213q-1 134 103 234t238 101q134 0 220 -79q85 -79 85 -213z" />
    <glyph glyph-name="plusminus" unicode="&#xb1;" horiz-adv-x="1089" 
d="M23 43l30 172h873l-31 -172h-872zM412 299l47 268h-344l30 168h344l48 277h184l-47 -277h344l-31 -168h-344l-47 -268h-184z" />
    <glyph glyph-name="twosuperior" unicode="&#xb2;" horiz-adv-x="813" 
d="M666 1401q0 96 -121 96q-59 0 -115 -22q6 -16 6 -48t-28 -60t-76 -28q-47 0 -74 25t-27 66q1 82 97 143t232 61t217 -57t81 -178t-108 -228q-109 -106 -308 -213h365l-27 -149h-602l-33 113q332 197 427 298q94 101 94 181z" />
    <glyph glyph-name="threesuperior" unicode="&#xb3;" horiz-adv-x="759" 
d="M784 1066q0 -122 -94 -196t-232 -75q-138 0 -234 42q-95 42 -95 124q0 45 31 77t78 33q48 1 72 -23t24 -52t-6 -46q46 -16 114 -16t107 36t39 89q0 104 -162 104h-64l25 131h53q82 0 131 32t50 87q0 84 -103 84q-35 0 -94 -16q2 -8 2 -38q0 -29 -30 -55t-75 -26t-71 24
t-27 64q0 80 93 132q94 52 222 52t206 -57t77 -152q0 -145 -180 -192q143 -45 143 -167z" />
    <glyph glyph-name="acute" unicode="&#xb4;" horiz-adv-x="708" 
d="M170 1030l-72 90l363 342l129 -166z" />
    <glyph glyph-name="mu" unicode="&#xb5;" horiz-adv-x="1251" 
d="M477 160q111 0 268 149l105 576h231l-116 -652q-16 -94 69 -94q45 0 90 17l-26 -158q-78 -20 -148 -21q-188 0 -217 156q-172 -156 -338 -156q-45 0 -82 13l-39 -398h-231l199 1110h-144l33 183h373l-109 -594q-23 -131 82 -131z" />
    <glyph glyph-name="paragraph" unicode="&#xb6;" horiz-adv-x="1245" 
d="M604 -29h133l174 985h-133zM428 307q-143 0 -246 92q-102 92 -102 255t143 298t342 135h690l-22 -131h-168l-174 -985h168l-23 -129h-807l23 129h197l59 336h-80z" />
    <glyph glyph-name="periodcentered" unicode="&#xb7;" horiz-adv-x="477" 
d="M236 373q-59 0 -101 41q-41 41 -41 100t41 100t101 41t100 -41q41 -41 41 -100t-41 -100t-100 -41z" />
    <glyph glyph-name="cedilla" unicode="&#xb8;" horiz-adv-x="622" 
d="M244 -426q-119 0 -197 31l39 123q72 -27 139 -27q98 0 99 55q0 72 -140 72l13 43l157 229l107 -24l-84 -162q150 -27 149 -152q0 -92 -82 -140t-200 -48z" />
    <glyph glyph-name="onesuperior" unicode="&#xb9;" horiz-adv-x="675" 
d="M318 1395q-62 0 -81 38t3 89l264 98h170l-117 -662h139l-26 -149h-512l26 149h181l88 498q-73 -61 -135 -61z" />
    <glyph glyph-name="ordmasculine" unicode="&#xba;" horiz-adv-x="720" 
d="M397 729q84 0 128 68t44 157q0 141 -114 142q-84 0 -128 -68t-44 -160q-1 -139 114 -139zM748 944q0 -140 -94 -240t-246 -100q-304 0 -304 264q0 150 96 251t248 101t226 -67q74 -69 74 -209zM41 397l18 107h588l-18 -107h-588z" />
    <glyph glyph-name="guillemotright" unicode="&#xbb;" horiz-adv-x="1181" 
d="M-14 137l420 410l-252 368h235l250 -385l-2 -8l-385 -385h-266zM475 137l420 410l-252 368h236l249 -385l-2 -8l-385 -385h-266z" />
    <glyph glyph-name="onequarter" unicode="&#xbc;" horiz-adv-x="1611" 
d="M455 -41l-103 64l914 1265l100 -63zM1335 684q0 -72 -83 -190t-165 -191h191l10 57q80 96 111 162h65l-39 -219h95l-21 -123h-88l-14 -65h88l-19 -115h-389l19 115h135l14 65h-311l-39 96q100 109 194 244q93 135 115 225q131 29 131 -61zM104 510l25 135h164l80 453
q-70 -60 -125 -60t-73 36q-17 36 3 83l242 90h149l-106 -602h127l-25 -135h-461z" />
    <glyph glyph-name="onehalf" unicode="&#xbd;" horiz-adv-x="1699" 
d="M451 -41l-103 64l914 1265l100 -63zM100 510l25 135h164l80 453q-70 -60 -125 -60t-73 36q-17 36 3 83l242 90h149l-106 -602h127l-25 -135h-461zM1442 539q0 84 -109 84q-53 0 -104 -21q4 -20 4 -46t-26 -52q-27 -26 -69 -25q-42 0 -67 23t-24 59q0 74 88 132
q88 59 213 59q126 0 198 -54t72 -162q0 -110 -96 -207t-273 -194h322l-25 -135h-547l-30 102q16 10 110 68q117 73 240 172t123 197z" />
    <glyph glyph-name="threequarters" unicode="&#xbe;" horiz-adv-x="1648" 
d="M492 -41l-103 64l914 1265l100 -63zM1372 684q0 -72 -83 -190t-165 -191h191l10 57q80 96 111 162h65l-39 -219h94l-20 -123h-88l-14 -65h88l-19 -115h-389l19 115h135l14 65h-311l-39 96q100 109 193 244t116 225q131 29 131 -61zM696 735q0 -103 -88 -171t-214 -68
t-213 39t-87 114q0 41 28 71t71 30t65 -20t23 -44q0 -24 -7 -43q49 -16 110 -16q60 1 94 31t34 78t-37 66t-108 19h-60l21 131h51q76 0 120 30t44 79q0 72 -99 72q-45 0 -79 -11q2 -10 2 -36t-28 -50t-70 -24q-41 0 -67 22t-26 62q0 72 87 118t204 48q117 0 191 -52t73 -139
q0 -135 -166 -176q131 -39 131 -160z" />
    <glyph glyph-name="questiondown" unicode="&#xbf;" horiz-adv-x="772" 
d="M477 625q-59 0 -100 42t-41 99t41 99t100 42t101 -42t40 -99q0 -57 -41 -99t-100 -42zM280 -389q-136 0 -231 70q-96 70 -96 200q0 86 45 161t106 129q60 55 122 107q145 124 126 248h207q13 -88 -21 -165t-90 -133t-115 -106q-143 -123 -143 -224q0 -113 156 -113
q100 0 250 43l-31 -174q-149 -43 -285 -43z" />
    <glyph glyph-name="Agrave" unicode="&#xc0;" horiz-adv-x="1409" 
d="M899 1352l-356 274l147 160l295 -342zM543 547h364l-98 471zM-88 0l33 188h147l506 871h-170l33 188h516l242 -1059h149l-33 -188h-549l33 188h164l-37 170h-510l-96 -170h164l-33 -188h-559z" />
    <glyph glyph-name="Aacute" unicode="&#xc1;" horiz-adv-x="1409" 
d="M733 1352l-71 90l362 342l129 -166zM543 547h364l-98 471zM-88 0l33 188h147l506 871h-170l33 188h516l242 -1059h149l-33 -188h-549l33 188h164l-37 170h-510l-96 -170h164l-33 -188h-559z" />
    <glyph glyph-name="Acircumflex" unicode="&#xc2;" horiz-adv-x="1409" 
d="M510 1352l-43 67l332 285h151l224 -285l-56 -67l-282 137zM543 547h364l-98 471zM-88 0l33 188h147l506 871h-170l33 188h516l242 -1059h149l-33 -188h-549l33 188h164l-37 170h-510l-96 -170h164l-33 -188h-559z" />
    <glyph glyph-name="Atilde" unicode="&#xc3;" horiz-adv-x="1409" 
d="M716 1653q58 0 144 -48q86 -49 130 -49q76 -1 118 53q14 17 37 50l76 -45q-27 -52 -59 -100t-93 -99t-117 -51t-144 48q-89 48 -134 48q-74 0 -144 -100l-75 43q23 51 53 100q31 49 91 99q59 50 117 51zM543 547h364l-98 471zM-88 0l33 188h147l506 871h-170l33 188h516
l242 -1059h149l-33 -188h-549l33 188h164l-37 170h-510l-96 -170h164l-33 -188h-559z" />
    <glyph glyph-name="Adieresis" unicode="&#xc4;" horiz-adv-x="1409" 
d="M1049 1360q-55 0 -95 39q-39 39 -39 94t39 94q38 39 94 39t95 -39t39 -94t-39 -94t-94 -39zM651 1360q-55 0 -94 39t-39 94t39 94t94 39t94 -39t39 -94t-39 -94t-94 -39zM543 547h364l-98 471zM-88 0l33 188h147l506 871h-170l33 188h516l242 -1059h149l-33 -188h-549
l33 188h164l-37 170h-510l-96 -170h164l-33 -188h-559z" />
    <glyph glyph-name="Aring" unicode="&#xc5;" horiz-adv-x="1409" 
d="M850 1468q47 0 76 38t28 87q0 82 -71 82q-47 0 -76 -38t-29 -87q0 -82 72 -82zM1126 1594q0 -98 -74 -175q-74 -76 -197 -76q-124 -1 -186 55q-63 56 -63 154t75 174t199 76t185 -55t61 -153zM543 547h364l-98 471zM-88 0l33 188h147l506 871h-170l33 188h516l242 -1059
h149l-33 -188h-549l33 188h164l-37 170h-510l-96 -170h164l-33 -188h-559z" />
    <glyph glyph-name="AE" unicode="&#xc6;" horiz-adv-x="1968" 
d="M655 563h369l88 496h-59zM-96 0l33 184h149l723 879h-172l31 184h1333l-64 -366h-219l31 178h-403l-60 -338h469l-33 -189h-469l-61 -344h410l36 187h222l-70 -375h-1032l33 188h167l33 189h-485l-154 -193h160l-31 -184h-577z" />
    <glyph glyph-name="Ccedilla" unicode="&#xc7;" horiz-adv-x="1267" 
d="M538 -426q-119 0 -196 31l39 123q72 -27 139 -27q98 0 98 55q0 72 -139 72l13 43l75 113q-223 29 -354 174t-131 387q0 307 207 517t538 210q233 0 469 -109l-55 -350h-221l41 229q-115 37 -234 37q-227 1 -364 -153t-137 -358t103 -298q103 -96 273 -96q231 0 463 137
l-37 -227q-182 -100 -426 -109l-30 -61q150 -27 149 -152q0 -92 -82 -140t-201 -48z" />
    <glyph glyph-name="Egrave" unicode="&#xc8;" 
d="M840 1352l-357 274l148 160l295 -342zM-10 0l33 188h167l154 871h-168l33 188h1028l-63 -366h-220l31 178h-403l-60 -338h469l-33 -189h-469l-61 -344h410l32 187h222l-66 -375h-1036z" />
    <glyph glyph-name="Eacute" unicode="&#xc9;" 
d="M643 1352l-72 90l363 342l129 -166zM-10 0l33 188h167l154 871h-168l33 188h1028l-63 -366h-220l31 178h-403l-60 -338h469l-33 -189h-469l-61 -344h410l32 187h222l-66 -375h-1036z" />
    <glyph glyph-name="Ecircumflex" unicode="&#xca;" 
d="M444 1352l-43 67l332 285h152l223 -285l-55 -67l-283 137zM-10 0l33 188h167l154 871h-168l33 188h1028l-63 -366h-220l31 178h-403l-60 -338h469l-33 -189h-469l-61 -344h410l32 187h222l-66 -375h-1036z" />
    <glyph glyph-name="Edieresis" unicode="&#xcb;" 
d="M954 1360q-55 0 -94 39t-39 94t39 94t94 39q54 0 94 -39t40 -94t-40 -94q-39 -39 -94 -39zM557 1360q-55 0 -94 39t-39 94t39 94t94 39t94 -39t39 -94t-39 -94t-94 -39zM-10 0l33 188h167l154 871h-168l33 188h1028l-63 -366h-220l31 178h-403l-60 -338h469l-33 -189
h-469l-61 -344h410l32 187h222l-66 -375h-1036z" />
    <glyph glyph-name="Igrave" unicode="&#xcc;" horiz-adv-x="735" 
d="M616 1352l-356 274l148 160l294 -342zM-10 0l33 188h167l154 871h-168l33 188h573l-32 -188h-168l-154 -871h168l-33 -188h-573z" />
    <glyph glyph-name="Iacute" unicode="&#xcd;" horiz-adv-x="735" 
d="M428 1352l-72 90l363 342l129 -166zM-10 0l33 188h167l154 871h-168l33 188h573l-32 -188h-168l-154 -871h168l-33 -188h-573z" />
    <glyph glyph-name="Icircumflex" unicode="&#xce;" horiz-adv-x="735" 
d="M221 1352l-43 67l332 285h152l223 -285l-56 -67l-282 137zM-10 0l33 188h167l154 871h-168l33 188h573l-32 -188h-168l-154 -871h168l-33 -188h-573z" />
    <glyph glyph-name="Idieresis" unicode="&#xcf;" horiz-adv-x="735" 
d="M731 1360q-55 0 -94 39t-39 94t39 94t94 39t94 -39t39 -94t-39 -94t-94 -39zM334 1360q-55 0 -94 39t-39 94t39 94t94 39t94 -39t39 -94t-39 -94t-94 -39zM-10 0l33 188h167l154 871h-168l33 188h573l-32 -188h-168l-154 -871h168l-33 -188h-573z" />
    <glyph glyph-name="Eth" unicode="&#xd0;" horiz-adv-x="1427" 
d="M616 188q256 0 385 144t129 370q0 176 -86 266t-274 91h-186l-60 -334h334l-33 -193h-336l-59 -344h186zM791 1247q289 0 437 -140t148 -416t-181 -474q-91 -101 -244 -159t-349 -58h-610l33 188h168l59 344h-152l33 193h154l59 334h-168l33 188h580z" />
    <glyph glyph-name="Ntilde" unicode="&#xd1;" horiz-adv-x="1542" 
d="M818 1653q58 0 144 -48q86 -49 131 -49q75 -1 117 53q14 17 37 50l76 -45q-27 -52 -59 -100t-92 -99q-62 -51 -117 -51t-145 48t-134 48q-73 0 -143 -100l-76 43q23 51 53 100q31 49 91 99q59 50 117 51zM-10 0l33 188h167l154 871h-168l33 188h399l457 -880l121 692
h-168l33 188h561l-33 -188h-168l-186 -1059h-211l-471 901l-127 -713h168l-33 -188h-561z" />
    <glyph glyph-name="Ograve" unicode="&#xd2;" horiz-adv-x="1456" 
d="M920 1358l-357 274l148 160l295 -342zM676 174q207 0 346 146t139 374q0 180 -93 280t-257 99q-207 0 -344 -148t-137 -376q0 -179 91 -277t255 -98zM670 -25q-270 0 -428 151t-158 417q0 307 204 518t529 211q270 0 430 -153t160 -417q-1 -305 -205 -516t-532 -211z" />
    <glyph glyph-name="Oacute" unicode="&#xd3;" horiz-adv-x="1456" 
d="M788 1358l-71 90l362 342l129 -166zM676 174q207 0 346 146t139 374q0 180 -93 280t-257 99q-207 0 -344 -148t-137 -376q0 -179 91 -277t255 -98zM670 -25q-270 0 -428 151t-158 417q0 307 204 518t529 211q270 0 430 -153t160 -417q-1 -305 -205 -516t-532 -211z" />
    <glyph glyph-name="Ocircumflex" unicode="&#xd4;" horiz-adv-x="1456" 
d="M557 1358l-43 67l332 285h151l224 -285l-56 -67l-282 137zM676 174q207 0 346 146t139 374q0 180 -93 280t-257 99q-207 0 -344 -148t-137 -376q0 -179 91 -277t255 -98zM670 -25q-270 0 -428 151t-158 417q0 307 204 518t529 211q270 0 430 -153t160 -417
q-1 -305 -205 -516t-532 -211z" />
    <glyph glyph-name="Otilde" unicode="&#xd5;" horiz-adv-x="1456" 
d="M758 1659q58 0 143 -48q86 -48 130 -48q78 0 118 52q14 17 37 50l76 -45q-27 -51 -59 -99q-32 -47 -93 -99q-60 -52 -116 -52t-145 48t-134 48q-74 0 -144 -100l-75 43q23 51 53 100q31 49 91 99t118 51zM676 174q207 0 346 146t139 374q0 180 -93 280t-257 99
q-207 0 -344 -148t-137 -376q0 -179 91 -277t255 -98zM670 -25q-270 0 -428 151t-158 417q0 307 204 518t529 211q270 0 430 -153t160 -417q-1 -305 -205 -516t-532 -211z" />
    <glyph glyph-name="Odieresis" unicode="&#xd6;" horiz-adv-x="1456" 
d="M1079 1366q-55 0 -94 39t-39 94t39 94t94 39t95 -39t38 -94q0 -55 -39 -94t-94 -39zM682 1366q-55 0 -94 39t-39 94t39 94t94 39t94 -39t39 -94t-39 -94t-94 -39zM676 174q207 0 346 146t139 374q0 180 -93 280t-257 99q-207 0 -344 -148t-137 -376q0 -179 91 -277
t255 -98zM670 -25q-270 0 -428 151t-158 417q0 307 204 518t529 211q270 0 430 -153t160 -417q-1 -305 -205 -516t-532 -211z" />
    <glyph glyph-name="multiply" unicode="&#xd7;" horiz-adv-x="1013" 
d="M127 63l-113 136l355 301l-240 295l150 127l239 -295l356 303l113 -135l-356 -303l250 -302l-150 -127l-250 302z" />
    <glyph glyph-name="Oslash" unicode="&#xd8;" horiz-adv-x="1456" 
d="M811 1073q-207 0 -344 -148t-137 -376q0 -137 53 -227l664 671q-93 80 -236 80zM676 174q207 0 346 146t139 374q0 139 -55 230l-666 -672q91 -78 236 -78zM670 -25q-236 0 -387 117l-142 -143l-67 61l141 144q-131 147 -131 389q0 307 204 518t529 211q231 0 389 -119
l146 147l67 -61l-145 -147q133 -154 133 -390q-1 -305 -205 -516t-532 -211z" />
    <glyph glyph-name="Ugrave" unicode="&#xd9;" horiz-adv-x="1411" 
d="M918 1352l-357 274l148 160l295 -342zM632 -25q-232 -1 -362 141q-131 142 -86 392l99 551h-168l32 188h574l-33 -188h-168l-106 -594q-24 -133 38 -206t189 -73t216 69t112 206l106 598h-174l33 188h567l-33 -188h-168l-106 -602q-41 -233 -185 -358
q-145 -124 -377 -124z" />
    <glyph glyph-name="Uacute" unicode="&#xda;" horiz-adv-x="1411" 
d="M772 1352l-72 90l363 342l129 -166zM632 -25q-232 -1 -362 141q-131 142 -86 392l99 551h-168l32 188h574l-33 -188h-168l-106 -594q-24 -133 38 -206t189 -73t216 69t112 206l106 598h-174l33 188h567l-33 -188h-168l-106 -602q-41 -233 -185 -358q-145 -124 -377 -124z
" />
    <glyph glyph-name="Ucircumflex" unicode="&#xdb;" horiz-adv-x="1411" 
d="M535 1352l-43 67l331 285h152l223 -285l-55 -67l-283 137zM632 -25q-232 -1 -362 141q-131 142 -86 392l99 551h-168l32 188h574l-33 -188h-168l-106 -594q-24 -133 38 -206t189 -73t216 69t112 206l106 598h-174l33 188h567l-33 -188h-168l-106 -602q-41 -233 -185 -358
q-145 -124 -377 -124z" />
    <glyph glyph-name="Udieresis" unicode="&#xdc;" horiz-adv-x="1411" 
d="M1061 1360q-55 0 -94 39t-39 94t39 94t94 39t94 -39t39 -94t-39 -94t-94 -39zM664 1360q-55 0 -95 39q-39 39 -39 94t39 94t95 39t94 -39q39 -39 39 -94t-39 -94t-94 -39zM632 -25q-232 -1 -362 141q-131 142 -86 392l99 551h-168l32 188h574l-33 -188h-168l-106 -594
q-24 -133 38 -206t189 -73t216 69t112 206l106 598h-174l33 188h567l-33 -188h-168l-106 -602q-41 -233 -185 -358q-145 -124 -377 -124z" />
    <glyph glyph-name="Yacute" unicode="&#xdd;" horiz-adv-x="1306" 
d="M711 1352l-72 90l362 342l129 -166zM264 0l33 188h176l43 242l-293 629h-143l33 188h565l-33 -186h-178l188 -418l338 418h-178l33 186h584l-33 -188h-137l-506 -617l-45 -254h176l-33 -188h-590z" />
    <glyph glyph-name="Thorn" unicode="&#xde;" horiz-adv-x="1185" 
d="M627 451q297 0 297 196q0 156 -236 156h-164l-61 -352h164zM692 987q236 0 355 -90t119 -254t-134 -270q-133 -106 -426 -107h-176l-16 -90h194l-30 -176h-586l33 182h153l156 883h-154l31 182h586l-31 -176h-195l-14 -84h135z" />
    <glyph glyph-name="germandbls" unicode="&#xdf;" horiz-adv-x="1177" 
d="M-68 -430q-72 0 -139 14l33 178q41 -10 98 -10t93 28t51 107l143 811h-166l33 187h166l26 166q33 195 155 307q121 112 311 112t291 -78t101 -225q0 -79 -32 -149t-69 -113q-103 -116 -101 -194q0 -49 39 -116t77 -148t39 -168q0 -141 -98 -219t-285 -78q-139 0 -243 36
l30 175q100 -37 203 -37q160 0 160 123q0 69 -80 207t-80 220q0 139 104 246t105 211q0 131 -147 131q-205 0 -250 -264l-199 -1130q-58 -330 -369 -330z" />
    <glyph glyph-name="agrave" unicode="&#xe0;" horiz-adv-x="1124" 
d="M682 1030l-356 275l147 159l295 -342zM731 482q0 250 -182 251q-117 0 -193 -101q-76 -102 -76 -230q1 -250 183 -250q117 0 193 101t75 229zM396 -23q-162 -1 -258 105t-95 318q0 212 134 360q135 148 317 147q182 0 270 -133l20 111h232l-115 -639q-16 -94 70 -94
q45 0 90 16l-29 -170q-78 -20 -145 -21q-180 0 -205 146q-124 -146 -286 -146z" />
    <glyph glyph-name="aacute" unicode="&#xe1;" horiz-adv-x="1124" 
d="M524 1030l-71 90l362 342l129 -166zM731 482q0 250 -182 251q-117 0 -193 -101q-76 -102 -76 -230q1 -250 183 -250q117 0 193 101t75 229zM396 -23q-162 -1 -258 105t-95 318q0 212 134 360q135 148 317 147q182 0 270 -133l20 111h232l-115 -639q-16 -94 70 -94
q45 0 90 16l-29 -170q-78 -20 -145 -21q-180 0 -205 146q-124 -146 -286 -146z" />
    <glyph glyph-name="acircumflex" unicode="&#xe2;" horiz-adv-x="1124" 
d="M311 1020l-43 67l332 285h152l223 -285l-55 -67l-283 137zM731 482q0 250 -182 251q-117 0 -193 -101q-76 -102 -76 -230q1 -250 183 -250q117 0 193 101t75 229zM396 -23q-162 -1 -258 105t-95 318q0 212 134 360q135 148 317 147q182 0 270 -133l20 111h232l-115 -639
q-16 -94 70 -94q45 0 90 16l-29 -170q-78 -20 -145 -21q-180 0 -205 146q-124 -146 -286 -146z" />
    <glyph glyph-name="atilde" unicode="&#xe3;" horiz-adv-x="1124" 
d="M527 1321q59 0 143 -48t144 -48t104 52q14 17 36 50l76 -45q-26 -51 -58 -99q-32 -47 -93 -99t-117 -52t-144 48q-90 48 -135 48q-73 0 -143 -100l-76 43q23 51 53 100q31 49 91 99t119 51zM731 482q0 250 -182 251q-117 0 -193 -101q-76 -102 -76 -230q1 -250 183 -250
q117 0 193 101t75 229zM396 -23q-162 -1 -258 105t-95 318q0 212 134 360q135 148 317 147q182 0 270 -133l20 111h232l-115 -639q-16 -94 70 -94q45 0 90 16l-29 -170q-78 -20 -145 -21q-180 0 -205 146q-124 -146 -286 -146z" />
    <glyph glyph-name="adieresis" unicode="&#xe4;" horiz-adv-x="1124" 
d="M827 1026q-55 0 -94 39t-39 94t39 94t94 39t95 -39t39 -94q1 -55 -39 -94t-95 -39zM430 1026q-55 0 -94 39t-39 94t39 94t94 39t94 -39t39 -94t-39 -94t-94 -39zM731 482q0 250 -182 251q-117 0 -193 -101q-76 -102 -76 -230q1 -250 183 -250q117 0 193 101t75 229z
M396 -23q-162 -1 -258 105t-95 318q0 212 134 360q135 148 317 147q182 0 270 -133l20 111h232l-115 -639q-16 -94 70 -94q45 0 90 16l-29 -170q-78 -20 -145 -21q-180 0 -205 146q-124 -146 -286 -146z" />
    <glyph glyph-name="aring" unicode="&#xe5;" horiz-adv-x="1124" 
d="M635 1145q47 0 76 38t28 87q0 82 -71 82q-47 0 -76 -38t-29 -87q0 -82 72 -82zM665 1479q124 1 185 -55t61 -154q1 -98 -73 -174t-198 -76t-186 55t-62 153t74 175q75 76 199 76zM731 482q0 250 -182 251q-117 0 -193 -101q-76 -102 -76 -230q1 -250 183 -250
q117 0 193 101t75 229zM396 -23q-162 -1 -258 105t-95 318q0 212 134 360q135 148 317 147q182 0 270 -133l20 111h232l-115 -639q-16 -94 70 -94q45 0 90 16l-29 -170q-78 -20 -145 -21q-180 0 -205 146q-124 -146 -286 -146z" />
    <glyph glyph-name="ae" unicode="&#xe6;" horiz-adv-x="1427" 
d="M1165 664q0 75 -90 75q-91 0 -155 -59t-93 -160q338 12 338 144zM341 147q114 0 253 86q-18 57 -19 136h-120q-227 0 -228 -129q0 -93 114 -93zM272 -23q-128 -1 -204 63t-76 185q0 149 123 221t329 72h156l12 60q16 84 -20 118t-158 35q-122 0 -287 -47l31 174
q168 49 320 49q227 0 278 -141q127 141 322 141q137 -1 206 -69t68 -172q0 -291 -563 -306q4 -114 59 -160t161 -46t286 77l-35 -182q-135 -72 -291 -72q-229 0 -336 136q-191 -136 -381 -136z" />
    <glyph glyph-name="ccedilla" unicode="&#xe7;" horiz-adv-x="847" 
d="M307 -426q-119 0 -196 31l39 123q72 -27 139 -27q98 0 98 55q0 72 -139 72l12 43l80 119q-141 29 -219 129t-78 264q0 221 136 373t384 151q154 0 275 -47l-33 -170q-106 43 -215 43q-152 0 -230 -96t-77 -240q0 -246 237 -245q119 0 225 41l-32 -181q-111 -33 -240 -35
l-33 -63q150 -27 150 -152q0 -92 -82 -140t-201 -48z" />
    <glyph glyph-name="egrave" unicode="&#xe8;" horiz-adv-x="894" 
d="M629 1030l-357 275l148 159l295 -342zM631 659q0 80 -92 80t-160 -66q-67 -67 -96 -173q348 16 348 159zM444 -23q-171 -1 -287 99t-116 315t145 366t363 150q143 1 218 -67t75 -176q0 -301 -572 -332q23 -178 217 -178q115 0 293 77l-35 -184q-130 -70 -301 -70z" />
    <glyph glyph-name="eacute" unicode="&#xe9;" horiz-adv-x="894" 
d="M477 1030l-71 90l362 342l129 -166zM631 659q0 80 -92 80t-160 -66q-67 -67 -96 -173q348 16 348 159zM444 -23q-171 -1 -287 99t-116 315t145 366t363 150q143 1 218 -67t75 -176q0 -301 -572 -332q23 -178 217 -178q115 0 293 77l-35 -184q-130 -70 -301 -70z" />
    <glyph glyph-name="ecircumflex" unicode="&#xea;" horiz-adv-x="894" 
d="M244 1020l-43 67l331 285h152l223 -285l-55 -67l-283 137zM631 659q0 80 -92 80t-160 -66q-67 -67 -96 -173q348 16 348 159zM444 -23q-171 -1 -287 99t-116 315t145 366t363 150q143 1 218 -67t75 -176q0 -301 -572 -332q23 -178 217 -178q115 0 293 77l-35 -184
q-130 -70 -301 -70z" />
    <glyph glyph-name="edieresis" unicode="&#xeb;" horiz-adv-x="894" 
d="M764 1026q-55 0 -94 39t-39 94t39 94t94 39t94 -39t39 -94t-39 -94t-94 -39zM367 1026q-55 0 -95 39q-39 39 -39 94t39 94q38 39 94 39t95 -39t39 -94t-39 -94t-94 -39zM631 659q0 80 -92 80t-160 -66q-67 -67 -96 -173q348 16 348 159zM444 -23q-171 -1 -287 99
t-116 315t145 366t363 150q143 1 218 -67t75 -176q0 -301 -572 -332q23 -178 217 -178q115 0 293 77l-35 -184q-130 -70 -301 -70z" />
    <glyph glyph-name="igrave" unicode="&#xec;" horiz-adv-x="571" 
d="M430 1030l-356 275l147 159l295 -342zM330 -23q-143 0 -190 78q-46 78 -25 201l80 446h-148l33 183h379l-115 -639q-16 -94 68 -94q47 0 92 16l-29 -170q-77 -21 -145 -21z" />
    <glyph glyph-name="iacute" unicode="&#xed;" horiz-adv-x="571" 
d="M217 1030l-72 90l363 342l129 -166zM330 -23q-143 0 -190 78q-46 78 -25 201l80 446h-148l33 183h379l-115 -639q-16 -94 68 -94q47 0 92 16l-29 -170q-77 -21 -145 -21z" />
    <glyph glyph-name="icircumflex" unicode="&#xee;" horiz-adv-x="571" 
d="M-2 1020l-43 67l332 285h151l224 -285l-56 -67l-282 137zM330 -23q-143 0 -190 78q-46 78 -25 201l80 446h-148l33 183h379l-115 -639q-16 -94 68 -94q47 0 92 16l-29 -170q-77 -21 -145 -21z" />
    <glyph glyph-name="idieresis" unicode="&#xef;" horiz-adv-x="571" 
d="M532 1026q-55 0 -94 39t-39 94t39 94t94 39q54 0 94 -39t40 -94t-40 -94t-94 -39zM135 1026q-55 0 -94 39t-39 94t39 94t94 39t94 -39t39 -94t-39 -94t-94 -39zM330 -23q-143 0 -190 78q-46 78 -25 201l80 446h-148l33 183h379l-115 -639q-16 -94 68 -94q47 0 92 16
l-29 -170q-77 -21 -145 -21z" />
    <glyph glyph-name="eth" unicode="&#xf0;" horiz-adv-x="1083" 
d="M758 464q0 234 -193 234q-127 0 -205 -96t-78 -214q1 -236 191 -236q125 0 205 97t80 215zM459 -23q-195 -1 -307 105t-111 305q0 199 140 339q139 140 323 140t282 -106q-18 221 -159 399l-252 -153l-43 84l231 141q-74 74 -160 129l138 133q119 -66 204 -150l209 127
l45 -81l-188 -115q213 -258 213 -612q0 -307 -152 -496t-413 -189z" />
    <glyph glyph-name="ntilde" unicode="&#xf1;" horiz-adv-x="1153" 
d="M544 1321q58 0 144 -48t130 -48q78 0 118 52q14 17 37 50l76 -45q-27 -51 -59 -99q-32 -47 -93 -99t-117 -52t-144 48q-89 48 -134 48q-74 0 -144 -100l-75 43q23 51 53 100q31 49 91 99q59 50 117 51zM768 907q124 0 190 -81t41 -216l-65 -364q-16 -94 70 -94
q45 0 90 16l-29 -170q-78 -20 -147 -21q-141 0 -187 79q-45 79 -24 200l61 338q23 131 -82 131q-111 0 -270 -152l-103 -573h-231l125 702h-144l33 183h365l-23 -125q172 147 330 147z" />
    <glyph glyph-name="ograve" unicode="&#xf2;" horiz-adv-x="1038" 
d="M684 1030l-356 275l147 159l295 -342zM461 152q125 0 195 108t71 248q0 225 -178 225q-125 1 -196 -107t-70 -249q0 -225 178 -225zM455 -23q-190 -1 -302 103t-112 311t136 362t378 154q190 0 302 -103t112 -310t-136 -362t-378 -155z" />
    <glyph glyph-name="oacute" unicode="&#xf3;" horiz-adv-x="1038" 
d="M528 1030l-71 90l362 342l129 -166zM461 152q125 0 195 108t71 248q0 225 -178 225q-125 1 -196 -107t-70 -249q0 -225 178 -225zM455 -23q-190 -1 -302 103t-112 311t136 362t378 154q190 0 302 -103t112 -310t-136 -362t-378 -155z" />
    <glyph glyph-name="ocircumflex" unicode="&#xf4;" horiz-adv-x="1038" 
d="M287 1020l-43 67l331 285h152l223 -285l-55 -67l-283 137zM461 152q125 0 195 108t71 248q0 225 -178 225q-125 1 -196 -107t-70 -249q0 -225 178 -225zM455 -23q-190 -1 -302 103t-112 311t136 362t378 154q190 0 302 -103t112 -310t-136 -362t-378 -155z" />
    <glyph glyph-name="otilde" unicode="&#xf5;" horiz-adv-x="1038" 
d="M504 1321q58 0 143 -48q86 -48 130 -48q78 0 118 52q14 17 37 50l76 -45q-27 -51 -59 -99q-32 -47 -93 -99q-60 -52 -116 -52t-145 48t-134 48q-74 0 -144 -100l-75 43q23 51 53 100q31 49 91 99t118 51zM461 152q125 0 195 108t71 248q0 225 -178 225q-125 1 -196 -107
t-70 -249q0 -225 178 -225zM455 -23q-190 -1 -302 103t-112 311t136 362t378 154q190 0 302 -103t112 -310t-136 -362t-378 -155z" />
    <glyph glyph-name="odieresis" unicode="&#xf6;" horiz-adv-x="1038" 
d="M825 1026q-55 0 -94 39t-39 94t39 94t94 39t95 -39t38 -94q0 -55 -39 -94t-94 -39zM428 1026q-55 0 -94 39t-39 94t39 94t94 39t94 -39t39 -94t-39 -94t-94 -39zM461 152q125 0 195 108t71 248q0 225 -178 225q-125 1 -196 -107t-70 -249q0 -225 178 -225zM455 -23
q-190 -1 -302 103t-112 311t136 362t378 154q190 0 302 -103t112 -310t-136 -362t-378 -155z" />
    <glyph glyph-name="divide" unicode="&#xf7;" horiz-adv-x="1015" 
d="M561 694q-57 0 -97 40t-40 97t40 97t97 41q57 0 97 -40q40 -39 40 -97t-40 -98t-97 -40zM444 31q-57 0 -97 40t-40 97t40 97t97 40q58 0 98 -40t40 -97t-40 -97t-98 -40zM53 418l29 164h872l-28 -164h-873z" />
    <glyph glyph-name="oslash" unicode="&#xf8;" horiz-adv-x="1034" 
d="M547 733q-125 1 -196 -107t-70 -249q0 -55 12 -98l397 380q-47 74 -143 74zM459 152q125 0 195 108t71 248q0 41 -6 74l-391 -375q45 -55 131 -55zM453 -23q-176 0 -279 82l-125 -118l-53 53l125 119q-82 100 -82 266q0 219 136 374t378 154q186 0 295 -96l110 107
l54 -54l-115 -110q70 -98 70 -248q0 -219 -136 -374t-378 -155z" />
    <glyph glyph-name="ugrave" unicode="&#xf9;" horiz-adv-x="1138" 
d="M702 1030l-356 275l148 159l294 -342zM346 -23q-124 0 -190 81t-41 216l78 428h-144l33 183h373l-109 -594q-23 -131 82 -131q111 0 268 149l105 576h231l-117 -652q-16 -94 70 -94q45 0 90 17l-26 -158q-78 -20 -148 -21q-188 0 -217 156q-172 -156 -338 -156z" />
    <glyph glyph-name="uacute" unicode="&#xfa;" horiz-adv-x="1138" 
d="M557 1030l-72 90l363 342l129 -166zM346 -23q-124 0 -190 81t-41 216l78 428h-144l33 183h373l-109 -594q-23 -131 82 -131q111 0 268 149l105 576h231l-117 -652q-16 -94 70 -94q45 0 90 17l-26 -158q-78 -20 -148 -21q-188 0 -217 156q-172 -156 -338 -156z" />
    <glyph glyph-name="ucircumflex" unicode="&#xfb;" horiz-adv-x="1138" 
d="M334 1020l-43 67l332 285h151l223 -285l-55 -67l-283 137zM346 -23q-124 0 -190 81t-41 216l78 428h-144l33 183h373l-109 -594q-23 -131 82 -131q111 0 268 149l105 576h231l-117 -652q-16 -94 70 -94q45 0 90 17l-26 -158q-78 -20 -148 -21q-188 0 -217 156
q-172 -156 -338 -156z" />
    <glyph glyph-name="udieresis" unicode="&#xfc;" horiz-adv-x="1138" 
d="M860 1026q-55 0 -94 39t-39 94t39 94t94 39t94 -39t39 -94t-39 -94t-94 -39zM463 1026q-55 0 -94 39t-39 94t39 94t94 39t94 -39t39 -94t-39 -94t-94 -39zM346 -23q-124 0 -190 81t-41 216l78 428h-144l33 183h373l-109 -594q-23 -131 82 -131q111 0 268 149l105 576h231
l-117 -652q-16 -94 70 -94q45 0 90 17l-26 -158q-78 -20 -148 -21q-188 0 -217 156q-172 -156 -338 -156z" />
    <glyph glyph-name="yacute" unicode="&#xfd;" horiz-adv-x="1024" 
d="M483 1030l-71 90l362 342l129 -166zM760 651q0 68 -50 68t-116 -43l-68 133q119 98 258 98q199 0 199 -215q0 -132 -83 -324t-211 -369t-302 -303t-335 -126t-279 129l100 127q86 -72 172 -72q158 0 375 246h-164l-98 707h-133l32 178h308l104 -826q123 154 207 324
t84 268z" />
    <glyph glyph-name="thorn" unicode="&#xfe;" horiz-adv-x="1075" 
d="M498 152q116 0 192 101t76 229q0 250 -182 251q-117 0 -193 -101q-76 -102 -76 -230q0 -250 183 -250zM553 -23q-182 0 -270 132l-93 -517h-231l295 1674h-127l33 182h358l-117 -647q121 106 267 106t240 -105q96 -105 96 -317t-134 -360t-317 -148z" />
    <glyph glyph-name="ydieresis" unicode="&#xff;" horiz-adv-x="1024" 
d="M367 1026q-55 0 -95 39q-39 39 -39 94t39 94q38 39 94 39t95 -39t39 -94t-39 -94t-94 -39zM764 1026q-55 0 -94 39t-39 94t39 94t94 39t94 -39t39 -94t-39 -94t-94 -39zM760 651q0 68 -50 68t-116 -43l-68 133q119 98 258 98q199 0 199 -215q0 -132 -83 -324t-211 -369
t-302 -303t-335 -126t-279 129l100 127q86 -72 172 -72q158 0 375 246h-164l-98 707h-133l32 178h308l104 -826q123 154 207 324t84 268z" />
    <glyph glyph-name="Amacron" unicode="&#x100;" horiz-adv-x="1409" 
d="M532 1372l31 172h582l-31 -172h-582zM543 547h364l-98 471zM-88 0l33 188h147l506 871h-170l33 188h516l242 -1059h149l-33 -188h-549l33 188h164l-37 170h-510l-96 -170h164l-33 -188h-559z" />
    <glyph glyph-name="amacron" unicode="&#x101;" horiz-adv-x="1124" 
d="M315 1059l31 172h582l-31 -172h-582zM731 482q0 250 -182 251q-117 0 -193 -101q-76 -102 -76 -230q1 -250 183 -250q117 0 193 101t75 229zM396 -23q-162 -1 -258 105t-95 318q0 212 134 360q135 148 317 147q182 0 270 -133l20 111h232l-115 -639q-16 -94 70 -94
q45 0 90 16l-29 -170q-78 -20 -145 -21q-180 0 -205 146q-124 -146 -286 -146z" />
    <glyph glyph-name="Abreve" unicode="&#x102;" horiz-adv-x="1409" 
d="M818 1352q-150 0 -220 91t-51 228h166q-5 -73 25 -107t102 -34q137 0 184 141h166q-31 -143 -126 -231t-246 -88zM543 547h364l-98 471zM-88 0l33 188h147l506 871h-170l33 188h516l242 -1059h149l-33 -188h-549l33 188h164l-37 170h-510l-96 -170h164l-33 -188h-559z
" />
    <glyph glyph-name="abreve" unicode="&#x103;" horiz-adv-x="1124" 
d="M620 1036q-151 0 -221 91t-51 229h166q-4 -72 26 -107t101 -35q137 0 184 142h166q-31 -144 -125 -232t-246 -88zM731 482q0 250 -182 251q-117 0 -193 -101q-76 -102 -76 -230q1 -250 183 -250q117 0 193 101t75 229zM396 -23q-162 -1 -258 105t-95 318q0 212 134 360
q135 148 317 147q182 0 270 -133l20 111h232l-115 -639q-16 -94 70 -94q45 0 90 16l-29 -170q-78 -20 -145 -21q-180 0 -205 146q-124 -146 -286 -146z" />
    <glyph glyph-name="Aogonek" unicode="&#x104;" horiz-adv-x="1409" 
d="M543 547h364l-98 471zM1077 -426q-197 0 -196 162q0 152 186 264h-281l33 188h164l-37 170h-510l-96 -170h164l-33 -188h-559l33 188h147l506 871h-170l33 188h516l242 -1059h149l-33 -188h-98q-154 -109 -154 -215q-1 -68 69 -68t136 29l-10 -133q-99 -39 -201 -39z" />
    <glyph glyph-name="aogonek" unicode="&#x105;" horiz-adv-x="1124" 
d="M731 482q0 250 -182 251q-117 0 -193 -101q-76 -102 -76 -230q1 -250 183 -250q117 0 193 101t75 229zM780 -426q-197 0 -196 162q0 147 186 264q-74 31 -88 123q-124 -145 -286 -145t-258 104q-96 106 -95 318q0 212 134 360q135 148 317 147q182 0 270 -133l20 111h232
l-115 -639q-16 -94 70 -94q45 0 90 16l-29 -170q-74 -18 -121 -21q-125 -102 -125 -192q0 -68 70 -68t135 29l-10 -133q-97 -39 -201 -39z" />
    <glyph glyph-name="Cacute" unicode="&#x106;" horiz-adv-x="1267" 
d="M772 1358l-72 90l363 342l129 -166zM670 -25q-260 0 -424 150t-164 420q0 307 207 517t538 210q233 0 469 -109l-55 -350h-221l41 229q-115 37 -234 37q-227 1 -364 -153t-137 -358t103 -298q103 -96 273 -96q231 0 463 137l-37 -227q-198 -109 -458 -109z" />
    <glyph glyph-name="cacute" unicode="&#x107;" horiz-adv-x="847" 
d="M496 1030l-72 90l362 342l129 -166zM465 -23q-199 1 -311 105t-111 313q0 209 136 361t384 151q154 0 275 -47l-33 -170q-106 43 -215 43q-152 0 -230 -96t-77 -240q0 -246 237 -245q119 0 225 41l-32 -181q-113 -35 -248 -35z" />
    <glyph glyph-name="Ccircumflex" unicode="&#x108;" horiz-adv-x="1267" 
d="M561 1358l-43 67l332 285h151l224 -285l-56 -67l-282 137zM670 -25q-260 0 -424 150t-164 420q0 307 207 517t538 210q233 0 469 -109l-55 -350h-221l41 229q-115 37 -234 37q-227 1 -364 -153t-137 -358t103 -298q103 -96 273 -96q231 0 463 137l-37 -227
q-198 -109 -458 -109z" />
    <glyph glyph-name="ccircumflex" unicode="&#x109;" horiz-adv-x="847" 
d="M270 1020l-43 67l332 285h152l223 -285l-55 -67l-283 137zM465 -23q-199 1 -311 105t-111 313q0 209 136 361t384 151q154 0 275 -47l-33 -170q-106 43 -215 43q-152 0 -230 -96t-77 -240q0 -246 237 -245q119 0 225 41l-32 -181q-113 -35 -248 -35z" />
    <glyph glyph-name="Cdotaccent" unicode="&#x10a;" horiz-adv-x="1267" 
d="M898 1366q-60 0 -102 42t-42 101t42 101t101 43q59 0 102 -42q43 -41 43 -101t-42 -102t-102 -42zM670 -25q-260 0 -424 150t-164 420q0 307 207 517t538 210q233 0 469 -109l-55 -350h-221l41 229q-115 37 -234 37q-227 1 -364 -153t-137 -358t103 -298q103 -96 273 -96
q231 0 463 137l-37 -227q-198 -109 -458 -109z" />
    <glyph glyph-name="cdotaccent" unicode="&#x10b;" horiz-adv-x="847" 
d="M628 1026q-60 0 -103 42q-42 42 -42 101t42 101q41 42 101 43q60 0 103 -42q43 -41 43 -101t-42 -102t-102 -42zM465 -23q-199 1 -311 105t-111 313q0 209 136 361t384 151q154 0 275 -47l-33 -170q-106 43 -215 43q-152 0 -230 -96t-77 -240q0 -246 237 -245
q119 0 225 41l-32 -181q-113 -35 -248 -35z" />
    <glyph glyph-name="Ccaron" unicode="&#x10c;" horiz-adv-x="1267" 
d="M797 1358l-222 284l56 68l280 -137l328 137l43 -68l-334 -284h-151zM670 -25q-260 0 -424 150t-164 420q0 307 207 517t538 210q233 0 469 -109l-55 -350h-221l41 229q-115 37 -234 37q-227 1 -364 -153t-137 -358t103 -298q103 -96 273 -96q231 0 463 137l-37 -227
q-198 -109 -458 -109z" />
    <glyph glyph-name="ccaron" unicode="&#x10d;" horiz-adv-x="847" 
d="M494 1032l-222 285l56 67l280 -137l328 137l43 -67l-334 -285h-151zM465 -23q-199 1 -311 105t-111 313q0 209 136 361t384 151q154 0 275 -47l-33 -170q-106 43 -215 43q-152 0 -230 -96t-77 -240q0 -246 237 -245q119 0 225 41l-32 -181q-113 -35 -248 -35z" />
    <glyph glyph-name="Dcaron" unicode="&#x10e;" horiz-adv-x="1425" 
d="M705 1352l-222 284l56 68l280 -137l328 137l43 -68l-334 -284h-151zM614 188q256 0 385 144t129 370q0 176 -86 266t-274 91h-186l-154 -871h186zM788 1247q290 0 438 -140t148 -416t-181 -474q-91 -101 -244 -159t-349 -58h-610l33 188h167l154 871h-168l33 188h579z
" />
    <glyph glyph-name="dcaron" unicode="&#x10f;" horiz-adv-x="1124" 
d="M731 482q0 250 -182 251q-117 0 -193 -101q-76 -102 -76 -230q1 -250 183 -250q117 0 193 101t75 229zM396 -23q-162 -1 -258 105t-95 318q0 212 134 360q133 148 315 147q182 0 270 -131l88 490h-170l33 182h401l-213 -1202q-16 -94 70 -94q45 0 90 16l-29 -170
q-78 -20 -147 -21q-178 0 -203 146q-124 -146 -286 -146zM1344 1466q68 0 98 -36t31 -93q0 -166 -273 -354l-84 76l66 66q20 22 47 70q27 47 27 107t-58 107l2 12q76 45 144 45z" />
    <glyph glyph-name="Dcroat" unicode="&#x110;" horiz-adv-x="1427" 
d="M616 188q256 0 385 144t129 370q0 176 -86 266t-274 91h-186l-60 -334h334l-33 -193h-336l-59 -344h186zM791 1247q289 0 437 -140t148 -416t-181 -474q-91 -101 -244 -159t-349 -58h-610l33 188h168l59 344h-152l33 193h154l59 334h-168l33 188h580z" />
    <glyph glyph-name="dcroat" unicode="&#x111;" horiz-adv-x="1124" 
d="M731 482q0 250 -182 251q-117 0 -193 -101q-76 -102 -76 -230q1 -250 183 -250q117 0 193 101t75 229zM971 152q45 0 90 16l-29 -170q-78 -20 -147 -21q-178 0 -203 146q-124 -145 -286 -145t-258 104q-96 106 -95 318q0 212 134 360q133 148 315 147q182 0 270 -131
l43 244h-289l27 149h288l19 97h-170l33 182h401l-49 -279h121l-27 -149h-121l-137 -774q-16 -94 70 -94z" />
    <glyph glyph-name="Emacron" unicode="&#x112;" 
d="M449 1372l30 172h582l-31 -172h-581zM-10 0l33 188h167l154 871h-168l33 188h1028l-63 -366h-220l31 178h-403l-60 -338h469l-33 -189h-469l-61 -344h410l32 187h222l-66 -375h-1036z" />
    <glyph glyph-name="emacron" unicode="&#x113;" horiz-adv-x="894" 
d="M260 1059l31 172h581l-30 -172h-582zM631 659q0 80 -92 80t-160 -66q-67 -67 -96 -173q348 16 348 159zM444 -23q-171 -1 -287 99t-116 315t145 366t363 150q143 1 218 -67t75 -176q0 -301 -572 -332q23 -178 217 -178q115 0 293 77l-35 -184q-130 -70 -301 -70z" />
    <glyph glyph-name="Ebreve" unicode="&#x114;" 
d="M738 1352q-150 0 -220 91t-51 228h166q-5 -73 25 -107t102 -34q137 0 184 141h166q-31 -143 -126 -231t-246 -88zM-10 0l33 188h167l154 871h-168l33 188h1028l-63 -366h-220l31 178h-403l-60 -338h469l-33 -189h-469l-61 -344h410l32 187h222l-66 -375h-1036z" />
    <glyph glyph-name="ebreve" unicode="&#x115;" horiz-adv-x="894" 
d="M558 1036q-150 0 -220 91t-51 229h166q-5 -72 25 -107t102 -35q137 0 184 142h166q-31 -144 -126 -232t-246 -88zM631 659q0 80 -92 80t-160 -66q-67 -67 -96 -173q348 16 348 159zM444 -23q-171 -1 -287 99t-116 315t145 366t363 150q143 1 218 -67t75 -176
q0 -301 -572 -332q23 -178 217 -178q115 0 293 77l-35 -184q-130 -70 -301 -70z" />
    <glyph glyph-name="Edotaccent" unicode="&#x116;" 
d="M757 1360q-60 0 -103 42q-42 42 -42 101t42 101t102 43q60 0 102 -42q43 -41 43 -101t-42 -102t-102 -42zM-10 0l33 188h167l154 871h-168l33 188h1028l-63 -366h-220l31 178h-403l-60 -338h469l-33 -189h-469l-61 -344h410l32 187h222l-66 -375h-1036z" />
    <glyph glyph-name="edotaccent" unicode="&#x117;" horiz-adv-x="894" 
d="M583 1026q-60 0 -103 42q-42 42 -42 101t42 101t102 43q60 0 102 -42q43 -41 43 -101t-42 -102t-102 -42zM631 659q0 80 -92 80t-160 -66q-67 -67 -96 -173q348 16 348 159zM444 -23q-171 -1 -287 99t-116 315t145 366t363 150q143 1 218 -67t75 -176q0 -301 -572 -332
q23 -178 217 -178q115 0 293 77l-35 -184q-130 -70 -301 -70z" />
    <glyph glyph-name="Eogonek" unicode="&#x118;" 
d="M768 -215q0 -68 70 -68t135 29l-10 -133q-98 -39 -201 -39q-197 0 -197 162q0 152 187 264h-762l33 188h167l154 871h-168l33 188h1028l-63 -366h-220l31 178h-403l-60 -338h469l-33 -189h-469l-61 -344h410l32 187h222l-66 -375h-104q-154 -109 -154 -215z" />
    <glyph glyph-name="eogonek" unicode="&#x119;" horiz-adv-x="894" 
d="M631 659q0 80 -92 80q-92 -1 -160 -67t-96 -172q348 16 348 159zM491 -426q-96 0 -150 41t-54 123q0 135 151 239q-178 5 -288 105t-109 312q0 212 145 363t363 150q143 1 218 -67t75 -176q0 -301 -572 -332q23 -178 217 -178q115 0 293 77l-35 -184q-256 -135 -256 -262
q-1 -68 69 -68t136 29l-10 -133q-97 -39 -193 -39z" />
    <glyph glyph-name="Ecaron" unicode="&#x11a;" 
d="M659 1352l-221 284l56 68l280 -137l328 137l43 -68l-334 -284h-152zM-10 0l33 188h167l154 871h-168l33 188h1028l-63 -366h-220l31 178h-403l-60 -338h469l-33 -189h-469l-61 -344h410l32 187h222l-66 -375h-1036z" />
    <glyph glyph-name="ecaron" unicode="&#x11b;" horiz-adv-x="894" 
d="M465 1032l-221 285l55 67l281 -137l327 137l43 -67l-334 -285h-151zM631 659q0 80 -92 80t-160 -66q-67 -67 -96 -173q348 16 348 159zM444 -23q-171 -1 -287 99t-116 315t145 366t363 150q143 1 218 -67t75 -176q0 -301 -572 -332q23 -178 217 -178q115 0 293 77
l-35 -184q-130 -70 -301 -70z" />
    <glyph glyph-name="Gcircumflex" unicode="&#x11c;" horiz-adv-x="1425" 
d="M567 1358l-43 67l332 285h152l223 -285l-55 -67l-283 137zM721 -25q-293 0 -465 152t-172 424q0 317 219 519t553 202q274 0 516 -115l-55 -321h-223l32 196q-131 41 -258 41q-233 0 -388 -141t-154 -369q0 -182 106 -284t318 -103q135 0 251 39l50 283h-260l32 184h584
l-33 -184h-102l-72 -424q-82 -39 -213 -69t-266 -30z" />
    <glyph glyph-name="gcircumflex" unicode="&#x11d;" horiz-adv-x="954" 
d="M244 1020l-43 67l331 285h152l223 -285l-55 -67l-283 137zM301 -260q82 0 135 15q88 25 88 73q0 32 -44 58t-132 61t-121 51q-150 -84 -149 -160q0 -98 223 -98zM494 748q-94 0 -148 -66t-53 -154q0 -137 133 -137q94 0 147 66t54 153q0 138 -133 138zM-145 -197
q0 168 268 289q-10 20 -10 53q0 78 82 152q-115 79 -115 231t113 266t299 113q74 0 145 -22h360l-32 -180l-144 10q18 -49 19 -105q0 -152 -113 -266t-299 -113q-49 0 -106 11q-21 -33 1 -55q31 -32 161 -77q266 -92 266 -268q0 -96 -83 -175q-101 -97 -355 -97t-356 66
q-101 67 -101 167z" />
    <glyph glyph-name="Gbreve" unicode="&#x11e;" horiz-adv-x="1425" 
d="M876 1358q-151 0 -221 91t-51 228h166q-4 -73 26 -107t101 -34q137 0 184 141h166q-31 -143 -125 -231t-246 -88zM721 -25q-293 0 -465 152t-172 424q0 317 219 519t553 202q274 0 516 -115l-55 -321h-223l32 196q-131 41 -258 41q-233 0 -388 -141t-154 -369
q0 -182 106 -284t318 -103q135 0 251 39l50 283h-260l32 184h584l-33 -184h-102l-72 -424q-82 -39 -213 -69t-266 -30z" />
    <glyph glyph-name="gbreve" unicode="&#x11f;" horiz-adv-x="954" 
d="M550 1036q-150 0 -220 91t-51 229h165q-4 -72 26 -107t101 -35q137 0 185 142h166q-31 -144 -126 -232t-246 -88zM301 -260q82 0 135 15q88 25 88 73q0 32 -44 58t-132 61t-121 51q-150 -84 -149 -160q0 -98 223 -98zM494 748q-94 0 -148 -66t-53 -154q0 -137 133 -137
q94 0 147 66t54 153q0 138 -133 138zM-145 -197q0 168 268 289q-10 20 -10 53q0 78 82 152q-115 79 -115 231t113 266t299 113q74 0 145 -22h360l-32 -180l-144 10q18 -49 19 -105q0 -152 -113 -266t-299 -113q-49 0 -106 11q-21 -33 1 -55q31 -32 161 -77q266 -92 266 -268
q0 -96 -83 -175q-101 -97 -355 -97t-356 66q-101 67 -101 167z" />
    <glyph glyph-name="Gdotaccent" unicode="&#x120;" horiz-adv-x="1425" 
d="M884 1366q-60 0 -103 42q-42 42 -42 101t42 101q41 42 101 43q60 0 103 -42q43 -41 43 -101t-42 -102t-102 -42zM721 -25q-293 0 -465 152t-172 424q0 317 219 519t553 202q274 0 516 -115l-55 -321h-223l32 196q-131 41 -258 41q-233 0 -388 -141t-154 -369
q0 -182 106 -284t318 -103q135 0 251 39l50 283h-260l32 184h584l-33 -184h-102l-72 -424q-82 -39 -213 -69t-266 -30z" />
    <glyph glyph-name="gdotaccent" unicode="&#x121;" horiz-adv-x="954" 
d="M563 1313q59 0 103 -42q44 -41 43 -101t-43 -102t-102 -42t-102 42t-42 101t42 101t101 43zM301 -260q82 0 135 15q88 25 88 73q0 32 -44 58t-132 61t-121 51q-150 -84 -149 -160q0 -98 223 -98zM494 748q-94 0 -148 -66t-53 -154q0 -137 133 -137q94 0 147 66t54 153
q0 138 -133 138zM-145 -197q0 168 268 289q-10 20 -10 53q0 78 82 152q-115 79 -115 231t113 266t299 113q74 0 145 -22h360l-32 -180l-144 10q18 -49 19 -105q0 -152 -113 -266t-299 -113q-49 0 -106 11q-21 -33 1 -55q31 -32 161 -77q266 -92 266 -268q0 -96 -83 -175
q-101 -97 -355 -97t-356 66q-101 67 -101 167z" />
    <glyph glyph-name="Gcommaaccent" unicode="&#x122;" horiz-adv-x="1425" 
d="M721 -25q-293 0 -465 152t-172 424q0 317 219 519t553 202q274 0 516 -115l-55 -321h-223l32 196q-131 41 -258 41q-233 0 -388 -141t-154 -369q0 -182 106 -284t318 -103q135 0 251 39l50 283h-260l32 184h584l-33 -184h-102l-72 -424q-82 -39 -213 -69t-266 -30z
M619 -129q69 0 99 -37t30 -92q0 -166 -273 -354l-84 75q45 45 66 67q20 22 47 70q26 48 26 108t-57 106l2 12q76 45 144 45z" />
    <glyph glyph-name="gcommaaccent" unicode="&#x123;" horiz-adv-x="954" 
d="M301 -260q82 0 135 15q88 25 88 73q0 32 -44 58t-132 61t-121 51q-150 -84 -149 -160q0 -98 223 -98zM494 748q-94 0 -148 -66t-53 -154q0 -137 133 -137q94 0 147 66t54 153q0 138 -133 138zM-145 -197q0 168 268 289q-10 20 -10 53q0 78 82 152q-115 79 -115 231
t113 266t299 113q74 0 145 -22h360l-32 -180l-144 10q18 -49 19 -105q0 -152 -113 -266t-299 -113q-49 0 -106 11q-21 -33 1 -55q31 -32 161 -77q266 -92 266 -268q0 -96 -83 -175q-101 -97 -355 -97t-356 66q-101 67 -101 167zM567 1028q-69 0 -99 37t-30 92q0 166 273 354
l84 -75q-45 -45 -65 -67t-48 -70q-27 -47 -27 -107t58 -107l-2 -12q-76 -45 -144 -45z" />
    <glyph glyph-name="Hcircumflex" unicode="&#x124;" horiz-adv-x="1564" 
d="M-10 0l33 188h167l154 871h-168l33 188h575l-32 -188h-170l-60 -338h592l60 338h-170l32 188h576l-33 -188h-168l-154 -871h168l-32 -188h-576l33 188h170l59 336h-592l-59 -336h170l-33 -188h-575zM629 1352l-43 67l332 285h151l223 -285l-55 -67l-283 137z" />
    <glyph glyph-name="hcircumflex" unicode="&#x125;" horiz-adv-x="1099" 
d="M47 1544l-43 68l332 284h151l224 -284l-56 -68l-282 137zM700 907q138 0 204 -81t42 -216l-65 -364q-16 -94 69 -94q45 0 90 16l-28 -170q-78 -20 -148 -21q-141 0 -186 79t-25 200l62 338q23 131 -82 131q-111 0 -268 -150l-103 -575h-231l223 1266h-148l33 182h379
l-119 -678q163 137 301 137z" />
    <glyph glyph-name="Hbar" unicode="&#x126;" horiz-adv-x="1564" 
d="M524 721h592l21 121h-592zM154 831l20 121h154l18 107h-168l33 188h575l-32 -188h-170l-19 -107h592l19 107h-170l32 188h576l-33 -188h-168l-18 -107h153l-20 -121h-156l-112 -643h167l-32 -188h-576l33 188h170l59 336h-592l-59 -336h170l-33 -188h-575l33 188h168
l112 643h-151z" />
    <glyph glyph-name="hbar" unicode="&#x127;" horiz-adv-x="1097" 
d="M698 907q138 0 204 -81t42 -216l-65 -364q-16 -94 69 -94q45 0 90 16l-28 -170q-78 -20 -148 -21q-141 0 -186 79t-25 200l62 338q23 131 -82 131q-111 0 -269 -150l-102 -575h-231l180 1020h-135l26 149h136l16 97h-148l33 182h379l-49 -279h281l-27 -149h-281l-43 -250
q163 137 301 137z" />
    <glyph glyph-name="Itilde" unicode="&#x128;" horiz-adv-x="735" 
d="M412 1653q58 0 143 -48q84 -49 129 -49q77 -1 119 53q14 17 37 50l75 -45q-27 -52 -59 -100t-92 -99t-116 -51t-145 48t-134 48q-74 0 -144 -100l-75 43q23 51 53 100q31 49 91 99t118 51zM-10 0l33 188h167l154 871h-168l33 188h573l-32 -188h-168l-154 -871h168
l-33 -188h-573z" />
    <glyph glyph-name="itilde" unicode="&#x129;" horiz-adv-x="571" 
d="M216 1321q58 0 142 -48t130 -48q78 0 118 52q14 17 37 50l76 -45q-27 -51 -59 -99q-32 -47 -93 -99t-117 -52t-144 48q-89 48 -134 48q-73 0 -143 -100l-76 43q23 51 53 100q31 49 91 99q61 50 119 51zM330 -23q-143 0 -190 78q-46 78 -25 201l80 446h-148l33 183h379
l-115 -639q-16 -94 68 -94q47 0 92 16l-29 -170q-77 -21 -145 -21z" />
    <glyph glyph-name="Imacron" unicode="&#x12a;" horiz-adv-x="735" 
d="M227 1372l31 172h582l-31 -172h-582zM-10 0l33 188h167l154 871h-168l33 188h573l-32 -188h-168l-154 -871h168l-33 -188h-573z" />
    <glyph glyph-name="imacron" unicode="&#x12b;" horiz-adv-x="571" 
d="M20 1059l31 172h582l-31 -172h-582zM330 -23q-143 0 -190 78q-46 78 -25 201l80 446h-148l33 183h379l-115 -639q-16 -94 68 -94q47 0 92 16l-29 -170q-77 -21 -145 -21z" />
    <glyph glyph-name="Ibreve" unicode="&#x12c;" horiz-adv-x="735" 
d="M509 1352q-151 0 -221 91t-50 228h165q-4 -73 26 -107t101 -34q137 0 185 141h166q-31 -143 -126 -231t-246 -88zM-10 0l33 188h167l154 871h-168l33 188h573l-32 -188h-168l-154 -871h168l-33 -188h-573z" />
    <glyph glyph-name="ibreve" unicode="&#x12d;" horiz-adv-x="571" 
d="M316 1036q-150 0 -220 91t-51 229h166q-4 -72 26 -107t101 -35q137 0 184 142h166q-31 -144 -126 -232t-246 -88zM330 -23q-143 0 -190 78q-46 78 -25 201l80 446h-148l33 183h379l-115 -639q-16 -94 68 -94q47 0 92 16l-29 -170q-77 -21 -145 -21z" />
    <glyph glyph-name="Iogonek" unicode="&#x12e;" horiz-adv-x="735" 
d="M309 -283q69 0 135 29l-10 -133q-96 -39 -201 -39q-197 0 -196 162q0 152 186 264h-233l33 188h167l154 871h-168l33 188h573l-32 -188h-168l-154 -871h168l-33 -188h-170q-154 -109 -153 -215q0 -68 69 -68z" />
    <glyph glyph-name="iogonek" unicode="&#x12f;" horiz-adv-x="573" 
d="M381 1018q-63 0 -109 45q-45 45 -45 108t45 109q44 46 108 45q64 0 109 -45q45 -44 45 -108t-44 -109q-46 -45 -109 -45zM233 -426q-197 0 -196 162q0 145 180 260q-139 55 -100 260l80 446h-148l33 183h379l-115 -639q-16 -94 68 -94q47 0 92 16l-29 -170
q-59 -16 -112 -18q-125 -102 -125 -195q0 -68 69 -68t135 29l-10 -133q-97 -39 -201 -39z" />
    <glyph glyph-name="Idotaccent" unicode="&#x130;" horiz-adv-x="735" 
d="M540 1360q-60 0 -103 42q-42 42 -42 101t42 101q41 42 101 43q60 0 103 -42q43 -41 43 -101t-42 -102t-102 -42zM-10 0l33 188h167l154 871h-168l33 188h573l-32 -188h-168l-154 -871h168l-33 -188h-573z" />
    <glyph glyph-name="dotlessi" unicode="&#x131;" horiz-adv-x="571" 
d="M330 -23q-143 0 -190 78q-46 78 -25 201l80 446h-148l33 183h379l-115 -639q-16 -94 68 -94q47 0 92 16l-29 -170q-77 -21 -145 -21z" />
    <glyph glyph-name="Jcircumflex" unicode="&#x134;" horiz-adv-x="671" 
d="M190 1352l-43 67l332 285h152l223 -285l-55 -67l-283 137zM-57 -369l-66 148q229 100 254 250l182 1030h-147l33 188h532l-33 -188h-147l-186 -1049q-32 -177 -153 -260q-122 -82 -269 -119z" />
    <glyph glyph-name="jcircumflex" unicode="&#x135;" horiz-adv-x="528" 
d="M10 1020l-43 67l332 285h152l223 -285l-56 -67l-282 137zM-59 -430q-70 0 -152 24l33 177q128 -42 192 9q35 28 49 107l144 815h-160l33 183h391l-174 -985q-57 -330 -356 -330z" />
    <glyph glyph-name="Kcommaaccent" unicode="&#x136;" horiz-adv-x="1411" 
d="M-10 0l33 188h167l154 871h-168l33 188h567l-33 -188h-161l-154 -871h188l-32 -188h-594zM965 0l-402 612l2 15l479 436h-129l31 184h547l-33 -188h-129l-491 -455l274 -416h213l-33 -188h-329zM709 -123q69 0 99 -37t30 -92q0 -166 -273 -354l-84 76l66 66q20 22 47 70
t27 108t-58 106l2 12q76 45 144 45z" />
    <glyph glyph-name="kcommaaccent" unicode="&#x137;" horiz-adv-x="1034" 
d="M668 907q124 0 200 -60q74 -60 74 -175t-83 -195t-218 -115l76 -133q43 -73 96 -73t131 41l-33 -179q-76 -41 -151 -41q-150 0 -238 162l-127 238l17 84q127 8 216 57t89 130t-104 81t-240 -106l-111 -623h-231l223 1266h-127l33 182h358l-115 -645q141 104 265 104z
M440 -123q68 0 99 -37t30 -92q0 -166 -272 -354l-84 76l66 66q20 22 47 70q26 48 26 108t-57 106l2 12q75 45 143 45z" />
    <glyph glyph-name="kgreenlandic" unicode="&#x138;" horiz-adv-x="1079" 
d="M713 907q125 0 199 -60t75 -175q0 -115 -83 -195t-218 -115l76 -133q43 -73 96 -73t131 41l-33 -179q-76 -41 -151 -41q-150 0 -238 162l-127 238l17 84q127 8 216 57t89 130t-104 81t-240 -106l-111 -623h-231l125 702h-127l32 183h359l-14 -82q137 104 262 104z" />
    <glyph glyph-name="Lacute" unicode="&#x139;" horiz-adv-x="1134" 
d="M428 1352l-72 90l363 342l129 -166zM-10 0l33 188h167l154 871h-168l33 188h604l-33 -188h-198l-154 -871h403l37 201h219l-69 -389h-1028z" />
    <glyph glyph-name="lacute" unicode="&#x13a;" horiz-adv-x="522" 
d="M256 1544l-72 90l363 342l129 -166zM279 -23q-143 0 -190 78q-46 78 -26 201l179 1010h-148l33 182h379l-213 -1202q-16 -94 67 -94q47 0 93 16l-29 -170q-77 -21 -145 -21z" />
    <glyph glyph-name="Lcommaaccent" unicode="&#x13b;" horiz-adv-x="1134" 
d="M-10 0l33 188h167l154 871h-168l33 188h604l-33 -188h-198l-154 -871h403l37 201h219l-69 -389h-1028zM563 -123q68 0 99 -37t30 -92q0 -166 -272 -354l-84 76q45 44 65 66t48 70q27 48 27 108t-58 106l2 12q75 45 143 45z" />
    <glyph glyph-name="lcommaaccent" unicode="&#x13c;" horiz-adv-x="522" 
d="M279 -23q-143 0 -190 78q-46 78 -26 201l179 1010h-148l33 182h379l-213 -1202q-16 -94 67 -94q47 0 93 16l-29 -170q-77 -21 -145 -21zM178 -123q68 0 98 -37t31 -92q0 -166 -272 -354l-84 76q45 44 65 66t47 70t27 108t-57 106l2 12q75 45 143 45z" />
    <glyph glyph-name="Lcaron" unicode="&#x13d;" horiz-adv-x="1144" 
d="M-10 0l33 188h167l154 871h-168l33 188h604l-33 -188h-198l-154 -871h403l37 201h219l-69 -389h-1028zM1049 1266q69 0 99 -37t30 -92q0 -166 -273 -355l-84 76q45 45 66 67q20 21 47 69t27 108t-58 106l2 13q76 45 144 45z" />
    <glyph glyph-name="lcaron" unicode="&#x13e;" horiz-adv-x="522" 
d="M279 -23q-143 0 -190 78q-46 78 -26 201l179 1010h-148l33 182h379l-213 -1202q-16 -94 67 -94q47 0 93 16l-29 -170q-77 -21 -145 -21zM735 1466q68 0 99 -36t30 -93q0 -166 -272 -354l-84 76q45 45 65 67t48 69q27 47 27 107t-58 107l2 12q75 45 143 45z" />
    <glyph glyph-name="Ldot" unicode="&#x13f;" horiz-adv-x="1134" 
d="M1028 672q0 -60 -42 -102t-102 -42t-103 42q-42 42 -42 102t42 101q41 42 101 42t103 -42t43 -101zM-10 0l33 188h167l154 871h-168l33 188h604l-33 -188h-198l-154 -871h403l37 201h219l-69 -389h-1028z" />
    <glyph glyph-name="ldot" unicode="&#x140;" horiz-adv-x="741" 
d="M626 537q-60 0 -103 42q-42 42 -42 101t42 101q41 42 101 42t103 -42t43 -101t-42 -101t-102 -42zM279 -23q-143 0 -190 78q-46 78 -26 201l179 1010h-148l33 182h379l-213 -1202q-16 -94 67 -94q47 0 93 16l-29 -170q-77 -21 -145 -21z" />
    <glyph glyph-name="Lslash" unicode="&#x141;" horiz-adv-x="1136" 
d="M109 444l-35 131l200 87l72 397h-168l33 188h604l-33 -188h-198l-52 -289l349 150l37 -129l-414 -177l-74 -426h404l36 201h220l-70 -389h-1028l33 188h168l55 316z" />
    <glyph glyph-name="lslash" unicode="&#x142;" horiz-adv-x="626" 
d="M414 152q47 0 92 16l-29 -170q-78 -20 -145 -21q-143 0 -190 78q-46 78 -25 201l51 291l-152 -74l-45 127l226 109l98 557h-148l33 182h379l-108 -614l198 96l45 -125l-272 -133l-76 -426q-16 -94 68 -94z" />
    <glyph glyph-name="Nacute" unicode="&#x143;" horiz-adv-x="1542" 
d="M807 1352l-72 90l363 342l129 -166zM-10 0l33 188h167l154 871h-168l33 188h399l457 -880l121 692h-168l33 188h561l-33 -188h-168l-186 -1059h-211l-471 901l-127 -713h168l-33 -188h-561z" />
    <glyph glyph-name="nacute" unicode="&#x144;" horiz-adv-x="1153" 
d="M561 1030l-72 90l363 342l129 -166zM768 907q124 0 190 -81t41 -216l-65 -364q-16 -94 70 -94q45 0 90 16l-29 -170q-78 -20 -147 -21q-141 0 -187 79q-45 79 -24 200l61 338q23 131 -82 131q-111 0 -270 -152l-103 -573h-231l125 702h-144l33 183h365l-23 -125
q172 147 330 147z" />
    <glyph glyph-name="Ncommaaccent" unicode="&#x145;" horiz-adv-x="1542" 
d="M-10 0l33 188h167l154 871h-168l33 188h399l457 -880l121 692h-168l33 188h561l-33 -188h-168l-186 -1059h-211l-471 901l-127 -713h168l-33 -188h-561zM705 -123q69 0 99 -37t30 -92q0 -166 -273 -354l-84 76l66 66q20 22 47 70q26 48 26 108t-57 106l2 12q76 45 144 45
z" />
    <glyph glyph-name="ncommaaccent" unicode="&#x146;" horiz-adv-x="1153" 
d="M768 907q124 0 190 -81t41 -216l-65 -364q-16 -94 70 -94q45 0 90 16l-29 -170q-78 -20 -147 -21q-141 0 -187 79q-45 79 -24 200l61 338q23 131 -82 131q-111 0 -270 -152l-103 -573h-231l125 702h-144l33 183h365l-23 -125q172 147 330 147zM528 -123q68 0 99 -37
t30 -92q0 -166 -272 -354l-84 76l66 66q20 22 47 70q26 48 26 108t-57 106l2 12q75 45 143 45z" />
    <glyph glyph-name="Ncaron" unicode="&#x147;" horiz-adv-x="1542" 
d="M819 1352l-221 284l55 68l281 -137l328 137l43 -68l-334 -284h-152zM-10 0l33 188h167l154 871h-168l33 188h399l457 -880l121 692h-168l33 188h561l-33 -188h-168l-186 -1059h-211l-471 901l-127 -713h168l-33 -188h-561z" />
    <glyph glyph-name="ncaron" unicode="&#x148;" horiz-adv-x="1153" 
d="M551 1032l-221 285l55 67l281 -137l327 137l43 -67l-334 -285h-151zM768 907q124 0 190 -81t41 -216l-65 -364q-16 -94 70 -94q45 0 90 16l-29 -170q-78 -20 -147 -21q-141 0 -187 79q-45 79 -24 200l61 338q23 131 -82 131q-111 0 -270 -152l-103 -573h-231l125 702
h-144l33 183h365l-23 -125q172 147 330 147z" />
    <glyph glyph-name="napostrophe" unicode="&#x149;" horiz-adv-x="1153" 
d="M768 907q124 0 190 -81t41 -216l-65 -364q-16 -94 70 -94q45 0 90 16l-29 -170q-78 -20 -147 -21q-141 0 -187 79q-45 79 -24 200l61 338q23 131 -82 131q-111 0 -270 -152l-103 -573h-231l125 702h-144l33 183h365l-23 -125q172 147 330 147zM360 1448q68 0 99 -37
t30 -92q0 -166 -272 -354l-84 75q45 45 66 67q20 22 47 70q26 47 26 107t-57 107l2 12q75 45 143 45z" />
    <glyph glyph-name="Eng" unicode="&#x14a;" horiz-adv-x="1542" 
d="M-10 0l33 188h167l154 871h-168l33 188h399l463 -839l115 651h-168l33 188h561l-33 -188h-168l-184 -1049q-32 -177 -153 -260q-122 -82 -269 -119l-66 148q229 100 254 250l8 51l-458 821l-127 -713h168l-33 -188h-561z" />
    <glyph glyph-name="eng" unicode="&#x14b;" horiz-adv-x="1087" 
d="M768 907q124 0 190 -81t41 -216l-125 -710q-57 -330 -356 -330q-70 0 -151 24l32 177q129 -42 193 9q35 28 49 107l127 707q23 131 -82 131q-111 0 -270 -152l-103 -573h-231l125 702h-144l33 183h365l-23 -125q172 147 330 147z" />
    <glyph glyph-name="Omacron" unicode="&#x14c;" horiz-adv-x="1456" 
d="M565 1378l31 172h582l-31 -172h-582zM676 174q207 0 346 146t139 374q0 180 -93 280t-257 99q-207 0 -344 -148t-137 -376q0 -179 91 -277t255 -98zM670 -25q-270 0 -428 151t-158 417q0 307 204 518t529 211q270 0 430 -153t160 -417q-1 -305 -205 -516t-532 -211z" />
    <glyph glyph-name="omacron" unicode="&#x14d;" horiz-adv-x="1038" 
d="M324 1059l30 172h582l-31 -172h-581zM461 152q125 0 195 108t71 248q0 225 -178 225q-125 1 -196 -107t-70 -249q0 -225 178 -225zM455 -23q-190 -1 -302 103t-112 311t136 362t378 154q190 0 302 -103t112 -310t-136 -362t-378 -155z" />
    <glyph glyph-name="Obreve" unicode="&#x14e;" horiz-adv-x="1456" 
d="M855 1358q-151 0 -221 91t-50 228h166q-4 -73 26 -107t101 -34q137 0 184 141h166q-31 -143 -126 -231t-246 -88zM676 174q207 0 346 146t139 374q0 180 -93 280t-257 99q-207 0 -344 -148t-137 -376q0 -179 91 -277t255 -98zM670 -25q-270 0 -428 151t-158 417
q0 307 204 518t529 211q270 0 430 -153t160 -417q-1 -305 -205 -516t-532 -211z" />
    <glyph glyph-name="obreve" unicode="&#x14f;" horiz-adv-x="1038" 
d="M611 1036q-151 0 -221 91t-50 229h166q-4 -72 26 -107t101 -35q137 0 184 142h166q-31 -144 -126 -232t-246 -88zM461 152q125 0 195 108t71 248q0 225 -178 225q-125 1 -196 -107t-70 -249q0 -225 178 -225zM455 -23q-190 -1 -302 103t-112 311t136 362t378 154
q190 0 302 -103t112 -310t-136 -362t-378 -155z" />
    <glyph glyph-name="Ohungarumlaut" unicode="&#x150;" horiz-adv-x="1456" 
d="M969 1358l-68 72l307 368l135 -151zM625 1358l-68 72l307 368l135 -151zM676 174q207 0 346 146t139 374q0 180 -93 280t-257 99q-207 0 -344 -148t-137 -376q0 -179 91 -277t255 -98zM670 -25q-270 0 -428 151t-158 417q0 307 204 518t529 211q270 0 430 -153t160 -417
q-1 -305 -205 -516t-532 -211z" />
    <glyph glyph-name="ohungarumlaut" unicode="&#x151;" horiz-adv-x="1038" 
d="M760 1028l-68 72l307 368l136 -151zM416 1028l-68 72l307 368l136 -151zM461 152q125 0 195 108t71 248q0 225 -178 225q-125 1 -196 -107t-70 -249q0 -225 178 -225zM455 -23q-190 -1 -302 103t-112 311t136 362t378 154q190 0 302 -103t112 -310t-136 -362t-378 -155z
" />
    <glyph glyph-name="OE" unicode="&#x152;" horiz-adv-x="1812" 
d="M662 188h139l153 871h-141q-209 0 -345 -141t-136 -369q0 -173 86 -267t244 -94zM672 0q-272 0 -429 140t-157 403q0 305 203 505t530 199h1028l-63 -366h-219l30 178h-403l-59 -338h469l-33 -189h-469l-62 -344h410l33 187h221l-66 -375h-964z" />
    <glyph glyph-name="oe" unicode="&#x153;" horiz-adv-x="1568" 
d="M1214 739q-92 -1 -160 -67t-91 -172q143 6 243 45t101 119q-1 75 -93 75zM461 152q125 0 195 108t71 248q0 225 -178 225q-125 1 -196 -107t-70 -249q0 -225 178 -225zM449 -23q-184 1 -296 105t-112 309t136 361q135 156 369 156t328 -163q133 162 359 162
q143 -1 213 -67t70 -170q0 -303 -564 -338q18 -178 215 -178q109 0 289 77l-35 -182q-135 -72 -286 -72q-231 0 -324 164q-133 -164 -362 -164z" />
    <glyph glyph-name="Racute" unicode="&#x154;" horiz-adv-x="1320" 
d="M709 641q161 0 233 72t72 168q0 178 -232 178h-200l-74 -418h201zM797 1247q231 0 345 -103q114 -104 114 -254t-93 -254q-92 -104 -248 -142l136 -306h161l-32 -188h-297l-201 457h-207l-47 -269h168l-33 -188h-573l33 188h167l154 871h-168l33 188h588zM659 1352
l-71 90l362 342l129 -166z" />
    <glyph glyph-name="racute" unicode="&#x155;" horiz-adv-x="897" 
d="M467 1030l-72 90l363 342l129 -166zM733 907q76 0 124 -42t48 -128t-28 -168l-211 11q14 66 14 77q0 51 -51 52q-86 0 -215 -142l-101 -567h-231l125 702h-144l33 183h365l-25 -142q143 164 297 164z" />
    <glyph glyph-name="Rcommaaccent" unicode="&#x156;" horiz-adv-x="1320" 
d="M709 641q161 0 233 72t72 168q0 178 -232 178h-200l-74 -418h201zM797 1247q231 0 345 -103q114 -104 114 -254t-93 -254q-92 -104 -248 -142l136 -306h161l-32 -188h-297l-201 457h-207l-47 -269h168l-33 -188h-573l33 188h167l154 871h-168l33 188h588zM647 -123
q69 0 99 -37t30 -92q0 -166 -272 -354l-84 76q45 44 65 66t47 70t27 108t-57 106l2 12q75 45 143 45z" />
    <glyph glyph-name="rcommaaccent" unicode="&#x157;" horiz-adv-x="897" 
d="M733 907q76 0 124 -42t48 -128t-28 -168l-211 11q14 66 14 77q0 51 -51 52q-86 0 -215 -142l-101 -567h-231l125 702h-144l33 183h365l-25 -142q143 164 297 164zM164 -123q68 0 98 -37t31 -92q0 -166 -273 -354l-83 76q45 44 65 66t47 70t27 108t-58 106l2 12
q76 45 144 45z" />
    <glyph glyph-name="Rcaron" unicode="&#x158;" horiz-adv-x="1320" 
d="M709 641q161 0 233 72t72 168q0 178 -232 178h-200l-74 -418h201zM797 1247q231 0 345 -103q114 -104 114 -254t-93 -254q-92 -104 -248 -142l136 -306h161l-32 -188h-297l-201 457h-207l-47 -269h168l-33 -188h-573l33 188h167l154 871h-168l33 188h588zM670 1352
l-221 284l55 68l280 -137l328 137l43 -68l-334 -284h-151z" />
    <glyph glyph-name="rcaron" unicode="&#x159;" horiz-adv-x="897" 
d="M442 1032l-221 285l55 67l281 -137l328 137l43 -67l-334 -285h-152zM733 907q76 0 124 -42t48 -128t-28 -168l-211 11q14 66 14 77q0 51 -51 52q-86 0 -215 -142l-101 -567h-231l125 702h-144l33 183h365l-25 -142q143 164 297 164z" />
    <glyph glyph-name="Sacute" unicode="&#x15a;" horiz-adv-x="1091" 
d="M612 1358l-71 90l362 342l129 -166zM989 354q0 -184 -130 -282t-375 -97q-245 0 -468 72l56 311h213l-31 -163q120 -31 238 -31t189 47t71 123t-62 122t-148 74q-87 28 -175 64q-88 35 -150 109q-61 75 -61 188q0 170 128 275q128 106 345 106t444 -72l-53 -305h-217
l31 166q-84 23 -196 23t-178 -47q-66 -46 -65 -106q0 -60 33 -95t85 -57q51 -22 115 -42q147 -46 243 -116q52 -39 85 -108t33 -159z" />
    <glyph glyph-name="sacute" unicode="&#x15b;" horiz-adv-x="792" 
d="M406 1030l-72 90l362 342l129 -166zM288 -23q-144 0 -288 64l29 170q150 -63 282 -64q164 0 164 93q0 80 -199 136q-74 22 -136 84t-62 172t95 193q95 82 254 82t300 -51l-29 -164q-127 49 -239 49q-152 0 -152 -86q0 -39 41 -65t99 -47q59 -20 117 -48t100 -84t41 -122
q1 -66 -15 -111t-55 -94t-121 -78t-226 -29z" />
    <glyph glyph-name="Scircumflex" unicode="&#x15c;" horiz-adv-x="1091" 
d="M391 1358l-43 67l332 285h151l224 -285l-56 -67l-282 137zM989 354q0 -184 -130 -282t-375 -97q-245 0 -468 72l56 311h213l-31 -163q120 -31 238 -31t189 47t71 123t-62 122t-148 74q-87 28 -175 64q-88 35 -150 109q-61 75 -61 188q0 170 128 275q128 106 345 106
t444 -72l-53 -305h-217l31 166q-84 23 -196 23t-178 -47q-66 -46 -65 -106q0 -60 33 -95t85 -57q51 -22 115 -42q147 -46 243 -116q52 -39 85 -108t33 -159z" />
    <glyph glyph-name="scircumflex" unicode="&#x15d;" horiz-adv-x="792" 
d="M162 1020l-43 67l332 285h151l223 -285l-55 -67l-283 137zM288 -23q-144 0 -288 64l29 170q150 -63 282 -64q164 0 164 93q0 80 -199 136q-74 22 -136 84t-62 172t95 193q95 82 254 82t300 -51l-29 -164q-127 49 -239 49q-152 0 -152 -86q0 -39 41 -65t99 -47
q59 -20 117 -48t100 -84t41 -122q1 -66 -15 -111t-55 -94t-121 -78t-226 -29z" />
    <glyph glyph-name="Scedilla" unicode="&#x15e;" horiz-adv-x="1089" 
d="M360 -426q-119 0 -196 31l39 123q72 -27 139 -27q98 0 98 55q0 72 -139 72l12 43l74 109q-217 16 -371 67l56 311h213l-31 -163q120 -31 238 -31t189 47t71 123t-62 122t-148 74q-87 28 -175 64q-88 35 -150 109q-61 75 -61 188q0 170 128 275q128 106 345 106t444 -72
l-53 -305h-217l31 166q-84 23 -196 23t-178 -47q-66 -46 -65 -106q0 -60 33 -95t85 -57q51 -22 115 -42q147 -46 243 -116q52 -39 85 -108t33 -159q0 -176 -119 -272t-344 -105l-32 -63q150 -27 149 -152q0 -92 -82 -140t-201 -48z" />
    <glyph glyph-name="scedilla" unicode="&#x15f;" horiz-adv-x="792" 
d="M209 -426q-119 0 -197 31l39 123q72 -27 139 -27q98 0 99 55q0 72 -139 72l12 43l76 111q-133 12 -238 59l29 170q150 -63 282 -64q164 0 164 93q0 80 -199 136q-74 22 -136 84t-62 172t95 193q95 82 254 82t300 -51l-29 -164q-127 49 -239 49q-152 0 -152 -86
q0 -39 41 -65t99 -47q59 -20 117 -48t100 -84q42 -55 41 -149q0 -94 -73 -181t-257 -101l-33 -66q150 -27 150 -152q0 -92 -82 -140t-201 -48z" />
    <glyph glyph-name="Scaron" unicode="&#x160;" horiz-adv-x="1091" 
d="M602 1358l-221 284l55 68l281 -137l327 137l43 -68l-333 -284h-152zM989 354q0 -184 -130 -282t-375 -97q-245 0 -468 72l56 311h213l-31 -163q120 -31 238 -31t189 47t71 123t-62 122t-148 74q-87 28 -175 64q-88 35 -150 109q-61 75 -61 188q0 170 128 275
q128 106 345 106t444 -72l-53 -305h-217l31 166q-84 23 -196 23t-178 -47q-66 -46 -65 -106q0 -60 33 -95t85 -57q51 -22 115 -42q147 -46 243 -116q52 -39 85 -108t33 -159z" />
    <glyph glyph-name="scaron" unicode="&#x161;" horiz-adv-x="792" 
d="M381 1032l-221 285l55 67l281 -137l327 137l43 -67l-334 -285h-151zM288 -23q-144 0 -288 64l29 170q150 -63 282 -64q164 0 164 93q0 80 -199 136q-74 22 -136 84t-62 172t95 193q95 82 254 82t300 -51l-29 -164q-127 49 -239 49q-152 0 -152 -86q0 -39 41 -65t99 -47
q59 -20 117 -48t100 -84t41 -122q1 -66 -15 -111t-55 -94t-121 -78t-226 -29z" />
    <glyph glyph-name="Tcommaaccent" unicode="&#x162;" horiz-adv-x="1206" 
d="M207 0l33 188h184l154 871h-234l-33 -191h-215l68 379h1134l-67 -379h-215l33 191h-234l-153 -871h184l-33 -188h-606zM479 -123q68 0 99 -37t30 -92q0 -166 -272 -354l-84 76q45 44 65 66t48 70q27 48 27 108t-58 106l2 12q75 45 143 45z" />
    <glyph glyph-name="tcommaaccent" unicode="&#x163;" horiz-adv-x="694" 
d="M336 -23q-134 0 -190 78t-33 203l77 444h-151l33 183h151l39 225h234l-41 -225h235l-33 -183h-233l-82 -464q-8 -45 16 -64q25 -18 79 -18t171 41l-30 -170q-108 -50 -242 -50zM289 -123q69 0 99 -37t30 -92q0 -166 -273 -354l-84 76l66 66q20 22 47 70t27 108t-58 106
l2 12q76 45 144 45z" />
    <glyph glyph-name="Tcaron" unicode="&#x164;" horiz-adv-x="1206" 
d="M662 1352l-222 284l56 68l280 -137l328 137l43 -68l-334 -284h-151zM207 0l33 188h184l154 871h-234l-33 -191h-215l68 379h1134l-67 -379h-215l33 191h-234l-153 -871h184l-33 -188h-606z" />
    <glyph glyph-name="tcaron" unicode="&#x165;" horiz-adv-x="694" 
d="M336 -23q-134 0 -190 78t-33 203l77 444h-151l33 183h151l39 225h234l-41 -225h235l-33 -183h-233l-82 -464q-8 -45 16 -64q25 -18 79 -18t171 41l-30 -170q-108 -50 -242 -50zM793 1456q69 0 99 -37t30 -92q0 -166 -273 -354l-84 76l66 66q20 22 47 70q27 47 27 107
t-58 107l2 12q76 45 144 45z" />
    <glyph glyph-name="Tbar" unicode="&#x166;" horiz-adv-x="1208" 
d="M236 514l28 156h244l70 389h-234l-33 -191h-215l68 379h1134l-67 -379h-215l33 191h-234l-70 -389h248l-28 -156h-246l-57 -326h184l-33 -188h-606l33 188h184l57 326h-245z" />
    <glyph glyph-name="tbar" unicode="&#x167;" horiz-adv-x="702" 
d="M446 156q54 0 170 41l-30 -170q-106 -49 -241 -49t-191 77q-56 78 -33 203l22 129h-123l29 160h121l29 155h-152l33 183h151l39 225h234l-41 -225h235l-32 -183h-234l-29 -155h218l-29 -160h-215l-27 -149q-8 -46 17 -64t79 -18z" />
    <glyph glyph-name="Utilde" unicode="&#x168;" horiz-adv-x="1411" 
d="M744 1653q58 0 143 -48q84 -49 129 -49q77 -1 119 53q14 17 36 50l76 -45q-27 -52 -59 -100t-92 -99t-116 -51t-145 48t-135 48q-73 0 -143 -100l-76 43q23 51 54 100t91 99t118 51zM632 -25q-232 -1 -362 141q-131 142 -86 392l99 551h-168l32 188h574l-33 -188h-168
l-106 -594q-24 -133 38 -206t189 -73t216 69t112 206l106 598h-174l33 188h567l-33 -188h-168l-106 -602q-41 -233 -185 -358q-145 -124 -377 -124z" />
    <glyph glyph-name="utilde" unicode="&#x169;" horiz-adv-x="1138" 
d="M544 1321q58 0 142 -48t129 -48q79 0 119 52q14 17 37 50l76 -45q-27 -51 -59 -99q-32 -47 -93 -99t-117 -52t-144 48q-89 48 -134 48q-74 0 -144 -100l-75 43q23 51 53 100q31 49 91 99q61 50 119 51zM346 -23q-124 0 -190 81t-41 216l78 428h-144l33 183h373l-109 -594
q-23 -131 82 -131q111 0 268 149l105 576h231l-117 -652q-16 -94 70 -94q45 0 90 17l-26 -158q-78 -20 -148 -21q-188 0 -217 156q-172 -156 -338 -156z" />
    <glyph glyph-name="Umacron" unicode="&#x16a;" horiz-adv-x="1411" 
d="M547 1372l31 172h581l-31 -172h-581zM632 -25q-232 -1 -362 141q-131 142 -86 392l99 551h-168l32 188h574l-33 -188h-168l-106 -594q-24 -133 38 -206t189 -73t216 69t112 206l106 598h-174l33 188h567l-33 -188h-168l-106 -602q-41 -233 -185 -358q-145 -124 -377 -124
z" />
    <glyph glyph-name="umacron" unicode="&#x16b;" horiz-adv-x="1138" 
d="M332 1059l30 172h582l-31 -172h-581zM346 -23q-124 0 -190 81t-41 216l78 428h-144l33 183h373l-109 -594q-23 -131 82 -131q111 0 268 149l105 576h231l-117 -652q-16 -94 70 -94q45 0 90 17l-26 -158q-78 -20 -148 -21q-188 0 -217 156q-172 -156 -338 -156z" />
    <glyph glyph-name="Ubreve" unicode="&#x16c;" horiz-adv-x="1411" 
d="M837 1352q-151 0 -221 91t-51 228h166q-4 -73 26 -107t101 -34q137 0 184 141h166q-32 -143 -126 -231t-245 -88zM632 -25q-232 -1 -362 141q-131 142 -86 392l99 551h-168l32 188h574l-33 -188h-168l-106 -594q-24 -133 38 -206t189 -73t216 69t112 206l106 598h-174
l33 188h567l-33 -188h-168l-106 -602q-41 -233 -185 -358q-145 -124 -377 -124z" />
    <glyph glyph-name="ubreve" unicode="&#x16d;" horiz-adv-x="1138" 
d="M634 1036q-150 0 -220 91t-52 229h166q-4 -72 26 -107t101 -35q137 0 185 142h166q-31 -144 -126 -232t-246 -88zM346 -23q-124 0 -190 81t-41 216l78 428h-144l33 183h373l-109 -594q-23 -131 82 -131q111 0 268 149l105 576h231l-117 -652q-16 -94 70 -94q45 0 90 17
l-26 -158q-78 -20 -148 -21q-188 0 -217 156q-172 -156 -338 -156z" />
    <glyph glyph-name="Uring" unicode="&#x16e;" horiz-adv-x="1411" 
d="M856 1468q47 0 76 38t29 87q0 82 -72 82q-47 0 -76 -38t-29 -87q0 -82 72 -82zM861 1343q-124 -1 -186 55q-63 56 -63 154t75 174t199 76t185 -55t61 -153t-73 -175q-74 -76 -198 -76zM632 -25q-232 -1 -362 141q-131 142 -86 392l99 551h-168l32 188h574l-33 -188h-168
l-106 -594q-24 -133 38 -206t189 -73t216 69t112 206l106 598h-174l33 188h567l-33 -188h-168l-106 -602q-41 -233 -185 -358q-145 -124 -377 -124z" />
    <glyph glyph-name="uring" unicode="&#x16f;" horiz-adv-x="1138" 
d="M657 1145q47 0 76 38t29 87q0 82 -72 82q-47 0 -76 -38t-28 -87q-1 -82 71 -82zM662 1020q-124 0 -186 55t-62 153t74 175q75 76 199 76q124 1 185 -55q62 -56 62 -154t-74 -174t-198 -76zM346 -23q-124 0 -190 81t-41 216l78 428h-144l33 183h373l-109 -594
q-23 -131 82 -131q111 0 268 149l105 576h231l-117 -652q-16 -94 70 -94q45 0 90 17l-26 -158q-78 -20 -148 -21q-188 0 -217 156q-172 -156 -338 -156z" />
    <glyph glyph-name="Uhungarumlaut" unicode="&#x170;" horiz-adv-x="1411" 
d="M963 1352l-68 71l307 369l135 -152zM618 1352l-67 71l307 369l135 -152zM632 -25q-232 -1 -362 141q-131 142 -86 392l99 551h-168l32 188h574l-33 -188h-168l-106 -594q-24 -133 38 -206t189 -73t216 69t112 206l106 598h-174l33 188h567l-33 -188h-168l-106 -602
q-41 -233 -185 -358q-145 -124 -377 -124z" />
    <glyph glyph-name="uhungarumlaut" unicode="&#x171;" horiz-adv-x="1138" 
d="M750 1028l-68 72l307 368l135 -151zM406 1028l-68 72l307 368l135 -151zM346 -23q-124 0 -190 81t-41 216l78 428h-144l33 183h373l-109 -594q-23 -131 82 -131q111 0 268 149l105 576h231l-117 -652q-16 -94 70 -94q45 0 90 17l-26 -158q-78 -20 -148 -21
q-188 0 -217 156q-172 -156 -338 -156z" />
    <glyph glyph-name="Uogonek" unicode="&#x172;" horiz-adv-x="1413" 
d="M700 -426q-197 0 -196 162q0 133 149 239q-246 -3 -380 139t-89 394l99 551h-168l32 188h574l-33 -188h-168l-106 -594q-24 -133 38 -206t189 -73t216 69t112 206l106 598h-174l33 188h567l-33 -188h-168l-106 -602q-33 -191 -121 -290q-65 -73 -137 -120
q-74 -47 -114 -78t-78 -82t-37 -100q0 -70 73 -70q66 0 131 29l-10 -133q-99 -39 -201 -39z" />
    <glyph glyph-name="uogonek" unicode="&#x173;" horiz-adv-x="1138" 
d="M788 -426q-197 0 -196 162q0 152 186 264q-78 37 -94 133q-172 -156 -338 -156q-124 0 -190 81t-41 216l78 428h-144l33 183h373l-109 -594q-23 -131 82 -131q111 0 268 149l105 576h231l-117 -652q-16 -94 70 -94q45 0 90 17l-26 -158q-78 -18 -131 -21
q-123 -100 -123 -192q0 -68 69 -68t135 29l-10 -133q-97 -39 -201 -39z" />
    <glyph glyph-name="Wcircumflex" unicode="&#x174;" horiz-adv-x="1914" 
d="M793 1352l-43 67l331 285h152l223 -285l-55 -67l-283 137zM381 0l-156 1059h-139l33 188h534l-32 -188h-177l109 -785l379 705l-14 80h-158l33 188h563l-33 -188h-178l117 -776l372 776h-174l33 188h543l-33 -188h-141l-516 -1059h-238l-121 668l-366 -668h-240z" />
    <glyph glyph-name="wcircumflex" unicode="&#x175;" horiz-adv-x="1447" 
d="M451 1020l-43 67l331 285h152l223 -285l-55 -67l-283 137zM1159 721q-37 0 -112 -43l-56 135q125 94 229 94t152 -53q47 -53 47 -139q1 -133 -107 -325t-290 -390h-188l-91 362q-98 -184 -239 -362h-195l-164 709h-127l33 176h275l131 -652q147 201 219 396l-19 80h-131
l33 176h281l135 -664q109 121 174 250q66 129 65 207q0 23 -9 33t-46 10z" />
    <glyph glyph-name="Ycircumflex" unicode="&#x176;" horiz-adv-x="1306" 
d="M469 1352l-43 67l332 285h151l224 -285l-56 -67l-282 137zM264 0l33 188h176l43 242l-293 629h-143l33 188h565l-33 -186h-178l188 -418l338 418h-178l33 186h584l-33 -188h-137l-506 -617l-45 -254h176l-33 -188h-590z" />
    <glyph glyph-name="ycircumflex" unicode="&#x177;" horiz-adv-x="1024" 
d="M246 1020l-43 67l332 285h151l223 -285l-55 -67l-283 137zM760 651q0 68 -50 68t-116 -43l-68 133q119 98 258 98q199 0 199 -215q0 -132 -83 -324t-211 -369t-302 -303t-335 -126t-279 129l100 127q86 -72 172 -72q158 0 375 246h-164l-98 707h-133l32 178h308l104 -826
q123 154 207 324t84 268z" />
    <glyph glyph-name="Ydieresis" unicode="&#x178;" horiz-adv-x="1306" 
d="M997 1360q-55 0 -94 39t-39 94t39 94t94 39t95 -39t38 -94q0 -55 -39 -94t-94 -39zM600 1360q-55 0 -94 39t-39 94t39 94t94 39t94 -39t39 -94t-39 -94t-94 -39zM264 0l33 188h176l43 242l-293 629h-143l33 188h565l-33 -186h-178l188 -418l338 418h-178l33 186h584
l-33 -188h-137l-506 -617l-45 -254h176l-33 -188h-590z" />
    <glyph glyph-name="Zacute" unicode="&#x179;" horiz-adv-x="1216" 
d="M657 1352l-71 90l362 342l129 -166zM51 0l-55 115l856 934h-457l-35 -201h-219l70 399h963l67 -106l-866 -942h491l37 211h219l-71 -410h-1000z" />
    <glyph glyph-name="zacute" unicode="&#x17a;" horiz-adv-x="931" 
d="M428 1030l-72 90l363 342l129 -166zM250 27q-72 0 -197 -37l-59 104l557 629h-258l-25 -158h-190l53 320h698l52 -101l-539 -602l203 -18q69 0 99 37t63 129l167 -47q-57 -217 -164 -273q-52 -26 -110 -26t-169 22q-109 22 -181 21z" />
    <glyph glyph-name="Zdotaccent" unicode="&#x17b;" horiz-adv-x="1216" 
d="M731 1647q59 0 103 -42q44 -41 43 -101t-43 -102t-102 -42t-102 42t-42 101t42 101t101 43zM51 0l-55 115l856 934h-457l-35 -201h-219l70 399h963l67 -106l-866 -942h491l37 211h219l-71 -410h-1000z" />
    <glyph glyph-name="zdotaccent" unicode="&#x17c;" horiz-adv-x="931" 
d="M538 1026q-60 0 -103 42q-42 42 -42 101t42 101q41 42 101 43q60 0 103 -42q43 -41 43 -101t-42 -102t-102 -42zM250 27q-72 0 -197 -37l-59 104l557 629h-258l-25 -158h-190l53 320h698l52 -101l-539 -602l203 -18q69 0 99 37t63 129l167 -47q-57 -217 -164 -273
q-52 -26 -110 -26t-169 22q-109 22 -181 21z" />
    <glyph glyph-name="Zcaron" unicode="&#x17d;" horiz-adv-x="1216" 
d="M635 1352l-221 284l55 68l281 -137l327 137l43 -68l-334 -284h-151zM51 0l-55 115l856 934h-457l-35 -201h-219l70 399h963l67 -106l-866 -942h491l37 211h219l-71 -410h-1000z" />
    <glyph glyph-name="zcaron" unicode="&#x17e;" horiz-adv-x="931" 
d="M432 1032l-221 285l55 67l281 -137l327 137l44 -67l-334 -285h-152zM250 27q-72 0 -197 -37l-59 104l557 629h-258l-25 -158h-190l53 320h698l52 -101l-539 -602l203 -18q69 0 99 37t63 129l167 -47q-57 -217 -164 -273q-52 -26 -110 -26t-169 22q-109 22 -181 21z" />
    <glyph glyph-name="longs" unicode="&#x17f;" horiz-adv-x="532" 
d="M-68 -430q-72 0 -139 14l33 178q41 -10 98 -10t93 28t51 107l143 811h-166l33 187h166l43 248q31 180 125 259t256 78q78 0 170 -18l-31 -172q-57 8 -119 8q-140 0 -170 -160l-217 -1228q-58 -330 -369 -330z" />
    <glyph glyph-name="AEacute" unicode="&#x1fc;" horiz-adv-x="1968" 
d="M1260 1352l-72 90l362 342l129 -166zM655 563h369l88 496h-59zM-96 0l33 184h149l723 879h-172l31 184h1333l-64 -366h-219l31 178h-403l-60 -338h469l-33 -189h-469l-61 -344h410l36 187h222l-70 -375h-1032l33 188h167l33 189h-485l-154 -193h160l-31 -184h-577z" />
    <glyph glyph-name="aeacute" unicode="&#x1fd;" horiz-adv-x="1427" 
d="M752 1030l-72 90l362 342l129 -166zM1165 664q0 75 -90 75q-91 0 -155 -59t-93 -160q338 12 338 144zM341 147q114 0 253 86q-18 57 -19 136h-120q-227 0 -228 -129q0 -93 114 -93zM272 -23q-128 -1 -204 63t-76 185q0 149 123 221t329 72h156l12 60q16 84 -20 118
t-158 35q-122 0 -287 -47l31 174q168 49 320 49q227 0 278 -141q127 141 322 141q137 -1 206 -69t68 -172q0 -291 -563 -306q4 -114 59 -160t161 -46t286 77l-35 -182q-135 -72 -291 -72q-229 0 -336 136q-191 -136 -381 -136z" />
    <glyph glyph-name="Oslashacute" unicode="&#x1fe;" horiz-adv-x="1456" 
d="M811 1073q-207 0 -344 -148t-137 -376q0 -137 53 -227l664 671q-93 80 -236 80zM676 174q207 0 346 146t139 374q0 139 -55 230l-666 -672q91 -78 236 -78zM670 -25q-236 0 -387 117l-142 -143l-67 61l141 144q-131 147 -131 389q0 307 204 518t529 211q231 0 389 -119
l146 147l67 -61l-145 -147q133 -154 133 -390q-1 -305 -205 -516t-532 -211zM788 1358l-71 90l362 342l129 -166z" />
    <glyph glyph-name="oslashacute" unicode="&#x1ff;" horiz-adv-x="1034" 
d="M547 733q-125 1 -196 -107t-70 -249q0 -55 12 -98l397 380q-47 74 -143 74zM459 152q125 0 195 108t71 248q0 41 -6 74l-391 -375q45 -55 131 -55zM453 -23q-176 0 -279 82l-125 -118l-53 53l125 119q-82 100 -82 266q0 219 136 374t378 154q186 0 295 -96l110 107
l54 -54l-115 -110q70 -98 70 -248q0 -219 -136 -374t-378 -155zM526 1030l-71 90l362 342l129 -166z" />
    <glyph glyph-name="Scommaaccent" unicode="&#x218;" horiz-adv-x="1091" 
d="M989 354q0 -184 -130 -282t-375 -97q-245 0 -468 72l56 311h213l-31 -163q120 -31 238 -31t189 47t71 123t-62 122t-148 74q-87 28 -175 64q-88 35 -150 109q-61 75 -61 188q0 170 128 275q128 106 345 106t444 -72l-53 -305h-217l31 166q-84 23 -196 23t-178 -47
q-66 -46 -65 -106q0 -60 33 -95t85 -57q51 -22 115 -42q147 -46 243 -116q52 -39 85 -108t33 -159zM451 -129q69 0 99 -37t30 -92q0 -166 -273 -354l-84 75q45 45 66 67q20 22 47 70q26 48 26 108t-57 106l2 12q76 45 144 45z" />
    <glyph glyph-name="scommaaccent" unicode="&#x219;" horiz-adv-x="792" 
d="M288 -23q-144 0 -288 64l29 170q150 -63 282 -64q164 0 164 93q0 80 -199 136q-74 22 -136 84t-62 172t95 193q95 82 254 82t300 -51l-29 -164q-127 49 -239 49q-152 0 -152 -86q0 -39 41 -65t99 -47q59 -20 117 -48t100 -84t41 -122q1 -66 -15 -111t-55 -94t-121 -78
t-226 -29zM307 -129q68 0 99 -37t30 -92q0 -166 -272 -354l-84 75q45 45 65 67q75 84 75 178q0 60 -58 106l2 12q75 45 143 45z" />
    <glyph glyph-name="uni021A" unicode="&#x21a;" horiz-adv-x="1206" 
d="M207 0l33 188h184l154 871h-234l-33 -191h-215l68 379h1134l-67 -379h-215l33 191h-234l-153 -871h184l-33 -188h-606zM479 -123q68 0 99 -37t30 -92q0 -166 -272 -354l-84 76q45 44 65 66t48 70q27 48 27 108t-58 106l2 12q75 45 143 45z" />
    <glyph glyph-name="uni021B" unicode="&#x21b;" horiz-adv-x="694" 
d="M336 -23q-134 0 -190 78t-33 203l77 444h-151l33 183h151l39 225h234l-41 -225h235l-33 -183h-233l-82 -464q-8 -45 16 -64q25 -18 79 -18t171 41l-30 -170q-108 -50 -242 -50zM289 -123q69 0 99 -37t30 -92q0 -166 -273 -354l-84 76l66 66q20 22 47 70t27 108t-58 106
l2 12q76 45 144 45z" />
    <glyph glyph-name="dotlessj" unicode="&#x237;" horiz-adv-x="528" 
d="M-59 -430q-70 0 -152 24l33 177q128 -42 192 9q35 28 49 107l144 815h-160l33 183h391l-174 -985q-57 -330 -356 -330z" />
    <glyph glyph-name="circumflex" unicode="&#x2c6;" horiz-adv-x="888" 
d="M135 1020l-43 67l332 285h151l224 -285l-56 -67l-282 137z" />
    <glyph glyph-name="caron" unicode="&#x2c7;" horiz-adv-x="892" 
d="M342 1032l-221 285l55 67l281 -137l327 137l43 -67l-333 -285h-152z" />
    <glyph glyph-name="breve" unicode="&#x2d8;" horiz-adv-x="790" 
d="M378 1036q-150 0 -220 91t-52 229h166q-4 -72 26 -107t101 -35q137 0 185 142h166q-31 -144 -126 -232t-246 -88z" />
    <glyph glyph-name="dotaccent" unicode="&#x2d9;" horiz-adv-x="489" 
d="M245 1026q-60 0 -103 42q-42 42 -42 101t42 101t102 43q60 0 102 -42q43 -41 43 -101t-42 -102t-102 -42z" />
    <glyph glyph-name="ring" unicode="&#x2da;" horiz-adv-x="720" 
d="M358 1145q47 0 76 38t29 87q0 82 -72 82q-47 0 -76 -38t-28 -87q-1 -82 71 -82zM363 1020q-124 0 -186 55t-62 153t74 175q75 76 199 76q124 1 185 -55t61 -154t-73 -174q-74 -76 -198 -76z" />
    <glyph glyph-name="ogonek" unicode="&#x2db;" horiz-adv-x="608" 
d="M283 -426q-197 0 -197 162q0 209 367 350l53 -45q-88 -51 -153 -122t-64 -134q-1 -68 69 -68t136 29l-11 -133q-98 -39 -200 -39z" />
    <glyph glyph-name="tilde" unicode="&#x2dc;" horiz-adv-x="954" 
d="M357 1321q57 0 143 -48t145 -48t103 52q14 17 36 50l76 -45q-26 -51 -58 -99q-32 -47 -93 -99t-117 -52t-144 48q-90 48 -135 48q-73 0 -143 -100l-76 43q23 51 53 100q31 49 91 99t119 51z" />
    <glyph glyph-name="hungarumlaut" unicode="&#x2dd;" horiz-adv-x="1054" 
d="M532 1028l-67 72l307 368l135 -151zM188 1028l-67 72l307 368l135 -151z" />
    <glyph glyph-name="endash" unicode="&#x2013;" horiz-adv-x="1341" 
d="M84 381l35 194h1124l-35 -194h-1124z" />
    <glyph glyph-name="emdash" unicode="&#x2014;" horiz-adv-x="1802" 
d="M84 381l35 194h1585l-35 -194h-1585z" />
    <glyph glyph-name="quoteleft" unicode="&#x2018;" horiz-adv-x="458" 
d="M279 797q-59 0 -99 41q-39 41 -39 102q0 90 91 198t208 187l78 -82q-147 -121 -180 -186q84 -37 84 -121q0 -55 -42 -97t-101 -42z" />
    <glyph glyph-name="quoteright" unicode="&#x2019;" horiz-adv-x="450" 
d="M367 1317q59 0 98 -41t39 -102q0 -90 -91 -198t-208 -188l-78 82q147 121 180 187q-84 37 -84 121q0 55 42 97q43 42 102 42z" />
    <glyph glyph-name="quotesinglbase" unicode="&#x201a;" horiz-adv-x="454" 
d="M164 262q59 0 98 -41t39 -102q0 -90 -91 -198t-208 -187l-78 82q147 121 180 186q-84 37 -84 121q0 55 42 97q43 42 102 42z" />
    <glyph glyph-name="quotedblleft" unicode="&#x201c;" horiz-adv-x="843" 
d="M279 797q-59 0 -99 41q-39 41 -39 102q0 90 91 198t208 187l78 -82q-147 -121 -180 -186q84 -37 84 -121q0 -55 -42 -97t-101 -42zM664 797q-59 0 -99 41q-39 41 -39 102q0 90 91 198t208 187l78 -82q-147 -121 -180 -186q84 -37 84 -121q0 -55 -42 -97t-101 -42z" />
    <glyph glyph-name="quotedblright" unicode="&#x201d;" horiz-adv-x="835" 
d="M752 1317q59 0 98 -41t39 -102q0 -90 -91 -198t-208 -188l-78 82q147 121 180 187q-84 37 -84 121q0 55 42 97q43 42 102 42zM367 1317q59 0 98 -41t39 -102q0 -90 -91 -198t-208 -188l-78 82q147 121 180 187q-84 37 -84 121q0 55 42 97q43 42 102 42z" />
    <glyph glyph-name="quotedblbase" unicode="&#x201e;" horiz-adv-x="839" 
d="M549 262q59 0 98 -41t39 -102q0 -90 -91 -198t-208 -187l-78 82q147 121 180 186q-84 37 -83 121q0 55 41 97q43 42 102 42zM164 262q59 0 98 -41t39 -102q0 -90 -91 -198t-208 -187l-78 82q147 121 180 186q-84 37 -84 121q0 55 42 97q43 42 102 42z" />
    <glyph glyph-name="dagger" unicode="&#x2020;" horiz-adv-x="966" 
d="M344 -154q0 52 22 220t22 317t-13 188q8 10 40 49t48 73t16 61q0 26 -20 50q-39 46 -160 -2q-63 -26 -102 -26t-63 24t-24 62t33 67q64 55 180 2q54 -26 97 -26t76 34q32 34 32 74t-11 87t-11 89t31 76q31 33 71 33t63 -22q59 -55 -22 -177q-45 -69 -45 -112
q0 -82 84 -82q34 0 98 26q121 49 166 3q23 -24 23 -62t-33 -67t-79 -29t-100 26q-111 53 -172 -6q-32 -32 -32 -71t45 -154q-88 -141 -141 -456q-7 -59 -13 -90t-11 -60q-7 -39 -24 -105q-17 -67 -48 -67q-23 1 -23 53z" />
    <glyph glyph-name="daggerdbl" unicode="&#x2021;" horiz-adv-x="1028" 
d="M641 987q0 -82 82 -82q35 0 98 26q120 49 166 3q23 -24 23 -62t-32 -67t-79 -29t-100 26q-111 55 -173 -7q-32 -33 -32 -85t41 -165q-109 -145 -109 -207q0 -28 20 -52t59 -24q38 0 104 26q121 48 165 2q23 -24 23 -63t-32 -67t-79 -27q-47 0 -102 26q-111 53 -172 -8
q-33 -35 -33 -75t11 -86q12 -46 12 -88q0 -41 -32 -76t-72 -35t-62 23q-22 22 -23 66q0 44 44 112t44 110q0 82 -82 82q-35 0 -98 -26t-103 -25q-40 0 -63 23q-23 24 -23 62t34 67q64 56 179 3q54 -26 97 -26t75 33t32 89t-43 161q111 141 110 207q0 28 -20 52
q-38 45 -162 -2q-66 -26 -105 -26t-61 23t-23 61q0 38 33 68q64 56 180 3q55 -26 97 -26t75 34t33 89l-22 143q0 57 31 93q32 34 72 34t63 -22q58 -56 -22 -178q-44 -68 -44 -111z" />
    <glyph glyph-name="bullet" unicode="&#x2022;" horiz-adv-x="747" 
d="M385 360q-102 0 -175 73t-73 175t73 175t175 73t175 -73t73 -175t-73 -175t-175 -73z" />
    <glyph glyph-name="ellipsis" unicode="&#x2026;" horiz-adv-x="1628" 
d="M1337 -20q-59 0 -100 40t-41 100t41 101t100 41t101 -41t41 -100q0 -59 -41 -101q-42 -40 -101 -40zM750 -20q-57 0 -100 40q-42 40 -42 100t42 101t100 41t99 -41q42 -41 42 -100t-42 -100t-99 -41zM162 -20q-59 0 -101 40q-41 40 -41 100t41 101t101 41t100 -41
q41 -41 41 -100t-41 -100t-100 -41z" />
    <glyph glyph-name="perthousand" unicode="&#x2030;" horiz-adv-x="1910" 
d="M1528 119q51 0 86 44t35 126q0 117 -80 117q-51 0 -86 -44t-35 -126q0 -117 80 -117zM1581 524q227 0 227 -231q0 -117 -76 -205t-201 -88q-241 0 -243 223q0 125 76 213t217 88zM229 -6l-84 84l988 923l81 -83zM956 119q51 0 86 44t35 126q0 117 -80 117q-51 0 -86 -44
t-34 -126q-1 -117 79 -117zM959 0q-242 0 -242 223q0 125 76 213t202 88q242 0 242 -223q0 -125 -76 -213t-202 -88zM367 594q51 0 86 44t34 126q0 117 -79 117q-51 0 -86 -44t-35 -126q0 -117 80 -117zM369 475q-242 0 -242 223q0 125 76 213t202 88q242 0 242 -223
q0 -125 -76 -213t-202 -88z" />
    <glyph glyph-name="guilsinglleft" unicode="&#x2039;" horiz-adv-x="688" 
d="M305 137l-250 385l2 8l385 385h267l-420 -409l252 -369h-236z" />
    <glyph glyph-name="guilsinglright" unicode="&#x203a;" horiz-adv-x="692" 
d="M-14 137l420 410l-252 368h235l250 -385l-2 -8l-385 -385h-266z" />
    <glyph glyph-name="fraction" unicode="&#x2044;" horiz-adv-x="776" 
d="M2 -41l-102 64l913 1265l100 -63z" />
    <glyph glyph-name="Euro" unicode="&#x20ac;" horiz-adv-x="1234" 
d="M682 -16q-184 0 -318 104q-132 104 -155 297h-168l43 76h121q0 66 12 127h-141l43 76h119q59 174 215 278q155 104 367 104t368 -75l-49 -289h-195l29 168q-75 16 -169 16t-189 -52t-144 -150h385l-43 -76h-371q-12 -55 -12 -127h315l-43 -76h-266q41 -215 293 -215
q147 0 348 94l-35 -194q-176 -86 -360 -86z" />
    <glyph glyph-name="numero" unicode="&#x2116;" horiz-adv-x="2164" 
d="M-2 0l33 180h164l155 887h-164l31 180h375l381 -868l121 688h-164l31 180h528l-31 -180h-164l-188 -1067h-182l-402 901l-127 -721h164l-33 -180h-528zM1325 37l31 168h672l-31 -168h-672zM1745 500q80 0 125 63t45 146q0 133 -115 133q-80 0 -125 -62t-45 -147
q0 -133 115 -133zM1739 334q-137 0 -226 76q-88 76 -88 224q1 148 103 260q102 114 274 114q136 0 226 -77t90 -225t-102 -260t-277 -112z" />
    <glyph glyph-name="trademark" unicode="&#x2122;" horiz-adv-x="1464" 
d="M272 733l15 74h65l62 354h-92l-15 -82h-88l29 168h473l-29 -168h-88l14 82h-92l-61 -354h63l-14 -74h-242zM694 733l15 76h61l74 362h-66l13 76h196l82 -348l201 348h196l-12 -80h-65l-54 -358h62l-15 -76h-225l14 74h68l43 295l-197 -332h-71l-84 340l-60 -301h70
l-14 -76h-232z" />
    <glyph glyph-name="minus" unicode="&#x2212;" horiz-adv-x="1103" 
d="M94 403l31 177h872l-30 -177h-873z" />
    <glyph glyph-name="approxequal" unicode="&#x2248;" horiz-adv-x="1224" 
d="M782 121q-96 0 -217 82t-181 82t-104 -31t-62 -54t-60 -89l-123 61q133 235 245 286q52 24 122 24t142 -41q73 -40 133 -79q112 -73 208 -3q47 36 66 63t50 74l121 -66q-76 -135 -160 -222t-180 -87zM863 758q49 0 97 36t67 62t50 74l121 -66q-76 -135 -160 -222
t-180 -87t-217 82t-181 82t-104 -31t-62 -54t-61 -89l-122 61q133 235 244 286q52 24 122 24t143 -40t133 -79t110 -39z" />
    <glyph glyph-name="notequal" unicode="&#x2260;" horiz-adv-x="1165" 
d="M215 -168l-102 51l186 289h-215l33 184h303l174 271h-430l33 184h518l221 342l102 -53l-188 -289h219l-33 -184h-307l-174 -271h434l-33 -184h-522z" />
    <glyph glyph-name="lessequal" unicode="&#x2264;" horiz-adv-x="1032" 
d="M877 242l-777 313l21 115l887 313l-31 -176l-590 -203l520 -186zM12 55l27 152h831l-26 -152h-832z" />
    <glyph glyph-name="greaterequal" unicode="&#x2265;" horiz-adv-x="1028" 
d="M55 242l31 176l590 203l-520 186l30 176l777 -313l-21 -115zM23 55l26 152h832l-27 -152h-831z" />
    <glyph glyph-name="OE.smcp" unicode="&#xe04a;" horiz-adv-x="1525" 
d="M561 180h90l113 637h-90q-156 0 -266 -102t-111 -273q1 -130 71 -196t193 -66zM551 0q-225 0 -356 110t-132 322q1 248 175 407t446 158h829l-53 -305h-207l23 131h-297l-41 -233h346l-31 -174h-346l-43 -242h303l25 139h209l-55 -313h-795z" />
    <glyph glyph-name="dotaccent.cap" unicode="&#xefed;" horiz-adv-x="489" 
d="M245 1360q-60 0 -103 42q-42 42 -42 101t42 101t102 43q60 0 102 -42q43 -41 43 -101t-42 -102t-102 -42z" />
    <glyph glyph-name="breve.cap" unicode="&#xefee;" horiz-adv-x="790" 
d="M378 1352q-150 0 -220 91t-52 228h166q-4 -73 26 -107t101 -34q137 0 185 141h166q-31 -143 -126 -231t-246 -88z" />
    <glyph glyph-name="ogonek.cap" unicode="&#xeff1;" horiz-adv-x="608" 
d="M358 -283q70 0 136 29l-11 -133q-98 -39 -200 -39q-197 0 -197 162q0 209 367 350l53 -45q-88 -51 -153 -122t-64 -134q-1 -68 69 -68z" />
    <glyph glyph-name="cedilla.cap" unicode="&#xeff2;" horiz-adv-x="622" 
d="M258 -426q-119 0 -197 31l39 123q72 -27 140 -27q98 0 98 55q0 72 -139 72l12 43l158 229l106 -24l-84 -162q150 -27 150 -152q0 -92 -82 -140t-201 -48z" />
    <glyph glyph-name="ring.cap" unicode="&#xeff3;" horiz-adv-x="720" 
d="M358 1468q47 0 76 38t29 87q0 82 -72 82q-47 0 -76 -38t-28 -87q-1 -82 71 -82zM363 1343q-124 -1 -186 55t-62 154t74 174q75 76 199 76t185 -55t61 -153t-73 -175q-74 -76 -198 -76z" />
    <glyph glyph-name="tilde.cap" unicode="&#xeff5;" horiz-adv-x="954" 
d="M357 1653q57 0 143 -48t145 -49t103 53q14 17 36 50l76 -45q-26 -52 -58 -100t-93 -99t-117 -51t-144 48q-90 48 -135 48q-73 0 -143 -100l-76 43q23 51 53 100q31 49 91 99t119 51z" />
    <glyph glyph-name="circumflex.cap" unicode="&#xeff7;" horiz-adv-x="888" 
d="M135 1352l-43 67l332 285h151l224 -285l-56 -67l-282 137z" />
    <glyph glyph-name="at.cap" unicode="&#xf633;" horiz-adv-x="1546" 
d="M707 367q106 0 190 99t84 222q0 150 -129 150q-108 0 -190 -98t-82 -224q0 -149 127 -149zM659 231q-113 0 -185 79t-71 210q0 180 127 316q126 136 306 135q180 0 223 -135h6q23 55 53 102h127q-145 -350 -145 -489q0 -111 74 -111q82 0 154 108t71 273q0 217 -136 352
t-354 135q-176 0 -340 -88t-267 -247t-103 -343q0 -223 145 -368t371 -146q184 0 360 103l45 -86q-209 -121 -407 -121q-274 0 -449 178q-174 178 -174 440q0 320 249 552t568 233q262 0 431 -166t169 -432q0 -215 -105 -349t-253 -135q-88 -1 -135 47t-51 103h-9
q-121 -150 -295 -150z" />
    <glyph glyph-name="Abreve.smcp" unicode="&#xf66d;" horiz-adv-x="1200" 
d="M675 1100q-142 0 -209 85t-50 214h157q-6 -133 122 -133t175 133h158q-29 -133 -120 -216t-233 -83zM473 469h264l-71 348zM-70 0l31 172h121l377 653h-125l31 172h460l189 -825h123l-31 -172h-477l30 172h140l-27 125h-393l-68 -125h140l-31 -172h-490z" />
    <glyph glyph-name="Amacron.smcp" unicode="&#xf66e;" horiz-adv-x="1200" 
d="M397 1120l29 162h553l-29 -162h-553zM473 469h264l-71 348zM-70 0l31 172h121l377 653h-125l31 172h460l189 -825h123l-31 -172h-477l30 172h140l-27 125h-393l-68 -125h140l-31 -172h-490z" />
    <glyph glyph-name="Aogonek.smcp" unicode="&#xf66f;" horiz-adv-x="1200" 
d="M473 469h264l-71 348zM854 -418q-88 0 -139 38t-51 114q0 154 208 266h-243l30 172h140l-27 125h-393l-68 -125h140l-31 -172h-490l31 172h121l377 653h-125l31 172h460l189 -825h123l-31 -172h-80q-170 -109 -170 -219q0 -63 72 -64q55 0 123 27l-11 -125
q-98 -37 -186 -37z" />
    <glyph glyph-name="AEacute.smcp" unicode="&#xf670;" horiz-adv-x="1685" 
d="M1032 1085l-67 84l344 322l123 -156zM573 463h285l64 362h-48zM-72 0l31 172h123l569 655h-125l29 170h1116l-53 -305h-203l23 131h-305l-41 -233h354l-31 -174h-354l-43 -242h311l33 139h205l-64 -313h-864l31 172h137l22 127h-391l-104 -127h143l-31 -172h-518z" />
    <glyph glyph-name="Cacute.smcp" unicode="&#xf671;" horiz-adv-x="1087" 
d="M602 1096l-67 84l344 321l122 -155zM542 -20q-206 0 -343 114t-138 342q-1 264 181 423t452 159q203 0 391 -80l-51 -295h-215l31 176q-74 18 -154 19q-178 0 -290 -108t-111 -281q0 -133 74 -209t218 -76t378 102l-33 -194q-184 -92 -390 -92z" />
    <glyph glyph-name="Ccaron.smcp" unicode="&#xf672;" horiz-adv-x="1087" 
d="M625 1108l-211 266l53 64l266 -129l311 129l41 -64l-317 -266h-143zM542 -20q-206 0 -343 114t-138 342q-1 264 181 423t452 159q203 0 391 -80l-51 -295h-215l31 176q-74 18 -154 19q-178 0 -290 -108t-111 -281q0 -133 74 -209t218 -76t378 102l-33 -194
q-184 -92 -390 -92z" />
    <glyph glyph-name="Ccircumflex.smcp" unicode="&#xf673;" horiz-adv-x="1087" 
d="M408 1096l-41 63l315 268h143l211 -268l-51 -63l-268 129zM542 -20q-206 0 -343 114t-138 342q-1 264 181 423t452 159q203 0 391 -80l-51 -295h-215l31 176q-74 18 -154 19q-178 0 -290 -108t-111 -281q0 -133 74 -209t218 -76t378 102l-33 -194q-184 -92 -390 -92z" />
    <glyph glyph-name="Cdotaccent.smcp" unicode="&#xf674;" horiz-adv-x="1087" 
d="M727 1102q-55 0 -95 40t-40 95t40 95t95 40t95 -40t40 -95t-40 -95t-95 -40zM542 -20q-206 0 -343 114t-138 342q-1 264 181 423t452 159q203 0 391 -80l-51 -295h-215l31 176q-74 18 -154 19q-178 0 -290 -108t-111 -281q0 -133 74 -209t218 -76t378 102l-33 -194
q-184 -92 -390 -92z" />
    <glyph glyph-name="Dcaron.smcp" unicode="&#xf675;" horiz-adv-x="1204" 
d="M571 1098l-211 266l54 63l266 -129l311 129l41 -63l-317 -266h-144zM494 174q205 0 304 106t99 273q0 270 -289 270h-110l-115 -649h111zM623 997q247 -1 377 -117t130 -332t-142 -373q-73 -81 -202 -128t-301 -47h-495l30 172h138l114 653h-137l31 172h457z" />
    <glyph glyph-name="Dcroat.smcp" unicode="&#xf676;" horiz-adv-x="1206" 
d="M496 174q205 0 304 106t99 273q0 270 -289 270h-110l-43 -239h243l-28 -162h-244l-43 -248h111zM625 997q247 -1 377 -117t130 -331t-142 -374q-73 -81 -202 -128t-301 -47h-495l31 172h137l43 250h-123l29 162h122l43 241h-137l31 172h457z" />
    <glyph glyph-name="Ebreve.smcp" unicode="&#xf677;" horiz-adv-x="1052" 
d="M609 1100q-142 0 -209 85t-50 214h158q-6 -133 122 -133t175 133h158q-29 -133 -121 -216t-233 -83zM-10 0l30 172h138l114 653h-137l31 172h874l-53 -305h-207l23 131h-305l-41 -233h354l-31 -174h-354l-43 -242h311l25 139h209l-56 -313h-882z" />
    <glyph glyph-name="Ecaron.smcp" unicode="&#xf678;" horiz-adv-x="1052" 
d="M537 1098l-211 266l53 63l266 -129l311 129l41 -63l-317 -266h-143zM-10 0l30 172h138l114 653h-137l31 172h874l-53 -305h-207l23 131h-305l-41 -233h354l-31 -174h-354l-43 -242h311l25 139h209l-56 -313h-882z" />
    <glyph glyph-name="Edotaccent.smcp" unicode="&#xf679;" horiz-adv-x="1052" 
d="M639 1092q-55 0 -95 40t-40 95t40 95t95 40t95 -40t40 -95t-40 -95t-95 -40zM-10 0l30 172h138l114 653h-137l31 172h874l-53 -305h-207l23 131h-305l-41 -233h354l-31 -174h-354l-43 -242h311l25 139h209l-56 -313h-882z" />
    <glyph glyph-name="Emacron.smcp" unicode="&#xf67a;" horiz-adv-x="1052" 
d="M348 1120l29 162h553l-29 -162h-553zM-10 0l30 172h138l114 653h-137l31 172h874l-53 -305h-207l23 131h-305l-41 -233h354l-31 -174h-354l-43 -242h311l25 139h209l-56 -313h-882z" />
    <glyph glyph-name="Eng.smcp" unicode="&#xf67b;" horiz-adv-x="1312" 
d="M-10 0l30 172h138l114 653h-137l31 172h334l381 -653l82 481h-154l31 172h495l-30 -172h-138l-139 -794q-32 -193 -208 -275q-62 -29 -87 -36t-88 -25l-53 151q78 27 138 77t73 116l6 43l-356 606l-91 -516h156l-31 -172h-497z" />
    <glyph glyph-name="Eogonek.smcp" unicode="&#xf67c;" horiz-adv-x="1052" 
d="M612 -219q0 -63 64 -63t131 26l-10 -125q-99 -37 -187 -37t-139 38t-51 114q0 154 209 266h-639l30 172h138l114 653h-137l31 172h874l-53 -305h-207l23 131h-305l-41 -233h354l-31 -174h-354l-43 -242h311l25 139h209l-56 -313h-90q-170 -109 -170 -219z" />
    <glyph glyph-name="Gbreve.smcp" unicode="&#xf67d;" 
d="M738 1110q-142 0 -209 85t-50 214h158q-6 -133 122 -133t175 133h158q-28 -133 -120 -216t-234 -83zM580 -20q-236 0 -376 114t-140 360q0 244 180 404t479 160q227 0 407 -76l-49 -272h-209l27 145q-90 20 -176 21q-186 0 -306 -100t-120 -283q0 -133 73 -212t232 -79
q94 0 211 33l33 190h-199l29 168h475l-29 -168h-69l-56 -315q-239 -90 -417 -90z" />
    <glyph glyph-name="Gcircumflex.smcp" unicode="&#xf67e;" 
d="M434 1096l-41 63l316 268h143l211 -268l-51 -63l-269 129zM580 -20q-236 0 -376 114t-140 360q0 244 180 404t479 160q227 0 407 -76l-49 -272h-209l27 145q-90 20 -176 21q-186 0 -306 -100t-120 -283q0 -133 73 -212t232 -79q94 0 211 33l33 190h-199l29 168h475
l-29 -168h-69l-56 -315q-239 -90 -417 -90z" />
    <glyph glyph-name="Gcommaaccent.smcp" unicode="&#xf67f;" 
d="M580 -20q-236 0 -376 114t-140 360q0 244 180 404t479 160q227 0 407 -76l-49 -272h-209l27 145q-90 20 -176 21q-186 0 -306 -100t-120 -283q0 -133 73 -212t232 -79q94 0 211 33l33 190h-199l29 168h475l-29 -168h-69l-56 -315q-239 -90 -417 -90zM542 -106
q60 0 89 -32t28 -83q0 -143 -245 -316l-76 68q88 84 107 127t19 92t-52 94l2 9q68 41 128 41z" />
    <glyph glyph-name="Gdotaccent.smcp" unicode="&#xf680;" 
d="M758 1102q-55 0 -95 40t-40 95t40 95t95 40t95 -40t40 -95t-40 -95t-95 -40zM580 -20q-236 0 -376 114t-140 360q0 244 180 404t479 160q227 0 407 -76l-49 -272h-209l27 145q-90 20 -176 21q-186 0 -306 -100t-120 -283q0 -133 73 -212t232 -79q94 0 211 33l33 190h-199
l29 168h475l-29 -168h-69l-56 -315q-239 -90 -417 -90z" />
    <glyph glyph-name="Hbar.smcp" unicode="&#xf681;" horiz-adv-x="1345" 
d="M457 590h456l15 86h-457zM123 672l14 84h123l12 69h-137l31 172h500l-31 -172h-137l-13 -69h457l12 69h-137l31 172h500l-31 -172h-137l-13 -69h123l-14 -84h-123l-88 -500h137l-31 -172h-499l30 172h138l43 242h-457l-43 -242h137l-31 -172h-499l30 172h138l88 500h-123
z" />
    <glyph glyph-name="Hcircumflex.smcp" unicode="&#xf682;" horiz-adv-x="1345" 
d="M-10 0l30 172h138l114 653h-137l31 172h500l-31 -172h-137l-41 -235h456l41 235h-137l31 172h500l-31 -172h-137l-115 -653h137l-31 -172h-499l30 172h138l43 242h-457l-43 -242h137l-31 -172h-499zM487 1085l-41 64l316 268h143l211 -268l-51 -64l-268 129z" />
    <glyph glyph-name="Ibreve.smcp" unicode="&#xf683;" horiz-adv-x="663" 
d="M435 1100q-142 0 -209 85t-50 214h158q-6 -133 122 -133t175 133h157q-29 -133 -120 -216t-233 -83zM-10 0l30 172h138l114 653h-137l31 172h500l-31 -172h-137l-115 -653h137l-31 -172h-499z" />
    <glyph glyph-name="Imacron.smcp" unicode="&#xf685;" horiz-adv-x="663" 
d="M158 1120l28 162h553l-28 -162h-553zM-10 0l30 172h138l114 653h-137l31 172h500l-31 -172h-137l-115 -653h137l-31 -172h-499z" />
    <glyph glyph-name="Iogonek.smcp" unicode="&#xf686;" horiz-adv-x="663" 
d="M201 -219q0 -63 71 -64q55 0 123 27l-10 -125q-98 -37 -186 -37t-140 38q-51 38 -51 114q0 154 209 266h-227l30 172h138l114 653h-137l31 172h500l-31 -172h-137l-115 -653h137l-31 -172h-118q-170 -109 -170 -219z" />
    <glyph glyph-name="Itilde.smcp" unicode="&#xf687;" horiz-adv-x="663" 
d="M345 1368q48 0 128 -45t122 -45t72 16t43 32t33 48l72 -43q-25 -47 -55 -92t-89 -93t-111 -48t-137 45t-128 45q-67 0 -135 -94l-72 41q14 33 35 66q98 167 222 167zM-10 0l30 172h138l114 653h-137l31 172h500l-31 -172h-137l-115 -653h137l-31 -172h-499z" />
    <glyph glyph-name="Jcircumflex.smcp" unicode="&#xf688;" horiz-adv-x="626" 
d="M121 1085l-41 64l315 268h144l211 -268l-52 -64l-268 129zM-41 -305l-53 151q78 27 138 77t73 116l139 786h-139l30 172h502l-31 -172h-137l-139 -794q-32 -193 -208 -275q-62 -29 -87 -36t-88 -25z" />
    <glyph glyph-name="Kcommaaccent.smcp" unicode="&#xf689;" horiz-adv-x="1232" 
d="M-10 0l30 172h138l114 653h-137l31 172h500l-31 -172h-137l-115 -653h137l-31 -172h-499zM793 0l-322 489v3l387 335h-129l31 170h502l-31 -172h-105l-395 -344l211 -309h178l-30 -172h-297zM591 -96q60 0 89 -32t29 -83q0 -143 -246 -315l-76 67q87 84 107 127t20 92
t-53 95l2 8q68 41 128 41z" />
    <glyph glyph-name="Lacute.smcp" unicode="&#xf68a;" horiz-adv-x="983" 
d="M369 1085l-68 84l344 322l123 -156zM-10 0l30 172h138l114 653h-137l31 172h518l-31 -172h-155l-115 -651h297l27 150h206l-57 -324h-866z" />
    <glyph glyph-name="Lcaron.smcp" unicode="&#xf68b;" horiz-adv-x="1003" 
d="M-10 0l30 172h138l114 653h-137l31 172h518l-31 -172h-155l-115 -651h297l27 150h206l-57 -324h-866zM902 1014q60 0 89 -32t29 -83q0 -143 -246 -315l-76 67q88 84 108 127t19 92q0 49 -53 95l2 8q68 41 128 41z" />
    <glyph glyph-name="Lcommaaccent.smcp" unicode="&#xf68c;" horiz-adv-x="983" 
d="M-10 0l30 172h138l114 653h-137l31 172h518l-31 -172h-155l-115 -651h297l27 150h206l-57 -324h-866zM456 -96q60 0 89 -32t28 -83q0 -143 -245 -315l-76 67q88 84 107 127t19 92t-52 95l2 8q68 41 128 41z" />
    <glyph glyph-name="Ldot.smcp" unicode="&#xf68d;" horiz-adv-x="985" 
d="M768 428q-55 0 -95 40t-40 95t40 95t95 40t95 -40t40 -95t-40 -95t-95 -40zM-10 0l30 172h138l114 653h-137l31 172h518l-31 -172h-155l-115 -651h297l27 150h206l-57 -324h-866z" />
    <glyph glyph-name="Nacute.smcp" unicode="&#xf68e;" horiz-adv-x="1312" 
d="M662 1085l-68 84l344 322l123 -156zM-10 0l30 172h138l114 653h-137l31 172h334l374 -690l89 518h-154l31 172h495l-30 -172h-138l-145 -825h-191l-378 688l-91 -516h156l-31 -172h-497z" />
    <glyph glyph-name="Ncaron.smcp" unicode="&#xf68f;" horiz-adv-x="1312" 
d="M666 1098l-211 266l53 63l266 -129l311 129l41 -63l-317 -266h-143zM-10 0l30 172h138l114 653h-137l31 172h334l374 -690l89 518h-154l31 172h495l-30 -172h-138l-145 -825h-191l-378 688l-91 -516h156l-31 -172h-497z" />
    <glyph glyph-name="Ncommaaccent.smcp" unicode="&#xf690;" horiz-adv-x="1312" 
d="M-10 0l30 172h138l114 653h-137l31 172h334l374 -690l89 518h-154l31 172h495l-30 -172h-138l-145 -825h-191l-378 688l-91 -516h156l-31 -172h-497zM595 -96q60 0 89 -32t29 -83q0 -143 -246 -315l-76 67q87 84 107 127t20 92t-53 95l2 8q68 41 128 41z" />
    <glyph glyph-name="Obreve.smcp" unicode="&#xf691;" horiz-adv-x="1239" 
d="M726 1110q-142 0 -209 85t-50 214h158q-7 -133 121 -133t176 133h157q-29 -133 -120 -216t-233 -83zM559 162q153 0 265 110t112 264q0 152 -72 226t-192 74q-154 0 -266 -112t-111 -282q1 -132 73 -206t191 -74zM549 -20q-223 0 -355 118t-133 334q-1 250 175 418
t446 168q221 0 354 -120t133 -335q0 -251 -175 -417t-445 -166z" />
    <glyph glyph-name="Ohungarumlaut.smcp" unicode="&#xf692;" horiz-adv-x="1239" 
d="M829 1096l-63 67l291 346l129 -143zM502 1096l-64 67l293 346l127 -143zM559 162q153 0 265 110t112 264q0 152 -72 226t-192 74q-154 0 -266 -112t-111 -282q1 -132 73 -206t191 -74zM549 -20q-223 0 -355 118t-133 334q-1 250 175 418t446 168q221 0 354 -120t133 -335
q0 -251 -175 -417t-445 -166z" />
    <glyph glyph-name="Omacron.smcp" unicode="&#xf693;" horiz-adv-x="1239" 
d="M449 1130l28 162h553l-29 -162h-552zM559 162q153 0 265 110t112 264q0 152 -72 226t-192 74q-154 0 -266 -112t-111 -282q1 -132 73 -206t191 -74zM549 -20q-223 0 -355 118t-133 334q-1 250 175 418t446 168q221 0 354 -120t133 -335q0 -251 -175 -417t-445 -166z" />
    <glyph glyph-name="Oslashacute.smcp" unicode="&#xf694;" horiz-adv-x="1236" 
d="M670 836q-154 0 -266 -112t-111 -282q0 -92 33 -155l522 487q-67 62 -178 62zM557 162q153 0 265 110t112 281q0 84 -33 154l-522 -486q69 -59 178 -59zM547 -20q-201 0 -326 94l-115 -109l-61 60l115 106q-100 117 -101 301q0 250 175 418t446 168q195 0 326 -96
l116 108l62 -59l-117 -109q100 -117 100 -299q0 -251 -175 -417t-445 -166zM651 1096l-67 84l344 321l123 -155z" />
    <glyph glyph-name="Racute.smcp" unicode="&#xf695;" horiz-adv-x="1140" 
d="M547 1085l-68 84l344 322l123 -156zM602 522q119 0 172 52t53 114t-41 98q-41 37 -133 37h-155l-54 -301h158zM666 997q196 0 292 -83t96 -208q0 -124 -72 -202q-73 -78 -189 -115l90 -221h135l-29 -168h-274l-135 350h-166l-31 -178h137l-31 -172h-499l30 172h138
l114 653h-137l31 172h500z" />
    <glyph glyph-name="Rcaron.smcp" unicode="&#xf696;" horiz-adv-x="1140" 
d="M555 1098l-211 266l53 63l267 -129l311 129l41 -63l-318 -266h-143zM602 522q119 0 172 52t53 114t-41 98q-41 37 -133 37h-155l-54 -301h158zM666 997q196 0 292 -83t96 -208q0 -124 -72 -202q-73 -78 -189 -115l90 -221h135l-29 -168h-274l-135 350h-166l-31 -178h137
l-31 -172h-499l30 172h138l114 653h-137l31 172h500z" />
    <glyph glyph-name="Rcommaaccent.smcp" unicode="&#xf697;" horiz-adv-x="1140" 
d="M602 522q119 0 172 52t53 114t-41 98q-41 37 -133 37h-155l-54 -301h158zM666 997q196 0 292 -83t96 -208q0 -124 -72 -202q-73 -78 -189 -115l90 -221h135l-29 -168h-274l-135 350h-166l-31 -178h137l-31 -172h-499l30 172h138l114 653h-137l31 172h500zM529 -96
q60 0 89 -32t29 -83q0 -143 -246 -315l-75 67q88 84 107 127t19 92t-53 95l2 8q68 41 128 41z" />
    <glyph glyph-name="Sacute.smcp" unicode="&#xf698;" horiz-adv-x="931" 
d="M498 1096l-68 84l344 321l123 -155zM811 291q1 -151 -111 -231t-304 -80t-388 59l47 276h205l-22 -145q70 -18 138 -18t107 8t74 37t35 79t-48 84q-48 35 -116 58q-68 24 -136 52t-117 90q-48 62 -48 155q0 141 105 222q106 81 294 81t367 -60l-47 -268h-207l25 144
q-76 14 -146 14t-122 -29t-52 -81t48 -84t117 -54t137 -54q68 -30 117 -94q48 -64 48 -161z" />
    <glyph glyph-name="Scedilla.smcp" unicode="&#xf699;" horiz-adv-x="931" 
d="M278 -418q-110 0 -190 29l37 115q70 -25 133 -25q92 0 92 53q0 66 -133 66l12 41l84 121q-150 10 -305 57l47 276h205l-22 -145q70 -18 138 -18t107 8t74 37t35 79t-48 84q-48 35 -116 58q-68 24 -136 52t-117 90q-48 62 -48 155q0 141 105 222q106 81 294 81t367 -60
l-47 -268h-207l25 144q-76 14 -146 14t-122 -29t-52 -81t48 -84t117 -54t137 -54q68 -30 117 -94q48 -64 48 -161q0 -141 -97 -220t-272 -89l-41 -80q141 -27 142 -144q0 -86 -78 -131q-77 -45 -187 -45z" />
    <glyph glyph-name="Scircumflex.smcp" unicode="&#xf69a;" horiz-adv-x="931" 
d="M295 1096l-41 63l315 268h144l211 -268l-52 -63l-268 129zM811 291q1 -151 -111 -231t-304 -80t-388 59l47 276h205l-22 -145q70 -18 138 -18t107 8t74 37t35 79t-48 84q-48 35 -116 58q-68 24 -136 52t-117 90q-48 62 -48 155q0 141 105 222q106 81 294 81t367 -60
l-47 -268h-207l25 144q-76 14 -146 14t-122 -29t-52 -81t48 -84t117 -54t137 -54q68 -30 117 -94q48 -64 48 -161z" />
    <glyph glyph-name="Scommaaccent.smcp" unicode="&#xf69b;" horiz-adv-x="931" 
d="M811 291q1 -151 -111 -231t-304 -80t-388 59l47 276h205l-22 -145q70 -18 138 -18t107 8t74 37t35 79t-48 84q-48 35 -116 58q-68 24 -136 52t-117 90q-48 62 -48 155q0 141 105 222q106 81 294 81t367 -60l-47 -268h-207l25 144q-76 14 -146 14t-122 -29t-52 -81t48 -84
t117 -54t137 -54q68 -30 117 -94q48 -64 48 -161zM366 -106q60 0 89 -32t28 -83q0 -143 -245 -316l-76 68q88 84 107 127t19 92t-52 94l2 9q68 41 128 41z" />
    <glyph glyph-name="Tbar.smcp" unicode="&#xf69c;" horiz-adv-x="1048" 
d="M182 399l23 127h207l53 297h-162l-27 -153h-202l57 327h954l-57 -327h-203l27 153h-162l-53 -297h211l-23 -127h-211l-39 -227h156l-31 -172h-536l31 172h155l39 227h-207z" />
    <glyph glyph-name="Tcaron.smcp" unicode="&#xf69d;" horiz-adv-x="1044" 
d="M532 1098l-210 266l53 63l266 -129l311 129l41 -63l-317 -266h-144zM162 0l31 172h155l115 651h-162l-27 -153h-202l57 327h954l-57 -327h-203l27 153h-162l-115 -651h156l-31 -172h-536z" />
    <glyph glyph-name="Tcommaaccent.smcp" unicode="&#xf69e;" horiz-adv-x="1044" 
d="M162 0l31 172h155l115 651h-162l-27 -153h-202l57 327h954l-57 -327h-203l27 153h-162l-115 -651h156l-31 -172h-536zM407 -96q60 0 89 -32t28 -83q0 -143 -245 -315l-76 67q88 84 107 127q20 43 20 92t-54 95l3 8q68 41 128 41z" />
    <glyph glyph-name="Ubreve.smcp" unicode="&#xf69f;" horiz-adv-x="1212" 
d="M693 1100q-142 0 -209 85t-50 214h158q-6 -133 122 -133t175 133h158q-29 -133 -121 -216t-233 -83zM538 -20q-200 0 -313 112t-78 305l76 428h-133l31 172h500l-31 -172h-141l-80 -450q-18 -102 26 -158q45 -55 141 -55t166 49q68 49 84 139l84 475h-145l31 172h491
l-30 -172h-134l-82 -460q-33 -181 -148 -283t-315 -102z" />
    <glyph glyph-name="Uhungarumlaut.smcp" unicode="&#xf6a0;" horiz-adv-x="1212" 
d="M803 1085l-64 68l291 346l129 -143zM475 1085l-63 68l293 346l126 -143zM538 -20q-200 0 -313 112t-78 305l76 428h-133l31 172h500l-31 -172h-141l-80 -450q-18 -102 26 -158q45 -55 141 -55t166 49q68 49 84 139l84 475h-145l31 172h491l-30 -172h-134l-82 -460
q-33 -181 -148 -283t-315 -102z" />
    <glyph glyph-name="Umacron.smcp" unicode="&#xf6a1;" horiz-adv-x="1212" 
d="M418 1120l28 162h553l-28 -162h-553zM538 -20q-200 0 -313 112t-78 305l76 428h-133l31 172h500l-31 -172h-141l-80 -450q-18 -102 26 -158q45 -55 141 -55t166 49q68 49 84 139l84 475h-145l31 172h491l-30 -172h-134l-82 -460q-33 -181 -148 -283t-315 -102z" />
    <glyph glyph-name="Uogonek.smcp" unicode="&#xf6a2;" horiz-adv-x="1214" 
d="M547 -418q-88 0 -139 38t-52 114q0 137 174 246q-202 4 -310 116t-73 301l76 428h-133l31 172h500l-31 -172h-141l-80 -450q-18 -102 26 -158q45 -55 141 -55t166 49q68 49 84 139l84 475h-145l31 172h491l-30 -172h-134l-82 -460q-29 -168 -118 -251q-65 -61 -149 -103
q-83 -42 -134 -105t-51 -123q0 -66 69 -66q57 0 125 27l-10 -125q-98 -37 -186 -37z" />
    <glyph glyph-name="Uring.smcp" unicode="&#xf6a3;" horiz-adv-x="1212" 
d="M715 1202q45 0 73 36t27 83q0 76 -70 76q-43 0 -71 -36t-27 -81q0 -78 68 -78zM744 1518q116 0 174 -52t59 -145q1 -92 -69 -164t-188 -72q-118 1 -176 53q-60 52 -60 143t71 164q73 73 189 73zM538 -20q-200 0 -313 112t-78 305l76 428h-133l31 172h500l-31 -172h-141
l-80 -450q-18 -102 26 -158q45 -55 141 -55t166 49q68 49 84 139l84 475h-145l31 172h491l-30 -172h-134l-82 -460q-33 -181 -148 -283t-315 -102z" />
    <glyph glyph-name="Utilde.smcp" unicode="&#xf6a4;" horiz-adv-x="1212" 
d="M611 1368q48 0 128 -45t122 -45t72 16t43 32t34 48l71 -43q-25 -47 -55 -92t-89 -93t-111 -48t-137 45t-128 45q-67 0 -135 -94l-72 41q14 33 35 66q98 167 222 167zM538 -20q-200 0 -313 112t-78 305l76 428h-133l31 172h500l-31 -172h-141l-80 -450q-18 -102 26 -158
q45 -55 141 -55t166 49q68 49 84 139l84 475h-145l31 172h491l-30 -172h-134l-82 -460q-33 -181 -148 -283t-315 -102z" />
    <glyph glyph-name="Wcircumflex.smcp" unicode="&#xf6a6;" horiz-adv-x="1652" 
d="M621 1085l-41 64l315 268h143l211 -268l-51 -64l-268 129zM326 0l-138 825h-131l31 172h485l-28 -163h-146l78 -586l289 538l-8 48h-131l28 163h484l-29 -163h-143l86 -584l288 581h-141l29 166h493l-30 -172h-133l-431 -825h-217l-92 500l-276 -500h-217z" />
    <glyph glyph-name="Ycircumflex.smcp" unicode="&#xf6a9;" horiz-adv-x="1126" 
d="M362 1085l-40 64l315 268h143l211 -268l-51 -64l-268 129zM199 0l30 172h156l31 172l-232 481h-125l31 172h488l-31 -168h-135l141 -290l244 290h-135l30 168h502l-31 -172h-123l-403 -483l-29 -170h156l-31 -172h-534z" />
    <glyph glyph-name="Zacute.smcp" unicode="&#xf6ab;" horiz-adv-x="1042" 
d="M522 1085l-67 84l344 322l123 -156zM20 0l-45 92l689 731h-308l-30 -176h-207l61 350h803l55 -84l-698 -739h354l31 176h205l-62 -350h-848z" />
    <glyph glyph-name="Zdotaccent.smcp" unicode="&#xf6ac;" horiz-adv-x="1042" 
d="M625 1092q-55 0 -96 40q-40 40 -40 95t40 95q39 40 95 40t96 -40t40 -95t-40 -95t-95 -40zM20 0l-45 92l689 731h-308l-30 -176h-207l61 350h803l55 -84l-698 -739h354l31 176h205l-62 -350h-848z" />
    <glyph glyph-name="Idotaccent.smcp" unicode="&#xf6ad;" horiz-adv-x="663" 
d="M449 1092q-55 0 -96 40q-40 40 -40 95t40 95q39 40 95 40t96 -40t40 -95t-40 -95t-95 -40zM-10 0l30 172h138l114 653h-137l31 172h500l-31 -172h-137l-115 -653h137l-31 -172h-499z" />
    <glyph glyph-name="parenleft.cap" unicode="&#xf6ae;" horiz-adv-x="602" 
d="M63 414q0 303 127 596t355 538h237q-498 -567 -497 -1147q0 -174 43 -363t129 -343h-232q-78 155 -120 351t-42 368z" />
    <glyph glyph-name="parenright.cap" unicode="&#xf6af;" horiz-adv-x="602" 
d="M573 829q0 -303 -127 -596t-354 -538h-237q498 567 497 1147q0 174 -43 363t-129 343h232q78 -156 120 -352t41 -367z" />
    <glyph glyph-name="bracketleft.cap" unicode="&#xf6b0;" horiz-adv-x="634" 
d="M6 -305l328 1853h444l-28 -157h-232l-270 -1538h231l-28 -158h-445z" />
    <glyph glyph-name="bracketright.cap" unicode="&#xf6b1;" horiz-adv-x="634" 
d="M-109 -305l29 158h232l270 1538h-232l29 157h445l-328 -1853h-445z" />
    <glyph glyph-name="braceleft.cap" unicode="&#xf6b2;" horiz-adv-x="659" 
d="M643 1573q80 0 152 -23l-23 -137q-45 14 -95 14t-79 -15q-61 -32 -61 -173q0 -33 2 -95t4 -137t-12 -130q-30 -125 -78 -172q-71 -71 -174 -93q150 -39 149 -243q0 -107 -67 -267t-66 -215q0 -70 84 -69q47 0 113 12l-25 -141q-82 -21 -139 -21q-122 0 -182 64t-60 147
q0 84 68 247t67 239q0 158 -203 172l29 168q113 7 184 57q99 64 99 269l-4 159q0 184 70 284q71 99 247 99z" />
    <glyph glyph-name="braceright.cap" unicode="&#xf6b3;" horiz-adv-x="661" 
d="M51 -330q-80 0 -151 23l22 137q45 -14 95 -14t86 19t51 98q4 28 4 66t-2 100q-4 134 0 195q12 171 84 243t176 94q-150 39 -150 243q0 106 67 266t66 216q0 70 -84 69q-47 0 -112 -12l24 141q82 20 140 21q123 1 182 -63t59 -148t-68 -247t-67 -238q0 -158 203 -172
l-29 -168q-109 -7 -184 -58q-46 -30 -72 -100q-26 -71 -26 -169l4 -159q0 -183 -71 -283t-247 -100z" />
    <glyph glyph-name="exclamdown.cap" unicode="&#xf6b4;" horiz-adv-x="544" 
d="M373 985q-57 0 -100 42q-42 42 -42 99q0 58 42 100q41 42 99 42t100 -42t42 -100t-42 -99q-42 -42 -99 -42zM55 0l193 887h180l-119 -887h-254z" />
    <glyph glyph-name="questiondown.cap" unicode="&#xf6b5;" horiz-adv-x="792" 
d="M555 985q-59 0 -100 42t-41 99q0 58 41 100t100 42t100 -42t41 -100t-41 -99q-41 -42 -100 -42zM358 -29q-136 0 -231 70q-96 70 -96 201q0 86 45 160t106 129q60 55 122 107q144 123 126 249h207q12 -88 -22 -165t-90 -133q-56 -57 -114 -107q-143 -125 -143 -224
q0 -113 156 -113q100 0 250 43l-31 -174q-149 -43 -285 -43z" />
    <glyph glyph-name="guillemotleft.cap" unicode="&#xf6b6;" horiz-adv-x="1222" 
d="M829 233l-249 385l2 9l385 385h266l-420 -410l252 -369h-236zM340 233l-250 385l2 9l385 385h266l-419 -410l251 -369h-235z" />
    <glyph glyph-name="guillemotright.cap" unicode="&#xf6b7;" horiz-adv-x="1222" 
d="M25 233l419 410l-251 369h235l250 -385l-2 -9l-385 -385h-266zM514 233l420 410l-252 369h236l249 -385l-2 -9l-385 -385h-266z" />
    <glyph glyph-name="guilsinglleft.cap" unicode="&#xf6b8;" horiz-adv-x="733" 
d="M340 233l-250 385l2 9l385 385h266l-419 -410l251 -369h-235z" />
    <glyph glyph-name="guilsinglright.cap" unicode="&#xf6b9;" horiz-adv-x="733" 
d="M25 233l419 410l-251 369h235l250 -385l-2 -9l-385 -385h-266z" />
    <glyph glyph-name="hyphen.cap" unicode="&#xf6ba;" horiz-adv-x="808" 
d="M109 526l34 195h590l-35 -195h-589z" />
    <glyph glyph-name="endash.cap" unicode="&#xf6bb;" horiz-adv-x="1343" 
d="M109 526l34 195h1125l-35 -195h-1124z" />
    <glyph glyph-name="emdash.cap" unicode="&#xf6bc;" horiz-adv-x="1804" 
d="M109 526l34 195h1586l-35 -195h-1585z" />
    <glyph glyph-name="periodcentered.cap" unicode="&#xf6bd;" horiz-adv-x="468" 
d="M248 481q-59 0 -101 42q-41 41 -41 99t41 100t101 42t100 -42q41 -42 41 -99t-41 -99t-100 -43z" />
    <glyph glyph-name="acute.cap" unicode="&#xf6c9;" horiz-adv-x="708" 
d="M170 1352l-72 90l363 342l129 -166z" />
    <glyph glyph-name="caron.cap" unicode="&#xf6ca;" horiz-adv-x="892" 
d="M342 1352l-221 284l55 68l281 -137l327 137l43 -68l-333 -284h-152z" />
    <glyph glyph-name="dieresis.cap" unicode="&#xf6cb;" horiz-adv-x="892" 
d="M639 1360q-55 0 -94 39t-39 94t39 94t94 39t94 -39t39 -94t-39 -94t-94 -39zM242 1360q-55 0 -95 39q-39 39 -38 94q0 55 38 94q39 39 95 39t94 -39q39 -39 39 -94t-39 -94t-94 -39z" />
    <glyph glyph-name="grave.cap" unicode="&#xf6ce;" horiz-adv-x="708" 
d="M487 1352l-356 274l148 160l294 -342z" />
    <glyph glyph-name="hungarumlaut.cap" unicode="&#xf6cf;" horiz-adv-x="1054" 
d="M532 1352l-67 71l307 369l135 -152zM188 1352l-67 71l307 369l135 -152z" />
    <glyph glyph-name="macron.cap" unicode="&#xf6d0;" horiz-adv-x="858" 
d="M119 1372l31 172h581l-31 -172h-581z" />
    <glyph glyph-name="breve.smcp" unicode="&#xf6f4;" horiz-adv-x="735" 
d="M359 1100q-143 0 -209 85t-50 214h158q-6 -133 122 -133t175 133h158q-29 -133 -121 -216t-233 -83z" />
    <glyph glyph-name="caron.smcp" unicode="&#xf6f5;" horiz-adv-x="829" 
d="M326 1098l-211 266l53 63l266 -129l311 129l41 -63l-317 -266h-143z" />
    <glyph glyph-name="circumflex.smcp" unicode="&#xf6f6;" horiz-adv-x="827" 
d="M129 1085l-41 64l315 268h144l211 -268l-51 -64l-269 129z" />
    <glyph glyph-name="dotaccent.smcp" unicode="&#xf6f7;" horiz-adv-x="454" 
d="M231 1092q-55 0 -95 40t-40 95t40 95t95 40t95 -40t41 -95q-1 -55 -41 -95t-95 -40z" />
    <glyph glyph-name="hungarumlaut.smcp" unicode="&#xf6f8;" horiz-adv-x="980" 
d="M506 1085l-64 68l291 346l129 -143zM178 1085l-63 68l293 346l127 -143z" />
    <glyph glyph-name="Lslash.smcp" unicode="&#xf6f9;" horiz-adv-x="985" 
d="M98 358l-28 109l151 59l53 299h-137l31 172h518l-31 -172h-155l-37 -204l291 112l28 -108l-342 -133l-55 -318h297l27 150h206l-57 -324h-866l31 172h137l39 225z" />
    <glyph glyph-name="ogonek.smcp" unicode="&#xf6fb;" horiz-adv-x="565" 
d="M272 -418q-88 0 -139 38t-51 114q0 197 348 329l51 -40q-84 -47 -145 -114q-62 -67 -62 -129t64 -62t131 26l-10 -125q-99 -37 -187 -37z" />
    <glyph glyph-name="ring.smcp" unicode="&#xf6fc;" horiz-adv-x="669" 
d="M340 1202q45 0 73 36t27 83q0 76 -69 76q-43 0 -71 -36t-28 -81q0 -78 68 -78zM368 1518q116 0 176 -52q58 -52 58 -145q0 -92 -70 -164t-186 -72q-118 1 -178 53t-59 143q0 91 71 164q72 73 188 73z" />
    <glyph glyph-name="Scaron.smcp" unicode="&#xf6fd;" horiz-adv-x="931" 
d="M500 1108l-211 266l53 64l266 -129l312 129l41 -64l-318 -266h-143zM811 291q1 -151 -111 -231t-304 -80t-388 59l47 276h205l-22 -145q70 -18 138 -18t107 8t74 37t35 79t-48 84q-48 35 -116 58q-68 24 -136 52t-117 90q-48 62 -48 155q0 141 105 222q106 81 294 81
t367 -60l-47 -268h-207l25 144q-76 14 -146 14t-122 -29t-52 -81t48 -84t117 -54t137 -54q68 -30 117 -94q48 -64 48 -161z" />
    <glyph glyph-name="tilde.smcp" unicode="&#xf6fe;" horiz-adv-x="886" 
d="M347 1368q48 0 128 -45t122 -45t72 16t43 32t33 48l72 -43q-25 -47 -55 -92t-89 -93t-111 -48t-137 45t-128 45q-67 0 -135 -94l-72 41q14 33 35 66q98 167 222 167z" />
    <glyph glyph-name="Zcaron.smcp" unicode="&#xf6ff;" horiz-adv-x="1042" 
d="M532 1098l-210 266l53 63l266 -129l311 129l41 -63l-317 -266h-144zM20 0l-45 92l689 731h-308l-30 -176h-207l61 350h803l55 -84l-698 -739h354l31 176h205l-62 -350h-848z" />
    <glyph glyph-name="exclam.smcp" unicode="&#xf721;" horiz-adv-x="524" 
d="M307 103q0 -51 -36 -85t-86 -34t-86 34t-36 85q0 50 36 85t86 35t86 -35t36 -85zM135 295l90 702h240l-158 -702h-172z" />
    <glyph glyph-name="ampersand.smcp" unicode="&#xf726;" horiz-adv-x="1142" 
d="M580 794q0 76 -78 76q-41 0 -68 -32q-26 -32 -26 -79q0 -46 41 -97q131 69 131 132zM383 154q86 0 168 47l-189 243q-121 -78 -120 -174q0 -116 141 -116zM358 -20q-156 0 -238 72q-81 72 -81 194q0 190 227 323q-63 88 -63 198q0 111 90 181t218 70t191 -60
q64 -60 64 -150t-58 -150t-165 -117l159 -203q84 106 123 276h254l-28 -159h-93q-57 -150 -147 -254q69 -81 197 -43l-29 -156q-51 -18 -123 -18q-125 0 -203 84q-139 -88 -295 -88z" />
    <glyph glyph-name="question.smcp" unicode="&#xf73f;" horiz-adv-x="704" 
d="M234 -16q-50 0 -86 34t-36 85q0 50 36 85t86 35t86 -35t36 -85t-35 -85q-37 -34 -87 -34zM162 295q0 117 97 221q40 43 81 83q98 95 96 173q0 86 -119 86q-72 0 -198 -29l26 160q125 29 209 29q142 0 224 -56t82 -174t-104 -218q-44 -42 -87 -82q-103 -96 -107 -193h-200
z" />
    <glyph glyph-name="grave.smcp" unicode="&#xf760;" horiz-adv-x="659" 
d="M463 1085l-338 258l139 150l281 -322z" />
    <glyph glyph-name="A.smcp" unicode="&#xf761;" horiz-adv-x="1200" 
d="M473 469h264l-71 348zM-70 0l31 172h121l377 653h-125l31 172h460l189 -825h123l-31 -172h-477l30 172h140l-27 125h-393l-68 -125h140l-31 -172h-490z" />
    <glyph glyph-name="B.smcp" unicode="&#xf762;" horiz-adv-x="1091" 
d="M606 588q92 0 144 39q51 39 51 91t-36 81t-106 28h-167l-41 -239h155zM561 170q88 0 140 41q53 41 53 95t-37 86t-119 32h-178l-43 -254h184zM674 997q156 -1 253 -65t97 -182q0 -88 -57 -153t-170 -89q80 -20 129 -76t49 -139q-1 -123 -107 -208t-311 -85h-567l30 170
h136l114 657h-135l31 170h508z" />
    <glyph glyph-name="C.smcp" unicode="&#xf763;" horiz-adv-x="1087" 
d="M542 -20q-206 0 -343 114t-138 342q-1 264 181 423t452 159q203 0 391 -80l-51 -295h-215l31 176q-74 18 -154 19q-178 0 -290 -108t-111 -281q0 -133 74 -209t218 -76t378 102l-33 -194q-184 -92 -390 -92z" />
    <glyph glyph-name="D.smcp" unicode="&#xf764;" horiz-adv-x="1204" 
d="M494 174q205 0 304 106t99 273q0 270 -289 270h-110l-115 -649h111zM623 997q247 -1 377 -117t130 -332t-142 -373q-73 -81 -202 -128t-301 -47h-495l30 172h138l114 653h-137l31 172h457z" />
    <glyph glyph-name="E.smcp" unicode="&#xf765;" horiz-adv-x="1052" 
d="M-10 0l30 172h138l114 653h-137l31 172h874l-53 -305h-207l23 131h-305l-41 -233h354l-31 -174h-354l-43 -242h311l25 139h209l-56 -313h-882z" />
    <glyph glyph-name="F.smcp" unicode="&#xf766;" horiz-adv-x="985" 
d="M-10 0l30 172h138l114 653h-137l31 172h858l-57 -323h-207l26 147h-288l-47 -264h333l-32 -180h-334l-35 -205h158l-31 -172h-520z" />
    <glyph glyph-name="G.smcp" unicode="&#xf767;" 
d="M580 -20q-236 0 -376 114t-140 360q0 244 180 404t479 160q227 0 407 -76l-49 -272h-209l27 145q-90 20 -176 21q-186 0 -306 -100t-120 -283q0 -133 73 -212t232 -79q94 0 211 33l33 190h-199l29 168h475l-29 -168h-69l-56 -315q-239 -90 -417 -90z" />
    <glyph glyph-name="H.smcp" unicode="&#xf768;" horiz-adv-x="1345" 
d="M-10 0l30 172h138l114 653h-137l31 172h500l-31 -172h-137l-41 -235h456l41 235h-137l31 172h500l-31 -172h-137l-115 -653h137l-31 -172h-499l30 172h138l43 242h-457l-43 -242h137l-31 -172h-499z" />
    <glyph glyph-name="I.smcp" unicode="&#xf769;" horiz-adv-x="663" 
d="M-10 0l30 172h138l114 653h-137l31 172h500l-31 -172h-137l-115 -653h137l-31 -172h-499z" />
    <glyph glyph-name="J.smcp" unicode="&#xf76a;" horiz-adv-x="626" 
d="M-41 -305l-53 151q78 27 138 77t73 116l139 786h-139l30 172h502l-31 -172h-137l-139 -794q-32 -193 -208 -275q-62 -29 -87 -36t-88 -25z" />
    <glyph glyph-name="K.smcp" unicode="&#xf76b;" horiz-adv-x="1232" 
d="M-10 0l30 172h138l114 653h-137l31 172h500l-31 -172h-137l-115 -653h137l-31 -172h-499zM793 0l-322 489v3l387 335h-129l31 170h502l-31 -172h-105l-395 -344l211 -309h178l-30 -172h-297z" />
    <glyph glyph-name="L.smcp" unicode="&#xf76c;" horiz-adv-x="983" 
d="M-10 0l30 172h138l114 653h-137l31 172h518l-31 -172h-155l-115 -651h297l27 150h206l-57 -324h-866z" />
    <glyph glyph-name="M.smcp" unicode="&#xf76d;" horiz-adv-x="1566" 
d="M-8 0l31 172h120l138 657h-123l30 168h437l129 -645l327 645h467l-30 -168h-123l-99 -657h121l-31 -172h-452l31 172h137l88 623l-393 -723h-168l-154 723l-129 -623h139l-30 -172h-463z" />
    <glyph glyph-name="N.smcp" unicode="&#xf76e;" horiz-adv-x="1312" 
d="M-10 0l30 172h138l114 653h-137l31 172h334l374 -690l89 518h-154l31 172h495l-30 -172h-138l-145 -825h-191l-378 688l-91 -516h156l-31 -172h-497z" />
    <glyph glyph-name="O.smcp" unicode="&#xf76f;" horiz-adv-x="1239" 
d="M559 162q153 0 265 110t112 264q0 152 -72 226t-192 74q-154 0 -266 -112t-111 -282q1 -132 73 -206t191 -74zM549 -20q-223 0 -355 118t-133 334q-1 250 175 418t446 168q221 0 354 -120t133 -335q0 -251 -175 -417t-445 -166z" />
    <glyph glyph-name="P.smcp" unicode="&#xf770;" horiz-adv-x="1050" 
d="M578 512q119 0 173 55t54 117t-40 100q-40 39 -132 39h-135l-56 -311h136zM639 997q197 0 295 -87t98 -216t-98 -232q-50 -54 -146 -87t-225 -33h-151l-29 -170h174l-31 -172h-536l30 172h138l114 653h-137l31 172h473z" />
    <glyph glyph-name="Q.smcp" unicode="&#xf771;" horiz-adv-x="1239" 
d="M559 162q153 0 265 110t112 264q0 152 -72 226t-192 74q-154 0 -266 -112t-111 -282q1 -132 73 -206t191 -74zM61 432q-1 250 175 418t446 168q221 0 354 -120t133 -327q1 -207 -113 -357t-304 -208l151 -94l-153 -164l-277 236q-190 18 -301 135t-111 313z" />
    <glyph glyph-name="R.smcp" unicode="&#xf772;" horiz-adv-x="1140" 
d="M602 522q119 0 172 52t53 114t-41 98q-41 37 -133 37h-155l-54 -301h158zM666 997q196 0 292 -83t96 -208q0 -124 -72 -202q-73 -78 -189 -115l90 -221h135l-29 -168h-274l-135 350h-166l-31 -178h137l-31 -172h-499l30 172h138l114 653h-137l31 172h500z" />
    <glyph glyph-name="S.smcp" unicode="&#xf773;" horiz-adv-x="931" 
d="M811 291q1 -151 -111 -231t-304 -80t-388 59l47 276h205l-22 -145q70 -18 138 -18t107 8t74 37t35 79t-48 84q-48 35 -116 58q-68 24 -136 52t-117 90q-48 62 -48 155q0 141 105 222q106 81 294 81t367 -60l-47 -268h-207l25 144q-76 14 -146 14t-122 -29t-52 -81t48 -84
t117 -54t137 -54q68 -30 117 -94q48 -64 48 -161z" />
    <glyph glyph-name="T.smcp" unicode="&#xf774;" horiz-adv-x="1044" 
d="M162 0l31 172h155l115 651h-162l-27 -153h-202l57 327h954l-57 -327h-203l27 153h-162l-115 -651h156l-31 -172h-536z" />
    <glyph glyph-name="U.smcp" unicode="&#xf775;" horiz-adv-x="1212" 
d="M538 -20q-200 0 -313 112t-78 305l76 428h-133l31 172h500l-31 -172h-141l-80 -450q-18 -102 26 -158q45 -55 141 -55t166 49q68 49 84 139l84 475h-145l31 172h491l-30 -172h-134l-82 -460q-33 -181 -148 -283t-315 -102z" />
    <glyph glyph-name="V.smcp" unicode="&#xf776;" horiz-adv-x="1169" 
d="M379 0l-201 825h-125l31 172h510l-31 -170h-162l123 -575l326 575h-162l31 170h520l-31 -172h-125l-491 -825h-213z" />
    <glyph glyph-name="W.smcp" unicode="&#xf777;" horiz-adv-x="1652" 
d="M326 0l-138 825h-131l31 172h485l-28 -163h-146l78 -586l289 538l-8 48h-131l28 163h484l-29 -163h-143l86 -584l288 581h-141l29 166h493l-30 -172h-133l-431 -825h-217l-92 500l-276 -500h-217z" />
    <glyph glyph-name="X.smcp" unicode="&#xf778;" horiz-adv-x="1165" 
d="M-47 0l31 172h110l365 336l-217 317h-113l31 172h465l-29 -166h-123l131 -190l207 190h-123l29 166h483l-31 -174h-110l-354 -327l227 -326h104l-30 -170h-469l28 166h127l-133 194l-211 -194h121l-29 -166h-487z" />
    <glyph glyph-name="Y.smcp" unicode="&#xf779;" horiz-adv-x="1126" 
d="M199 0l30 172h156l31 172l-232 481h-125l31 172h488l-31 -168h-135l141 -290l244 290h-135l30 168h502l-31 -172h-123l-403 -483l-29 -170h156l-31 -172h-534z" />
    <glyph glyph-name="Z.smcp" unicode="&#xf77a;" horiz-adv-x="1042" 
d="M20 0l-45 92l689 731h-308l-30 -176h-207l61 350h803l55 -84l-698 -739h354l31 176h205l-62 -350h-848z" />
    <glyph glyph-name="exclamdown.smcp" unicode="&#xf7a1;" horiz-adv-x="526" 
d="M331 774q-50 0 -86 35t-36 85t36 85t86 35t86 -35t36 -85t-36 -85t-86 -35zM51 0l158 702h172l-90 -702h-240z" />
    <glyph glyph-name="dieresis.smcp" unicode="&#xf7a8;" horiz-adv-x="829" 
d="M600 1092q-51 0 -88 36t-37 88q0 54 37 90t88 36t88 -36t37 -89t-37 -89t-88 -36zM221 1092q-53 0 -89 36t-36 88q0 54 36 90t89 36t89 -36t36 -89t-36 -89t-89 -36z" />
    <glyph glyph-name="macron.smcp" unicode="&#xf7af;" horiz-adv-x="798" 
d="M113 1120l28 162h553l-28 -162h-553z" />
    <glyph glyph-name="acute.smcp" unicode="&#xf7b4;" horiz-adv-x="659" 
d="M162 1085l-68 84l344 322l123 -156z" />
    <glyph glyph-name="cedilla.smcp" unicode="&#xf7b8;" horiz-adv-x="579" 
d="M234 -418q-110 0 -189 29l37 115q70 -25 133 -25q92 0 92 53q0 66 -133 66l12 41l150 215l102 -23l-80 -151q141 -27 142 -144q0 -86 -78 -131t-188 -45z" />
    <glyph glyph-name="questiondown.smcp" unicode="&#xf7bf;" horiz-adv-x="702" 
d="M460 774q-50 0 -86 35t-36 85t36 85t86 35t86 -35t36 -85t-36 -85t-86 -35zM340 -20q-141 0 -223 56t-82 173t103 218q44 42 87 82q103 96 107 193h200q0 -114 -97 -221q-40 -43 -81 -83q-96 -94 -96 -173q0 -86 119 -86q72 0 198 29l-26 -160q-125 -28 -209 -28z" />
    <glyph glyph-name="Agrave.smcp" unicode="&#xf7e0;" horiz-adv-x="1200" 
d="M731 1085l-338 258l139 150l281 -322zM473 469h264l-71 348zM-70 0l31 172h121l377 653h-125l31 172h460l189 -825h123l-31 -172h-477l30 172h140l-27 125h-393l-68 -125h140l-31 -172h-490z" />
    <glyph glyph-name="Aacute.smcp" unicode="&#xf7e1;" horiz-adv-x="1200" 
d="M555 1085l-68 84l344 322l123 -156zM473 469h264l-71 348zM-70 0l31 172h121l377 653h-125l31 172h460l189 -825h123l-31 -172h-477l30 172h140l-27 125h-393l-68 -125h140l-31 -172h-490z" />
    <glyph glyph-name="Acircumflex.smcp" unicode="&#xf7e2;" horiz-adv-x="1200" 
d="M383 1085l-41 64l315 268h144l211 -268l-51 -64l-269 129zM473 469h264l-71 348zM-70 0l31 172h121l377 653h-125l31 172h460l189 -825h123l-31 -172h-477l30 172h140l-27 125h-393l-68 -125h140l-31 -172h-490z" />
    <glyph glyph-name="Atilde.smcp" unicode="&#xf7e3;" horiz-adv-x="1200" 
d="M576 1368q48 0 128 -45t123 -45q77 0 114 49q13 16 34 47l72 -43q-25 -47 -56 -92t-89 -93t-110 -48t-138 45q-85 45 -128 45q-67 0 -135 -94l-72 41q29 69 89 141q74 92 168 92zM473 469h264l-71 348zM-70 0l31 172h121l377 653h-125l31 172h460l189 -825h123l-31 -172
h-477l30 172h140l-27 125h-393l-68 -125h140l-31 -172h-490z" />
    <glyph glyph-name="Adieresis.smcp" unicode="&#xf7e4;" horiz-adv-x="1200" 
d="M872 1092q-53 0 -89 36q-35 36 -35 88q0 54 35 90q36 36 89 36t90 -36q36 -36 36 -89t-36 -90q-37 -35 -90 -35zM494 1092q-51 0 -88 36t-37 88q0 54 37 90t88 36t88 -36q36 -36 36 -89t-36 -90q-37 -35 -88 -35zM473 469h264l-71 348zM-70 0l31 172h121l377 653h-125
l31 172h460l189 -825h123l-31 -172h-477l30 172h140l-27 125h-393l-68 -125h140l-31 -172h-490z" />
    <glyph glyph-name="Aring.smcp" unicode="&#xf7e5;" horiz-adv-x="1200" 
d="M690 1202q45 0 73 36t28 83q0 76 -70 76q-43 0 -71 -36t-27 -81q-1 -78 67 -78zM718 1518q116 0 176 -52q58 -52 58 -145q0 -92 -70 -164t-186 -72q-118 1 -178 53t-59 143q0 91 71 164q72 73 188 73zM473 469h264l-71 348zM-70 0l31 172h121l377 653h-125l31 172h460
l189 -825h123l-31 -172h-477l30 172h140l-27 125h-393l-68 -125h140l-31 -172h-490z" />
    <glyph glyph-name="AE.smcp" unicode="&#xf7e6;" horiz-adv-x="1685" 
d="M573 463h285l64 362h-48zM-72 0l31 172h123l569 655h-125l29 170h1116l-53 -305h-203l23 131h-305l-41 -233h354l-31 -174h-354l-43 -242h311l33 139h205l-64 -313h-864l31 172h137l22 127h-391l-104 -127h143l-31 -172h-518z" />
    <glyph glyph-name="Ccedilla.smcp" unicode="&#xf7e7;" horiz-adv-x="1087" 
d="M682 -242q0 -86 -78 -131t-186 -45q-110 0 -191 29l37 115q70 -25 133 -25q92 0 92 53q0 66 -133 66l13 41l86 125q-178 26 -286 138t-108 312q-1 264 181 423t452 159q203 0 391 -80l-51 -295h-215l31 176q-74 18 -154 19q-178 0 -290 -108t-111 -281q0 -133 74 -209
t218 -76t378 102l-33 -194q-174 -88 -350 -92l-41 -78q141 -27 141 -144z" />
    <glyph glyph-name="Egrave.smcp" unicode="&#xf7e8;" horiz-adv-x="1052" 
d="M692 1085l-338 258l140 150l280 -322zM-10 0l30 172h138l114 653h-137l31 172h874l-53 -305h-207l23 131h-305l-41 -233h354l-31 -174h-354l-43 -242h311l25 139h209l-56 -313h-882z" />
    <glyph glyph-name="Eacute.smcp" unicode="&#xf7e9;" horiz-adv-x="1052" 
d="M535 1085l-68 84l344 322l123 -156zM-10 0l30 172h138l114 653h-137l31 172h874l-53 -305h-207l23 131h-305l-41 -233h354l-31 -174h-354l-43 -242h311l25 139h209l-56 -313h-882z" />
    <glyph glyph-name="Ecircumflex.smcp" unicode="&#xf7ea;" horiz-adv-x="1052" 
d="M334 1085l-41 64l315 268h144l211 -268l-52 -64l-268 129zM-10 0l30 172h138l114 653h-137l31 172h874l-53 -305h-207l23 131h-305l-41 -233h354l-31 -174h-354l-43 -242h311l25 139h209l-56 -313h-882z" />
    <glyph glyph-name="Edieresis.smcp" unicode="&#xf7eb;" horiz-adv-x="1052" 
d="M817 1092q-51 0 -88 36t-37 88q0 54 37 90t88 36t88 -36t37 -89t-37 -89t-88 -36zM438 1092q-53 0 -89 36t-36 88q0 54 36 90t89 36t89 -36t36 -89t-36 -89t-89 -36zM-10 0l30 172h138l114 653h-137l31 172h874l-53 -305h-207l23 131h-305l-41 -233h354l-31 -174h-354
l-43 -242h311l25 139h209l-56 -313h-882z" />
    <glyph glyph-name="Igrave.smcp" unicode="&#xf7ec;" horiz-adv-x="663" 
d="M522 1085l-338 258l140 150l280 -322zM-10 0l30 172h138l114 653h-137l31 172h500l-31 -172h-137l-115 -653h137l-31 -172h-499z" />
    <glyph glyph-name="Iacute.smcp" unicode="&#xf7ed;" horiz-adv-x="663" 
d="M350 1085l-67 84l344 322l123 -156zM-10 0l30 172h138l114 653h-137l31 172h500l-31 -172h-137l-115 -653h137l-31 -172h-499z" />
    <glyph glyph-name="Icircumflex.smcp" unicode="&#xf7ee;" horiz-adv-x="663" 
d="M137 1085l-41 64l316 268h143l211 -268l-51 -64l-269 129zM-10 0l30 172h138l114 653h-137l31 172h500l-31 -172h-137l-115 -653h137l-31 -172h-499z" />
    <glyph glyph-name="Idieresis.smcp" unicode="&#xf7ef;" horiz-adv-x="663" 
d="M631 1092q-53 0 -89 36t-36 88q0 54 36 90t89 36t89 -36t36 -89t-36 -89t-89 -36zM252 1092q-51 0 -88 36t-37 88q0 54 37 90t88 36t88 -36t37 -89t-37 -89t-88 -36zM-10 0l30 172h138l114 653h-137l31 172h500l-31 -172h-137l-115 -653h137l-31 -172h-499z" />
    <glyph glyph-name="Eth.smcp" unicode="&#xf7f0;" horiz-adv-x="1206" 
d="M496 174q205 0 304 106t99 273q0 270 -289 270h-110l-43 -239h243l-28 -162h-244l-43 -248h111zM625 997q247 -1 377 -117t130 -331t-142 -374q-73 -81 -202 -128t-301 -47h-495l31 172h137l43 250h-123l29 162h122l43 241h-137l31 172h457z" />
    <glyph glyph-name="Ntilde.smcp" unicode="&#xf7f1;" horiz-adv-x="1312" 
d="M662 1368q48 0 128 -45t123 -45q77 0 114 49q13 16 34 47l72 -43q-25 -47 -56 -92t-89 -93t-110 -48t-138 45q-85 45 -128 45q-67 0 -135 -94l-71 41q30 71 88 141q74 92 168 92zM-10 0l30 172h138l114 653h-137l31 172h334l374 -690l89 518h-154l31 172h495l-30 -172
h-138l-145 -825h-191l-378 688l-91 -516h156l-31 -172h-497z" />
    <glyph glyph-name="Ograve.smcp" unicode="&#xf7f2;" horiz-adv-x="1239" 
d="M782 1096l-338 258l140 149l280 -321zM559 162q153 0 265 110t112 264q0 152 -72 226t-192 74q-154 0 -266 -112t-111 -282q1 -132 73 -206t191 -74zM549 -20q-223 0 -355 118t-133 334q-1 250 175 418t446 168q221 0 354 -120t133 -335q0 -251 -175 -417t-445 -166z" />
    <glyph glyph-name="Oacute.smcp" unicode="&#xf7f3;" horiz-adv-x="1239" 
d="M653 1096l-67 84l344 321l123 -155zM559 162q153 0 265 110t112 264q0 152 -72 226t-192 74q-154 0 -266 -112t-111 -282q1 -132 73 -206t191 -74zM549 -20q-223 0 -355 118t-133 334q-1 250 175 418t446 168q221 0 354 -120t133 -335q0 -251 -175 -417t-445 -166z" />
    <glyph glyph-name="Ocircumflex.smcp" unicode="&#xf7f4;" horiz-adv-x="1239" 
d="M434 1096l-41 63l316 268h143l211 -268l-51 -63l-269 129zM559 162q153 0 265 110t112 264q0 152 -72 226t-192 74q-154 0 -266 -112t-111 -282q1 -132 73 -206t191 -74zM549 -20q-223 0 -355 118t-133 334q-1 250 175 418t446 168q221 0 354 -120t133 -335
q0 -251 -175 -417t-445 -166z" />
    <glyph glyph-name="Otilde.smcp" unicode="&#xf7f5;" horiz-adv-x="1239" 
d="M882 1288q42 0 72 16t42 33q13 16 34 47l72 -43q-26 -47 -56 -92t-88 -93t-111 -48q-52 0 -137 45t-128 45q-68 0 -136 -94l-71 41q28 67 75 124q89 111 179 109q51 0 131 -45t122 -45zM559 162q153 0 265 110t112 264q0 152 -72 226t-192 74q-154 0 -266 -112t-111 -282
q1 -132 73 -206t191 -74zM549 -20q-223 0 -355 118t-133 334q-1 250 175 418t446 168q221 0 354 -120t133 -335q0 -251 -175 -417t-445 -166z" />
    <glyph glyph-name="Odieresis.smcp" unicode="&#xf7f6;" horiz-adv-x="1239" 
d="M924 1102q-51 0 -88 37t-37 88t37 88t88 37t88 -37t37 -88t-37 -88t-88 -37zM545 1102q-53 0 -89 37t-36 88t36 88t89 37t89 -37t36 -88t-36 -88t-89 -37zM559 162q153 0 265 110t112 264q0 152 -72 226t-192 74q-154 0 -266 -112t-111 -282q1 -132 73 -206t191 -74z
M549 -20q-223 0 -355 118t-133 334q-1 250 175 418t446 168q221 0 354 -120t133 -335q0 -251 -175 -417t-445 -166z" />
    <glyph glyph-name="Oslash.smcp" unicode="&#xf7f8;" horiz-adv-x="1236" 
d="M670 836q-154 0 -266 -112t-111 -282q0 -92 33 -155l522 487q-67 62 -178 62zM557 162q153 0 265 110t112 281q0 84 -33 154l-522 -486q69 -59 178 -59zM547 -20q-201 0 -326 94l-115 -109l-61 60l115 106q-100 117 -101 301q0 250 175 418t446 168q195 0 326 -96
l116 108l62 -59l-117 -109q100 -117 100 -299q0 -251 -175 -417t-445 -166z" />
    <glyph glyph-name="Ugrave.smcp" unicode="&#xf7f9;" horiz-adv-x="1212" 
d="M768 1085l-338 258l139 150l281 -322zM538 -20q-200 0 -313 112t-78 305l76 428h-133l31 172h500l-31 -172h-141l-80 -450q-18 -102 26 -158q45 -55 141 -55t166 49q68 49 84 139l84 475h-145l31 172h491l-30 -172h-134l-82 -460q-33 -181 -148 -283t-315 -102z" />
    <glyph glyph-name="Uacute.smcp" unicode="&#xf7fa;" horiz-adv-x="1212" 
d="M629 1085l-68 84l344 322l123 -156zM538 -20q-200 0 -313 112t-78 305l76 428h-133l31 172h500l-31 -172h-141l-80 -450q-18 -102 26 -158q45 -55 141 -55t166 49q68 49 84 139l84 475h-145l31 172h491l-30 -172h-134l-82 -460q-33 -181 -148 -283t-315 -102z" />
    <glyph glyph-name="Ucircumflex.smcp" unicode="&#xf7fb;" horiz-adv-x="1212" 
d="M408 1085l-41 64l315 268h143l211 -268l-51 -64l-268 129zM538 -20q-200 0 -313 112t-78 305l76 428h-133l31 172h500l-31 -172h-141l-80 -450q-18 -102 26 -158q45 -55 141 -55t166 49q68 49 84 139l84 475h-145l31 172h491l-30 -172h-134l-82 -460q-33 -181 -148 -283
t-315 -102z" />
    <glyph glyph-name="Udieresis.smcp" unicode="&#xf7fc;" horiz-adv-x="1212" 
d="M901 1092q-53 0 -89 36t-36 88q0 54 36 90t89 36t89 -36t36 -89t-36 -89t-89 -36zM522 1092q-51 0 -88 36t-37 88q0 54 37 90t88 36t88 -36t37 -89t-37 -89t-88 -36zM538 -20q-200 0 -313 112t-78 305l76 428h-133l31 172h500l-31 -172h-141l-80 -450q-18 -102 26 -158
q45 -55 141 -55t166 49q68 49 84 139l84 475h-145l31 172h491l-30 -172h-134l-82 -460q-33 -181 -148 -283t-315 -102z" />
    <glyph glyph-name="Yacute.smcp" unicode="&#xf7fd;" horiz-adv-x="1126" 
d="M582 1085l-68 84l344 322l123 -156zM199 0l30 172h156l31 172l-232 481h-125l31 172h488l-31 -168h-135l141 -290l244 290h-135l30 168h502l-31 -172h-123l-403 -483l-29 -170h156l-31 -172h-534z" />
    <glyph glyph-name="Thorn.smcp" unicode="&#xf7fe;" horiz-adv-x="1032" 
d="M578 385q176 0 176 121q0 106 -138 106h-163l-41 -227h166zM625 784q184 0 271 -74t87 -189q0 -306 -426 -306h-174l-8 -43h160l-31 -172h-508l31 172h123l114 653h-123l31 172h508l-31 -174h-160l-6 -39h142z" />
    <glyph glyph-name="Ydieresis.smcp" unicode="&#xf7ff;" horiz-adv-x="1126" 
d="M852 1092q-53 0 -89 36t-36 88q0 54 36 90t89 36t89 -36t36 -89t-36 -89t-89 -36zM473 1092q-51 0 -88 36t-37 88q0 54 37 90t88 36t88 -36t37 -89t-37 -89t-88 -36zM199 0l30 172h156l31 172l-232 481h-125l31 172h488l-31 -168h-135l141 -290l244 290h-135l30 168h502
l-31 -172h-123l-403 -483l-29 -170h156l-31 -172h-534z" />
    <glyph glyph-name="s_t" unicode="&#xfb06;" horiz-adv-x="1529" 
d="M288 -23q-144 0 -288 64l29 170q150 -63 282 -64q164 0 164 93q0 80 -199 136q-74 22 -136 84t-62 170t88 188q88 81 256 89q12 176 132 254t304 78h496l-64 -354h236l-33 -183h-233l-82 -464q-8 -45 16 -64q25 -18 79 -18t171 41l-31 -170q-107 -49 -241 -49t-190 77
q-56 78 -34 203l78 444h-152l33 183h152l33 196h-250q-109 0 -169 -37t-69 -153q57 -12 123 -35l-29 -164q-127 49 -239 49q-152 0 -152 -86q0 -39 41 -65t99 -47q59 -20 117 -48t100 -84t41 -122q1 -66 -15 -111t-55 -94t-121 -78t-226 -29z" />
    <glyph glyph-name="zero.lf" horiz-adv-x="1136" 
d="M514 154q86 0 153 63q113 106 155 367q17 104 18 204q0 305 -181 306q-87 0 -155 -66q-115 -112 -156 -373q-16 -102 -16 -198q0 -303 182 -303zM688 1272q190 0 290 -115t101 -375q0 -141 -29 -274q-120 -533 -582 -533q-367 0 -376 467q-4 241 71 439q41 113 107 197
t174 140q108 54 244 54z" />
    <glyph glyph-name="one.lf" horiz-adv-x="800" 
d="M258 977q-78 0 -102 45t4 113l323 112h203l-188 -1073h174l-31 -174h-623l31 174h219l154 881q-86 -78 -164 -78z" />
    <glyph glyph-name="two.lf" horiz-adv-x="1087" 
d="M134 -23q-62 0 -98 37t-36 111q0 73 63 139q65 68 309 230q196 130 226 158t67 61q36 33 51 55q16 22 40 63q24 40 24 113q0 150 -172 150q-94 0 -172 -35q8 -18 8 -57t-36 -77t-101 -38q-67 0 -99 37t-32 90q0 114 134 186t320 72t286 -87t102 -235q0 -92 -42 -178
q-98 -202 -411 -379q-201 -111 -264 -160q63 5 175 -23t148 -28t64 16t43 30q29 31 49 132h209q-41 -276 -181 -348q-65 -32 -162 -32t-218 57t-162 55q-6 -45 -38 -80t-94 -35z" />
    <glyph glyph-name="three.lf" horiz-adv-x="1056" 
d="M449 -25q-169 1 -301 59t-132 173q0 61 40 101t100 40t97 -31q36 -31 36 -71t-13 -70q74 -29 152 -29q133 0 205 65t72 159t-73 140t-194 46h-67l32 168h60q151 0 229 60t78 159q0 154 -180 154q-90 0 -154 -29q8 -18 8 -56t-38 -76t-102 -38q-62 0 -95 37t-33 90
q0 114 135 180t309 66t280 -78t108 -212q0 -134 -76 -216t-205 -121q217 -82 217 -289q0 -158 -128 -270t-367 -111z" />
    <glyph glyph-name="four.lf" horiz-adv-x="1046" 
d="M676 1153q0 -131 -135 -338t-275 -330h336l23 125q70 86 163 262h99l-70 -387h166l-29 -168h-159l-27 -155h158l-29 -162h-578l29 162h189l26 155h-508l-55 154q180 176 321 395q140 219 175 396q78 27 129 -2t51 -107z" />
    <glyph glyph-name="five.lf" horiz-adv-x="1075" 
d="M485 -25q-174 0 -305 72t-131 189q0 63 39 103q38 40 102 40t96 -36q54 -61 19 -148q69 -41 181 -41t189 72t77 184t-56 165t-144 53q-87 0 -159 -36q-72 -37 -112 -84l-150 72q109 260 178 667h713q47 -221 -178 -221q-54 0 -198 15t-179 18q-27 -162 -84 -318
q107 63 245 63t250 -95q112 -96 112 -285t-138 -319q-136 -130 -367 -130z" />
    <glyph glyph-name="six.lf" horiz-adv-x="1097" 
d="M307 366q-1 -108 49 -162t156 -54t176 82q72 82 72 188q0 216 -180 217q-115 0 -194 -82q-79 -81 -79 -189zM999 427q0 -184 -136 -318t-347 -134q-434 0 -434 459q0 287 148 550q73 128 196 208t272 80q148 0 250 -66t103 -164q0 -57 -35 -99q-34 -42 -98 -42t-102 34
t-38 75t19 73q-47 18 -95 19q-137 0 -228 -124t-128 -296q117 117 290 117t268 -94t95 -278z" />
    <glyph glyph-name="seven.lf" horiz-adv-x="995" 
d="M416 -27q-125 0 -125 123q0 154 152 423q153 269 345 513q-61 -14 -163 12t-168 27q-130 0 -158 -182h-195l64 358h174l-23 -125q31 62 73 98t112 36t167 -46q97 -45 154 -43q35 102 136 103q57 0 87 -32q72 -77 -28 -210q-130 -176 -190 -262q-194 -280 -260 -494
q-40 -129 -56 -282q-53 -17 -98 -17z" />
    <glyph glyph-name="eight.lf" horiz-adv-x="1107" 
d="M642 1106q-93 0 -158 -56q-64 -56 -64 -138t45 -126q45 -43 137 -43q92 1 158 63t65 152q0 148 -183 148zM500 145q114 0 189 70t75 165q0 189 -207 189q-123 1 -200 -67t-76 -176q-1 -181 219 -181zM490 -25q-230 -1 -338 91t-107 235q0 143 86 235t217 130
q-154 74 -154 234t123 266t333 106t306 -83t96 -202t-65 -206q-66 -87 -190 -126q203 -76 202 -282q0 -168 -140 -283q-139 -115 -369 -115z" />
    <glyph glyph-name="nine.lf" horiz-adv-x="1107" 
d="M620 1096q-106 0 -177 -82t-71 -186t48 -159q48 -57 150 -57t180 84t78 184t-52 158q-50 58 -156 58zM484 -25q-154 -1 -278 59t-124 173q0 63 40 100t98 37t93 -35t35 -75t-8 -62q55 -25 131 -25q254 0 324 437q-115 -135 -289 -135t-273 97q-98 98 -98 282t136 314
q135 130 351 130q430 0 431 -484q0 -256 -114 -509q-60 -133 -180 -219q-121 -86 -275 -85z" />
    <glyph glyph-name="a.alt" horiz-adv-x="989" 
d="M330 147q100 0 225 95l23 137h-134q-215 0 -215 -135q1 -97 101 -97zM282 -23q-134 0 -212 65q-76 64 -76 198t118 208t322 74h170l10 56q16 84 -20 118t-158 35q-120 0 -286 -47l30 174q168 49 340 49t263 -82t63 -243l-60 -336q-16 -94 70 -94q45 0 90 16l-28 -170
q-78 -20 -148 -21q-166 0 -207 119q-147 -119 -281 -119z" />
    <glyph glyph-name="agrave.alt" horiz-adv-x="989" 
d="M635 1030l-356 275l147 159l295 -342zM330 147q100 0 225 95l23 137h-134q-215 0 -215 -135q1 -97 101 -97zM282 -23q-134 0 -212 65q-76 64 -76 198t118 208t322 74h170l10 56q16 84 -20 118t-158 35q-120 0 -286 -47l30 174q168 49 340 49t263 -82t63 -243l-60 -336
q-16 -94 70 -94q45 0 90 16l-28 -170q-78 -20 -148 -21q-166 0 -207 119q-147 -119 -281 -119z" />
    <glyph glyph-name="aacute.alt" horiz-adv-x="989" 
d="M479 1030l-71 90l362 342l129 -166zM330 147q100 0 225 95l23 137h-134q-215 0 -215 -135q1 -97 101 -97zM282 -23q-134 0 -212 65q-76 64 -76 198t118 208t322 74h170l10 56q16 84 -20 118t-158 35q-120 0 -286 -47l30 174q168 49 340 49t263 -82t63 -243l-60 -336
q-16 -94 70 -94q45 0 90 16l-28 -170q-78 -20 -148 -21q-166 0 -207 119q-147 -119 -281 -119z" />
    <glyph glyph-name="acircumflex.alt" horiz-adv-x="989" 
d="M250 1020l-43 67l332 285h151l223 -285l-55 -67l-283 137zM330 147q100 0 225 95l23 137h-134q-215 0 -215 -135q1 -97 101 -97zM282 -23q-134 0 -212 65q-76 64 -76 198t118 208t322 74h170l10 56q16 84 -20 118t-158 35q-120 0 -286 -47l30 174q168 49 340 49t263 -82
t63 -243l-60 -336q-16 -94 70 -94q45 0 90 16l-28 -170q-78 -20 -148 -21q-166 0 -207 119q-147 -119 -281 -119z" />
    <glyph glyph-name="atilde.alt" horiz-adv-x="989" 
d="M464 1321q58 0 143 -48t129 -48q78 0 118 52q14 17 37 50l76 -45q-27 -51 -59 -99q-32 -47 -93 -99t-117 -52t-144 48q-89 48 -134 48q-74 0 -144 -100l-75 43q23 51 53 100q31 49 91 99q61 50 119 51zM330 147q100 0 225 95l23 137h-134q-215 0 -215 -135q1 -97 101 -97
zM282 -23q-134 0 -212 65q-76 64 -76 198t118 208t322 74h170l10 56q16 84 -20 118t-158 35q-120 0 -286 -47l30 174q168 49 340 49t263 -82t63 -243l-60 -336q-16 -94 70 -94q45 0 90 16l-28 -170q-78 -20 -148 -21q-166 0 -207 119q-147 -119 -281 -119z" />
    <glyph glyph-name="adieresis.alt" horiz-adv-x="989" 
d="M770 1026q-55 0 -94 39t-39 94t39 94t94 39t94 -39t39 -94t-39 -94t-94 -39zM373 1026q-55 0 -94 39t-39 94t39 94t94 39t94 -39t39 -94t-39 -94t-94 -39zM330 147q100 0 225 95l23 137h-134q-215 0 -215 -135q1 -97 101 -97zM282 -23q-134 0 -212 65q-76 64 -76 198
t118 208t322 74h170l10 56q16 84 -20 118t-158 35q-120 0 -286 -47l30 174q168 49 340 49t263 -82t63 -243l-60 -336q-16 -94 70 -94q45 0 90 16l-28 -170q-78 -20 -148 -21q-166 0 -207 119q-147 -119 -281 -119z" />
    <glyph glyph-name="aring.alt" horiz-adv-x="989" 
d="M563 1145q47 0 76 38t29 87q0 82 -72 82q-47 0 -76 -38t-28 -87q-1 -82 71 -82zM568 1020q-124 0 -186 55t-62 153t74 175q75 76 199 76q124 1 185 -55q62 -56 62 -154t-74 -174t-198 -76zM330 147q100 0 225 95l23 137h-134q-215 0 -215 -135q1 -97 101 -97zM282 -23
q-134 0 -212 65q-76 64 -76 198t118 208t322 74h170l10 56q16 84 -20 118t-158 35q-120 0 -286 -47l30 174q168 49 340 49t263 -82t63 -243l-60 -336q-16 -94 70 -94q45 0 90 16l-28 -170q-78 -20 -148 -21q-166 0 -207 119q-147 -119 -281 -119z" />
    <glyph glyph-name="amacron.alt" horiz-adv-x="989" 
d="M258 1059l31 172h581l-30 -172h-582zM330 147q100 0 225 95l23 137h-134q-215 0 -215 -135q1 -97 101 -97zM282 -23q-134 0 -212 65q-76 64 -76 198t118 208t322 74h170l10 56q16 84 -20 118t-158 35q-120 0 -286 -47l30 174q168 49 340 49t263 -82t63 -243l-60 -336
q-16 -94 70 -94q45 0 90 16l-28 -170q-78 -20 -148 -21q-166 0 -207 119q-147 -119 -281 -119z" />
    <glyph glyph-name="abreve.alt" horiz-adv-x="989" 
d="M552 1036q-150 0 -220 91t-51 229h165q-4 -72 26 -107t101 -35q137 0 185 142h166q-31 -144 -126 -232t-246 -88zM330 147q100 0 225 95l23 137h-134q-215 0 -215 -135q1 -97 101 -97zM282 -23q-134 0 -212 65q-76 64 -76 198t118 208t322 74h170l10 56q16 84 -20 118
t-158 35q-120 0 -286 -47l30 174q168 49 340 49t263 -82t63 -243l-60 -336q-16 -94 70 -94q45 0 90 16l-28 -170q-78 -20 -148 -21q-166 0 -207 119q-147 -119 -281 -119z" />
    <glyph glyph-name="aogonek.alt" horiz-adv-x="989" 
d="M330 147q100 0 225 95l23 137h-134q-215 0 -215 -135q1 -97 101 -97zM655 -426q-197 0 -196 162q0 152 188 264q-59 29 -84 96q-147 -119 -281 -119t-212 65q-76 64 -76 198t118 208t322 74h170l10 56q16 84 -20 118t-158 35q-120 0 -286 -47l30 174q168 49 340 49
t263 -82t63 -243l-60 -336q-16 -94 70 -94q45 0 90 16l-28 -170q-78 -18 -134 -21q-123 -100 -122 -192q0 -68 69 -68t135 29l-10 -133q-97 -39 -201 -39z" />
    <glyph glyph-name="g.alt" horiz-adv-x="1062" 
d="M715 490q0 244 -178 243q-115 0 -185 -97t-70 -221q1 -243 177 -243q115 0 185 96t71 222zM382 -4q-150 0 -244 103q-93 103 -93 311t131 352t324 145q193 0 272 -166l27 144h213l-174 -981q-60 -334 -462 -334q-194 0 -358 72l33 182q166 -72 318 -72q209 0 239 162
l35 195q-111 -113 -261 -113z" />
    <glyph glyph-name="gcircumflex.alt" horiz-adv-x="1062" 
d="M289 1020l-43 67l332 285h151l223 -285l-55 -67l-283 137zM715 490q0 244 -178 243q-115 0 -185 -97t-70 -221q1 -243 177 -243q115 0 185 96t71 222zM382 -4q-150 0 -244 103q-93 103 -93 311t131 352t324 145q193 0 272 -166l27 144h213l-174 -981q-60 -334 -462 -334
q-194 0 -358 72l33 182q166 -72 318 -72q209 0 239 162l35 195q-111 -113 -261 -113z" />
    <glyph glyph-name="gbreve.alt" horiz-adv-x="1062" 
d="M574 1036q-150 0 -220 91t-51 229h166q-4 -72 26 -107t101 -35q137 0 184 142h166q-31 -144 -126 -232t-246 -88zM715 490q0 244 -178 243q-115 0 -185 -97t-70 -221q1 -243 177 -243q115 0 185 96t71 222zM382 -4q-150 0 -244 103q-93 103 -93 311t131 352t324 145
q193 0 272 -166l27 144h213l-174 -981q-60 -334 -462 -334q-194 0 -358 72l33 182q166 -72 318 -72q209 0 239 162l35 195q-111 -113 -261 -113z" />
    <glyph glyph-name="gdotaccent.alt" horiz-adv-x="1062" 
d="M575 1313q59 0 103 -42q44 -41 43 -101t-43 -102t-102 -42t-102 42t-42 101t42 101t101 43zM715 490q0 244 -178 243q-115 0 -185 -97t-70 -221q1 -243 177 -243q115 0 185 96t71 222zM382 -4q-150 0 -244 103q-93 103 -93 311t131 352t324 145q193 0 272 -166l27 144
h213l-174 -981q-60 -334 -462 -334q-194 0 -358 72l33 182q166 -72 318 -72q209 0 239 162l35 195q-111 -113 -261 -113z" />
    <glyph glyph-name="uni0123.alt" horiz-adv-x="1062" 
d="M715 490q0 244 -178 243q-115 0 -185 -97t-70 -221q1 -243 177 -243q115 0 185 96t71 222zM382 -4q-150 0 -244 103q-93 103 -93 311t131 352t324 145q193 0 272 -166l27 144h213l-174 -981q-60 -334 -462 -334q-194 0 -358 72l33 182q166 -72 318 -72q209 0 239 162
l35 195q-111 -113 -261 -113zM573 1028q-69 0 -99 37t-30 92q0 166 273 354l84 -75q-45 -45 -65 -67t-48 -70q-26 -47 -26 -107t57 -107l-2 -12q-76 -45 -144 -45z" />
    <glyph glyph-name="ampersand.alt" horiz-adv-x="1148" 
d="M473 156q238 0 277 219l32 182h-161q-160 0 -252 -60t-93 -178q0 -163 197 -163zM478 -27q-208 0 -324 85t-115 249q0 262 307 352q-152 74 -151 242q0 168 136 267q136 100 349 100t403 -64l-51 -289h-207l27 158q-241 47 -357 -32q-73 -48 -73 -142q0 -172 235 -172
h490l-29 -170h-117l-32 -182q-35 -188 -159 -295t-332 -107z" />
    <glyph glyph-name="slash.cap" horiz-adv-x="1124" 
d="M-98 -305l1138 1853h215l-1136 -1853h-217z" />
    <glyph glyph-name="backslash.cap" horiz-adv-x="1089" 
d="M694 -305l-481 1853h215l483 -1853h-217z" />
    <glyph glyph-name="bar.cap" horiz-adv-x="518" 
d="M6 -305l328 1853h213l-328 -1853h-213z" />
    <glyph glyph-name="brokenbar.cap" horiz-adv-x="526" 
d="M10 -305l148 835h213l-148 -835h-213zM209 821l129 727h213l-129 -727h-213z" />
    <glyph glyph-name="bullet.cap" horiz-adv-x="745" 
d="M387 377q-102 0 -175 73t-73 175t73 175q73 72 175 72t175 -72t73 -175q0 -102 -73 -175t-175 -73z" />
    <glyph glyph-name="parenleft.smcp" horiz-adv-x="579" 
d="M59 352q0 469 408 887h215q-209 -223 -311 -436t-103 -459q0 -332 152 -588h-215q-70 129 -108 291t-38 305z" />
    <glyph glyph-name="parenright.smcp" horiz-adv-x="577" 
d="M301 651q0 332 -151 588h215q69 -129 107 -291t38 -305q0 -469 -408 -887h-215q209 222 311 436t103 459z" />
    <glyph glyph-name="braceleft.smcp" horiz-adv-x="638" 
d="M572 1122q-98 0 -97 -129q0 -55 3 -119q9 -199 -29 -259q-58 -93 -170 -132q59 -23 86 -80t27 -125t-53 -192q-52 -123 -52 -160q0 -59 69 -59q49 0 101 10l-23 -125q-72 -16 -127 -16q-115 0 -166 57t-51 131t53 191t54 174q0 121 -164 135l26 145q115 10 179 72
q36 36 44 138q1 26 -1 85t-2 80q0 313 284 313q59 0 133 -18l-20 -127q-52 10 -104 10z" />
    <glyph glyph-name="braceright.smcp" horiz-adv-x="636" 
d="M342 1067q0 59 -70 59q-49 0 -100 -10l23 125q72 16 127 16q116 0 166 -57t50 -131q0 -75 -52 -191q-54 -116 -54 -173q0 -121 164 -136l-27 -145q-114 -10 -178 -72q-40 -40 -44 -138q-1 -26 1 -85t2 -80q1 -313 -284 -313q-59 0 -134 18l21 127q51 -10 103 -10t76 37
q22 37 22 121l-6 187q3 116 31 161q58 96 171 133q-59 23 -86 80q-26 57 -26 126q0 70 52 192t52 159z" />
    <glyph glyph-name="bracketleft.smcp" horiz-adv-x="612" 
d="M33 -244l262 1483h383l-27 -145h-184l-211 -1194h184l-24 -144h-383z" />
    <glyph glyph-name="bracketright.smcp" horiz-adv-x="612" 
d="M-74 -244l25 144h184l211 1194h-184l26 145h383l-262 -1483h-383z" />
    <glyph glyph-name="bar.smcp" horiz-adv-x="534" 
d="M33 -244l262 1483h199l-263 -1483h-198z" />
    <glyph glyph-name="at.smcp" horiz-adv-x="1308" 
d="M578 299q82 0 150 77q68 78 67 178q0 100 -99 99q-84 -1 -150 -75t-64 -176q0 -102 96 -103zM535 178q-95 0 -153 62t-58 163q0 145 107 259q108 112 250 112t187 -110h6q6 16 46 84h114q-127 -283 -127 -394q0 -82 56 -82q66 0 127 87t61 219q0 170 -110 269t-287 99
q-229 0 -411 -154q-181 -155 -181 -376q0 -172 116 -284t284 -112t317 82l39 -84q-186 -94 -338 -94q-233 0 -376 139q-142 139 -143 353q0 266 212 447t481 181q219 0 357 -130t138 -322t-94 -304q-94 -110 -223 -110q-78 0 -112 39t-34 86h-6q-100 -125 -245 -125z" />
    <glyph glyph-name="ampersand.alt.smcp" horiz-adv-x="999" 
d="M399 147q182 0 211 162l23 127h-107q-272 0 -272 -170q0 -119 145 -119zM402 -20q-171 0 -271 70t-100 200q0 205 252 280q-123 60 -123 192t115 214q117 82 291 82t337 -51l-43 -244h-194l20 123q-49 8 -106 8q-205 0 -205 -135q0 -127 188 -127h395l-26 -156h-92
l-23 -125q-27 -151 -135 -241t-280 -90z" />
    <glyph glyph-name="uni021A.smcp" horiz-adv-x="1044" 
d="M162 0l31 172h155l115 651h-162l-27 -153h-202l57 327h954l-57 -327h-203l27 153h-162l-115 -651h156l-31 -172h-536zM407 -96q60 0 89 -32t28 -83q0 -143 -245 -315l-76 67q88 84 107 127q20 43 20 92t-54 95l3 8q68 41 128 41z" />
    <glyph glyph-name="T_h" horiz-adv-x="2189" 
d="M1790 907q137 0 204 -81t42 -216l-66 -364q-16 -94 70 -94q45 0 90 16l-29 -170q-78 -20 -147 -21q-141 0 -187 79q-45 79 -24 200l61 338q23 131 -82 131q-111 0 -268 -150l-102 -575h-232l185 1059h-490l-153 -871h184l-33 -188h-606l33 188h184l154 871h-234l-33 -191
h-215l68 379h1190l78 201h176l-119 -678q164 137 301 137z" />
    <glyph glyph-name="c_t" horiz-adv-x="1626" 
d="M465 -23q-199 1 -311 105t-111 308q0 204 125 354t352 161q12 178 132 256t304 78h496l-66 -354h236l-33 -183h-233l-82 -464q-8 -45 16 -64q25 -18 79 -18t171 41l-31 -170q-107 -49 -241 -49t-190 77q-56 78 -34 203l78 444h-151l33 183h151l33 196h-248
q-109 1 -169 -35t-69 -151q80 -16 136 -35l-33 -170q-106 43 -215 43q-152 0 -230 -96t-77 -240q0 -246 237 -245q119 0 225 41l-32 -181q-113 -35 -248 -35z" />
    </font>
</defs>
</svg>
