<?xml version="1.0" standalone="no"?>
<!DOCTYPE svg PUBLIC "-//W3C//DTD SVG 1.1//EN" "http://www.w3.org/Graphics/SVG/1.1/DTD/svg11.dtd" >
<svg xmlns="http://www.w3.org/2000/svg">
<metadata>
Created by FontPrep 20130207 at Sat Oct 10 18:06:00 2015
 By Matthew Higley
Joe Prince A^(c)2013. All Rights Reserved.
</metadata>
<defs>
<font id="a6c7620236ba1cde743526303763973f" horiz-adv-x='1024' >
  <font-face 
    font-family="KlinicSlab-Light"
    font-weight="400"
    font-stretch="normal"
    units-per-em="2048"
    panose-1="0 0 0 0 0 0 0 0 0 0"
    ascent="1536"
    descent="-512"
    x-height="860"
    cap-height="1247"
    bbox="-88 -530 2228 1911"
    underline-thickness="102"
    underline-position="-102"
    unicode-range="U+0020-FB06"
  />
<missing-glyph horiz-adv-x="870" 
d="M86 180l299 443l-299 442v-885zM784 1065l-299 -442l299 -443v885zM748 1161h-627l313 -465zM121 86h627l-314 463zM0 0v1247h870v-1247h-870z" />
    <glyph glyph-name="f_f" unicode="ff" horiz-adv-x="1183" 
d="M563 1389q-115 -1 -185 -59t-69 -179v-291h500v352q0 70 20 119q-151 58 -266 58zM66 0v61h174v738h-189v61h189v299q0 147 91 219t229 72t300 -68q70 88 225 88q68 0 140 -14v-59q-78 12 -129 12q-115 0 -166 -50t-51 -151v-348h264v-61h-264v-738h206v-61h-450v61h174
v738h-500v-738h207v-61h-450z" />
    <glyph glyph-name="fi" unicode="fi" horiz-adv-x="1083" 
d="M66 0v61h174v738h-189v61h189v346q0 264 317 264q135 0 274 -40l-12 -56q-143 35 -260 35t-183 -46t-67 -165v-338h570v-799h174v-61h-418v61h174v738h-500v-738h207v-61h-450z" />
    <glyph glyph-name="fl" unicode="fl" horiz-adv-x="1083" 
d="M66 0v61h174v738h-189v61h189v346q0 264 317 264q96 0 201 -22h121v-1387h174v-61h-418v61h174v1315q-135 33 -251 33t-182 -46t-67 -165v-338h264v-61h-264v-738h207v-61h-450z" />
    <glyph glyph-name="f_f_i" unicode="ffi" horiz-adv-x="1652" 
d="M567 1389q-119 -1 -189 -59t-69 -179v-291h500v346q0 74 25 123q-148 60 -267 60zM66 0v61h174v738h-189v61h189v299q0 147 91 219t224 72t309 -70q80 90 262 90q135 0 275 -40l-12 -56q-143 35 -261 35t-184 -46t-65 -165v-338h569v-799h174v-61h-418v61h174v738h-499
v-738h206v-61h-450v61h174v738h-500v-738h207v-61h-450z" />
    <glyph glyph-name="f_f_l" unicode="ffl" horiz-adv-x="1652" 
d="M309 860h500v346q0 74 25 123q-146 59 -266 59t-190 -58t-69 -179v-291zM635 0v61h174v738h-500v-738h207v-61h-450v61h174v738h-189v61h189v299q0 147 91 219t224 72t309 -70q80 90 262 90q96 0 201 -22h121v-1387h174v-61h-418v61h174v1315q-135 33 -251 33
q-117 0 -183 -46t-65 -165v-338h264v-61h-264v-738h206v-61h-450z" />
    <glyph glyph-name="f_f_b" unicode="ffb" horiz-adv-x="2205" 
d="M309 860h500v346q0 74 25 123q-146 59 -266 59t-190 -58t-69 -179v-291zM1663 41q184 0 284 111q99 111 99 289t-81 278t-224 100t-293 -121v-630q115 -27 215 -27zM635 0v61h174v738h-500v-738h207v-61h-450v61h174v738h-189v61h189v299q0 147 91 219t224 72t309 -70
q80 90 262 90q96 0 201 -22h121v-680q147 115 310 115t261 -122q99 -122 99 -330t-125 -331t-330 -123q-127 0 -285 41v1358q-135 33 -251 33q-117 0 -183 -46t-65 -165v-338h264v-61h-264v-738h206v-61h-450z" />
    <glyph glyph-name="f_f_h" unicode="ffh" horiz-adv-x="2250" 
d="M309 1151v-291h500v346q0 74 25 123q-146 59 -266 59t-190 -58t-69 -179zM635 0v61h174v738h-500v-738h207v-61h-450v61h174v738h-189v61h189v299q0 147 91 219t224 72t309 -70q80 90 262 90q96 0 201 -22h121v-731q172 166 356 166q117 0 184 -73t66 -212v-537h174v-61
h-418v61h175v525q0 233 -191 233q-164 0 -346 -174v-584h174v-61h-418v61h174v1315q-135 33 -251 33q-117 0 -183 -46t-65 -165v-338h264v-61h-264v-738h206v-61h-450z" />
    <glyph glyph-name="f_f_j" unicode="ffj" horiz-adv-x="1605" 
d="M567 1389q-119 -1 -189 -59t-69 -179v-291h500v346q0 74 25 123q-148 60 -267 60zM66 0v61h174v738h-189v61h189v299q0 147 91 219t224 72t309 -70q80 90 262 90q135 0 275 -40l-12 -56q-143 35 -261 35t-184 -46t-65 -165v-338h569v-1032q0 -186 -211 -270l-29 49
q170 90 170 227v965h-499v-738h206v-61h-450v61h174v738h-500v-738h207v-61h-450z" />
    <glyph glyph-name="f_f_k" unicode="ffk" horiz-adv-x="2172" 
d="M2058 -23q-123 0 -264 164l-246 287v8l359 365h-172v59h397v-61h-139l-357 -367l217 -254q115 -135 218 -135q27 0 53 10v-65q-37 -11 -66 -11zM309 1151v-291h500v346q0 74 25 123q-146 59 -266 59t-190 -58t-69 -179zM635 0v61h174v738h-500v-738h207v-61h-450v61h174
v738h-189v61h189v299q0 147 91 219t224 72t309 -70q80 90 262 90q96 0 201 -22h121v-1387h174v-61h-418v61h174v1315q-135 33 -251 33q-117 0 -183 -46t-65 -165v-338h264v-61h-264v-738h206v-61h-450z" />
    <glyph glyph-name="f_f_t" unicode="fft" horiz-adv-x="1753" 
d="M309 1151v-291h500v352q0 70 20 119q-312 117 -450 -1q-70 -58 -70 -179zM635 0v61h174v738h-500v-738h207v-61h-450v61h174v738h-189v61h189v299q0 147 91 219t229 72t300 -68q70 88 225 88q68 0 140 -14v-59q-78 12 -129 12q-115 0 -166 -50t-51 -151v-348h475v225h69
v-225h297v-61h-297v-574q0 -96 41 -141t126 -45t141 22v-59q-75 -25 -121 -25t-64 1q-18 0 -58 14t-66 37t-48 71t-20 119v580h-475v-738h206v-61h-450z" />
    <glyph glyph-name="f_b" unicode="fb" horiz-adv-x="1636" 
d="M1094 41q184 0 283 111t99 289t-80 278q-81 100 -224 100t-293 -121v-630q115 -27 215 -27zM1094 -23q-127 0 -285 41v1358q-135 33 -251 33t-182 -46t-67 -165v-338h264v-61h-264v-738h207v-61h-450v61h174v738h-189v61h189v346q0 264 317 264q96 0 201 -22h121v-680
q147 115 310 115t261 -122t98 -330t-124 -331t-330 -123z" />
    <glyph glyph-name="f_h" unicode="fh" horiz-adv-x="1681" 
d="M635 0v61h174v1315q-135 33 -251 33t-182 -46t-67 -165v-338h264v-61h-264v-738h207v-61h-450v61h174v738h-189v61h189v346q0 264 317 264q96 0 201 -22h121v-731q172 166 356 166q117 0 183 -73t67 -212v-537h174v-61h-418v61h174v525q0 233 -190 233q-164 0 -346 -174
v-584h174v-61h-418z" />
    <glyph glyph-name="f_j" unicode="fj" horiz-adv-x="1036" 
d="M66 0v61h174v738h-189v61h189v346q0 264 317 264q135 0 274 -40l-12 -56q-143 35 -260 35t-183 -46t-67 -165v-338h570v-1032q0 -186 -211 -270l-29 49q170 90 170 227v965h-500v-738h207v-61h-450z" />
    <glyph glyph-name="f_k" unicode="fk" horiz-adv-x="1603" 
d="M1489 -23q-123 0 -264 164l-246 287v8l358 365h-172v59h398v-61h-140l-356 -367l217 -254q115 -135 217 -135q27 0 53 10v-65q-36 -11 -65 -11zM635 0v61h174v1315q-135 33 -251 33t-182 -46t-67 -165v-338h264v-61h-264v-738h207v-61h-450v61h174v738h-189v61h189v346
q0 264 317 264q96 0 201 -22h121v-1387h174v-61h-418z" />
    <glyph glyph-name="f_t" unicode="ft" horiz-adv-x="1183" 
d="M1042 -23q-46 0 -65 1q-18 0 -58 14t-66 37q-25 23 -47 71t-22 119v580h-475v-738h207v-61h-450v61h174v738h-189v61h189v352q0 129 71 194q72 65 205 64q68 0 139 -14v-59q-78 12 -129 12q-115 0 -166 -50t-51 -151v-348h475v225h70v-225h297v-61h-297v-574
q0 -96 41 -141t126 -45t140 22v-59q-73 -25 -119 -25z" />
    <glyph glyph-name="t_t" unicode="tt" horiz-adv-x="1220" 
d="M1078 -23q-46 0 -64 1q-18 0 -58 14t-66 37t-48 71t-21 119v582h-557v-576q0 -96 41 -141t126 -45t140 22v-59q-74 -25 -120 -25t-64 1q-18 0 -58 14t-66 37q-25 23 -47 71t-21 119v582h-150v59h150v225h69v-225h557v225h70v-225h297v-59h-297v-576q0 -96 41 -141
t126 -45t140 22v-59q-74 -25 -120 -25z" />
    <glyph glyph-name=".notdef" horiz-adv-x="870" 
d="M86 180l299 443l-299 442v-885zM784 1065l-299 -442l299 -443v885zM748 1161h-627l313 -465zM121 86h627l-314 463zM0 0v1247h870v-1247h-870z" />
    <glyph glyph-name=".null" horiz-adv-x="0" 
 />
    <glyph glyph-name="nonmarkingreturn" horiz-adv-x="681" 
 />
    <glyph glyph-name="space" unicode=" " horiz-adv-x="473" 
 />
    <glyph glyph-name="exclam" unicode="!" horiz-adv-x="458" 
d="M229 -16q-29 0 -48 20t-19 49t19 48t48 19t49 -18q20 -20 19 -49q1 -29 -19 -49t-49 -20zM207 307l-19 940h82l-18 -940h-45z" />
    <glyph glyph-name="quotedbl" unicode="&#x22;" horiz-adv-x="610" 
d="M406 879v395h71v-395h-71zM133 879v395h72v-395h-72z" />
    <glyph glyph-name="numbersign" unicode="#" horiz-adv-x="1114" 
d="M367 340h323l55 375h-323zM82 285v55h225l55 375h-217v57h226l39 260h59l-39 -260h324l39 260h59l-39 -260h217v-57h-225l-55 -375h219v-55h-230l-37 -260h-59l39 260h-324l-39 -260h-59l39 260h-217z" />
    <glyph glyph-name="dollar" unicode="$" horiz-adv-x="851" 
d="M170 743q0 -55 36 -96t77 -61t83 -36t50 -20v394q-110 -4 -178 -50t-68 -131zM696 237q0 92 -71 135t-172 79v-406q102 4 173 52q70 48 70 140zM416 -229v215q-127 4 -233 51q-105 47 -105 110q0 27 17 45t46 19t46 -19t17 -46t-16 -46q94 -49 228 -55v418
q-141 51 -200 89q-60 38 -84 82t-23 103q0 115 88 178t219 68v156h37v-156q117 -4 205 -50t90 -106q0 -25 -16 -43t-46 -18q-29 0 -48 18t-20 45q0 27 17 48q-74 41 -182 47v-406q136 -47 197 -87q110 -73 110 -192q0 -118 -86 -184t-221 -69v-215h-37z" />
    <glyph glyph-name="percent" unicode="%" horiz-adv-x="1239" 
d="M309 539q72 0 108 54t36 136t-36 136q-36 55 -108 55q-71 0 -107 -54t-36 -137q0 -82 36 -136t107 -54zM309 481q-98 0 -155 69q-58 70 -58 180t58 178t155 69q97 0 155 -69q58 -70 58 -180t-58 -178t-155 -69zM936 55q72 1 108 55t35 136q0 82 -36 136q-35 54 -107 54
t-108 -54t-36 -136t36 -136t108 -55zM936 -2q-98 0 -156 69q-57 69 -57 179t57 180q58 68 156 68t156 -69t57 -179q1 -110 -57 -180q-58 -68 -156 -68zM238 10l-45 39l817 916l43 -39z" />
    <glyph glyph-name="ampersand" unicode="&#x26;" horiz-adv-x="1312" 
d="M489 41q201 0 345 154l-388 464q-74 -47 -108 -71t-82 -72q-90 -86 -90 -212t93 -194t230 -69zM500 1208q-86 0 -136 -49t-50 -138t122 -241l27 -32q106 70 162 132q55 62 55 142t-47 133t-133 53zM492 -23q-172 -1 -284 87t-112 235t92 240t218 172l-23 28
q-47 59 -72 95t-46 90q-22 53 -21 102q0 98 64 171q65 73 191 73t186 -75t60 -173t-63 -174t-178 -152l373 -446q115 158 147 428h-176v59h397v-59h-155q-31 -297 -170 -483q133 -154 213 -154q31 0 61 14v-67q-35 -12 -70 -13q-102 0 -247 168q-156 -166 -385 -166z" />
    <glyph glyph-name="quotesingle" unicode="'" horiz-adv-x="337" 
d="M133 879v395h72v-395h-72z" />
    <glyph glyph-name="parenleft" unicode="(" horiz-adv-x="468" 
d="M86 520q0 236 73 485t206 443h79q-135 -190 -211 -434q-153 -492 0 -986q76 -243 211 -434h-79q-133 195 -206 443q-73 247 -73 483z" />
    <glyph glyph-name="parenright" unicode=")" horiz-adv-x="468" 
d="M383 520q0 -236 -73 -484t-206 -442h-79q135 190 211 434q153 489 0 986q-76 244 -211 434h79q133 -196 206 -444t73 -484z" />
    <glyph glyph-name="asterisk" unicode="*" horiz-adv-x="804" 
d="M127 1167q31 53 90 19q30 -20 81 -74q52 -55 79 -80l-6 -12q-35 10 -119 31t-104 34q-21 12 -28 38t7 44zM647 938q60 -33 29 -86t-90 -18q-32 21 -83 75t-77 78l6 12q35 -10 119 -31q84 -22 96 -30zM676 1167q14 -18 7 -44q-11 -41 -87 -60q-76 -18 -164 -43l-6 12
q28 25 78 79t82 75q59 34 90 -19zM377 987l-123 -123q-87 -80 -127 -12q-31 53 29 86q12 8 70 22t145 39zM401 1327q27 0 44 -18t18 -48t-23 -108t-32 -111h-13q-7 33 -31 114t-24 108q0 26 17 44t44 19zM401 692q-27 0 -44 18t-17 48t24 108t31 111h13q8 -33 32 -114
t23 -108q1 -27 -17 -45t-45 -18z" />
    <glyph glyph-name="plus" unicode="+" horiz-adv-x="962" 
d="M449 72v372h-371v62h371v373h61v-373h375v-62h-375v-372h-61z" />
    <glyph glyph-name="comma" unicode="," horiz-adv-x="440" 
d="M221 121q70 0 70 -84q0 -57 -37 -138t-96 -143l-37 27q84 102 94 211q-29 0 -46 18t-17 45t19 45t50 19z" />
    <glyph glyph-name="hyphen" unicode="-" horiz-adv-x="761" 
d="M129 436v68h504v-68h-504z" />
    <glyph glyph-name="period" unicode="." horiz-adv-x="393" 
d="M197 -16q-29 0 -49 20q-19 20 -19 49t19 48q18 19 48 19t49 -18q19 -20 19 -49t-19 -49t-48 -20z" />
    <glyph glyph-name="slash" unicode="/" horiz-adv-x="1083" 
d="M43 -406l930 1854h71l-929 -1854h-72z" />
    <glyph glyph-name="zero" unicode="0" horiz-adv-x="1089" 
d="M545 41q180 0 266 122q86 123 86 315t-86 314t-266 122t-266 -122t-86 -315t86 -315t266 -121zM545 -23q-213 1 -319 141t-105 360q0 220 105 360q104 140 318 139q214 0 320 -140q106 -139 106 -359t-106 -360t-319 -141z" />
    <glyph glyph-name="one" unicode="1" horiz-adv-x="632" 
d="M104 0v61h213v828q-12 -4 -85 -38t-115 -34q-51 0 -43 49l254 88h61v-893h209v-61h-494z" />
    <glyph glyph-name="two" unicode="2" horiz-adv-x="917" 
d="M715 702q0 109 -72 161q-73 52 -195 52t-219 -55q21 -16 21 -47t-20 -51t-52 -20q-33 0 -51 18q-18 20 -18 47q0 66 106 118t250 52q143 0 231 -73t88 -202q0 -313 -553 -636h596v-66h-702l-14 57q243 155 339 234q97 79 146 135t84 131q35 74 35 145z" />
    <glyph glyph-name="three" unicode="3" horiz-adv-x="966" 
d="M474 -287q-148 0 -264 51t-116 121q0 29 22 49t54 20t50 -20q20 -20 20 -51t-23 -53q99 -55 237 -55q138 -1 236 73t98 210t-95 207t-255 71h-112v61h120q145 0 231 70q85 70 85 194q0 123 -83 189t-220 66t-232 -52q25 -18 25 -50t-22 -52t-52 -20t-51 20q-20 20 -21 49
q0 68 111 117t263 49t251 -87q100 -87 100 -226q0 -106 -61 -184t-162 -111q115 -35 183 -114t67 -196q0 -160 -118 -253t-266 -93z" />
    <glyph glyph-name="four" unicode="4" horiz-adv-x="976" 
d="M459 -264v61h211v299h-629v51q160 179 258 395t125 433q61 14 61 -49q0 -121 -102 -362t-248 -406h535v219q29 68 51 147h18v-366h181v-62h-181v-299h168v-61h-448z" />
    <glyph glyph-name="five" unicode="5" horiz-adv-x="952" 
d="M485 494q165 0 277 -100t110 -285q0 -186 -118 -291t-303 -105q-141 0 -262 66q-120 66 -119 135q0 29 20 49q20 21 52 21t52 -20t19 -50q0 -29 -27 -55q100 -82 254 -82t257 80q103 81 103 243t-88 246q-89 84 -208 84t-207 -46t-135 -114l-53 27q78 268 84 657h628
q8 -12 8 -30q0 -43 -110 -43l-463 14q-16 -342 -63 -512q127 111 292 111z" />
    <glyph glyph-name="six" unicode="6" horiz-adv-x="1011" 
d="M537 719q-145 0 -243 -90q-98 -91 -97 -237t87 -248t236 -103q150 0 240 90q88 90 88 243t-83 249t-228 96zM523 -23q-185 1 -300 137t-115 415t102 483q52 104 143 166t208 63q117 0 210 -49t93 -115q0 -33 -20 -53t-51 -20t-52 19q-20 19 -20 49t27 56q-62 50 -188 50
t-215 -92t-127 -228q-38 -135 -48 -315q33 96 133 168q100 71 251 71q150 0 258 -110t108 -292q0 -181 -106 -292t-291 -111z" />
    <glyph glyph-name="seven" unicode="7" horiz-adv-x="948" 
d="M474 -287q-22 0 -33 22t-11 91q0 199 109 500t260 534q-61 -24 -126 -24t-187 36t-196 35q-143 0 -159 -211h-68v258h66v-104q43 123 174 123q61 0 183 -39t178 -39t98 14q0 29 18 48t48 19t50 -18t19 -45q0 -27 -41 -88q-137 -205 -246 -495t-108 -529q0 -61 2 -84
q-8 -4 -30 -4z" />
    <glyph glyph-name="eight" unicode="8" horiz-adv-x="1038" 
d="M520 1178q-137 0 -217 -71t-80 -177t82 -182q82 -74 214 -74t214 75t82 181t-79 177t-216 71zM519 41q165 0 255 81t90 205q0 125 -91 205t-254 80t-254 -81t-91 -205t90 -204q90 -81 255 -81zM520 -23q-188 -1 -303 93t-115 234t76 226t199 115q-94 29 -159 105t-64 182
q0 135 103 222t263 87t263 -88q103 -87 103 -207t-64 -196q-65 -76 -160 -105q122 -29 198 -115t76 -226t-114 -234q-114 -93 -302 -93z" />
    <glyph glyph-name="nine" unicode="9" horiz-adv-x="1013" 
d="M460 -287q-120 1 -221 57t-102 119q1 29 21 49t51 21q31 0 51 -19q20 -20 20 -50t-26 -56q86 -57 200 -57q219 0 302 188q74 166 88 455q-33 -100 -133 -166t-249 -66q-150 0 -260 104t-110 279q0 174 109 290t295 116q408 0 407 -576q1 -315 -111 -509
q-44 -76 -128 -127q-84 -52 -204 -52zM815 568q-1 148 -85 246t-234 99q-150 0 -240 -94q-92 -93 -92 -241t87 -237t229 -89t239 84q96 84 96 232z" />
    <glyph glyph-name="colon" unicode=":" horiz-adv-x="393" 
d="M197 647q-29 1 -49 21t-19 49q0 29 19 48q18 19 48 19t49 -19t19 -48t-19 -49t-48 -21zM197 -16q-29 0 -49 20q-19 20 -19 49t19 48q18 19 48 19t49 -18q19 -20 19 -49t-19 -49t-48 -20z" />
    <glyph glyph-name="semicolon" unicode=";" horiz-adv-x="450" 
d="M231 121q70 0 70 -84q0 -57 -37 -138t-96 -143l-37 27q84 102 94 211q-29 0 -46 18t-17 45t19 45t50 19zM236 647q-28 1 -48 21t-20 49t20 48t48 19t47 -19q20 -19 20 -48t-19 -49t-48 -21z" />
    <glyph glyph-name="less" unicode="&#x3c;" horiz-adv-x="888" 
d="M780 78l-719 373v45l719 372v-71l-633 -324l633 -323v-72z" />
    <glyph glyph-name="equal" unicode="=" horiz-adv-x="1081" 
d="M137 682v61h807v-61h-807zM137 203v61h807v-61h-807z" />
    <glyph glyph-name="greater" unicode="&#x3e;" horiz-adv-x="888" 
d="M109 78v72l632 323l-632 324v71l718 -372v-45z" />
    <glyph glyph-name="question" unicode="?" horiz-adv-x="733" 
d="M322 -16q-29 0 -49 20q-19 20 -19 49t20 48t48 19t47 -18q20 -20 20 -49t-19 -49t-48 -20zM328 1266q140 0 227 -76q88 -76 88 -217t-108 -257q-45 -48 -91 -92q-110 -104 -110 -202q0 -66 26 -115h-69q-20 41 -21 111q0 126 107 233l90 90q108 108 107 224
q-2 237 -263 237q-102 0 -239 -47v64q116 47 256 47z" />
    <glyph glyph-name="at" unicode="@" horiz-adv-x="1554" 
d="M502 436q0 -128 58 -196t170 -68t192 106t79 259q0 233 -192 233q-129 0 -218 -103t-89 -231zM705 113q-129 0 -200 88q-71 89 -71 237t106 270t265 121q182 0 231 -163h2q8 47 39 131h64q-94 -299 -94 -482q0 -154 110 -153q100 0 168 98t68 266q0 268 -169 438
q-170 170 -436 171q-266 0 -456 -199t-190 -465t186 -459q188 -193 454 -192q195 0 344 108l25 -41q-174 -117 -371 -116q-280 -1 -484 203t-204 502t211 503t491 205t463 -182q184 -182 185 -476q0 -194 -82 -304t-209 -109q-68 1 -108 35t-48 64t-8 56h-6
q-108 -155 -276 -155z" />
    <glyph glyph-name="A" unicode="A" horiz-adv-x="1384" 
d="M424 502h539l-269 674zM-12 0v66h186l451 1116h-195v65h309l475 -1181h187v-66h-486v66h224l-150 368h-592l-147 -368h223v-66h-485z" />
    <glyph glyph-name="B" unicode="B" horiz-adv-x="1210" 
d="M354 666h230q188 0 295 67q106 68 106 194q0 125 -100 191t-273 66h-258v-518zM354 63h293q182 0 288 68q105 68 105 201t-109 203q-110 70 -294 69h-283v-541zM72 0v63h211v1121h-211v63h540q199 0 322 -81t123 -232q0 -231 -260 -295q163 -25 239 -111t76 -202
q0 -158 -129 -242t-334 -84h-577z" />
    <glyph glyph-name="C" unicode="C" horiz-adv-x="1255" 
d="M752 -25q-281 1 -467 175q-187 174 -187 467t173 474t487 181q225 0 411 -90v-271h-71v232q-147 63 -336 63q-260 0 -424 -152t-164 -434t169 -430t399 -149q230 0 434 115v-70q-191 -111 -424 -111z" />
    <glyph glyph-name="D" unicode="D" horiz-adv-x="1368" 
d="M356 66h267q249 0 409 148t160 410t-160 409q-160 148 -409 149h-267v-1116zM72 0v66h211v1116h-211v65h546q257 0 446 -146q93 -73 148 -196q56 -123 56 -281t-56 -282q-101 -225 -355 -305q-114 -37 -239 -37h-546z" />
    <glyph glyph-name="E" unicode="E" horiz-adv-x="1163" 
d="M72 0v66h211v1116h-211v65h977v-321h-70v256h-623v-520h605v-66h-605v-530h625v253h70v-319h-979z" />
    <glyph glyph-name="F" unicode="F" horiz-adv-x="1105" 
d="M72 0v66h211v1116h-211v65h970v-346h-69v281h-617v-541h555v-66h-555v-509h250v-66h-534z" />
    <glyph glyph-name="G" unicode="G" 
d="M760 -25q-314 1 -488 181t-174 464t177 467q177 184 489 185q211 0 440 -86v-264h-69v221q-199 63 -367 63q-276 0 -436 -160t-160 -420q0 -259 148 -423t432 -164q195 0 403 88v434h-348v66h557v-66h-139v-473q-246 -113 -465 -113z" />
    <glyph glyph-name="H" unicode="H" horiz-adv-x="1523" 
d="M72 0v66h211v1116h-211v65h495v-65h-211v-516h811v516h-211v65h496v-65h-211v-1116h211v-66h-496v66h211v532h-811v-532h211v-66h-495z" />
    <glyph glyph-name="I" unicode="I" horiz-adv-x="638" 
d="M72 0v66h211v1116h-211v65h495v-65h-211v-1116h211v-66h-495z" />
    <glyph glyph-name="J" unicode="J" horiz-adv-x="598" 
d="M262 2v1180h-211v65h496v-65h-211v-1186q0 -205 -244 -324l-33 54q203 106 203 276z" />
    <glyph glyph-name="K" unicode="K" horiz-adv-x="1331" 
d="M72 0v66h211v1116h-211v65h495v-65h-211v-1116h211v-66h-495zM809 1182v65h483v-65h-182l-535 -547l525 -569h205v-66h-244l-578 631v10l535 541h-209z" />
    <glyph glyph-name="L" unicode="L" horiz-adv-x="1107" 
d="M72 0v66h211v1116h-211v65h514v-65h-230v-1116h635v264h70v-330h-989z" />
    <glyph glyph-name="M" unicode="M" horiz-adv-x="1814" 
d="M55 0v66h211l45 1116h-211v65h328l479 -1089l479 1089h328v-65h-211l45 -1116h211v-66h-491v66h211l-45 1116l-500 -1129h-53l-500 1129l-45 -1116h211v-66h-492z" />
    <glyph glyph-name="N" unicode="N" horiz-adv-x="1507" 
d="M72 0v66h211v1116h-211v65h286l818 -1128v1063h-211v65h491v-65h-211v-1182h-67l-826 1139v-1073h211v-66h-491z" />
    <glyph glyph-name="O" unicode="O" horiz-adv-x="1447" 
d="M174 622q0 -260 150 -420q150 -161 399 -161q247 0 399 163t152 422t-151 420q-151 160 -399 160t-398 -162q-152 -162 -152 -422zM725 -25q-285 1 -456 185t-171 465t171 464t456 183t455 -183t170 -464t-170 -465t-455 -185z" />
    <glyph glyph-name="P" unicode="P" horiz-adv-x="1148" 
d="M356 1182v-623h248q195 0 297 81q103 80 103 230t-102 231t-298 81h-248zM72 0v66h211v1116h-211v65h532q162 0 301 -67q78 -37 126 -117t48 -193q0 -294 -325 -361q-74 -15 -150 -15h-248v-428h248v-66h-532z" />
    <glyph glyph-name="Q" unicode="Q" horiz-adv-x="1447" 
d="M174 622q0 -260 150 -420q150 -161 399 -161q247 0 399 163t152 422t-151 420q-151 160 -399 160t-398 -162q-152 -162 -152 -422zM98 625q0 281 171 464t456 183t455 -183t170 -449t-140 -445q-140 -178 -381 -211l340 -193l-36 -59l-410 243q-285 1 -455 185t-170 465z
" />
    <glyph glyph-name="R" unicode="R" horiz-adv-x="1265" 
d="M356 580h267q197 0 298 76t101 224t-101 225t-298 77h-267v-602zM72 0v66h211v1116h-211v65h551q158 0 297 -61q178 -78 178 -318q0 -128 -86 -218t-232 -120l252 -464h207v-66h-252l-280 518q-29 -4 -84 -4h-267v-448h211v-66h-495z" />
    <glyph glyph-name="S" unicode="S" horiz-adv-x="1032" 
d="M936 293q0 -152 -112 -235t-322 -83q-209 0 -398 62v256h70v-205q152 -47 330 -47t269 68t91 178t-76 178q-76 67 -184 105t-214 78q-108 40 -184 118t-75 206q0 128 99 214t290 86t369 -53v-254h-72v202q-133 37 -293 37t-241 -68q-80 -68 -80 -169q0 -100 76 -166
q75 -66 183 -104t216 -80q108 -43 182 -123q76 -80 76 -201z" />
    <glyph glyph-name="T" unicode="T" horiz-adv-x="1171" 
d="M328 0v66h221v1116h-430v-240h-70v305h1073v-305h-69v240h-430v-1116h221v-66h-516z" />
    <glyph glyph-name="U" unicode="U" 
d="M1163 397q-1 -203 -123 -313t-329 -109q-207 0 -334 113t-127 311v783h-211v65h496v-65h-211v-781q0 -182 110 -270t279 -88q168 0 274 89t107 269v781h-211v65h491v-65h-211v-785z" />
    <glyph glyph-name="V" unicode="V" horiz-adv-x="1337" 
d="M-18 1182v65h485v-65h-223l426 -1094l424 1094h-224v65h486v-65h-187l-462 -1182h-76l-463 1182h-186z" />
    <glyph glyph-name="W" unicode="W" horiz-adv-x="1902" 
d="M-14 1182v65h481v-65h-223l344 -1067l327 932l-47 135h-184v65h479v-65h-223l375 -1067l344 1067h-223v65h481v-65h-184l-385 -1182h-62l-334 944l-336 -944h-61l-385 1182h-184z" />
    <glyph glyph-name="X" unicode="X" horiz-adv-x="1290" 
d="M20 0v66h181l401 567l-383 549h-182v65h473v-65h-211l344 -494l350 494h-211v65h475v-65h-184l-391 -551l395 -565h189v-66h-473v66h206l-356 509l-362 -509h215v-66h-476z" />
    <glyph glyph-name="Y" unicode="Y" horiz-adv-x="1273" 
d="M389 0v66h211v415l-428 701h-188v65h487v-65h-217l383 -635l385 635h-215v65h483v-65h-188l-428 -701v-415h211v-66h-496z" />
    <glyph glyph-name="Z" unicode="Z" horiz-adv-x="1118" 
d="M88 0v59l821 1121h-739v-240h-74v307h901v-63l-821 -1118h785v258h73v-324h-946z" />
    <glyph glyph-name="bracketleft" unicode="[" horiz-adv-x="557" 
d="M174 -406v1854h348v-53h-282v-1747h282v-54h-348z" />
    <glyph glyph-name="backslash" unicode="\" horiz-adv-x="1083" 
d="M969 -406l-930 1854h72l929 -1854h-71z" />
    <glyph glyph-name="bracketright" unicode="]" horiz-adv-x="557" 
d="M35 -406v54h282v1747h-282v53h348v-1854h-348z" />
    <glyph glyph-name="asciicircum" unicode="^" horiz-adv-x="876" 
d="M90 694l328 576h41l327 -576h-71l-277 484l-276 -484h-72z" />
    <glyph glyph-name="underscore" unicode="_" horiz-adv-x="1009" 
d="M127 -139v59h756v-59h-756z" />
    <glyph glyph-name="grave" unicode="`" horiz-adv-x="620" 
d="M477 1040l-342 252l51 64l316 -287z" />
    <glyph glyph-name="a" unicode="a" horiz-adv-x="933" 
d="M344 41q154 0 326 149v236h-217q-311 0 -312 -203q-1 -88 57 -135t146 -47zM334 -23q-113 -1 -189 63t-75 183q0 159 136 217q108 47 247 47h217v93q0 133 -54 186t-188 53q-135 0 -289 -61v63q153 61 307 61t224 -70q70 -71 69 -220v-531h170v-61h-239v117
q-172 -140 -336 -140z" />
    <glyph glyph-name="b" unicode="b" horiz-adv-x="978" 
d="M436 41q184 0 284 111q99 111 99 289t-81 278t-224 100t-293 -121v-630q115 -27 215 -27zM436 -23q-127 0 -284 41v1368h-175v62h244v-680q147 115 310 115t261 -122t99 -330q0 -208 -125 -331t-330 -123z" />
    <glyph glyph-name="c" unicode="c" horiz-adv-x="892" 
d="M518 -23q-198 0 -314 124t-116 329t117 329t317 124q150 0 289 -60v-225h-66v184q-102 37 -223 37q-176 0 -269 -106q-93 -107 -93 -283t97 -282t258 -107q161 0 300 94v-67q-141 -91 -297 -91z" />
    <glyph glyph-name="d" unicode="d" horiz-adv-x="1052" 
d="M463 41q98 0 170 45t145 121v467q-137 145 -295 145q-159 -1 -241 -111t-82 -277t76 -279t227 -111zM463 -23q-179 1 -277 133t-98 322t101 321q101 130 281 130t308 -138v641h-198v62h268v-1387h174v-61h-244v135q-135 -158 -315 -158z" />
    <glyph glyph-name="e" unicode="e" horiz-adv-x="917" 
d="M479 821q-137 0 -221 -93t-96 -247h606q-6 141 -79 241t-210 99zM504 -23q-196 0 -306 122t-110 328t108 331t281 125q94 0 168 -40q126 -68 173 -240q30 -111 18 -181h-676q2 -176 93 -278t250 -103q159 0 298 88v-68q-143 -84 -297 -84z" />
    <glyph glyph-name="f" unicode="f" horiz-adv-x="614" 
d="M66 0v61h174v738h-189v61h189v352q0 129 71 194q72 65 205 64q68 0 139 -14v-59q-78 12 -129 12q-115 0 -166 -50t-51 -151v-348h264v-61h-264v-738h207v-61h-450z" />
    <glyph glyph-name="g" unicode="g" horiz-adv-x="899" 
d="M117 -178q-1 -86 75 -140t226 -53q150 0 248 50q96 50 96 152t-119 141q-86 28 -203 45q-117 16 -159 26q-164 -84 -164 -221zM434 821q-130 0 -196 -76t-66 -172t66 -172q66 -75 196 -75t197 76q66 76 65 171q0 96 -65 172q-66 76 -197 76zM421 -430q-181 0 -277 69
q-95 69 -95 177q0 147 166 247q-78 37 -78 113t101 141q-131 88 -132 256q0 121 83 215t245 95q74 0 135 -23h314v-59l-224 4q103 -89 103 -221t-83 -226t-245 -94q-84 0 -149 27q-82 -51 -82 -101q1 -50 65 -74q64 -22 157 -34t185 -32t157 -74q65 -56 64 -150
q0 -129 -114 -193q-115 -63 -296 -63z" />
    <glyph glyph-name="h" unicode="h" horiz-adv-x="1077" 
d="M31 0v61h174v1325h-174v62h243v-731q172 166 357 166q117 0 183 -73t67 -212v-537h174v-61h-418v61h174v525q0 233 -190 233q-164 0 -347 -174v-584h175v-61h-418z" />
    <glyph glyph-name="i" unicode="i" horiz-adv-x="507" 
d="M184 1194q0 27 20 47q20 21 48 21q27 0 47 -20t20 -48q0 -27 -20 -47q-20 -21 -47 -21q-28 0 -48 20t-20 48zM59 0v61h174v738h-174v61h244v-799h174v-61h-418z" />
    <glyph glyph-name="j" unicode="j" horiz-adv-x="434" 
d="M158 1194q0 27 19 47q19 21 48 21t48 -20t19 -48q0 -27 -18 -47q-20 -21 -49 -21t-48 20t-19 48zM207 -166v965h-182v61h251v-1032q1 -186 -210 -270l-29 49q170 90 170 227z" />
    <glyph glyph-name="k" unicode="k" horiz-adv-x="999" 
d="M885 -23q-123 0 -264 164l-246 287v8l358 365h-172v59h397v-61h-139l-356 -367l217 -254q115 -135 217 -135q29 0 53 10v-65q-36 -11 -65 -11zM31 0v61h174v1325h-174v62h243v-1387h175v-61h-418z" />
    <glyph glyph-name="l" unicode="l" horiz-adv-x="479" 
d="M31 0v61h174v1325h-174v62h243v-1387h175v-61h-418z" />
    <glyph glyph-name="m" unicode="m" horiz-adv-x="1632" 
d="M59 0v61h174v738h-174v61h244v-133q164 156 326 156q184 0 227 -166q170 166 338 166q102 1 171 -61t69 -208v-553h174v-61h-418v61h174v541q0 217 -178 217q-150 0 -320 -164q2 -12 2 -41v-553h174v-61h-417v61h174v541q0 217 -178 217q-147 0 -318 -162v-596h174v-61
h-418z" />
    <glyph glyph-name="n" unicode="n" horiz-adv-x="1105" 
d="M59 0v61h174v738h-174v61h244v-143q172 166 356 166q117 0 184 -73t66 -212v-537h174v-61h-417v61h174v525q0 233 -191 233q-164 0 -346 -174v-584h174v-61h-418z" />
    <glyph glyph-name="o" unicode="o" horiz-adv-x="995" 
d="M498 41q154 0 246 104q92 105 92 285t-92 284t-246 105q-154 0 -246 -104q-92 -105 -92 -285t92 -284t246 -105zM498 -23q-176 0 -293 121t-117 332t117 332t294 121t293 -121t116 -332t-118 -332q-116 -121 -292 -121z" />
    <glyph glyph-name="p" unicode="p" horiz-adv-x="1052" 
d="M893 430q-1 168 -77 278t-233 111q-157 0 -309 -168v-465q133 -145 293 -145t243 111q83 110 83 278zM31 -408v62h174v1145h-174v61h243v-137q138 160 318 160t276 -131t96 -322q0 -192 -100 -322q-102 -130 -282 -130t-308 137v-461h199v-62h-442z" />
    <glyph glyph-name="q" unicode="q" horiz-adv-x="995" 
d="M488 819q-152 1 -240 -107t-88 -279t87 -281t235 -111q148 0 286 133v512q-128 133 -280 133zM569 -408v62h199v448q-135 -125 -298 -125q-162 0 -272 127t-110 329t111 326t279 124t294 -131l10 108h56v-1206h174v-62h-443z" />
    <glyph glyph-name="r" unicode="r" horiz-adv-x="698" 
d="M59 0v61h174v738h-174v61h244v-188q154 211 348 211h21v-70h-17q-170 0 -352 -199v-553h193v-61h-437z" />
    <glyph glyph-name="s" unicode="s" horiz-adv-x="794" 
d="M389 -23q-145 0 -299 52v198h64v-151q118 -35 232 -35t188 39t73 117q0 79 -55 121t-134 66t-158 50t-134 80q-55 55 -55 151t78 157q79 60 217 60t270 -42v-197h-66v150q-98 27 -204 27t-167 -44q-63 -43 -63 -116q0 -74 55 -116t135 -65t157 -48q189 -63 189 -239
q0 -102 -88 -158q-90 -56 -235 -57z" />
    <glyph glyph-name="t" unicode="t" horiz-adv-x="595" 
d="M266 225q0 -186 166 -186q84 0 141 22v-59q-73 -25 -119 -25t-65 1q-18 0 -58 14t-66 37q-25 23 -47 71t-21 119v580h-150v61h150v225h69v-225h297v-61h-297v-574z" />
    <glyph glyph-name="u" unicode="u" horiz-adv-x="1073" 
d="M442 -23q-118 0 -184 73t-65 212v537h-175v61h244v-586q0 -233 191 -233q162 0 346 172v586h-174v61h243v-799h174v-61h-243v141q-175 -164 -357 -164z" />
    <glyph glyph-name="v" unicode="v" horiz-adv-x="1071" 
d="M18 799v61h390v-61h-179l306 -711l307 711h-178v61h389v-61h-138l-350 -799h-59l-350 799h-138z" />
    <glyph glyph-name="w" unicode="w" horiz-adv-x="1492" 
d="M23 799v61h395v-61h-187l220 -684l264 745h63l264 -745l220 684h-187v61h395v-61h-137l-262 -799h-53l-273 756l-270 -756h-53l-262 799h-137z" />
    <glyph glyph-name="x" unicode="x" horiz-adv-x="1017" 
d="M39 0v61h139l291 379l-268 359h-144v61h392v-59h-173l234 -307l235 307h-170v59h388v-61h-146l-270 -357l291 -381h139v-61h-379v59h160l-250 332l-252 -332h160v-59h-377z" />
    <glyph glyph-name="y" unicode="y" horiz-adv-x="1046" 
d="M239 -430q-83 0 -180 57l23 56q78 -51 149 -52q137 0 197 152l84 217h-63l-281 799h-139v61h397v-59h-184l272 -797l307 797h-182v59h395v-61h-141l-408 -1049q-31 -82 -97 -131t-149 -49z" />
    <glyph glyph-name="z" unicode="z" horiz-adv-x="839" 
d="M86 0v53l573 750h-501v-176h-68v233h653v-51l-571 -748h516v187h66v-248h-668z" />
    <glyph glyph-name="braceleft" unicode="{" horiz-adv-x="534" 
d="M364 -434q-62 0 -105 46q-42 46 -42 114t31 232q31 163 31 249q0 266 -261 278v70q260 12 261 279q0 86 -31 248t-31 232q0 68 42 114q43 46 105 46t113 -20v-49q-43 16 -84 16q-111 0 -110 -125q-1 -45 29 -212t30 -257q0 -270 -240 -307q240 -37 240 -307
q0 -90 -30 -257t-29 -212q0 -125 110 -125q41 0 84 16v-49q-51 -20 -113 -20z" />
    <glyph glyph-name="bar" unicode="|" horiz-adv-x="413" 
d="M174 -406v1854h66v-1854h-66z" />
    <glyph glyph-name="braceright" unicode="}" horiz-adv-x="534" 
d="M172 -434q-62 0 -115 20v49q43 -16 84 -16q111 0 111 125q0 45 -30 212t-29 257q0 270 239 307q-240 37 -239 307q0 90 29 257q30 167 30 212q0 125 -111 125q-41 0 -84 -16v49q51 20 114 20t105 -46t41 -114t-31 -232q-30 -163 -30 -248q0 -266 260 -279v-70
q-260 -12 -260 -278q0 -86 31 -249q31 -164 31 -232t-42 -114t-104 -46z" />
    <glyph glyph-name="asciitilde" unicode="~" horiz-adv-x="1189" 
d="M397 662q104 0 226 -107t193 -107q70 1 116 55q45 54 86 148l49 -24q-98 -246 -240 -246q-69 0 -145 53q-76 52 -150 106t-135 54q-121 0 -217 -211l-49 25q109 254 266 254z" />
    <glyph glyph-name="exclamdown" unicode="&#xa1;" horiz-adv-x="405" 
d="M203 883q29 -1 48 -21t19 -48t-20 -48t-47 -20t-47 20t-20 48t18 48q20 20 49 21zM225 559l19 -940h-82l18 940h45z" />
    <glyph glyph-name="cent" unicode="&#xa2;" horiz-adv-x="874" 
d="M467 862q-135 0 -219 -97t-84 -253q0 -113 45 -200t129 -128l225 662q-45 16 -96 16zM471 96q-68 0 -115 17l-90 -267l-39 13l90 268q-102 45 -160 146q-59 101 -59 257t96 273t271 117q63 0 117 -19l57 170l39 -12l-60 -172q123 -59 170 -228h-65q-31 117 -123 170
l-225 -659q41 -14 96 -14q106 0 173 59t85 160h62q-25 -129 -107 -204t-213 -75z" />
    <glyph glyph-name="sterling" unicode="&#xa3;" horiz-adv-x="1026" 
d="M657 -14q-59 0 -178 24t-185 23q-66 0 -159 -33l-12 47q94 27 151 88q58 61 58 127t-60 187h-180v49h158q-51 106 -51 190q0 119 84 207t258 88q94 0 165 -28q72 -27 110 -71q69 -78 79 -179h-66q-5 79 -73 149t-210 70t-211 -67t-69 -156t58 -203h403v-49h-379
q51 -111 51 -171q1 -60 -31 -114t-61 -78q65 4 175 -18t169 -23q162 0 248 107l37 -48q-95 -118 -279 -118z" />
    <glyph glyph-name="currency" unicode="&#xa4;" horiz-adv-x="1142" 
d="M571 205q145 0 247 102q102 101 102 245t-102 246t-246 103q-146 0 -247 -102q-101 -101 -101 -245t100 -246q102 -102 247 -103zM571 145q-154 0 -266 101l-135 -135l-41 41l135 135q-100 113 -100 267t100 265l-135 135l41 41l135 -135q117 100 267 100t266 -100
l135 135l41 -41l-135 -135q100 -117 100 -267t-100 -265l135 -135l-41 -41l-135 135q-113 -101 -267 -101z" />
    <glyph glyph-name="yen" unicode="&#xa5;" horiz-adv-x="1116" 
d="M342 0v57h184v219h-327v52h327v55l-75 125h-252v51h221l-209 350h-156v58h406v-56h-178l274 -475l274 475h-178v56h406v-58h-156l-211 -350h230v-51h-260l-74 -125v-55h334v-52h-334v-219h184v-57h-430z" />
    <glyph glyph-name="brokenbar" unicode="&#xa6;" horiz-adv-x="421" 
d="M178 -406v789h66v-789h-66zM178 668v780h66v-780h-66z" />
    <glyph glyph-name="section" unicode="&#xa7;" horiz-adv-x="839" 
d="M672 393q0 53 -39 96t-85 66t-125 57t-118 56q-133 -61 -133 -172q0 -54 39 -98t84 -66t125 -57q80 -34 117 -54q135 59 135 172zM684 18q0 -100 -72 -149t-188 -49q-115 0 -211 51t-96 111q0 27 18 46t48 19t50 -20q21 -20 21 -47t-25 -52q83 -53 183 -53q206 0 206 137
q0 110 -179 186q-75 32 -149 66t-127 90q-52 57 -52 138q0 125 143 208q-94 70 -94 170t73 151q74 50 186 50t201 -49t89 -109q-1 -27 -19 -46t-48 -19t-50 20t-21 47q0 27 25 52q-74 49 -168 49t-148 -37t-54 -101q-1 -111 178 -189q75 -31 150 -65t127 -92t52 -135
q0 -127 -147 -209q98 -70 98 -170z" />
    <glyph glyph-name="dieresis" unicode="&#xa8;" horiz-adv-x="772" 
d="M563 1073q-27 -1 -44 17t-17 45t17 44t44 17t44 -17t17 -44t-16 -45q-18 -18 -45 -17zM236 1073q-26 -1 -44 17t-18 45t17 44t45 17t44 -17q17 -17 17 -44t-17 -45t-44 -17z" />
    <glyph glyph-name="copyright" unicode="&#xa9;" horiz-adv-x="1490" 
d="M746 164q-146 0 -245 110t-99 269t96 267t272 108q121 0 231 -56v-166h-55v133q-90 33 -174 33q-143 0 -226 -90t-83 -225t80 -231t218 -95q138 0 247 76v-61q-116 -72 -262 -72zM745 -51q248 0 420 172t172 420t-172 420t-420 172q-247 0 -419 -172t-172 -420t172 -420
t419 -172zM745 -109q-268 -1 -458 189q-191 190 -191 460t190 460t459 190t459 -190t190 -459q0 -270 -190 -460q-191 -190 -459 -190z" />
    <glyph glyph-name="ordfeminine" unicode="&#xaa;" horiz-adv-x="823" 
d="M328 657q102 0 207 97v149h-138q-199 0 -198 -129q0 -55 36 -86t93 -31zM315 604q-78 0 -130 44t-52 135t79 131t183 40h140v58q0 84 -34 118t-122 35q-88 0 -199 -41v56q102 41 212 41q110 -1 159 -49t49 -152v-346h109v-56h-172v78q-111 -92 -222 -92zM143 446v54h553
v-54h-553z" />
    <glyph glyph-name="guillemotleft" unicode="&#xab;" horiz-adv-x="968" 
d="M381 184l-295 348v9l295 348h88l-299 -352l299 -353h-88zM784 184l-295 348v9l295 348h88l-299 -352l299 -353h-88z" />
    <glyph glyph-name="logicalnot" unicode="&#xac;" horiz-adv-x="1017" 
d="M813 258v332h-676v65h742v-397h-66z" />
    <glyph glyph-name="uni00AD" unicode="&#xad;" horiz-adv-x="761" 
d="M129 436v68h504v-68h-504z" />
    <glyph glyph-name="registered" unicode="&#xae;" horiz-adv-x="831" 
d="M360 907h72q82 1 82 63t-78 62h-76v-125zM274 748v32h45v252h-45v33h164q55 0 87 -26q32 -25 32 -65t-27 -65t-57 -28l57 -103h48v-30h-76l-70 122h-72v-90h48v-32h-134zM416 633q114 0 194 81q80 82 80 194t-81 192t-193 80t-193 -80q-80 -80 -80 -194t80 -194t193 -79z
M415 592q-130 0 -221 92q-92 92 -92 222t92 221t221 91q130 0 222 -90q92 -92 92 -222t-92 -222t-222 -92z" />
    <glyph glyph-name="macron" unicode="&#xaf;" horiz-adv-x="811" 
d="M150 1087v62h501v-62h-501z" />
    <glyph glyph-name="degree" unicode="&#xb0;" horiz-adv-x="741" 
d="M371 817q91 0 155 65q64 64 64 154t-65 155t-155 65t-154 -66q-64 -64 -64 -154t64 -154t155 -65zM371 754q-117 0 -200 83t-83 199t83 200q83 83 200 83t199 -83t83 -200q-1 -118 -83 -200t-199 -82z" />
    <glyph glyph-name="plusminus" unicode="&#xb1;" horiz-adv-x="1077" 
d="M135 61v62h807v-62h-807zM506 248v332h-371v61h371v332h61v-332h375v-61h-375v-332h-61z" />
    <glyph glyph-name="twosuperior" unicode="&#xb2;" horiz-adv-x="759" 
d="M557 1402q0 74 -52 114q-51 40 -149 40t-149 -34q12 -12 12 -38t-16 -41t-42 -15t-42 16t-17 41q0 53 82 92t194 39t180 -57t69 -162q0 -250 -408 -502h436v-61h-534l-19 51q20 14 123 84t204 169q128 124 128 264z" />
    <glyph glyph-name="threesuperior" unicode="&#xb3;" horiz-adv-x="731" 
d="M637 1032q0 -104 -82 -162q-81 -58 -191 -57q-110 0 -195 36t-85 87q0 23 17 41t45 18t45 -16q34 -32 8 -76q65 -33 155 -33t152 43q61 43 61 124t-66 121q-67 40 -177 40h-66v59h70q102 0 160 39t58 112t-52 111q-54 37 -140 37t-151 -28q14 -14 14 -37t-18 -40t-45 -17
t-43 18t-17 41q0 51 79 87t191 36t182 -55t70 -135q-1 -162 -172 -195q193 -43 193 -199z" />
    <glyph glyph-name="acute" unicode="&#xb4;" horiz-adv-x="645" 
d="M150 1040l-25 29l315 287l52 -64z" />
    <glyph glyph-name="mu" unicode="&#xb5;" horiz-adv-x="1142" 
d="M231 -408v1207h-174v61h244v-586q0 -233 191 -233q162 0 346 172v586h-174v61h243v-799h174v-61h-243v141q-174 -164 -357 -164q-121 0 -180 78v-463h-70z" />
    <glyph glyph-name="paragraph" unicode="&#xb6;" horiz-adv-x="1130" 
d="M621 989v-1085h167v1085h-167zM340 -152v56h221v389h-110q-158 1 -272 109q-113 108 -113 266t112 268t273 108h585v-55h-186v-1085h186v-56h-696z" />
    <glyph glyph-name="periodcentered" unicode="&#xb7;" horiz-adv-x="393" 
d="M197 453q-29 0 -49 20q-19 20 -19 48t19 48q18 21 48 21t49 -20t19 -49q0 -28 -19 -48t-48 -20z" />
    <glyph glyph-name="cedilla" unicode="&#xb8;" horiz-adv-x="589" 
d="M240 -381q-76 0 -113 6l16 56q41 -4 70 -5q174 0 174 99q0 92 -182 92v35l63 129l47 -23l-34 -94q71 -4 123 -37t52 -109t-70 -112q-70 -37 -146 -37z" />
    <glyph glyph-name="onesuperior" unicode="&#xb9;" horiz-adv-x="585" 
d="M115 834v59h176v641q-33 -13 -75 -35t-81 -22q-45 0 -45 47l207 71h59v-702h160v-59h-401z" />
    <glyph glyph-name="ordmasculine" unicode="&#xba;" horiz-adv-x="831" 
d="M416 659q100 0 161 68q60 69 60 185t-60 185q-61 69 -161 69t-161 -69q-60 -69 -60 -186q1 -117 61 -185t160 -67zM416 604q-125 0 -207 83t-82 224t82 225t208 85q126 0 207 -83q81 -84 81 -226t-82 -225t-207 -83zM164 446v54h504v-54h-504z" />
    <glyph glyph-name="guillemotright" unicode="&#xbb;" horiz-adv-x="968" 
d="M500 184l299 353l-299 352h88l295 -348v-9l-295 -348h-88zM96 184l299 353l-299 352h88l295 -348v-9l-295 -348h-88z" />
    <glyph glyph-name="onequarter" unicode="&#xbc;" horiz-adv-x="1554" 
d="M1180 0v55h131v154h-402v51q97 106 161 240t81 256q61 12 61 -45q0 -74 -68 -213t-151 -232h318v119q25 47 43 109h26v-228h111v-57h-111v-154h105v-55h-305zM446 -6l-53 29l742 1228l53 -28zM104 506v59h166v619q-115 -55 -147 -56q-43 0 -43 48l196 71h64v-682h154v-59
h-390z" />
    <glyph glyph-name="onehalf" unicode="&#xbd;" horiz-adv-x="1593" 
d="M428 -4l-53 29l739 1228l53 -28zM1110 629q0 -25 -16 -40t-42 -15t-41 16q-15 18 -16 41q0 51 81 90t189 39t171 -55t63 -156q0 -242 -389 -486h418v-63h-516l-13 55q11 11 89 63t120 88t101 94q118 116 116 247q0 154 -178 153q-90 0 -149 -34q12 -12 12 -37zM96 508v59
h166v619q-115 -55 -147 -56q-43 0 -43 46l198 71h62v-680h153v-59h-389z" />
    <glyph glyph-name="threequarters" unicode="&#xbe;" horiz-adv-x="1626" 
d="M1251 0v55h131v154h-401v51q97 106 161 240t81 256q61 12 61 -45q0 -74 -68 -213t-151 -232h317v119q25 47 43 109h27v-228h111v-57h-111v-154h104v-55h-305zM518 -6l-53 29l741 1228l54 -28zM623 702q0 -100 -81 -156q-82 -56 -188 -57q-106 0 -187 34t-81 83
q0 25 17 42q17 18 45 18t42 -16q32 -32 7 -72q67 -31 151 -31t142 42t59 118q0 154 -232 153h-61v60h63q98 0 155 36q56 37 56 108q0 70 -51 106t-134 36t-144 -28q14 -12 14 -34t-17 -38t-43 -16t-42 17t-17 40q0 49 77 85t183 36t176 -54t70 -143q0 -137 -149 -180
q170 -37 170 -189z" />
    <glyph glyph-name="questiondown" unicode="&#xbf;" horiz-adv-x="718" 
d="M401 883q29 -1 49 -21t19 -48q0 -28 -19 -48q-18 -20 -48 -20t-49 20t-19 48t19 48t48 21zM394 -399q-138 -1 -226 75t-88 217t108 258q45 48 92 92q109 104 109 201q0 66 -27 115h70q20 -41 20 -111t-30 -128q-31 -60 -76 -105l-90 -90q-108 -108 -107 -224
q2 -235 263 -237q102 0 239 47v-63q-119 -47 -257 -47z" />
    <glyph glyph-name="Agrave" unicode="&#xc0;" horiz-adv-x="1384" 
d="M791 1384l-369 271l55 69l340 -309zM424 502h539l-269 674zM-12 0v66h186l451 1116h-195v65h309l475 -1181h187v-66h-486v66h224l-150 368h-592l-147 -368h223v-66h-485z" />
    <glyph glyph-name="Aacute" unicode="&#xc1;" horiz-adv-x="1384" 
d="M522 1384l-24 31l340 309l55 -69zM424 502h539l-269 674zM-12 0v66h186l451 1116h-195v65h309l475 -1181h187v-66h-486v66h224l-150 368h-592l-147 -368h223v-66h-485z" />
    <glyph glyph-name="Acircumflex" unicode="&#xc2;" horiz-adv-x="1384" 
d="M373 1384l-29 31l293 273h45l293 -273l-29 -31l-287 218zM424 502h539l-269 674zM-12 0v66h186l451 1116h-195v65h309l475 -1181h187v-66h-486v66h224l-150 368h-592l-147 -368h223v-66h-485z" />
    <glyph glyph-name="Atilde" unicode="&#xc3;" horiz-adv-x="1384" 
d="M504 1587q60 0 162 -61q102 -62 145 -62t74 31t65 102l41 -22q-53 -117 -93 -149t-93 -32t-155 62q-102 61 -144 62q-71 -1 -139 -132l-39 19q0 13 26 63t34 57t22 23q36 39 94 39zM424 502h539l-269 674zM-12 0v66h186l451 1116h-195v65h309l475 -1181h187v-66h-486v66
h224l-150 368h-592l-147 -368h223v-66h-485z" />
    <glyph glyph-name="Adieresis" unicode="&#xc4;" horiz-adv-x="1384" 
d="M823 1399q-29 0 -47 19t-18 46t18 46q18 20 47 20t47 -20t18 -46q0 -27 -18 -46t-47 -19zM497 1399q-28 0 -47 19t-20 46q0 27 20 46q20 20 47 20q28 0 46 -20t18 -46q0 -27 -18 -46t-46 -19zM424 502h539l-269 674zM-12 0v66h186l451 1116h-195v65h309l475 -1181h187
v-66h-486v66h224l-150 368h-592l-147 -368h223v-66h-485z" />
    <glyph glyph-name="Aring" unicode="&#xc5;" horiz-adv-x="1384" 
d="M662 1415q68 0 104 44q36 43 37 105q0 62 -37 106q-36 44 -104 44t-105 -44t-37 -105t37 -105t105 -45zM662 1364q-92 0 -149 57q-56 57 -56 143t56 144q57 57 149 57t148 -57t56 -143q0 -85 -56 -143t-148 -58zM424 502h539l-269 674zM-12 0v66h186l451 1116h-195v65
h309l475 -1181h187v-66h-486v66h224l-150 368h-592l-147 -368h223v-66h-485z" />
    <glyph glyph-name="AE" unicode="&#xc6;" horiz-adv-x="1867" 
d="M1020 496v686h-27l-463 -686h490zM-18 0v66h176l755 1116h-174v65h1014v-321h-70v256h-591v-520h573v-66h-573v-530h594v253h69v-319h-946v66h211v364h-533l-245 -364h192v-66h-452z" />
    <glyph glyph-name="Ccedilla" unicode="&#xc7;" horiz-adv-x="1251" 
d="M911 -232q-1 -76 -71 -112q-70 -37 -146 -37t-112 6l16 56q41 -4 70 -5q174 0 174 99q0 92 -183 92v35l37 75q-264 17 -433 189t-169 458t173 467t487 181q225 0 411 -90v-271h-71v232q-147 63 -336 63q-260 0 -424 -152t-164 -434t169 -430t399 -149q230 0 433 115v-70
q-182 -109 -413 -111l-23 -61q70 -4 123 -37t53 -109z" />
    <glyph glyph-name="Egrave" unicode="&#xc8;" horiz-adv-x="1163" 
d="M715 1384l-369 271l55 69l340 -309zM72 0v66h211v1116h-211v65h977v-321h-70v256h-623v-520h605v-66h-605v-530h625v253h70v-319h-979z" />
    <glyph glyph-name="Eacute" unicode="&#xc9;" horiz-adv-x="1163" 
d="M494 1384l-25 31l340 309l55 -69zM72 0v66h211v1116h-211v65h977v-321h-70v256h-623v-520h605v-66h-605v-530h625v253h70v-319h-979z" />
    <glyph glyph-name="Ecircumflex" unicode="&#xca;" horiz-adv-x="1163" 
d="M317 1384l-28 31l293 273h45l293 -273l-29 -31l-287 218zM72 0v66h211v1116h-211v65h977v-321h-70v256h-623v-520h605v-66h-605v-530h625v253h70v-319h-979z" />
    <glyph glyph-name="Edieresis" unicode="&#xcb;" horiz-adv-x="1163" 
d="M782 1399q-29 0 -47 19t-18 46t18 46q18 20 47 20t47 -20q19 -20 19 -46q0 -27 -18 -46t-48 -19zM456 1399q-28 0 -47 19t-20 46t19 46q20 20 48 20t46 -20t18 -46q0 -27 -18 -46t-46 -19zM72 0v66h211v1116h-211v65h977v-321h-70v256h-623v-520h605v-66h-605v-530h625
v253h70v-319h-979z" />
    <glyph glyph-name="Igrave" unicode="&#xcc;" horiz-adv-x="638" 
d="M473 1384l-369 271l56 69l340 -309zM72 0v66h211v1116h-211v65h495v-65h-211v-1116h211v-66h-495z" />
    <glyph glyph-name="Iacute" unicode="&#xcd;" horiz-adv-x="638" 
d="M174 1384l-24 31l339 309l56 -69zM72 0v66h211v1116h-211v65h495v-65h-211v-1116h211v-66h-495z" />
    <glyph glyph-name="Icircumflex" unicode="&#xce;" horiz-adv-x="638" 
d="M33 1384l-29 31l293 273h45l293 -273l-29 -31l-287 218zM72 0v66h211v1116h-211v65h495v-65h-211v-1116h211v-66h-495z" />
    <glyph glyph-name="Idieresis" unicode="&#xcf;" horiz-adv-x="638" 
d="M483 1399q-29 0 -47 19t-18 46t18 46q18 20 47 20t47 -20t18 -46q0 -27 -18 -46t-47 -19zM157 1399q-28 0 -47 19t-20 46q0 27 20 46q20 20 47 20q28 0 46 -20t18 -46q0 -27 -18 -46t-46 -19zM72 0v66h211v1116h-211v65h495v-65h-211v-1116h211v-66h-495z" />
    <glyph glyph-name="Eth" unicode="&#xd0;" horiz-adv-x="1370" 
d="M358 66h267q249 0 409 148t160 410t-160 409q-160 148 -409 149h-267v-520h367v-64h-367v-532zM92 598v64h193v520h-211v65h547q256 0 445 -146q93 -73 148 -196q56 -123 56 -281t-56 -282q-101 -225 -355 -305q-114 -37 -238 -37h-547v66h211v532h-193z" />
    <glyph glyph-name="Ntilde" unicode="&#xd1;" horiz-adv-x="1507" 
d="M772 1526q102 -62 146 -62t74 31t65 102l41 -22q-53 -117 -93 -149t-93 -32q-52 0 -154 62q-102 61 -146 62q-71 -1 -139 -132l-39 19q0 2 12 29q12 28 14 32t15 28q12 24 20 31q7 7 21 23q34 39 94 39t162 -61zM72 0v66h211v1116h-211v65h286l818 -1128v1063h-211v65
h491v-65h-211v-1182h-67l-826 1139v-1073h211v-66h-491z" />
    <glyph glyph-name="Ograve" unicode="&#xd2;" horiz-adv-x="1447" 
d="M795 1393l-369 270l55 70l340 -310zM174 622q0 -260 150 -420q150 -161 399 -161q247 0 399 163t152 422t-151 420q-151 160 -399 160t-398 -162q-152 -162 -152 -422zM725 -25q-285 1 -456 185t-171 465t171 464t456 183t455 -183t170 -464t-170 -465t-455 -185z" />
    <glyph glyph-name="Oacute" unicode="&#xd3;" horiz-adv-x="1447" 
d="M578 1393l-25 30l340 310l55 -70zM174 622q0 -260 150 -420q150 -161 399 -161q247 0 399 163t152 422t-151 420q-151 160 -399 160t-398 -162q-152 -162 -152 -422zM725 -25q-285 1 -456 185t-171 465t171 464t456 183t455 -183t170 -464t-170 -465t-455 -185z" />
    <glyph glyph-name="Ocircumflex" unicode="&#xd4;" horiz-adv-x="1447" 
d="M436 1391l-28 30l292 273h45l293 -273l-28 -30l-287 217zM174 622q0 -260 150 -420q150 -161 399 -161q247 0 399 163t152 422t-151 420q-151 160 -399 160t-398 -162q-152 -162 -152 -422zM725 -25q-285 1 -456 185t-171 465t171 464t456 183t455 -183t170 -464
t-170 -465t-455 -185z" />
    <glyph glyph-name="Otilde" unicode="&#xd5;" horiz-adv-x="1447" 
d="M726 1532q102 -62 146 -62q43 0 74 31t66 103l41 -23q-53 -117 -93 -149t-94 -31q-53 0 -154 61t-145 62q-71 0 -139 -131l-39 18q0 2 12 29q13 28 15 32l14 28t20 31q7 7 21 23q34 39 94 39q59 0 161 -61zM174 622q0 -260 150 -420q150 -161 399 -161q247 0 399 163
t152 422t-151 420q-151 160 -399 160t-398 -162q-152 -162 -152 -422zM725 -25q-285 1 -456 185t-171 465t171 464t456 183t455 -183t170 -464t-170 -465t-455 -185z" />
    <glyph glyph-name="Odieresis" unicode="&#xd6;" horiz-adv-x="1447" 
d="M887 1405q-27 0 -46 18t-20 47q-1 30 19 48t47 18t46 -18t19 -48t-19 -47q-19 -18 -46 -18zM559 1405q-27 0 -46 19t-19 46q0 26 19 46t46 20t46 -18t19 -48t-18 -47q-20 -18 -47 -18zM174 622q0 -260 150 -420q150 -161 399 -161q247 0 399 163t152 422t-151 420
q-151 160 -399 160t-398 -162q-152 -162 -152 -422zM725 -25q-285 1 -456 185t-171 465t171 464t456 183t455 -183t170 -464t-170 -465t-455 -185z" />
    <glyph glyph-name="multiply" unicode="&#xd7;" horiz-adv-x="929" 
d="M143 111l-41 41l322 321l-322 322l41 43l322 -324l321 324l41 -43l-321 -322l321 -321l-41 -41l-321 321z" />
    <glyph glyph-name="Oslash" unicode="&#xd8;" horiz-adv-x="1447" 
d="M725 1206q-247 0 -399 -160t-152 -425q0 -264 160 -428l739 897q-145 116 -348 116zM742 41q228 0 380 161t152 425t-162 426l-737 -897q139 -115 367 -115zM725 -25q-233 0 -395 127l-101 -122l-43 34l103 125q-191 181 -191 473t170 476t457 184q229 0 391 -127
l103 123l43 -35l-103 -125q191 -180 191 -473t-170 -477t-455 -183z" />
    <glyph glyph-name="Ugrave" unicode="&#xd9;" 
d="M795 1384l-369 271l55 69l340 -309zM1163 397q-1 -203 -123 -313t-329 -109q-207 0 -334 113t-127 311v783h-211v65h496v-65h-211v-781q0 -182 110 -270t279 -88q168 0 274 89t107 269v781h-211v65h491v-65h-211v-785z" />
    <glyph glyph-name="Uacute" unicode="&#xda;" 
d="M602 1384l-24 31l340 309l55 -69zM1163 397q-1 -203 -123 -313t-329 -109q-207 0 -334 113t-127 311v783h-211v65h496v-65h-211v-781q0 -182 110 -270t279 -88q168 0 274 89t107 269v781h-211v65h491v-65h-211v-785z" />
    <glyph glyph-name="Ucircumflex" unicode="&#xdb;" 
d="M420 1384l-29 31l293 273h45l293 -273l-29 -31l-286 218zM1163 397q-1 -203 -123 -313t-329 -109q-207 0 -334 113t-127 311v783h-211v65h496v-65h-211v-781q0 -182 110 -270t279 -88q168 0 274 89t107 269v781h-211v65h491v-65h-211v-785z" />
    <glyph glyph-name="Udieresis" unicode="&#xdc;" 
d="M870 1399q-27 0 -46 19t-19 46t19 46q19 20 46 20t46 -20q20 -20 20 -46q0 -27 -20 -46t-46 -19zM543 1399q-27 0 -46 19t-20 46t19 46q20 20 47 20t46 -20t19 -46q0 -27 -19 -46t-46 -19zM1163 397q-1 -203 -123 -313t-329 -109q-207 0 -334 113t-127 311v783h-211v65
h496v-65h-211v-781q0 -182 110 -270t279 -88q168 0 274 89t107 269v781h-211v65h491v-65h-211v-785z" />
    <glyph glyph-name="Yacute" unicode="&#xdd;" horiz-adv-x="1273" 
d="M510 1384l-25 31l340 309l56 -69zM389 0v66h211v415l-428 701h-188v65h487v-65h-217l383 -635l385 635h-215v65h483v-65h-188l-428 -701v-415h211v-66h-496z" />
    <glyph glyph-name="Thorn" unicode="&#xde;" horiz-adv-x="1130" 
d="M356 338h228q399 0 399 299t-399 299h-228v-598zM72 0v66h211v1116h-211v65h532v-65h-248v-181h228q130 1 219 -29q90 -30 139 -68t83 -106t34 -161q0 -92 -34 -161q-34 -68 -83 -106q-122 -94 -358 -98h-228v-206h248v-66h-532z" />
    <glyph glyph-name="germandbls" unicode="&#xdf;" horiz-adv-x="1052" 
d="M66 0v61h174v738h-189v61h189v254q0 152 89 254t233 102t235 -70q90 -70 90 -204q0 -72 -30 -138q-31 -66 -67 -104q-96 -103 -96 -197t140 -216q51 -45 95 -122t44 -165q0 -135 -87 -202q-146 -113 -405 -38v64q103 -31 195 -31t160 50t68 159t-98 214q-40 42 -81 83
q-100 100 -98 211q-1 62 29 120t66 96t65 96q30 58 30 122q0 100 -64 156q-65 55 -173 55q-142 0 -206 -88t-65 -209v-1112h-243z" />
    <glyph glyph-name="agrave" unicode="&#xe0;" horiz-adv-x="933" 
d="M549 1040l-342 252l51 64l315 -287zM344 41q154 0 326 149v236h-217q-311 0 -312 -203q-1 -88 57 -135t146 -47zM334 -23q-113 -1 -189 63t-75 183q0 159 136 217q108 47 247 47h217v93q0 133 -54 186t-188 53q-135 0 -289 -61v63q153 61 307 61t224 -70q70 -71 69 -220
v-531h170v-61h-239v117q-172 -140 -336 -140z" />
    <glyph glyph-name="aacute" unicode="&#xe1;" horiz-adv-x="933" 
d="M307 1040l-24 29l315 287l51 -64zM344 41q154 0 326 149v236h-217q-311 0 -312 -203q-1 -88 57 -135t146 -47zM334 -23q-113 -1 -189 63t-75 183q0 159 136 217q108 47 247 47h217v93q0 133 -54 186t-188 53q-135 0 -289 -61v63q153 61 307 61t224 -70q70 -71 69 -220
v-531h170v-61h-239v117q-172 -140 -336 -140z" />
    <glyph glyph-name="acircumflex" unicode="&#xe2;" horiz-adv-x="933" 
d="M156 1040l-27 29l272 252h41l273 -252l-27 -29l-266 201zM344 41q154 0 326 149v236h-217q-311 0 -312 -203q-1 -88 57 -135t146 -47zM334 -23q-113 -1 -189 63t-75 183q0 159 136 217q108 47 247 47h217v93q0 133 -54 186t-188 53q-135 0 -289 -61v63q153 61 307 61
t224 -70q70 -71 69 -220v-531h170v-61h-239v117q-172 -140 -336 -140z" />
    <glyph glyph-name="atilde" unicode="&#xe3;" horiz-adv-x="933" 
d="M294 1249q44 0 138 -60q94 -61 134 -61t67 27t61 94l41 -22q-23 -49 -38 -76t-52 -57t-86 -31q-49 0 -142 60q-93 61 -133 61t-66 -26t-62 -93l-43 20q59 127 109 151q28 13 72 13zM344 41q154 0 326 149v236h-217q-311 0 -312 -203q-1 -88 57 -135t146 -47zM334 -23
q-113 -1 -189 63t-75 183q0 159 136 217q108 47 247 47h217v93q0 133 -54 186t-188 53q-135 0 -289 -61v63q153 61 307 61t224 -70q70 -71 69 -220v-531h170v-61h-239v117q-172 -140 -336 -140z" />
    <glyph glyph-name="adieresis" unicode="&#xe4;" horiz-adv-x="933" 
d="M590 1073q-27 -1 -44 17t-18 45q0 27 18 44t44 17q27 0 44 -17t17 -44t-17 -45t-44 -17zM262 1073q-27 -1 -44 17t-17 45t17 44t44 17t44 -17q18 -17 18 -44t-18 -45t-44 -17zM344 41q154 0 326 149v236h-217q-311 0 -312 -203q-1 -88 57 -135t146 -47zM334 -23
q-113 -1 -189 63t-75 183q0 159 136 217q108 47 247 47h217v93q0 133 -54 186t-188 53q-135 0 -289 -61v63q153 61 307 61t224 -70q70 -71 69 -220v-531h170v-61h-239v117q-172 -140 -336 -140z" />
    <glyph glyph-name="aring" unicode="&#xe5;" horiz-adv-x="933" 
d="M426 1085q68 0 104 44q36 43 37 105q0 62 -37 106q-36 44 -104 44t-104 -44t-37 -105q1 -61 37 -105t104 -45zM426 1034q-92 0 -148 58t-57 143q1 86 57 143q56 58 148 58t148 -58t56 -143t-56 -143t-148 -58zM344 41q154 0 326 149v236h-217q-311 0 -312 -203
q-1 -88 57 -135t146 -47zM334 -23q-113 -1 -189 63t-75 183q0 159 136 217q108 47 247 47h217v93q0 133 -54 186t-188 53q-135 0 -289 -61v63q153 61 307 61t224 -70q70 -71 69 -220v-531h170v-61h-239v117q-172 -140 -336 -140z" />
    <glyph glyph-name="ae" unicode="&#xe6;" horiz-adv-x="1486" 
d="M1048 821q-137 0 -221 -93t-96 -247h606q-6 141 -79 241t-210 99zM356 41q182 0 363 141q-51 106 -51 240h-215q-311 0 -312 -199q-1 -88 59 -135t156 -47zM344 -23q-117 1 -196 63t-78 181q0 161 136 215q112 45 247 45h217v99q0 133 -54 186t-188 53q-135 0 -289 -61
v63q154 61 307 62q244 0 277 -199q102 199 324 199q93 0 167 -40q124 -68 174 -240q19 -71 19 -120t-2 -61h-676q2 -176 93 -278t250 -103q159 0 298 88v-68q-143 -84 -297 -84q-221 0 -328 156q-72 -59 -178 -107t-223 -49z" />
    <glyph glyph-name="ccedilla" unicode="&#xe7;" horiz-adv-x="892" 
d="M456 -381q-76 0 -112 6l16 56q41 -4 70 -5q174 0 174 99q0 92 -182 92v35l39 80q-172 16 -273 137q-100 121 -100 319t117 321q117 124 317 124q150 0 289 -60v-225h-66v184q-102 37 -223 37q-176 0 -269 -106q-93 -107 -93 -283t97 -282t258 -107q161 0 300 94v-67
q-137 -88 -295 -91l-22 -63q70 -4 123 -37t53 -109t-71 -112q-71 -37 -147 -37z" />
    <glyph glyph-name="egrave" unicode="&#xe8;" horiz-adv-x="917" 
d="M569 1040l-342 252l52 64l315 -287zM479 821q-137 0 -221 -93t-96 -247h606q-6 141 -79 241t-210 99zM504 -23q-196 0 -306 122t-110 328t108 331t281 125q94 0 168 -40q126 -68 173 -240q30 -111 18 -181h-676q2 -176 93 -278t250 -103q159 0 298 88v-68
q-143 -84 -297 -84z" />
    <glyph glyph-name="eacute" unicode="&#xe9;" horiz-adv-x="917" 
d="M354 1040l-24 29l315 287l51 -64zM479 821q-137 0 -221 -93t-96 -247h606q-6 141 -79 241t-210 99zM504 -23q-196 0 -306 122t-110 328t108 331t281 125q94 0 168 -40q126 -68 173 -240q30 -111 18 -181h-676q2 -176 93 -278t250 -103q159 0 298 88v-68
q-143 -84 -297 -84z" />
    <glyph glyph-name="ecircumflex" unicode="&#xea;" horiz-adv-x="917" 
d="M193 1040l-27 29l272 252h41l273 -252l-27 -29l-266 201zM479 821q-137 0 -221 -93t-96 -247h606q-6 141 -79 241t-210 99zM504 -23q-196 0 -306 122t-110 328t108 331t281 125q94 0 168 -40q126 -68 173 -240q30 -111 18 -181h-676q2 -176 93 -278t250 -103
q159 0 298 88v-68q-143 -84 -297 -84z" />
    <glyph glyph-name="edieresis" unicode="&#xeb;" horiz-adv-x="917" 
d="M627 1073q-27 -1 -44 17t-18 45t17 44t45 17t44 -17t17 -44t-17 -45t-44 -17zM299 1073q-27 -1 -44 17t-17 45t17 44t44 17t44 -17t17 -44t-17 -45t-44 -17zM479 821q-137 0 -221 -93t-96 -247h606q-6 141 -79 241t-210 99zM504 -23q-196 0 -306 122t-110 328t108 331
t281 125q94 0 168 -40q126 -68 173 -240q30 -111 18 -181h-676q2 -176 93 -278t250 -103q159 0 298 88v-68q-143 -84 -297 -84z" />
    <glyph glyph-name="igrave" unicode="&#xec;" horiz-adv-x="507" 
d="M59 0v61h174v738h-174v61h244v-799h174v-61h-418zM358 1040l-342 252l52 64l315 -287z" />
    <glyph glyph-name="iacute" unicode="&#xed;" horiz-adv-x="507" 
d="M59 0v61h174v738h-174v61h244v-799h174v-61h-418zM96 1040l-24 29l315 287l51 -64z" />
    <glyph glyph-name="icircumflex" unicode="&#xee;" horiz-adv-x="507" 
d="M59 0v61h174v738h-174v61h244v-799h174v-61h-418zM-31 1040l-26 29l272 252h41l272 -252l-26 -29l-266 201z" />
    <glyph glyph-name="idieresis" unicode="&#xef;" horiz-adv-x="507" 
d="M59 0v61h174v738h-174v61h244v-799h174v-61h-418zM399 1073q-27 -1 -44 17t-17 45t17 44t44 17t44 -17t17 -44t-16 -45q-18 -18 -45 -17zM72 1073q-27 -1 -44 17t-18 45q0 27 18 44t44 17q27 0 44 -17t17 -44t-17 -45t-44 -17z" />
    <glyph glyph-name="eth" unicode="&#xf0;" horiz-adv-x="972" 
d="M160 410q0 -174 88 -272t226 -99q138 0 224 99q86 100 86 274t-85 276t-225 102t-227 -102q-87 -104 -87 -278zM854 472q0 -228 -93 -362t-283 -133q-190 0 -289 121t-99 313q0 193 104 317t277 124q94 0 169 -39t114 -100q-49 289 -293 526l-199 -178l-37 41l197 176
q-80 72 -191 145l43 39q111 -70 195 -143l143 129l35 -41l-139 -125q166 -164 256 -373t90 -437z" />
    <glyph glyph-name="ntilde" unicode="&#xf1;" horiz-adv-x="1105" 
d="M431 1249q44 0 138 -60q93 -61 133 -61t68 27t61 94l41 -22q-24 -49 -38 -76t-52 -57t-86 -31q-49 0 -142 60q-93 61 -133 61q-41 0 -67 -26t-61 -93l-43 20q23 49 61 107q39 57 120 57zM59 0v61h174v738h-174v61h244v-143q172 166 356 166q117 0 184 -73t66 -212v-537
h174v-61h-417v61h174v525q0 233 -191 233q-164 0 -346 -174v-584h174v-61h-418z" />
    <glyph glyph-name="ograve" unicode="&#xf2;" horiz-adv-x="995" 
d="M586 1040l-342 252l51 64l315 -287zM498 41q154 0 246 104q92 105 92 285t-92 284t-246 105q-154 0 -246 -104q-92 -105 -92 -285t92 -284t246 -105zM498 -23q-176 0 -293 121t-117 332t117 332t294 121t293 -121t116 -332t-118 -332q-116 -121 -292 -121z" />
    <glyph glyph-name="oacute" unicode="&#xf3;" horiz-adv-x="995" 
d="M375 1040l-25 29l316 287l51 -64zM498 41q154 0 246 104q92 105 92 285t-92 284t-246 105q-154 0 -246 -104q-92 -105 -92 -285t92 -284t246 -105zM498 -23q-176 0 -293 121t-117 332t117 332t294 121t293 -121t116 -332t-118 -332q-116 -121 -292 -121z" />
    <glyph glyph-name="ocircumflex" unicode="&#xf4;" horiz-adv-x="995" 
d="M231 1040l-26 29l272 252h41l273 -252l-27 -29l-266 201zM498 41q154 0 246 104q92 105 92 285t-92 284t-246 105q-154 0 -246 -104q-92 -105 -92 -285t92 -284t246 -105zM498 -23q-176 0 -293 121t-117 332t117 332t294 121t293 -121t116 -332t-118 -332
q-116 -121 -292 -121z" />
    <glyph glyph-name="otilde" unicode="&#xf5;" horiz-adv-x="995" 
d="M354 1249q44 0 138 -60q94 -61 133 -61t67 27t62 94l41 -22q-23 -49 -38 -76t-52 -57t-86 -31q-49 0 -143 60q-94 61 -133 61q-41 0 -67 -26t-61 -93l-43 20q23 49 61 107q39 57 121 57zM498 41q154 0 246 104q92 105 92 285t-92 284t-246 105q-154 0 -246 -104
q-92 -105 -92 -285t92 -284t246 -105zM498 -23q-176 0 -293 121t-117 332t117 332t294 121t293 -121t116 -332t-118 -332q-116 -121 -292 -121z" />
    <glyph glyph-name="odieresis" unicode="&#xf6;" horiz-adv-x="995" 
d="M662 1073q-26 -1 -44 17t-18 45t17 44t45 17t44 -17q17 -17 17 -44t-17 -45t-44 -17zM334 1073q-27 -1 -44 17t-18 45q0 27 18 44t44 17q27 0 44 -17t17 -44t-17 -45t-44 -17zM498 41q154 0 246 104q92 105 92 285t-92 284t-246 105q-154 0 -246 -104q-92 -105 -92 -285
t92 -284t246 -105zM498 -23q-176 0 -293 121t-117 332t117 332t294 121t293 -121t116 -332t-118 -332q-116 -121 -292 -121z" />
    <glyph glyph-name="divide" unicode="&#xf7;" horiz-adv-x="1081" 
d="M137 442v62h807v-62h-807zM541 694q-29 0 -49 20t-21 50q1 29 21 49q20 21 49 21t49 -20t20 -50t-20 -50t-49 -20zM541 113q-29 0 -49 20t-21 49q1 29 21 49q20 21 49 21t49 -20t20 -50q0 -29 -20 -49t-49 -20z" />
    <glyph glyph-name="oslash" unicode="&#xf8;" horiz-adv-x="1005" 
d="M494 819q-144 0 -236 -104q-92 -105 -92 -279t78 -274l485 573q-91 84 -235 84zM512 41q146 0 238 104q92 105 92 277t-78 276l-488 -573q90 -84 236 -84zM913 421q-1 -202 -117 -323t-286 -121t-277 99l-86 -101l-36 31l88 105q-105 121 -105 325t117 326
q117 121 284 121t277 -99l86 101l37 -33l-88 -102q106 -127 106 -329z" />
    <glyph glyph-name="ugrave" unicode="&#xf9;" horiz-adv-x="1073" 
d="M563 1040l-342 252l51 64l316 -287zM442 -23q-118 0 -184 73t-65 212v537h-175v61h244v-586q0 -233 191 -233q162 0 346 172v586h-174v61h243v-799h174v-61h-243v141q-175 -164 -357 -164z" />
    <glyph glyph-name="uacute" unicode="&#xfa;" horiz-adv-x="1073" 
d="M408 1040l-25 29l315 287l52 -64zM442 -23q-118 0 -184 73t-65 212v537h-175v61h244v-586q0 -233 191 -233q162 0 346 172v586h-174v61h243v-799h174v-61h-243v141q-175 -164 -357 -164z" />
    <glyph glyph-name="ucircumflex" unicode="&#xfb;" horiz-adv-x="1073" 
d="M231 1040l-26 29l272 252h41l273 -252l-27 -29l-266 201zM442 -23q-118 0 -184 73t-65 212v537h-175v61h244v-586q0 -233 191 -233q162 0 346 172v586h-174v61h243v-799h174v-61h-243v141q-175 -164 -357 -164z" />
    <glyph glyph-name="udieresis" unicode="&#xfc;" horiz-adv-x="1073" 
d="M666 1073q-27 -1 -44 17t-18 45q0 27 18 44t44 17q27 0 44 -17t17 -44t-17 -45t-44 -17zM338 1073q-27 -1 -44 17t-18 45q0 27 18 44t44 17q27 0 44 -17t17 -44t-17 -45t-44 -17zM442 -23q-118 0 -184 73t-65 212v537h-175v61h244v-586q0 -233 191 -233q162 0 346 172
v586h-174v61h243v-799h174v-61h-243v141q-175 -164 -357 -164z" />
    <glyph glyph-name="yacute" unicode="&#xfd;" horiz-adv-x="1046" 
d="M432 1040l-24 29l315 287l51 -64zM239 -430q-83 0 -180 57l23 56q78 -51 149 -52q137 0 197 152l84 217h-63l-281 799h-139v61h397v-59h-184l272 -797l307 797h-182v59h395v-61h-141l-408 -1049q-31 -82 -97 -131t-149 -49z" />
    <glyph glyph-name="thorn" unicode="&#xfe;" horiz-adv-x="997" 
d="M838 430q0 168 -76 278t-234 111q-157 0 -309 -168v-465q133 -145 293 -145t243 111q83 110 83 278zM-25 -408v62h175v1732h-175v62h244v-725q137 160 317 160t277 -131q96 -131 96 -322q0 -192 -101 -322q-102 -130 -282 -130t-307 137v-461h199v-62h-443z" />
    <glyph glyph-name="ydieresis" unicode="&#xff;" horiz-adv-x="1046" 
d="M698 1073q-27 -1 -44 17t-17 45t17 44t44 17t44 -17q18 -17 18 -44t-18 -45t-44 -17zM371 1073q-27 -1 -44 17t-18 45t17 44t45 17t44 -17t17 -44t-17 -45t-44 -17zM239 -430q-83 0 -180 57l23 56q78 -51 149 -52q137 0 197 152l84 217h-63l-281 799h-139v61h397v-59
h-184l272 -797l307 797h-182v59h395v-61h-141l-408 -1049q-31 -82 -97 -131t-149 -49z" />
    <glyph glyph-name="Amacron" unicode="&#x100;" horiz-adv-x="1384" 
d="M408 1399v63h501v-63h-501zM424 502h539l-269 674zM-12 0v66h186l451 1116h-195v65h309l475 -1181h187v-66h-486v66h224l-150 368h-592l-147 -368h223v-66h-485z" />
    <glyph glyph-name="amacron" unicode="&#x101;" horiz-adv-x="933" 
d="M168 1087v62h502v-62h-502zM344 41q154 0 326 149v236h-217q-311 0 -312 -203q-1 -88 57 -135t146 -47zM334 -23q-113 -1 -189 63t-75 183q0 159 136 217q108 47 247 47h217v93q0 133 -54 186t-188 53q-135 0 -289 -61v63q153 61 307 61t224 -70q70 -71 69 -220v-531h170
v-61h-239v117q-172 -140 -336 -140z" />
    <glyph glyph-name="Abreve" unicode="&#x102;" horiz-adv-x="1384" 
d="M666 1368q-113 0 -188 65t-87 199h66q8 -100 64 -148q55 -48 143 -48t144 48t64 148h68q-12 -132 -86 -198t-188 -66zM424 502h539l-269 674zM-12 0v66h186l451 1116h-195v65h309l475 -1181h187v-66h-486v66h224l-150 368h-592l-147 -368h223v-66h-485z" />
    <glyph glyph-name="abreve" unicode="&#x103;" horiz-adv-x="933" 
d="M420 1053q-104 0 -174 60t-82 185h61q15 -182 195 -182t194 182h62q-12 -125 -82 -185t-174 -60zM344 41q154 0 326 149v236h-217q-311 0 -312 -203q-1 -88 57 -135t146 -47zM334 -23q-113 -1 -189 63t-75 183q0 159 136 217q108 47 247 47h217v93q0 133 -54 186t-188 53
q-135 0 -289 -61v63q153 61 307 61t224 -70q70 -71 69 -220v-531h170v-61h-239v117q-172 -140 -336 -140z" />
    <glyph glyph-name="Aogonek" unicode="&#x104;" horiz-adv-x="1384" 
d="M424 502h539l-269 674zM1231 -401q-182 0 -182 151q0 139 155 250h-289v66h224l-150 368h-592l-147 -368h223v-66h-485v66h186l451 1116h-195v65h309l475 -1181h187v-66h-111q-168 -113 -168 -240q0 -104 123 -104q68 0 133 31l4 -54q-69 -34 -151 -34z" />
    <glyph glyph-name="aogonek" unicode="&#x105;" horiz-adv-x="933" 
d="M344 41q154 0 326 149v236h-217q-311 0 -312 -203q-1 -88 57 -135t146 -47zM797 -381q-74 0 -120 35t-46 106q0 133 153 240h-114v117q-172 -139 -336 -140q-113 -1 -189 63t-75 183q0 159 136 217q108 47 247 47h217v93q0 133 -54 186t-188 53q-135 0 -289 -61v63
q153 61 307 61t224 -70q70 -71 69 -220v-531h170v-61h-43q-55 -33 -111 -95t-57 -136q0 -96 113 -97q63 0 125 31l4 -51q-69 -33 -143 -33z" />
    <glyph glyph-name="Cacute" unicode="&#x106;" horiz-adv-x="1255" 
d="M582 1393l-25 30l340 310l55 -70zM752 -25q-281 1 -467 175q-187 174 -187 467t173 474t487 181q225 0 411 -90v-271h-71v232q-147 63 -336 63q-260 0 -424 -152t-164 -434t169 -430t399 -149q230 0 434 115v-70q-191 -111 -424 -111z" />
    <glyph glyph-name="cacute" unicode="&#x107;" horiz-adv-x="892" 
d="M369 1040l-25 29l315 287l52 -64zM518 -23q-198 0 -314 124t-116 329t117 329t317 124q150 0 289 -60v-225h-66v184q-102 37 -223 37q-176 0 -269 -106q-93 -107 -93 -283t97 -282t258 -107q161 0 300 94v-67q-141 -91 -297 -91z" />
    <glyph glyph-name="Ccircumflex" unicode="&#x108;" horiz-adv-x="1255" 
d="M438 1391l-28 30l292 273h46l292 -273l-28 -30l-287 217zM752 -25q-281 1 -467 175q-187 174 -187 467t173 474t487 181q225 0 411 -90v-271h-71v232q-147 63 -336 63q-260 0 -424 -152t-164 -434t169 -430t399 -149q230 0 434 115v-70q-191 -111 -424 -111z" />
    <glyph glyph-name="ccircumflex" unicode="&#x109;" horiz-adv-x="892" 
d="M231 1040l-26 29l272 252h41l273 -252l-27 -29l-266 201zM518 -23q-198 0 -314 124t-116 329t117 329t317 124q150 0 289 -60v-225h-66v184q-102 37 -223 37q-176 0 -269 -106q-93 -107 -93 -283t97 -282t258 -107q161 0 300 94v-67q-141 -91 -297 -91z" />
    <glyph glyph-name="Cdotaccent" unicode="&#x10a;" horiz-adv-x="1255" 
d="M735 1397q-29 0 -49 20t-20 49q0 30 20 50t49 20t49 -20t20 -50t-20 -49q-20 -20 -49 -20zM752 -25q-281 1 -467 175q-187 174 -187 467t173 474t487 181q225 0 411 -90v-271h-71v232q-147 63 -336 63q-260 0 -424 -152t-164 -434t169 -430t399 -149q230 0 434 115v-70
q-191 -111 -424 -111z" />
    <glyph glyph-name="cdotaccent" unicode="&#x10b;" horiz-adv-x="892" 
d="M506 1075q-27 -1 -47 19t-21 49q0 29 20 48t48 19q27 0 47 -19t20 -48t-20 -49t-47 -19zM518 -23q-198 0 -314 124t-116 329t117 329t317 124q150 0 289 -60v-225h-66v184q-102 37 -223 37q-176 0 -269 -106q-93 -107 -93 -283t97 -282t258 -107q161 0 300 94v-67
q-141 -91 -297 -91z" />
    <glyph glyph-name="Ccaron" unicode="&#x10c;" horiz-adv-x="1255" 
d="M709 1399l-293 272l28 31l287 -217l287 217l29 -31l-293 -272h-45zM752 -25q-281 1 -467 175q-187 174 -187 467t173 474t487 181q225 0 411 -90v-271h-71v232q-147 63 -336 63q-260 0 -424 -152t-164 -434t169 -430t399 -149q230 0 434 115v-70q-191 -111 -424 -111z
" />
    <glyph glyph-name="ccaron" unicode="&#x10d;" horiz-adv-x="892" 
d="M479 1053l-272 252l26 28l267 -200l266 200l27 -28l-273 -252h-41zM518 -23q-198 0 -314 124t-116 329t117 329t317 124q150 0 289 -60v-225h-66v184q-102 37 -223 37q-176 0 -269 -106q-93 -107 -93 -283t97 -282t258 -107q161 0 300 94v-67q-141 -91 -297 -91z" />
    <glyph glyph-name="Dcaron" unicode="&#x10e;" horiz-adv-x="1368" 
d="M643 1399l-293 272l29 31l287 -217l286 217l29 -31l-293 -272h-45zM356 66h267q249 0 409 148t160 410t-160 409q-160 148 -409 149h-267v-1116zM72 0v66h211v1116h-211v65h546q257 0 446 -146q93 -73 148 -196q56 -123 56 -281t-56 -282q-101 -225 -355 -305
q-114 -37 -239 -37h-546z" />
    <glyph glyph-name="dcaron" unicode="&#x10f;" horiz-adv-x="1052" 
d="M463 41q98 0 170 45t145 121v467q-137 145 -295 145q-159 -1 -241 -111t-82 -277t76 -279t227 -111zM463 -23q-179 1 -277 133t-98 322t101 321q101 130 281 130t308 -138v641h-198v62h268v-1387h174v-61h-244v135q-135 -158 -315 -158zM1044 1458q34 0 58 -24t24 -81
q0 -58 -32 -128t-86 -125l-41 30q88 109 88 196t-66 91v17q21 24 55 24z" />
    <glyph glyph-name="Dcroat" unicode="&#x110;" horiz-adv-x="1370" 
d="M358 66h267q249 0 409 148t160 410t-160 409q-160 148 -409 149h-267v-520h367v-64h-367v-532zM92 598v64h193v520h-211v65h547q256 0 445 -146q93 -73 148 -196q56 -123 56 -281t-56 -282q-101 -225 -355 -305q-114 -37 -238 -37h-547v66h211v532h-193z" />
    <glyph glyph-name="dcroat" unicode="&#x111;" horiz-adv-x="1052" 
d="M463 41q98 0 170 45t145 121v467q-137 145 -295 145q-159 -1 -241 -111t-82 -277t76 -279t227 -111zM453 1085v60h325v241h-198v62h268v-303h160v-60h-160v-1024h174v-61h-244v135q-135 -158 -315 -158q-179 1 -277 133t-98 322t101 321q101 130 281 130t308 -138v340
h-325z" />
    <glyph glyph-name="Emacron" unicode="&#x112;" horiz-adv-x="1163" 
d="M365 1399v63h501v-63h-501zM72 0v66h211v1116h-211v65h977v-321h-70v256h-623v-520h605v-66h-605v-530h625v253h70v-319h-979z" />
    <glyph glyph-name="emacron" unicode="&#x113;" horiz-adv-x="917" 
d="M217 1087v62h502v-62h-502zM479 821q-137 0 -221 -93t-96 -247h606q-6 141 -79 241t-210 99zM504 -23q-196 0 -306 122t-110 328t108 331t281 125q94 0 168 -40q126 -68 173 -240q30 -111 18 -181h-676q2 -176 93 -278t250 -103q159 0 298 88v-68q-143 -84 -297 -84z" />
    <glyph glyph-name="Ebreve" unicode="&#x114;" horiz-adv-x="1163" 
d="M621 1368q-113 0 -188 65t-87 199h66q8 -100 64 -148t144 -48t143 48q56 48 64 148h68q-13 -132 -87 -198t-187 -66zM72 0v66h211v1116h-211v65h977v-321h-70v256h-623v-520h605v-66h-605v-530h625v253h70v-319h-979z" />
    <glyph glyph-name="ebreve" unicode="&#x115;" horiz-adv-x="917" 
d="M467 1053q-104 0 -174 60t-82 185h61q14 -182 194 -182t196 182h61q-12 -125 -82 -185t-174 -60zM479 821q-137 0 -221 -93t-96 -247h606q-6 141 -79 241t-210 99zM504 -23q-196 0 -306 122t-110 328t108 331t281 125q94 0 168 -40q126 -68 173 -240q30 -111 18 -181
h-676q2 -176 93 -278t250 -103q159 0 298 88v-68q-143 -84 -297 -84z" />
    <glyph glyph-name="Edotaccent" unicode="&#x116;" horiz-adv-x="1163" 
d="M621 1380q-29 0 -49 20t-21 50q0 29 20 49q19 21 49 21t50 -20t20 -50t-20 -50t-49 -20zM72 0v66h211v1116h-211v65h977v-321h-70v256h-623v-520h605v-66h-605v-530h625v253h70v-319h-979z" />
    <glyph glyph-name="edotaccent" unicode="&#x117;" horiz-adv-x="917" 
d="M465 1075q-27 -1 -47 19t-21 49q1 29 21 48t47 19t47 -19t20 -48t-20 -49t-47 -19zM479 821q-137 0 -221 -93t-96 -247h606q-6 141 -79 241t-210 99zM504 -23q-196 0 -306 122t-110 328t108 331t281 125q94 0 168 -40q126 -68 173 -240q30 -111 18 -181h-676
q2 -176 93 -278t250 -103q159 0 298 88v-68q-143 -84 -297 -84z" />
    <glyph glyph-name="Eogonek" unicode="&#x118;" horiz-adv-x="1163" 
d="M754 -250q0 139 155 250h-837v66h211v1116h-211v65h977v-321h-70v256h-623v-520h605v-66h-605v-530h625v253h70v-319h-56q-63 -41 -115 -104t-53 -136q0 -104 123 -104q68 0 133 31l4 -54q-70 -35 -151 -34q-182 0 -182 151z" />
    <glyph glyph-name="eogonek" unicode="&#x119;" horiz-adv-x="917" 
d="M479 821q-137 0 -221 -93t-96 -247h606q-6 141 -79 241t-210 99zM679 -381q-75 0 -120 36t-45 109q0 121 125 230q-66 -16 -135 -17q-196 0 -306 122t-110 328t108 331t281 125q94 0 168 -40q126 -68 173 -240q30 -111 18 -181h-676q2 -176 93 -278t250 -103
q159 0 298 88v-68q-88 -51 -154 -129t-65 -159q0 -100 112 -101q63 0 125 31l4 -51q-69 -33 -144 -33z" />
    <glyph glyph-name="Ecaron" unicode="&#x11a;" horiz-adv-x="1163" 
d="M606 1399l-293 272l29 31l287 -217l286 217l29 -31l-293 -272h-45zM72 0v66h211v1116h-211v65h977v-321h-70v256h-623v-520h605v-66h-605v-530h625v253h70v-319h-979z" />
    <glyph glyph-name="ecaron" unicode="&#x11b;" horiz-adv-x="917" 
d="M446 1053l-272 252l27 28l266 -200l266 200l27 -28l-273 -252h-41zM479 821q-137 0 -221 -93t-96 -247h606q-6 141 -79 241t-210 99zM504 -23q-196 0 -306 122t-110 328t108 331t281 125q94 0 168 -40q126 -68 173 -240q30 -111 18 -181h-676q2 -176 93 -278t250 -103
q159 0 298 88v-68q-143 -84 -297 -84z" />
    <glyph glyph-name="Gcircumflex" unicode="&#x11c;" 
d="M457 1391l-29 30l293 273h45l293 -273l-29 -30l-287 217zM760 -25q-314 1 -488 181t-174 464t177 467q177 184 489 185q211 0 440 -86v-264h-69v221q-199 63 -367 63q-276 0 -436 -160t-160 -420q0 -259 148 -423t432 -164q195 0 403 88v434h-348v66h557v-66h-139v-473
q-246 -113 -465 -113z" />
    <glyph glyph-name="gcircumflex" unicode="&#x11d;" horiz-adv-x="899" 
d="M168 1040l-27 29l273 252h41l272 -252l-27 -29l-266 201zM117 -178q-1 -86 75 -140t226 -53q150 0 248 50q96 50 96 152t-119 141q-86 28 -203 45q-117 16 -159 26q-164 -84 -164 -221zM434 821q-130 0 -196 -76t-66 -172t66 -172q66 -75 196 -75t197 76q66 76 65 171
q0 96 -65 172q-66 76 -197 76zM421 -430q-181 0 -277 69q-95 69 -95 177q0 147 166 247q-78 37 -78 113t101 141q-131 88 -132 256q0 121 83 215t245 95q74 0 135 -23h314v-59l-224 4q103 -89 103 -221t-83 -226t-245 -94q-84 0 -149 27q-82 -51 -82 -101q1 -50 65 -74
q64 -22 157 -34t185 -32t157 -74q65 -56 64 -150q0 -129 -114 -193q-115 -63 -296 -63z" />
    <glyph glyph-name="Gbreve" unicode="&#x11e;" 
d="M752 1378q-113 0 -188 65t-87 199h66q8 -100 64 -148q55 -48 143 -48t144 48t64 148h68q-12 -132 -86 -198t-188 -66zM760 -25q-314 1 -488 181t-174 464t177 467q177 184 489 185q211 0 440 -86v-264h-69v221q-199 63 -367 63q-276 0 -436 -160t-160 -420
q0 -259 148 -423t432 -164q195 0 403 88v434h-348v66h557v-66h-139v-473q-246 -113 -465 -113z" />
    <glyph glyph-name="gbreve" unicode="&#x11f;" horiz-adv-x="899" 
d="M434 1053q-104 0 -174 60t-82 185h62q14 -182 194 -182t195 182h61q-12 -125 -82 -185t-174 -60zM117 -178q-1 -86 75 -140t226 -53q150 0 248 50q96 50 96 152t-119 141q-86 28 -203 45q-117 16 -159 26q-164 -84 -164 -221zM434 821q-130 0 -196 -76t-66 -172t66 -172
q66 -75 196 -75t197 76q66 76 65 171q0 96 -65 172q-66 76 -197 76zM421 -430q-181 0 -277 69q-95 69 -95 177q0 147 166 247q-78 37 -78 113t101 141q-131 88 -132 256q0 121 83 215t245 95q74 0 135 -23h314v-59l-224 4q103 -89 103 -221t-83 -226t-245 -94q-84 0 -149 27
q-82 -51 -82 -101q1 -50 65 -74q64 -22 157 -34t185 -32t157 -74q65 -56 64 -150q0 -129 -114 -193q-115 -63 -296 -63z" />
    <glyph glyph-name="Gdotaccent" unicode="&#x120;" 
d="M758 1397q-29 0 -49 20t-21 49q0 30 20 50t50 20q29 0 49 -20t20 -50t-20 -49q-20 -20 -49 -20zM760 -25q-314 1 -488 181t-174 464t177 467q177 184 489 185q211 0 440 -86v-264h-69v221q-199 63 -367 63q-276 0 -436 -160t-160 -420q0 -259 148 -423t432 -164
q195 0 403 88v434h-348v66h557v-66h-139v-473q-246 -113 -465 -113z" />
    <glyph glyph-name="gdotaccent" unicode="&#x121;" horiz-adv-x="899" 
d="M434 1075q-29 -1 -48 19t-19 49t19 48t48 19t48 -19q20 -19 20 -48t-20 -49t-48 -19zM117 -178q-1 -86 75 -140t226 -53q150 0 248 50q96 50 96 152t-119 141q-86 28 -203 45q-117 16 -159 26q-164 -84 -164 -221zM434 821q-130 0 -196 -76t-66 -172t66 -172
q66 -75 196 -75t197 76q66 76 65 171q0 96 -65 172q-66 76 -197 76zM421 -430q-181 0 -277 69q-95 69 -95 177q0 147 166 247q-78 37 -78 113t101 141q-131 88 -132 256q0 121 83 215t245 95q74 0 135 -23h314v-59l-224 4q103 -89 103 -221t-83 -226t-245 -94q-84 0 -149 27
q-82 -51 -82 -101q1 -50 65 -74q64 -22 157 -34t185 -32t157 -74q65 -56 64 -150q0 -129 -114 -193q-115 -63 -296 -63z" />
    <glyph glyph-name="Gcommaaccent" unicode="&#x122;" 
d="M760 -25q-314 1 -488 181t-174 464t177 467q177 184 489 185q211 0 440 -86v-264h-69v221q-199 63 -367 63q-276 0 -436 -160t-160 -420q0 -259 148 -423t432 -164q195 0 403 88v434h-348v66h557v-66h-139v-473q-246 -113 -465 -113zM740 -172q34 0 59 -24t25 -82
t-32 -128t-87 -124l-41 30q88 109 88 196t-66 91v16q20 25 54 25z" />
    <glyph glyph-name="gcommaaccent" unicode="&#x123;" horiz-adv-x="899" 
d="M117 -178q-1 -86 75 -140t226 -53q150 0 248 50q96 50 96 152t-119 141q-86 28 -203 45q-117 16 -159 26q-164 -84 -164 -221zM434 821q-130 0 -196 -76t-66 -172t66 -172q66 -75 196 -75t197 76q66 76 65 171q0 96 -65 172q-66 76 -197 76zM421 -430q-181 0 -277 69
q-95 69 -95 177q0 147 166 247q-78 37 -78 113t101 141q-131 88 -132 256q0 121 83 215t245 95q74 0 135 -23h314v-59l-224 4q103 -89 103 -221t-83 -226t-245 -94q-84 0 -149 27q-82 -51 -82 -101q1 -50 65 -74q64 -22 157 -34t185 -32t157 -74q65 -56 64 -150
q0 -129 -114 -193q-115 -63 -296 -63zM443 1036q-35 0 -59 24t-24 82t32 128t87 125l41 -31q-88 -109 -88 -196t66 -91v-16q-21 -25 -55 -25z" />
    <glyph glyph-name="Hcircumflex" unicode="&#x124;" horiz-adv-x="1523" 
d="M475 1384l-29 31l293 273h45l293 -273l-28 -31l-287 218zM72 0v66h211v1116h-211v65h495v-65h-211v-516h811v516h-211v65h496v-65h-211v-1116h211v-66h-496v66h211v532h-811v-532h211v-66h-495z" />
    <glyph glyph-name="hcircumflex" unicode="&#x125;" horiz-adv-x="1077" 
d="M-59 1583l-27 29l272 252h41l273 -252l-27 -29l-266 201zM31 0v61h174v1325h-174v62h243v-731q172 166 357 166q117 0 183 -73t67 -212v-537h174v-61h-418v61h174v525q0 233 -190 233q-164 0 -347 -174v-584h175v-61h-418z" />
    <glyph glyph-name="Hbar" unicode="&#x126;" horiz-adv-x="1527" 
d="M358 666h811v237h-811v-237zM100 903v58h185v221h-211v65h495v-65h-211v-221h811v221h-211v65h496v-65h-211v-221h184v-58h-184v-837h211v-66h-496v66h211v532h-811v-532h211v-66h-495v66h211v837h-185z" />
    <glyph glyph-name="hbar" unicode="&#x127;" horiz-adv-x="1077" 
d="M39 1085v60h166v241h-174v62h243v-303h293v-60h-293v-368q172 166 357 166q117 0 183 -73t67 -212v-537h174v-61h-418v61h174v525q0 233 -190 233q-164 0 -347 -174v-584h175v-61h-418v61h174v1024h-166z" />
    <glyph glyph-name="Itilde" unicode="&#x128;" horiz-adv-x="638" 
d="M160 1587q60 0 162 -61q102 -62 145 -62t74 31t65 102l41 -22q-53 -117 -93 -149t-93 -32t-155 62q-102 61 -144 62q-71 -1 -139 -132l-39 19q0 13 26 63t34 57t22 23q36 39 94 39zM72 0v66h211v1116h-211v65h495v-65h-211v-1116h211v-66h-495z" />
    <glyph glyph-name="itilde" unicode="&#x129;" horiz-adv-x="507" 
d="M59 0v61h174v738h-174v61h244v-799h174v-61h-418zM104 1249q44 0 138 -60q94 -61 133 -61t67 27t62 94l41 -22q-23 -49 -38 -76t-52 -57t-86 -31q-49 0 -143 60q-94 61 -133 61q-41 0 -67 -26t-61 -93l-43 20q58 126 110 151q28 13 72 13z" />
    <glyph glyph-name="Imacron" unicode="&#x12a;" horiz-adv-x="638" 
d="M70 1399v63h501v-63h-501zM72 0v66h211v1116h-211v65h495v-65h-211v-1116h211v-66h-495z" />
    <glyph glyph-name="imacron" unicode="&#x12b;" horiz-adv-x="507" 
d="M59 0v61h174v738h-174v61h244v-799h174v-61h-418zM-16 1087v62h501v-62h-501z" />
    <glyph glyph-name="Ibreve" unicode="&#x12c;" horiz-adv-x="638" 
d="M319 1368q-113 0 -187 65t-87 199h66q8 -100 64 -148t143 -48t144 48q56 48 64 148h68q-12 -132 -87 -198t-188 -66zM72 0v66h211v1116h-211v65h495v-65h-211v-1116h211v-66h-495z" />
    <glyph glyph-name="ibreve" unicode="&#x12d;" horiz-adv-x="507" 
d="M59 0v61h174v738h-174v61h244v-799h174v-61h-418zM236 1053q-104 0 -175 60q-70 60 -81 185h61q15 -182 195 -182t194 182h62q-12 -125 -82 -185t-174 -60z" />
    <glyph glyph-name="Iogonek" unicode="&#x12e;" horiz-adv-x="638" 
d="M168 -250q0 139 156 250h-252v66h211v1116h-211v65h495v-65h-211v-1116h211v-66h-157q-64 -41 -116 -104t-52 -136q0 -104 123 -104q68 0 133 31l4 -54q-70 -35 -152 -34q-182 0 -182 151z" />
    <glyph glyph-name="iogonek" unicode="&#x12f;" horiz-adv-x="507" 
d="M184 1194q0 27 20 47q20 21 48 21q27 0 47 -20t20 -48q0 -27 -20 -47q-20 -21 -47 -21q-28 0 -48 20t-20 48zM59 0v61h174v738h-174v61h244v-799h174v-61h-125q-55 -33 -111 -95t-57 -136q0 -96 113 -97q63 0 125 31l4 -51q-70 -33 -144 -33t-119 35q-46 35 -46 106
q0 133 153 240h-211z" />
    <glyph glyph-name="Idotaccent" unicode="&#x130;" horiz-adv-x="638" 
d="M319 1380q-29 0 -49 20t-20 50q0 29 20 49q20 21 49 21t49 -20t21 -50q-1 -30 -21 -50t-49 -20zM72 0v66h211v1116h-211v65h495v-65h-211v-1116h211v-66h-495z" />
    <glyph glyph-name="dotlessi" unicode="&#x131;" horiz-adv-x="507" 
d="M59 0v61h174v738h-174v61h244v-799h174v-61h-418z" />
    <glyph glyph-name="Jcircumflex" unicode="&#x134;" horiz-adv-x="598" 
d="M8 1384l-28 31l292 273h45l293 -273l-28 -31l-287 218zM262 2v1180h-211v65h496v-65h-211v-1186q0 -205 -244 -324l-33 54q203 106 203 276z" />
    <glyph glyph-name="jcircumflex" unicode="&#x135;" horiz-adv-x="434" 
d="M-61 1040l-27 29l272 252h41l273 -252l-27 -29l-266 201zM207 -166v965h-182v61h251v-1032q1 -186 -210 -270l-29 49q170 90 170 227z" />
    <glyph glyph-name="Kcommaaccent" unicode="&#x136;" horiz-adv-x="1331" 
d="M72 0v66h211v1116h-211v65h495v-65h-211v-1116h211v-66h-495zM809 1182v65h483v-65h-182l-535 -547l525 -569h205v-66h-244l-578 631v10l535 541h-209zM747 -162q35 0 59 -24t24 -81q0 -58 -32 -128t-87 -125l-41 31q88 109 88 195t-66 91v17q21 24 55 24z" />
    <glyph glyph-name="kcommaaccent" unicode="&#x137;" horiz-adv-x="999" 
d="M885 -23q-123 0 -264 164l-246 287v8l358 365h-172v59h397v-61h-139l-356 -367l217 -254q115 -135 217 -135q29 0 53 10v-65q-36 -11 -65 -11zM31 0v61h174v1325h-174v62h243v-1387h175v-61h-418zM554 -162q34 0 58 -24t25 -81q0 -58 -32 -128t-87 -125l-41 31
q88 109 88 195t-65 91v17q20 24 54 24z" />
    <glyph glyph-name="kgreenlandic" unicode="&#x138;" horiz-adv-x="1028" 
d="M913 -23q-123 0 -264 164l-246 287v8l359 365h-172v59h397v-61h-139l-356 -367l217 -254q115 -135 217 -135q29 0 53 10v-65q-37 -11 -66 -11zM59 0v61h174v738h-174v61h244v-799h174v-61h-418z" />
    <glyph glyph-name="Lacute" unicode="&#x139;" horiz-adv-x="1107" 
d="M231 1384l-24 31l340 309l55 -69zM72 0v66h211v1116h-211v65h514v-65h-230v-1116h635v264h70v-330h-989z" />
    <glyph glyph-name="lacute" unicode="&#x13a;" horiz-adv-x="479" 
d="M84 1595l-25 29l316 287l51 -64zM31 0v61h174v1325h-174v62h243v-1387h175v-61h-418z" />
    <glyph glyph-name="Lcommaaccent" unicode="&#x13b;" horiz-adv-x="1107" 
d="M72 0v66h211v1116h-211v65h514v-65h-230v-1116h635v264h70v-330h-989zM626 -162q34 0 58 -24t25 -81q0 -58 -32 -128t-87 -125l-41 31q88 109 88 195t-66 91v17q21 24 55 24z" />
    <glyph glyph-name="lcommaaccent" unicode="&#x13c;" horiz-adv-x="479" 
d="M31 0v61h174v1325h-174v62h243v-1387h175v-61h-418zM228 -162q34 0 59 -24t25 -81q0 -58 -32 -128t-87 -125l-41 31q88 109 88 195t-66 91v17q20 24 54 24z" />
    <glyph glyph-name="Lcaron" unicode="&#x13d;" horiz-adv-x="1110" 
d="M72 0v66h211v1116h-211v65h514v-65h-230v-1116h635v264h70v-330h-989zM810 1257q34 1 58 -23t25 -82q0 -58 -32 -128t-87 -125l-41 31q88 110 88 196t-65 91v16q20 24 54 24z" />
    <glyph glyph-name="lcaron" unicode="&#x13e;" horiz-adv-x="479" 
d="M31 0v61h174v1325h-174v62h243v-1387h175v-61h-418zM470 1458q34 0 58 -24t25 -81q0 -58 -32 -128t-87 -125l-41 30q88 109 88 196t-65 91v17q20 24 54 24z" />
    <glyph glyph-name="Ldot" unicode="&#x13f;" horiz-adv-x="1110" 
d="M868 631q-29 0 -49 20t-20 49q0 30 20 50t49 20q30 0 50 -20t20 -50t-20 -49q-20 -20 -50 -20zM72 0v66h211v1116h-211v65h514v-65h-230v-1116h635v264h70v-330h-989z" />
    <glyph glyph-name="ldot" unicode="&#x140;" horiz-adv-x="569" 
d="M516 633q-29 0 -48 19t-19 48q0 28 19 48t48 20t48 -19q20 -19 20 -49t-20 -48q-20 -19 -48 -19zM31 0v61h174v1325h-174v62h243v-1387h175v-61h-418z" />
    <glyph glyph-name="Lslash" unicode="&#x141;" horiz-adv-x="1110" 
d="M285 1182h-211v65h514v-65h-230v-523l385 230l31 -53l-416 -246v-524h635v264h70v-330h-989v66h211v481l-176 -105l-31 52l207 122v566z" />
    <glyph glyph-name="lslash" unicode="&#x142;" horiz-adv-x="514" 
d="M217 1386h-174v62h244v-688l209 119l28 -50l-237 -135v-633h174v-61h-418v61h174v594l-168 -94l-29 49l197 111v665z" />
    <glyph glyph-name="Nacute" unicode="&#x143;" horiz-adv-x="1507" 
d="M653 1384l-24 31l340 309l55 -69zM72 0v66h211v1116h-211v65h286l818 -1128v1063h-211v65h491v-65h-211v-1182h-67l-826 1139v-1073h211v-66h-491z" />
    <glyph glyph-name="nacute" unicode="&#x144;" horiz-adv-x="1105" 
d="M430 1040l-24 29l315 287l51 -64zM59 0v61h174v738h-174v61h244v-143q172 166 356 166q117 0 184 -73t66 -212v-537h174v-61h-417v61h174v525q0 233 -191 233q-164 0 -346 -174v-584h174v-61h-418z" />
    <glyph glyph-name="Ncommaaccent" unicode="&#x145;" horiz-adv-x="1507" 
d="M72 0v66h211v1116h-211v65h286l818 -1128v1063h-211v65h491v-65h-211v-1182h-67l-826 1139v-1073h211v-66h-491zM798 -162q34 0 58 -24t25 -81q0 -58 -32 -128t-87 -125l-41 31q88 109 88 195t-66 91v17q21 24 55 24z" />
    <glyph glyph-name="ncommaaccent" unicode="&#x146;" horiz-adv-x="1105" 
d="M59 0v61h174v738h-174v61h244v-143q172 166 356 166q117 0 184 -73t66 -212v-537h174v-61h-417v61h174v525q0 233 -191 233q-164 0 -346 -174v-584h174v-61h-418zM570 -162q34 0 59 -24t25 -81q0 -58 -32 -128t-87 -125l-41 31q88 109 88 195t-66 91v17q20 24 54 24z" />
    <glyph glyph-name="Ncaron" unicode="&#x147;" horiz-adv-x="1507" 
d="M731 1399l-293 272l29 31l287 -217l286 217l29 -31l-293 -272h-45zM72 0v66h211v1116h-211v65h286l818 -1128v1063h-211v65h491v-65h-211v-1182h-67l-826 1139v-1073h211v-66h-491z" />
    <glyph glyph-name="ncaron" unicode="&#x148;" horiz-adv-x="1105" 
d="M535 1053l-273 252l27 28l266 -200l266 200l27 -28l-273 -252h-40zM59 0v61h174v738h-174v61h244v-143q172 166 356 166q117 0 184 -73t66 -212v-537h174v-61h-417v61h174v525q0 233 -191 233q-164 0 -346 -174v-584h174v-61h-418z" />
    <glyph glyph-name="napostrophe" unicode="&#x149;" horiz-adv-x="1105" 
d="M59 0v61h174v738h-174v61h244v-143q172 166 356 166q117 0 184 -73t66 -212v-537h174v-61h-417v61h174v525q0 233 -191 233q-164 0 -346 -174v-584h174v-61h-418zM185 1370q34 0 59 -24q24 -24 24 -81q0 -58 -32 -128t-86 -125l-41 30q88 109 88 196t-66 91v17
q20 24 54 24z" />
    <glyph glyph-name="Eng" unicode="&#x14a;" horiz-adv-x="1507" 
d="M352 66h211v-66h-491v66h211v1116h-211v65h286l818 -1108v1043h-211v65h491v-65h-211v-1186q0 -205 -244 -324l-32 54q203 106 202 276v27l-819 1110v-1073z" />
    <glyph glyph-name="eng" unicode="&#x14b;" horiz-adv-x="1048" 
d="M840 -166v752q0 233 -191 233q-164 0 -346 -174v-584h174v-61h-418v61h174v738h-174v61h244v-143q172 166 356 166q117 0 184 -73t66 -212v-770q0 -186 -211 -270l-28 49q170 90 170 227z" />
    <glyph glyph-name="Omacron" unicode="&#x14c;" horiz-adv-x="1447" 
d="M473 1407v63h502v-63h-502zM174 622q0 -260 150 -420q150 -161 399 -161q247 0 399 163t152 422t-151 420q-151 160 -399 160t-398 -162q-152 -162 -152 -422zM725 -25q-285 1 -456 185t-171 465t171 464t456 183t455 -183t170 -464t-170 -465t-455 -185z" />
    <glyph glyph-name="omacron" unicode="&#x14d;" horiz-adv-x="995" 
d="M248 1087v62h502v-62h-502zM498 41q154 0 246 104q92 105 92 285t-92 284t-246 105q-154 0 -246 -104q-92 -105 -92 -285t92 -284t246 -105zM498 -23q-176 0 -293 121t-117 332t117 332t294 121t293 -121t116 -332t-118 -332q-116 -121 -292 -121z" />
    <glyph glyph-name="Obreve" unicode="&#x14e;" horiz-adv-x="1447" 
d="M723 1378q-113 0 -187 65t-87 199h65q8 -100 64 -148t144 -48q87 0 143 48t65 148h67q-13 -132 -87 -198t-187 -66zM174 622q0 -260 150 -420q150 -161 399 -161q247 0 399 163t152 422t-151 420q-151 160 -399 160t-398 -162q-152 -162 -152 -422zM725 -25
q-285 1 -456 185t-171 465t171 464t456 183t455 -183t170 -464t-170 -465t-455 -185z" />
    <glyph glyph-name="obreve" unicode="&#x14f;" horiz-adv-x="995" 
d="M498 1053q-104 0 -174 60t-82 185h61q15 -182 195 -182t194 182h62q-12 -125 -82 -185t-174 -60zM498 41q154 0 246 104q92 105 92 285t-92 284t-246 105q-154 0 -246 -104q-92 -105 -92 -285t92 -284t246 -105zM498 -23q-176 0 -293 121t-117 332t117 332t294 121
t293 -121t116 -332t-118 -332q-116 -121 -292 -121z" />
    <glyph glyph-name="Ohungarumlaut" unicode="&#x150;" horiz-adv-x="1447" 
d="M807 1397l-29 22l262 340l62 -55zM502 1397l-29 22l262 340l62 -55zM174 622q0 -260 150 -420q150 -161 399 -161q247 0 399 163t152 422t-151 420q-151 160 -399 160t-398 -162q-152 -162 -152 -422zM725 -25q-285 1 -456 185t-171 465t171 464t456 183t455 -183
t170 -464t-170 -465t-455 -185z" />
    <glyph glyph-name="ohungarumlaut" unicode="&#x151;" horiz-adv-x="995" 
d="M598 1040l-29 23l262 340l62 -55zM293 1040l-29 23l262 340l62 -55zM498 41q154 0 246 104q92 105 92 285t-92 284t-246 105q-154 0 -246 -104q-92 -105 -92 -285t92 -284t246 -105zM498 -23q-176 0 -293 121t-117 332t117 332t294 121t293 -121t116 -332t-118 -332
q-116 -121 -292 -121z" />
    <glyph glyph-name="OE" unicode="&#x152;" horiz-adv-x="1757" 
d="M727 66h182v1116h-182q-251 0 -401 -148t-150 -410t150 -410t401 -148zM729 0q-293 0 -461 173t-168 449t168 451q168 174 461 174h913v-321h-69v256h-592v-520h573v-66h-573v-530h594v253h70v-319h-916z" />
    <glyph glyph-name="oe" unicode="&#x153;" horiz-adv-x="1656" 
d="M1218 821q-137 0 -221 -93t-96 -247h606q-6 141 -79 241t-210 99zM496 41q154 0 244 103q90 104 89 286q0 182 -90 286q-89 104 -243 103q-154 0 -245 -104q-91 -105 -91 -285t91 -284t245 -105zM494 -23q-174 0 -290 121t-116 332t116 332t292 121q131 0 227 -71
t141 -202q39 127 131 200t204 73q279 0 359 -280q19 -71 19 -120t-2 -61h-676q2 -176 93 -278t250 -103q159 0 298 88v-68q-144 -84 -294 -84t-248 71q-97 71 -136 198q-45 -129 -142 -199t-226 -70z" />
    <glyph glyph-name="Racute" unicode="&#x154;" horiz-adv-x="1265" 
d="M492 1384l-25 31l340 309l55 -69zM356 580h267q197 0 298 76t101 224t-101 225t-298 77h-267v-602zM72 0v66h211v1116h-211v65h551q158 0 297 -61q178 -78 178 -318q0 -128 -86 -218t-232 -120l252 -464h207v-66h-252l-280 518q-29 -4 -84 -4h-267v-448h211v-66h-495z
" />
    <glyph glyph-name="racute" unicode="&#x155;" horiz-adv-x="698" 
d="M276 1040l-24 29l315 287l51 -64zM59 0v61h174v738h-174v61h244v-188q154 211 348 211h21v-70h-17q-170 0 -352 -199v-553h193v-61h-437z" />
    <glyph glyph-name="Rcommaaccent" unicode="&#x156;" horiz-adv-x="1265" 
d="M356 580h267q197 0 298 76t101 224t-101 225t-298 77h-267v-602zM72 0v66h211v1116h-211v65h551q158 0 297 -61q178 -78 178 -318q0 -128 -86 -218t-232 -120l252 -464h207v-66h-252l-280 518q-29 -4 -84 -4h-267v-448h211v-66h-495zM716 -162q34 0 58 -24t25 -81
q0 -58 -32 -128t-87 -125l-41 31q88 109 88 195t-65 91v17q20 24 54 24z" />
    <glyph glyph-name="rcommaaccent" unicode="&#x157;" horiz-adv-x="698" 
d="M59 0v61h174v738h-174v61h244v-188q154 211 348 211h21v-70h-17q-170 0 -352 -199v-553h193v-61h-437zM257 -162q35 0 59 -24t24 -81q0 -58 -32 -128t-87 -125l-41 31q88 109 88 195t-65 91v17q20 24 54 24z" />
    <glyph glyph-name="Rcaron" unicode="&#x158;" horiz-adv-x="1265" 
d="M602 1399l-293 272l29 31l287 -217l286 217l29 -31l-293 -272h-45zM356 580h267q197 0 298 76t101 224t-101 225t-298 77h-267v-602zM72 0v66h211v1116h-211v65h551q158 0 297 -61q178 -78 178 -318q0 -128 -86 -218t-232 -120l252 -464h207v-66h-252l-280 518
q-29 -4 -84 -4h-267v-448h211v-66h-495z" />
    <glyph glyph-name="rcaron" unicode="&#x159;" horiz-adv-x="698" 
d="M371 1053l-273 252l27 28l266 -200l266 200l27 -28l-272 -252h-41zM59 0v61h174v738h-174v61h244v-188q154 211 348 211h21v-70h-17q-170 0 -352 -199v-553h193v-61h-437z" />
    <glyph glyph-name="Sacute" unicode="&#x15a;" horiz-adv-x="1032" 
d="M408 1393l-25 30l340 310l55 -70zM936 293q0 -152 -112 -235t-322 -83q-209 0 -398 62v256h70v-205q152 -47 330 -47t269 68t91 178t-76 178q-76 67 -184 105t-214 78q-108 40 -184 118t-75 206q0 128 99 214t290 86t369 -53v-254h-72v202q-133 37 -293 37t-241 -68
q-80 -68 -80 -169q0 -100 76 -166q75 -66 183 -104t216 -80q108 -43 182 -123q76 -80 76 -201z" />
    <glyph glyph-name="sacute" unicode="&#x15b;" horiz-adv-x="794" 
d="M293 1040l-25 29l316 287l51 -64zM389 -23q-145 0 -299 52v198h64v-151q118 -35 232 -35t188 39t73 117q0 79 -55 121t-134 66t-158 50t-134 80q-55 55 -55 151t78 157q79 60 217 60t270 -42v-197h-66v150q-98 27 -204 27t-167 -44q-63 -43 -63 -116q0 -74 55 -116
t135 -65t157 -48q189 -63 189 -239q0 -102 -88 -158q-90 -56 -235 -57z" />
    <glyph glyph-name="Scircumflex" unicode="&#x15c;" horiz-adv-x="1032" 
d="M248 1391l-29 30l293 273h45l293 -273l-29 -30l-286 217zM936 293q0 -152 -112 -235t-322 -83q-209 0 -398 62v256h70v-205q152 -47 330 -47t269 68t91 178t-76 178q-76 67 -184 105t-214 78q-108 40 -184 118t-75 206q0 128 99 214t290 86t369 -53v-254h-72v202
q-133 37 -293 37t-241 -68q-80 -68 -80 -169q0 -100 76 -166q75 -66 183 -104t216 -80q108 -43 182 -123q76 -80 76 -201z" />
    <glyph glyph-name="scircumflex" unicode="&#x15d;" horiz-adv-x="794" 
d="M147 1040l-26 29l272 252h41l273 -252l-27 -29l-266 201zM389 -23q-145 0 -299 52v198h64v-151q118 -35 232 -35t188 39t73 117q0 79 -55 121t-134 66t-158 50t-134 80q-55 55 -55 151t78 157q79 60 217 60t270 -42v-197h-66v150q-98 27 -204 27t-167 -44
q-63 -43 -63 -116q0 -74 55 -116t135 -65t157 -48q189 -63 189 -239q0 -102 -88 -158q-90 -56 -235 -57z" />
    <glyph glyph-name="Scedilla" unicode="&#x15e;" horiz-adv-x="1032" 
d="M468 -381q-76 0 -112 6l17 56q41 -4 69 -5q174 0 174 99q0 92 -182 92v35l37 73q-207 6 -367 62v256h70v-205q152 -47 330 -47t269 68t91 178t-76 178q-76 67 -184 105t-214 78q-108 40 -184 118t-75 206q0 128 99 214t290 86t369 -53v-254h-72v202q-133 37 -293 37
t-241 -68q-80 -68 -80 -169q0 -100 76 -166q75 -66 183 -104t216 -80q108 -43 182 -123q76 -80 76 -214t-106 -216t-298 -89l-22 -61q70 -4 123 -37t53 -109t-71 -112q-71 -37 -147 -37z" />
    <glyph glyph-name="scedilla" unicode="&#x15f;" horiz-adv-x="794" 
d="M563 -232q0 -76 -71 -112q-70 -37 -146 -37t-113 6l17 56q41 -4 69 -5q174 0 175 99q0 92 -183 92v35l37 78q-133 6 -258 49v198h64v-151q118 -35 232 -35t188 39t73 117q0 79 -55 121t-134 66t-158 50t-134 80q-55 55 -55 151t78 157q79 60 217 60t270 -42v-197h-66v150
q-98 27 -204 27t-167 -44q-63 -43 -63 -116q0 -74 55 -116t135 -65t158 -49t133 -80q55 -56 55 -156t-83 -156q-84 -56 -219 -61l-23 -63q70 -4 123 -37t53 -109z" />
    <glyph glyph-name="Scaron" unicode="&#x160;" horiz-adv-x="1032" 
d="M518 1399l-293 272l29 31l287 -217l286 217l29 -31l-293 -272h-45zM936 293q0 -152 -112 -235t-322 -83q-209 0 -398 62v256h70v-205q152 -47 330 -47t269 68t91 178t-76 178q-76 67 -184 105t-214 78q-108 40 -184 118t-75 206q0 128 99 214t290 86t369 -53v-254h-72
v202q-133 37 -293 37t-241 -68q-80 -68 -80 -169q0 -100 76 -166q75 -66 183 -104t216 -80q108 -43 182 -123q76 -80 76 -201z" />
    <glyph glyph-name="scaron" unicode="&#x161;" horiz-adv-x="794" 
d="M395 1053l-272 252l27 28l266 -200l266 200l27 -28l-273 -252h-41zM389 -23q-145 0 -299 52v198h64v-151q118 -35 232 -35t188 39t73 117q0 79 -55 121t-134 66t-158 50t-134 80q-55 55 -55 151t78 157q79 60 217 60t270 -42v-197h-66v150q-98 27 -204 27t-167 -44
q-63 -43 -63 -116q0 -74 55 -116t135 -65t157 -48q189 -63 189 -239q0 -102 -88 -158q-90 -56 -235 -57z" />
    <glyph glyph-name="Tcommaaccent" unicode="&#x162;" horiz-adv-x="1171" 
d="M328 0v66h221v1116h-430v-240h-70v305h1073v-305h-69v240h-430v-1116h221v-66h-516zM572 -162q34 0 59 -24t25 -81q0 -58 -32 -128t-87 -125l-41 31q88 109 88 195t-66 91v17q20 24 54 24z" />
    <glyph glyph-name="tcommaaccent" unicode="&#x163;" horiz-adv-x="595" 
d="M266 225q0 -186 166 -186q84 0 141 22v-59q-73 -25 -119 -25t-65 1q-18 0 -58 14t-66 37q-25 23 -47 71t-21 119v580h-150v61h150v225h69v-225h297v-61h-297v-574zM366 -162q34 0 58 -24t25 -81q0 -58 -32 -128t-87 -125l-41 31q88 109 88 195t-66 91v17q21 24 55 24z
" />
    <glyph glyph-name="Tcaron" unicode="&#x164;" horiz-adv-x="1171" 
d="M563 1399l-293 272l29 31l287 -217l286 217l29 -31l-293 -272h-45zM328 0v66h221v1116h-430v-240h-70v305h1073v-305h-69v240h-430v-1116h221v-66h-516z" />
    <glyph glyph-name="tcaron" unicode="&#x165;" horiz-adv-x="595" 
d="M266 225q0 -186 166 -186q84 0 141 22v-59q-73 -25 -119 -25t-65 1q-18 0 -58 14t-66 37q-25 23 -47 71t-21 119v580h-150v61h150v225h69v-225h297v-61h-297v-574zM497 1376q35 0 59 -24t24 -81q0 -58 -32 -128t-87 -125l-41 31q88 109 88 195t-66 91v17q21 24 55 24z
" />
    <glyph glyph-name="Tbar" unicode="&#x166;" horiz-adv-x="1183" 
d="M240 592v63h315v527h-430v-240h-70v305h1073v-305h-69v240h-430v-527h315v-63h-315v-526h221v-66h-516v66h221v526h-315z" />
    <glyph glyph-name="tbar" unicode="&#x167;" horiz-adv-x="598" 
d="M266 225q0 -186 166 -186q84 0 141 22v-59q-74 -25 -120 -25t-64 1q-18 0 -58 14t-66 37q-25 23 -47 71t-21 119v236h-140v57h140v287h-150v61h150v225h69v-225h297v-61h-297v-287h258v-57h-258v-230z" />
    <glyph glyph-name="Utilde" unicode="&#x168;" 
d="M559 1587q59 0 161 -61q102 -62 146 -62q43 0 74 31t66 102l41 -22q-53 -117 -93 -149t-94 -32q-53 0 -154 62q-101 61 -145 62q-71 -1 -139 -132l-39 19q0 2 12 29q13 28 15 32l14 28t19 31t21 23q36 39 95 39zM1163 397q-1 -203 -123 -313t-329 -109q-207 0 -334 113
t-127 311v783h-211v65h496v-65h-211v-781q0 -182 110 -270t279 -88q168 0 274 89t107 269v781h-211v65h491v-65h-211v-785z" />
    <glyph glyph-name="utilde" unicode="&#x169;" horiz-adv-x="1073" 
d="M364 1249q44 0 138 -60q94 -61 134 -61t66 27t62 94l41 -22q-23 -49 -38 -76t-52 -57t-86 -31q-49 0 -143 60q-94 61 -133 61q-41 0 -67 -26t-61 -93l-43 20q58 126 110 151q28 13 72 13zM442 -23q-118 0 -184 73t-65 212v537h-175v61h244v-586q0 -233 191 -233
q162 0 346 172v586h-174v61h243v-799h174v-61h-243v141q-175 -164 -357 -164z" />
    <glyph glyph-name="Umacron" unicode="&#x16a;" 
d="M455 1399v63h501v-63h-501zM1163 397q-1 -203 -123 -313t-329 -109q-207 0 -334 113t-127 311v783h-211v65h496v-65h-211v-781q0 -182 110 -270t279 -88q168 0 274 89t107 269v781h-211v65h491v-65h-211v-785z" />
    <glyph glyph-name="umacron" unicode="&#x16b;" horiz-adv-x="1073" 
d="M229 1087v62h502v-62h-502zM442 -23q-118 0 -184 73t-65 212v537h-175v61h244v-586q0 -233 191 -233q162 0 346 172v586h-174v61h243v-799h174v-61h-243v141q-175 -164 -357 -164z" />
    <glyph glyph-name="Ubreve" unicode="&#x16c;" 
d="M711 1368q-113 0 -188 65t-87 199h66q8 -100 64 -148t144 -48t143 48q56 48 65 148h67q-13 -132 -87 -198t-187 -66zM1163 397q-1 -203 -123 -313t-329 -109q-207 0 -334 113t-127 311v783h-211v65h496v-65h-211v-781q0 -182 110 -270t279 -88q168 0 274 89t107 269v781
h-211v65h491v-65h-211v-785z" />
    <glyph glyph-name="ubreve" unicode="&#x16d;" horiz-adv-x="1073" 
d="M492 1053q-104 0 -175 60q-70 60 -81 185h61q15 -182 195 -182t194 182h62q-12 -125 -82 -185t-174 -60zM442 -23q-118 0 -184 73t-65 212v537h-175v61h244v-586q0 -233 191 -233q162 0 346 172v586h-174v61h243v-799h174v-61h-243v141q-175 -164 -357 -164z" />
    <glyph glyph-name="Uring" unicode="&#x16e;" 
d="M713 1415q69 0 105 44q36 43 36 105t-37 106t-105 44t-104 -44q-37 -44 -37 -105t37 -105t105 -45zM713 1364q-92 0 -149 57q-56 57 -56 143t56 144q56 57 148 57t149 -57t57 -143q0 -85 -56 -143t-149 -58zM1163 397q-1 -203 -123 -313t-329 -109q-207 0 -334 113
t-127 311v783h-211v65h496v-65h-211v-781q0 -182 110 -270t279 -88q168 0 274 89t107 269v781h-211v65h491v-65h-211v-785z" />
    <glyph glyph-name="uring" unicode="&#x16f;" horiz-adv-x="1073" 
d="M492 1085q68 0 104 44q36 43 37 105q0 62 -37 106q-36 44 -104 44t-105 -44t-37 -105t37 -105t105 -45zM492 1034q-92 0 -148 58t-57 143q0 86 56 143q57 58 149 58t148 -58t56 -143t-56 -143t-148 -58zM442 -23q-118 0 -184 73t-65 212v537h-175v61h244v-586
q0 -233 191 -233q162 0 346 172v586h-174v61h243v-799h174v-61h-243v141q-175 -164 -357 -164z" />
    <glyph glyph-name="Uhungarumlaut" unicode="&#x170;" 
d="M819 1389l-28 22l262 340l61 -55zM514 1389l-29 22l263 340l61 -55zM1163 397q-1 -203 -123 -313t-329 -109q-207 0 -334 113t-127 311v783h-211v65h496v-65h-211v-781q0 -182 110 -270t279 -88q168 0 274 89t107 269v781h-211v65h491v-65h-211v-785z" />
    <glyph glyph-name="uhungarumlaut" unicode="&#x171;" horiz-adv-x="1073" 
d="M590 1040l-29 23l262 340l62 -55zM285 1040l-29 23l262 340l62 -55zM442 -23q-118 0 -184 73t-65 212v537h-175v61h244v-586q0 -233 191 -233q162 0 346 172v586h-174v61h243v-799h174v-61h-243v141q-175 -164 -357 -164z" />
    <glyph glyph-name="Uogonek" unicode="&#x172;" horiz-adv-x="1417" 
d="M858 -401q-182 0 -182 151q0 127 135 234q-41 -8 -96 -9q-211 0 -338 113t-127 311v783h-211v65h496v-65h-211v-781q0 -182 110 -270t279 -88q168 0 274 89t107 269v781h-211v65h491v-65h-211v-785q0 -109 -38 -189q-37 -80 -75 -115q-38 -34 -92 -64
q-209 -125 -208 -262q0 -111 120 -111q70 0 136 31l4 -54q-70 -34 -152 -34z" />
    <glyph glyph-name="uogonek" unicode="&#x173;" horiz-adv-x="1073" 
d="M932 -381q-74 0 -120 35t-46 106q0 133 154 240h-121v141q-174 -164 -357 -164q-118 0 -184 73t-65 212v537h-175v61h244v-586q0 -233 191 -233q162 0 346 172v586h-174v61h243v-799h174v-61h-41q-55 -33 -111 -95t-56 -136q0 -96 112 -97q63 0 125 31l4 -51
q-69 -33 -143 -33z" />
    <glyph glyph-name="Wcircumflex" unicode="&#x174;" horiz-adv-x="1902" 
d="M653 1384l-28 31l293 273h45l292 -273l-28 -31l-287 218zM-14 1182v65h481v-65h-223l344 -1067l327 932l-47 135h-184v65h479v-65h-223l375 -1067l344 1067h-223v65h481v-65h-184l-385 -1182h-62l-334 944l-336 -944h-61l-385 1182h-184z" />
    <glyph glyph-name="wcircumflex" unicode="&#x175;" horiz-adv-x="1492" 
d="M479 1040l-26 29l272 252h41l272 -252l-26 -29l-267 201zM23 799v61h395v-61h-187l220 -684l264 745h63l264 -745l220 684h-187v61h395v-61h-137l-262 -799h-53l-273 756l-270 -756h-53l-262 799h-137z" />
    <glyph glyph-name="Ycircumflex" unicode="&#x176;" horiz-adv-x="1273" 
d="M352 1384l-28 31l292 273h46l292 -273l-28 -31l-287 218zM389 0v66h211v415l-428 701h-188v65h487v-65h-217l383 -635l385 635h-215v65h483v-65h-188l-428 -701v-415h211v-66h-496z" />
    <glyph glyph-name="ycircumflex" unicode="&#x177;" horiz-adv-x="1046" 
d="M268 1040l-26 29l272 252h41l272 -252l-26 -29l-266 201zM239 -430q-83 0 -180 57l23 56q78 -51 149 -52q137 0 197 152l84 217h-63l-281 799h-139v61h397v-59h-184l272 -797l307 797h-182v59h395v-61h-141l-408 -1049q-31 -82 -97 -131t-149 -49z" />
    <glyph glyph-name="Ydieresis" unicode="&#x178;" horiz-adv-x="1273" 
d="M803 1399q-29 0 -47 19t-19 46q1 27 19 46q18 20 47 20t47 -20t18 -46q0 -27 -18 -46t-47 -19zM476 1399q-28 0 -47 19t-19 46t19 46q19 20 47 20t46 -20t18 -46q0 -27 -18 -46t-46 -19zM389 0v66h211v415l-428 701h-188v65h487v-65h-217l383 -635l385 635h-215v65h483
v-65h-188l-428 -701v-415h211v-66h-496z" />
    <glyph glyph-name="Zacute" unicode="&#x179;" horiz-adv-x="1118" 
d="M430 1384l-24 31l339 309l56 -69zM88 0v59l821 1121h-739v-240h-74v307h901v-63l-821 -1118h785v258h73v-324h-946z" />
    <glyph glyph-name="zacute" unicode="&#x17a;" horiz-adv-x="839" 
d="M309 1040l-24 29l315 287l51 -64zM86 0v53l573 750h-501v-176h-68v233h653v-51l-571 -748h516v187h66v-248h-668z" />
    <glyph glyph-name="Zdotaccent" unicode="&#x17b;" horiz-adv-x="1118" 
d="M557 1380q-29 0 -49 20t-21 50q1 29 21 49q20 21 49 21t49 -20t20 -50t-20 -50t-49 -20zM88 0v59l821 1121h-739v-240h-74v307h901v-63l-821 -1118h785v258h73v-324h-946z" />
    <glyph glyph-name="zdotaccent" unicode="&#x17c;" horiz-adv-x="839" 
d="M420 1075q-27 -1 -47 19t-21 49q0 29 20 48t48 19q27 0 47 -19t20 -48t-20 -49t-47 -19zM86 0v53l573 750h-501v-176h-68v233h653v-51l-571 -748h516v187h66v-248h-668z" />
    <glyph glyph-name="Zcaron" unicode="&#x17d;" horiz-adv-x="1118" 
d="M541 1399l-293 272l28 31l287 -217l287 217l29 -31l-293 -272h-45zM88 0v59l821 1121h-739v-240h-74v307h901v-63l-821 -1118h785v258h73v-324h-946z" />
    <glyph glyph-name="zcaron" unicode="&#x17e;" horiz-adv-x="839" 
d="M401 1053l-272 252l27 28l266 -200l266 200l27 -28l-273 -252h-41zM86 0v53l573 750h-501v-176h-68v233h653v-51l-571 -748h516v187h66v-248h-668z" />
    <glyph glyph-name="longs" unicode="&#x17f;" horiz-adv-x="530" 
d="M66 0v61h174v738h-189v61h189v352q0 129 71 194q72 65 205 64q68 0 139 -14v-59q-78 12 -129 12q-115 0 -166 -50t-51 -151v-1147h207v-61h-450z" />
    <glyph glyph-name="AEacute" unicode="&#x1fc;" horiz-adv-x="1867" 
d="M1075 1384l-24 31l340 309l55 -69zM1020 496v686h-27l-463 -686h490zM-18 0v66h176l755 1116h-174v65h1014v-321h-70v256h-591v-520h573v-66h-573v-530h594v253h69v-319h-946v66h211v364h-533l-245 -364h192v-66h-452z" />
    <glyph glyph-name="aeacute" unicode="&#x1fd;" horiz-adv-x="1486" 
d="M672 1040l-25 29l316 287l51 -64zM1048 821q-137 0 -221 -93t-96 -247h606q-6 141 -79 241t-210 99zM356 41q182 0 363 141q-51 106 -51 240h-215q-311 0 -312 -199q-1 -88 59 -135t156 -47zM344 -23q-117 1 -196 63t-78 181q0 161 136 215q112 45 247 45h217v99
q0 133 -54 186t-188 53q-135 0 -289 -61v63q154 61 307 62q244 0 277 -199q102 199 324 199q93 0 167 -40q124 -68 174 -240q19 -71 19 -120t-2 -61h-676q2 -176 93 -278t250 -103q159 0 298 88v-68q-143 -84 -297 -84q-221 0 -328 156q-72 -59 -178 -107t-223 -49z" />
    <glyph glyph-name="Oslashacute" unicode="&#x1fe;" horiz-adv-x="1447" 
d="M578 1393l-25 30l340 310l55 -70zM725 1206q-247 0 -399 -160t-152 -425q0 -264 160 -428l739 897q-145 116 -348 116zM742 41q228 0 380 161t152 425t-162 426l-737 -897q139 -115 367 -115zM725 -25q-233 0 -395 127l-101 -122l-43 34l103 125q-191 181 -191 473
t170 476t457 184q229 0 391 -127l103 123l43 -35l-103 -125q191 -180 191 -473t-170 -477t-455 -183z" />
    <glyph glyph-name="oslashacute" unicode="&#x1ff;" horiz-adv-x="1003" 
d="M381 1040l-25 29l316 287l51 -64zM494 819q-144 0 -236 -104q-92 -105 -92 -279t78 -274l485 573q-91 84 -235 84zM512 41q146 0 238 104q92 105 92 277t-78 276l-488 -573q90 -84 236 -84zM913 421q-1 -202 -117 -323t-286 -121t-277 99l-86 -101l-36 31l88 105
q-105 121 -105 325t117 326q117 121 284 121t277 -99l86 101l37 -33l-88 -102q106 -127 106 -329z" />
    <glyph glyph-name="Scommaaccent" unicode="&#x218;" horiz-adv-x="1032" 
d="M936 293q0 -152 -112 -235t-322 -83q-209 0 -398 62v256h70v-205q152 -47 330 -47t269 68t91 178t-76 178q-76 67 -184 105t-214 78q-108 40 -184 118t-75 206q0 128 99 214t290 86t369 -53v-254h-72v202q-133 37 -293 37t-241 -68q-80 -68 -80 -169q0 -100 76 -166
q75 -66 183 -104t216 -80q108 -43 182 -123q76 -80 76 -201zM536 -172q34 0 58 -24t24 -82t-32 -128t-86 -124l-41 30q88 109 88 196t-66 91v16q21 25 55 25z" />
    <glyph glyph-name="scommaaccent" unicode="&#x219;" horiz-adv-x="794" 
d="M389 -23q-145 0 -299 52v198h64v-151q118 -35 232 -35t188 39t73 117q0 79 -55 121t-134 66t-158 50t-134 80q-55 55 -55 151t78 157q79 60 217 60t270 -42v-197h-66v150q-98 27 -204 27t-167 -44q-63 -43 -63 -116q0 -74 55 -116t135 -65t157 -48q189 -63 189 -239
q0 -102 -88 -158q-90 -56 -235 -57zM405 -172q35 0 59 -24t24 -82t-32 -128t-87 -124l-41 30q88 109 88 196t-66 91v16q21 25 55 25z" />
    <glyph glyph-name="uni021A" unicode="&#x21a;" horiz-adv-x="1171" 
d="M328 0v66h221v1116h-430v-240h-70v305h1073v-305h-69v240h-430v-1116h221v-66h-516zM572 -162q34 0 59 -24t25 -81q0 -58 -32 -128t-87 -125l-41 31q88 109 88 195t-66 91v17q20 24 54 24z" />
    <glyph glyph-name="uni021B" unicode="&#x21b;" horiz-adv-x="595" 
d="M266 225q0 -186 166 -186q84 0 141 22v-59q-73 -25 -119 -25t-65 1q-18 0 -58 14t-66 37q-25 23 -47 71t-21 119v580h-150v61h150v225h69v-225h297v-61h-297v-574zM366 -162q34 0 58 -24t25 -81q0 -58 -32 -128t-87 -125l-41 31q88 109 88 195t-66 91v17q21 24 55 24z
" />
    <glyph glyph-name="dotlessj" unicode="&#x237;" horiz-adv-x="434" 
d="M207 -166v965h-182v61h251v-1032q1 -186 -210 -270l-29 49q170 90 170 227z" />
    <glyph glyph-name="circumflex" unicode="&#x2c6;" horiz-adv-x="888" 
d="M172 1040l-27 29l273 252h41l272 -252l-26 -29l-267 201z" />
    <glyph glyph-name="caron" unicode="&#x2c7;" horiz-adv-x="909" 
d="M422 1053l-272 252l26 28l266 -200l267 200l26 -28l-272 -252h-41z" />
    <glyph glyph-name="breve" unicode="&#x2d8;" horiz-adv-x="737" 
d="M358 1053q-104 0 -174 60t-82 185h62q14 -182 194 -182t195 182h61q-12 -125 -82 -185t-174 -60z" />
    <glyph glyph-name="dotaccent" unicode="&#x2d9;" horiz-adv-x="495" 
d="M246 1075q-29 -1 -48 19t-20 49q0 29 20 48t48 19q29 0 48 -19t19 -48t-19 -49t-48 -19z" />
    <glyph glyph-name="ring" unicode="&#x2da;" horiz-adv-x="747" 
d="M383 1085q69 0 105 44q36 43 36 105t-37 106t-105 44t-104 -44t-36 -105t36 -105t105 -45zM383 1034q-93 0 -149 58t-56 143q0 86 56 143q56 58 148 58t149 -58t57 -143t-56 -143t-149 -58z" />
    <glyph glyph-name="ogonek" unicode="&#x2db;" horiz-adv-x="544" 
d="M299 -381q-74 0 -120 35t-46 106q0 147 199 269l41 -27q-81 -47 -127 -115q-45 -67 -45 -118q0 -96 112 -97q63 0 125 31l4 -51q-69 -33 -143 -33z" />
    <glyph glyph-name="tilde" unicode="&#x2dc;" horiz-adv-x="940" 
d="M339 1249q44 0 138 -60q94 -61 134 -61t67 27t61 94l41 -22q-23 -49 -38 -76t-52 -57t-86 -31q-49 0 -142 60q-93 61 -133 61q-41 0 -67 -26t-61 -93l-43 20q60 127 110 151q28 13 71 13z" />
    <glyph glyph-name="hungarumlaut" unicode="&#x2dd;" horiz-adv-x="899" 
d="M467 1040l-29 23l262 340l62 -55zM162 1040l-29 23l262 340l62 -55z" />
    <glyph glyph-name="endash" unicode="&#x2013;" horiz-adv-x="1140" 
d="M129 436v68h883v-68h-883z" />
    <glyph glyph-name="emdash" unicode="&#x2014;" horiz-adv-x="1513" 
d="M129 436v68h1255v-68h-1255z" />
    <glyph glyph-name="quoteleft" unicode="&#x2018;" horiz-adv-x="368" 
d="M174 936q-70 0 -70 84q0 57 37 138t97 142l36 -26q-84 -102 -94 -211q29 -1 46 -19q18 -18 18 -45t-20 -45t-50 -18z" />
    <glyph glyph-name="quoteright" unicode="&#x2019;" horiz-adv-x="362" 
d="M205 1303q70 0 69 -84q0 -57 -36 -139t-97 -142l-37 27q84 102 95 211q-29 0 -46 18t-17 45t18 45q20 18 51 19z" />
    <glyph glyph-name="quotesinglbase" unicode="&#x201a;" horiz-adv-x="440" 
d="M221 121q70 0 70 -84q0 -57 -37 -138t-96 -143l-37 27q84 102 94 211q-29 0 -46 18t-17 45t19 45t50 19z" />
    <glyph glyph-name="quotedblleft" unicode="&#x201c;" horiz-adv-x="679" 
d="M174 936q-70 0 -70 84q0 57 37 138t97 142l36 -26q-84 -102 -94 -211q29 -1 46 -19q18 -18 18 -45t-20 -45t-50 -18zM485 936q-70 0 -69 84q0 57 37 138t96 142l37 -26q-84 -102 -94 -211q29 -1 46 -19t17 -45q1 -27 -19 -45t-51 -18z" />
    <glyph glyph-name="quotedblright" unicode="&#x201d;" horiz-adv-x="673" 
d="M516 1303q70 0 70 -84q0 -57 -37 -139t-96 -142l-37 27q84 102 94 211q-29 0 -46 18q-18 18 -18 45t20 45t50 19zM205 1303q70 0 69 -84q0 -57 -36 -139t-97 -142l-37 27q84 102 95 211q-29 0 -46 18t-17 45t18 45q20 18 51 19z" />
    <glyph glyph-name="quotedblbase" unicode="&#x201e;" horiz-adv-x="751" 
d="M532 121q70 0 70 -84q0 -57 -37 -138t-96 -143l-37 27q84 102 94 211q-29 0 -46 18t-17 45t19 45t50 19zM221 121q70 0 70 -84q0 -57 -37 -138t-96 -143l-37 27q84 102 94 211q-29 0 -46 18t-17 45t19 45t50 19z" />
    <glyph glyph-name="dagger" unicode="&#x2020;" horiz-adv-x="888" 
d="M444 -78q-29 0 -28 62q0 24 1 150q3 332 -40 489q47 76 47 131t-32 86q-32 30 -75 30t-102 -11t-82 -11q-78 0 -78 44t78 44q23 0 82 -12t102 -12t75 33q32 34 32 76t-12 99t-13 82q0 80 45 80t45 -80q0 -25 -12 -82t-12 -99t32 -76q33 -34 75 -34q42 1 102 13t82 12
q78 0 78 -44t-78 -44q-23 0 -82 11q-58 11 -102 11t-76 -30t-31 -86q0 -55 47 -131q-37 -143 -40 -311q-1 -52 0 -179t1 -149q0 -62 -29 -62z" />
    <glyph glyph-name="daggerdbl" unicode="&#x2021;" horiz-adv-x="958" 
d="M479 -78q-45 0 -45 80q0 25 12 82t12 99t-31 76q-32 34 -76 34t-101 -12t-82 -13q-78 0 -78 44t78 44q25 0 82 -11t101 -11t76 31t32 96t-47 141q47 76 47 142t-32 96t-76 30t-101 -11t-82 -11q-78 0 -78 44t78 44q25 0 82 -12t101 -12t76 33q32 34 32 76t-13 99
q-12 57 -12 82q0 80 45 80t45 -80q0 -25 -12 -82t-12 -99t32 -76t75 -34q43 1 101 13t83 12q78 0 77 -43q0 -45 -77 -45q-25 0 -82 11t-101 11t-77 -30q-31 -30 -31 -96t47 -142q-47 -76 -47 -142t32 -96t75 -30t101 11t83 11q78 0 77 -45q0 -43 -77 -43q-25 0 -82 12
t-101 13q-44 0 -77 -34q-31 -34 -31 -76t12 -99t12 -82q0 -80 -45 -80z" />
    <glyph glyph-name="bullet" unicode="&#x2022;" horiz-adv-x="700" 
d="M350 406q-78 0 -133 55t-55 133t55 133t133 55t133 -55t55 -133t-54 -133q-56 -55 -134 -55z" />
    <glyph glyph-name="ellipsis" unicode="&#x2026;" horiz-adv-x="1574" 
d="M1376 -16q-29 0 -48 20t-19 49t19 48t48 19t48 -18q20 -20 20 -49t-20 -49t-48 -20zM786 -16q-29 0 -48 20t-19 49t19 48t48 19q28 0 48 -18q20 -20 20 -49t-20 -49t-48 -20zM197 -16q-29 0 -49 20q-19 20 -19 49t19 48q18 19 48 19t49 -18q19 -20 19 -49t-19 -49
t-48 -20z" />
    <glyph glyph-name="perthousand" unicode="&#x2030;" horiz-adv-x="1687" 
d="M215 10l-45 39l817 916l43 -39zM1409 55q72 1 108 55t35 136q0 82 -35 136q-36 54 -108 54q-71 0 -107 -54t-36 -136t36 -136t107 -55zM1409 -2q-98 0 -156 69q-57 69 -57 179t57 180q57 68 155 68t156 -69t58 -179t-58 -180q-58 -68 -155 -68zM315 539q72 0 108 54
t36 136t-36 136q-36 55 -108 55q-71 0 -107 -54t-36 -137q0 -82 36 -136t107 -54zM315 481q-98 0 -155 69q-58 70 -58 180t58 178t155 69q97 0 155 -69q58 -70 58 -180t-58 -178t-155 -69zM889 55q71 1 107 55t36 136t-36 136t-108 54t-107 -54q-36 -54 -36 -136t36 -136
t108 -55zM889 -2q-98 0 -156 69q-57 69 -57 179t57 180q57 68 155 68t156 -69t58 -179t-58 -180q-58 -68 -155 -68z" />
    <glyph glyph-name="guilsinglleft" unicode="&#x2039;" horiz-adv-x="565" 
d="M381 184l-295 348v9l295 348h88l-299 -352l299 -353h-88z" />
    <glyph glyph-name="guilsinglright" unicode="&#x203a;" horiz-adv-x="565" 
d="M96 184l299 353l-299 352h88l295 -348v-9l-295 -348h-88z" />
    <glyph glyph-name="fraction" unicode="&#x2044;" horiz-adv-x="776" 
d="M45 -4l-53 29l739 1228l53 -28z" />
    <glyph glyph-name="Euro" unicode="&#x20ac;" horiz-adv-x="1120" 
d="M668 -14q-174 0 -292 108t-147 277h-157l14 47h135q-4 32 -4 68t6 77h-151l14 47h143q33 162 151 268t291 105q173 0 312 -68v-172h-61v138q-121 45 -232 45q-160 0 -260 -86t-133 -230h418l-15 -47h-409q-6 -41 -6 -81t4 -64h368l-14 -47h-346q31 -147 130 -237t258 -91
q159 0 306 100v-63q-149 -94 -323 -94z" />
    <glyph glyph-name="numero" unicode="&#x2116;" horiz-adv-x="2115" 
d="M72 0v66h211v1116h-211v65h286l715 -1124v1059h-211v65h492v-65h-211v-1182h-68l-723 1135v-1069h211v-66h-491zM1391 109v61h610v-61h-610zM1696 385q106 0 178 74t72 201q0 128 -73 202t-177 74t-177 -75t-73 -201t72 -201q72 -74 178 -74zM2013 660q0 -158 -90 -250
t-226 -91q-135 -1 -227 91t-92 250t91 248t227 91q136 0 226 -91q91 -90 91 -248z" />
    <glyph glyph-name="trademark" unicode="&#x2122;" horiz-adv-x="1456" 
d="M248 750v38h92v422h-152v-106h-43v143h435v-143h-43v106h-152v-422h92v-38h-229zM659 750v38h78l23 420h-76v39h133l174 -397l176 397h136v-39h-76l22 -420h78v-38h-205v38h82l-18 396l-178 -387h-33l-178 387l-19 -396h82v-38h-201z" />
    <glyph glyph-name="minus" unicode="&#x2212;" horiz-adv-x="1081" 
d="M137 444v62h807v-62h-807z" />
    <glyph glyph-name="approxequal" unicode="&#x2248;" horiz-adv-x="1187" 
d="M397 479q108 0 227 -106q115 -107 188 -107q74 0 120 54t86 149l49 -25q-98 -246 -240 -245q-69 0 -145 53t-150 106t-135 54q-121 0 -217 -211l-49 24q109 254 266 254zM397 854q101 0 227 -106q121 -107 191 -107q71 0 117 54q45 54 86 149l49 -25q-98 -246 -240 -246
q-69 -1 -145 53t-150 107t-135 53q-121 0 -217 -211l-49 25q109 254 266 254z" />
    <glyph glyph-name="notequal" unicode="&#x2260;" horiz-adv-x="1193" 
d="M193 203v61h276l195 418h-471v61h501l162 349l45 -21l-151 -328h249v-61h-278l-195 -418h473v-61h-501l-162 -346l-45 20l151 326h-249z" />
    <glyph glyph-name="lessequal" unicode="&#x2264;" horiz-adv-x="991" 
d="M852 256l-719 291v45l719 291v-66l-631 -248l631 -250v-63zM133 84v55h719v-55h-719z" />
    <glyph glyph-name="greaterequal" unicode="&#x2265;" horiz-adv-x="991" 
d="M139 256v63l631 250l-631 248v66l719 -291v-45zM139 84v55h719v-55h-719z" />
    <glyph glyph-name="OE.smcp" unicode="&#xe04a;" horiz-adv-x="1495" 
d="M618 61h152v877h-152q-206 0 -328 -117t-122 -321t122 -322q122 -117 328 -117zM621 0q-244 0 -384 138q-141 138 -141 360t140 361q140 138 385 138h768v-258h-68v199h-481v-406h471v-59h-471v-412h483v197h66v-258h-768z" />
    <glyph glyph-name="dotaccent.cap" unicode="&#xefed;" horiz-adv-x="489" 
d="M242 1380q-29 0 -49 20t-21 50q0 29 20 49q20 21 50 21q29 0 49 -20t20 -50t-20 -50t-49 -20z" />
    <glyph glyph-name="breve.cap" unicode="&#xefee;" horiz-adv-x="790" 
d="M393 1368q-113 0 -187 65t-87 199h65q8 -100 64 -148t144 -48q87 0 144 48q56 48 64 148h68q-12 -132 -87 -198t-188 -66z" />
    <glyph glyph-name="ogonek.cap" unicode="&#xeff1;" horiz-adv-x="608" 
d="M330 -401q-181 0 -183 151q0 162 215 289l44 -29q-66 -40 -125 -106t-60 -144q0 -104 123 -104q68 0 133 31l4 -54q-69 -34 -151 -34z" />
    <glyph glyph-name="cedilla.cap" unicode="&#xeff2;" horiz-adv-x="622" 
d="M240 -381q-76 0 -113 6l16 56q41 -4 70 -5q174 0 174 99q0 92 -182 92v35l63 129l47 -23l-34 -94q71 -4 123 -37t52 -109t-70 -112q-70 -37 -146 -37z" />
    <glyph glyph-name="ring.cap" unicode="&#xeff3;" horiz-adv-x="720" 
d="M356 1415q68 0 105 44q37 43 37 105t-37 106t-105 44t-104 -44t-37 -105q1 -61 37 -105t104 -45zM356 1364q-92 0 -148 57t-56 143t56 144q56 57 148 57t148 -57t57 -143q0 -86 -56 -144q-57 -57 -149 -57z" />
    <glyph glyph-name="tilde.cap" unicode="&#xeff5;" horiz-adv-x="954" 
d="M470 1526q102 -62 146 -62q43 0 74 31t66 102l41 -22q-53 -117 -93 -149t-94 -32q-53 0 -154 62q-101 61 -145 62q-71 -1 -139 -132l-39 19q0 2 12 29q13 28 15 32l14 28t20 31q7 7 21 23q34 39 94 39q59 0 161 -61z" />
    <glyph glyph-name="circumflex.cap" unicode="&#xeff7;" horiz-adv-x="888" 
d="M156 1384l-29 31l293 273h45l293 -273l-29 -31l-287 218z" />
    <glyph glyph-name="at.cap" unicode="&#xf633;" horiz-adv-x="1513" 
d="M502 584q0 -128 58 -196t170 -69q112 1 192 107t79 258q0 233 -192 234q-129 0 -218 -104q-89 -102 -89 -230zM705 260q-129 0 -200 88t-71 236t106 271q106 122 265 122q182 0 231 -164h2q8 47 39 131h64q-94 -299 -94 -481q0 -154 110 -154q100 1 168 99t68 266
q0 268 -169 438q-170 170 -436 170t-456 -199t-190 -465t186 -458q188 -192 454 -193q195 0 344 109l25 -41q-174 -117 -371 -117q-280 0 -484 204t-204 502t211 502q211 205 491 205t463 -182q184 -182 185 -475q0 -194 -82 -304t-209 -110q-68 0 -108 35t-48 65t-8 56h-6
q-108 -156 -276 -156z" />
    <glyph glyph-name="Abreve.smcp" unicode="&#xf66d;" horiz-adv-x="1185" 
d="M569 1122q-102 0 -168 56t-73 168h61q14 -160 180 -160t181 160h61q-8 -112 -74 -168t-168 -56zM373 403h442l-219 527zM6 0v61h154l370 877h-161v59h268l391 -936h156v-61h-408v61h182l-120 283h-490l-119 -283h183v-61h-406z" />
    <glyph glyph-name="Amacron.smcp" unicode="&#xf66e;" horiz-adv-x="1185" 
d="M344 1157v64h440v-64h-440zM373 403h442l-219 527zM6 0v61h154l370 877h-161v59h268l391 -936h156v-61h-408v61h182l-120 283h-490l-119 -283h183v-61h-406z" />
    <glyph glyph-name="Aogonek.smcp" unicode="&#xf66f;" horiz-adv-x="1185" 
d="M373 403h442l-219 527zM1032 -340q-72 0 -117 33t-45 96q0 115 140 211h-234v61h182l-120 283h-490l-119 -283h183v-61h-406v61h154l370 877h-161v59h268l391 -936h156v-61h-97q-143 -96 -143 -199q0 -86 105 -86q61 0 114 27l6 -51q-65 -31 -137 -31z" />
    <glyph glyph-name="AEacute.smcp" unicode="&#xf670;" horiz-adv-x="1593" 
d="M915 1126l-24 29l293 262l55 -65zM868 401v537h-20l-381 -537h401zM6 0v61h141l625 877h-141v59h856v-258h-68v199h-481v-406h471v-59h-471v-412h483v197h66v-258h-789v61h170v279h-440l-199 -279h158v-61h-381z" />
    <glyph glyph-name="Cacute.smcp" unicode="&#xf671;" horiz-adv-x="1075" 
d="M492 1135l-25 28l293 262l55 -65zM622 -20q-222 0 -374 139q-154 139 -154 373t144 380q144 145 403 146q178 0 348 -72v-223h-67v184q-119 49 -273 49q-217 0 -350 -120t-133 -341q0 -222 137 -338t333 -116t361 94v-65q-153 -90 -375 -90z" />
    <glyph glyph-name="Ccaron.smcp" unicode="&#xf672;" horiz-adv-x="1075" 
d="M596 1143l-254 231l27 27l252 -176l251 176l27 -27l-254 -231h-49zM622 -20q-222 0 -374 139q-154 139 -154 373t144 380q144 145 403 146q178 0 348 -72v-223h-67v184q-119 49 -273 49q-217 0 -350 -120t-133 -341q0 -222 137 -338t333 -116t361 94v-65
q-153 -90 -375 -90z" />
    <glyph glyph-name="Ccircumflex.smcp" unicode="&#xf673;" horiz-adv-x="1075" 
d="M362 1135l-26 26l254 232h49l254 -232l-27 -26l-252 176zM622 -20q-222 0 -374 139q-154 139 -154 373t144 380q144 145 403 146q178 0 348 -72v-223h-67v184q-119 49 -273 49q-217 0 -350 -120t-133 -341q0 -222 137 -338t333 -116t361 94v-65q-153 -90 -375 -90z" />
    <glyph glyph-name="Cdotaccent.smcp" unicode="&#xf674;" horiz-adv-x="1075" 
d="M623 1147q-29 0 -48 18q-18 18 -18 47q0 30 18 48q17 18 47 18t48 -18t18 -48t-18 -47q-18 -18 -47 -18zM622 -20q-222 0 -374 139q-154 139 -154 373t144 380q144 145 403 146q178 0 348 -72v-223h-67v184q-119 49 -273 49q-217 0 -350 -120t-133 -341q0 -222 137 -338
t333 -116t361 94v-65q-153 -90 -375 -90z" />
    <glyph glyph-name="Dcaron.smcp" unicode="&#xf675;" horiz-adv-x="1171" 
d="M545 1133l-254 231l26 27l252 -177l252 177l27 -27l-254 -231h-49zM319 61h218q205 0 335 116t129 322q0 207 -130 323t-334 116h-218v-877zM78 0v61h170v877h-170v59h452q227 0 386 -127q159 -128 159 -372t-159 -371t-386 -127h-452z" />
    <glyph glyph-name="Dcroat.smcp" unicode="&#xf676;" horiz-adv-x="1173" 
d="M322 61h217q205 0 335 116t130 322q0 207 -130 323t-335 116h-217v-406h301v-57h-301v-414zM92 475v57h158v406h-170v59h452q226 0 386 -127q160 -128 160 -372t-160 -371q-158 -127 -386 -127h-452v61h170v414h-158z" />
    <glyph glyph-name="Ebreve.smcp" unicode="&#xf677;" horiz-adv-x="999" 
d="M535 1122q-102 0 -168 56t-74 168h61q14 -160 180 -160t181 160h61q-8 -112 -74 -168t-167 -56zM78 0v61h170v877h-170v59h813v-258h-66v199h-506v-406h496v-59h-496v-412h508v197h66v-258h-815z" />
    <glyph glyph-name="Ecaron.smcp" unicode="&#xf678;" horiz-adv-x="999" 
d="M514 1133l-254 231l27 27l252 -177l252 177l26 -27l-254 -231h-49zM78 0v61h170v877h-170v59h813v-258h-66v199h-506v-406h496v-59h-496v-412h508v197h66v-258h-815z" />
    <glyph glyph-name="Edotaccent.smcp" unicode="&#xf679;" horiz-adv-x="999" 
d="M535 1139q-27 0 -47 18q-19 18 -19 47t19 47q18 19 46 19t47 -18t19 -48q0 -29 -19 -47t-46 -18zM78 0v61h170v877h-170v59h813v-258h-66v199h-506v-406h496v-59h-496v-412h508v197h66v-258h-815z" />
    <glyph glyph-name="Emacron.smcp" unicode="&#xf67a;" horiz-adv-x="999" 
d="M309 1157v64h441v-64h-441zM78 0v61h170v877h-170v59h813v-258h-66v199h-506v-406h496v-59h-496v-412h508v197h66v-258h-815z" />
    <glyph glyph-name="Eng.smcp" unicode="&#xf67b;" horiz-adv-x="1286" 
d="M987 4v21l-672 872v-836h170v-61h-409v61h174v877h-174v59h246l669 -870v811h-174v59h412v-59h-172v-940q0 -166 -207 -262l-31 49q168 84 168 219z" />
    <glyph glyph-name="Eogonek.smcp" unicode="&#xf67c;" horiz-adv-x="999" 
d="M78 0v61h170v877h-170v59h813v-258h-66v199h-506v-406h496v-59h-496v-412h508v197h66v-258h-45q-143 -96 -143 -199q0 -86 104 -86q61 0 115 27l6 -51q-66 -31 -138 -31t-116 33q-45 33 -45 96q0 115 139 211h-692z" />
    <glyph glyph-name="Gbreve.smcp" unicode="&#xf67d;" horiz-adv-x="1206" 
d="M639 1130q-102 0 -168 56t-74 168h62q14 -160 180 -160t180 160h62q-8 -112 -74 -168t-168 -56zM647 -20q-262 0 -407 143q-146 143 -146 373t148 375q148 146 409 147q184 0 369 -72v-213h-68v174q-147 49 -299 49q-227 0 -358 -126t-131 -330t123 -333
q123 -128 354 -128q156 0 328 70v335h-285v60h465v-60h-113v-374q-217 -90 -389 -90z" />
    <glyph glyph-name="Gcircumflex.smcp" unicode="&#xf67e;" horiz-adv-x="1206" 
d="M377 1137l-27 26l254 232h49l254 -232l-26 -26l-252 176zM647 -20q-262 0 -407 143q-146 143 -146 373t148 375q148 146 409 147q184 0 369 -72v-213h-68v174q-147 49 -299 49q-227 0 -358 -126t-131 -330t123 -333q123 -128 354 -128q156 0 328 70v335h-285v60h465v-60
h-113v-374q-217 -90 -389 -90z" />
    <glyph glyph-name="Gcommaaccent.smcp" unicode="&#xf67f;" horiz-adv-x="1206" 
d="M647 -20q-262 0 -407 143q-146 143 -146 373t148 375q148 146 409 147q184 0 369 -72v-213h-68v174q-147 49 -299 49q-227 0 -358 -126t-131 -330t123 -333q123 -128 354 -128q156 0 328 70v335h-285v60h465v-60h-113v-374q-217 -90 -389 -90zM623 -172q31 0 55 -23
t22 -77q0 -54 -30 -121q-30 -68 -82 -119l-39 29q84 106 84 187t-64 85v16q23 23 54 23z" />
    <glyph glyph-name="Gdotaccent.smcp" unicode="&#xf680;" horiz-adv-x="1206" 
d="M641 1147q-27 0 -46 18t-20 47q-1 30 19 48t47 18t46 -18t19 -48t-18 -47q-20 -18 -47 -18zM647 -20q-262 0 -407 143q-146 143 -146 373t148 375q148 146 409 147q184 0 369 -72v-213h-68v174q-147 49 -299 49q-227 0 -358 -126t-131 -330t123 -333q123 -128 354 -128
q156 0 328 70v335h-285v60h465v-60h-113v-374q-217 -90 -389 -90z" />
    <glyph glyph-name="Hbar.smcp" unicode="&#xf681;" horiz-adv-x="1298" 
d="M319 537h660v176h-660v-176zM96 713v55h152v170h-170v59h411v-59h-170v-170h660v170h-170v59h412v-59h-170v-170h151v-55h-151v-652h170v-61h-412v61h170v414h-660v-414h170v-61h-411v61h170v652h-152z" />
    <glyph glyph-name="Hcircumflex.smcp" unicode="&#xf682;" horiz-adv-x="1298" 
d="M397 1126l-26 27l254 231h49l254 -231l-27 -27l-252 177zM78 0v61h170v877h-170v59h411v-59h-170v-401h660v401h-170v59h412v-59h-170v-877h170v-61h-412v61h170v414h-660v-414h170v-61h-411z" />
    <glyph glyph-name="Ibreve.smcp" unicode="&#xf683;" horiz-adv-x="567" 
d="M283 1122q-102 0 -168 56t-74 168h61q14 -160 180 -160t181 160h61q-8 -112 -74 -168t-167 -56zM78 0v61h170v877h-170v59h411v-59h-170v-877h170v-61h-411z" />
    <glyph glyph-name="Imacron.smcp" unicode="&#xf685;" horiz-adv-x="567" 
d="M63 1157v64h441v-64h-441zM78 0v61h170v877h-170v59h411v-59h-170v-877h170v-61h-411z" />
    <glyph glyph-name="Iogonek.smcp" unicode="&#xf686;" horiz-adv-x="567" 
d="M78 0v61h170v877h-170v59h411v-59h-170v-877h170v-61h-127q-143 -96 -143 -199q0 -86 105 -86q61 0 114 27l6 -51q-66 -31 -138 -31t-116 33q-45 33 -45 96q0 115 140 211h-207z" />
    <glyph glyph-name="Itilde.smcp" unicode="&#xf687;" horiz-adv-x="567" 
d="M154 1307q46 -1 134 -51t128 -50q63 0 121 109l36 -21q-49 -115 -101 -141q-28 -14 -70 -14t-130 50t-125 50q-67 0 -118 -106l-39 16q47 106 83 132q35 26 81 26zM78 0v61h170v877h-170v59h411v-59h-170v-877h170v-61h-411z" />
    <glyph glyph-name="Jcircumflex.smcp" unicode="&#xf688;" horiz-adv-x="526" 
d="M10 1126l-26 27l254 231h49l254 -231l-27 -27l-252 177zM227 4v934h-170v59h412v-59h-170v-950q0 -154 -209 -252l-31 49q168 82 168 219z" />
    <glyph glyph-name="Kcommaaccent.smcp" unicode="&#xf689;" horiz-adv-x="1144" 
d="M78 0v61h170v877h-170v59h411v-59h-170v-877h170v-61h-411zM690 938v59h402v-59h-148l-438 -430l430 -447h168v-61h-207l-477 502v10l438 426h-168zM645 -162q31 0 55 -22t23 -77q0 -54 -30 -122t-83 -119l-39 29q84 106 84 187t-63 85v17q22 22 53 22z" />
    <glyph glyph-name="Lacute.smcp" unicode="&#xf68a;" horiz-adv-x="954" 
d="M205 1126l-25 29l293 262l55 -65zM78 0v61h170v877h-170v59h428v-59h-187v-877h517v207h65v-268h-823z" />
    <glyph glyph-name="Lcaron.smcp" unicode="&#xf68b;" horiz-adv-x="956" 
d="M78 0v61h170v877h-170v59h428v-59h-187v-877h517v207h65v-268h-823zM680 1006q30 0 54 -23t24 -77t-30 -122t-83 -118l-39 28q84 106 84 188t-63 85v16q22 23 53 23z" />
    <glyph glyph-name="Lcommaaccent.smcp" unicode="&#xf68c;" horiz-adv-x="954" 
d="M78 0v61h170v877h-170v59h428v-59h-187v-877h517v207h65v-268h-823zM543 -162q31 0 55 -22t23 -77q0 -54 -30 -122t-83 -119l-39 29q84 106 84 187t-64 85v17q23 22 54 22z" />
    <glyph glyph-name="Ldot.smcp" unicode="&#xf68d;" horiz-adv-x="956" 
d="M739 500q-27 0 -46 18t-19 47t19 47t46 18t46 -18t19 -47t-18 -47q-20 -18 -47 -18zM78 0v61h170v877h-170v59h428v-59h-187v-877h517v207h65v-268h-823z" />
    <glyph glyph-name="Nacute.smcp" unicode="&#xf68e;" horiz-adv-x="1286" 
d="M561 1126l-24 29l292 262l56 -65zM76 0v61h174v877h-174v59h246l669 -886v827h-174v59h412v-59h-172v-938h-64l-678 897v-836h170v-61h-409z" />
    <glyph glyph-name="Ncaron.smcp" unicode="&#xf68f;" horiz-adv-x="1286" 
d="M627 1133l-254 231l26 27l252 -177l252 177l27 -27l-254 -231h-49zM76 0v61h174v877h-174v59h246l669 -886v827h-174v59h412v-59h-172v-938h-64l-678 897v-836h170v-61h-409z" />
    <glyph glyph-name="Ncommaaccent.smcp" unicode="&#xf690;" horiz-adv-x="1286" 
d="M76 0v61h174v877h-174v59h246l669 -886v827h-174v59h412v-59h-172v-938h-64l-678 897v-836h170v-61h-409zM670 -162q30 0 54 -22t24 -77q0 -54 -30 -122t-83 -119l-39 29q84 106 84 187t-64 85v17q23 22 54 22z" />
    <glyph glyph-name="Obreve.smcp" unicode="&#xf691;" horiz-adv-x="1232" 
d="M614 1130q-102 0 -168 56t-73 168h61q14 -160 180 -160t181 160h61q-8 -112 -74 -168t-168 -56zM616 41q203 0 327 127t124 332q0 204 -124 330t-327 126q-202 0 -326 -126t-124 -330t124 -332q124 -127 326 -127zM616 -20q-238 0 -380 147t-142 373t142 371
q142 147 380 147t380 -146t142 -372q0 -224 -142 -372t-380 -148z" />
    <glyph glyph-name="Ohungarumlaut.smcp" unicode="&#xf692;" horiz-adv-x="1232" 
d="M692 1133l-24 20l227 289l57 -56zM420 1133l-25 20l228 289l57 -56zM616 41q203 0 327 127t124 332q0 204 -124 330t-327 126q-202 0 -326 -126t-124 -330t124 -332q124 -127 326 -127zM616 -20q-238 0 -380 147t-142 373t142 371q142 147 380 147t380 -146t142 -372
q0 -224 -142 -372t-380 -148z" />
    <glyph glyph-name="Omacron.smcp" unicode="&#xf693;" horiz-adv-x="1232" 
d="M397 1165v64h441v-64h-441zM616 41q203 0 327 127t124 332q0 204 -124 330t-327 126q-202 0 -326 -126t-124 -330t124 -332q124 -127 326 -127zM616 -20q-238 0 -380 147t-142 373t142 371q142 147 380 147t380 -146t142 -372q0 -224 -142 -372t-380 -148z" />
    <glyph glyph-name="Oslashacute.smcp" unicode="&#xf694;" horiz-adv-x="1228" 
d="M492 1135l-25 28l293 262l55 -65zM628 41q188 0 313 127q124 127 124 333t-125 330l-616 -698q116 -92 304 -92zM600 956q-188 0 -312 -126t-124 -330t123 -334l618 696q-117 94 -305 94zM614 -20q-199 0 -333 106l-86 -98l-37 32l86 97q-152 145 -152 377t142 377
q142 147 360 147t354 -107l86 97l37 -29l-86 -98q152 -147 152 -377q-1 -230 -143 -376q-142 -148 -380 -148z" />
    <glyph glyph-name="Racute.smcp" unicode="&#xf695;" horiz-adv-x="1087" 
d="M418 1126l-25 29l293 262l55 -65zM319 467h218q161 0 243 60t82 175q0 116 -83 176t-242 60h-218v-471zM78 0v61h170v877h-170v59h461q132 0 251 -53q144 -64 144 -252q0 -100 -71 -172t-191 -96l209 -363h168v-61h-213l-232 410q-25 -2 -65 -2h-220v-347h170v-61h-411z
" />
    <glyph glyph-name="Rcaron.smcp" unicode="&#xf696;" horiz-adv-x="1087" 
d="M510 1133l-254 231l27 27l252 -177l251 177l27 -27l-254 -231h-49zM319 467h218q161 0 243 60t82 175q0 116 -83 176t-242 60h-218v-471zM78 0v61h170v877h-170v59h461q132 0 251 -53q144 -64 144 -252q0 -100 -71 -172t-191 -96l209 -363h168v-61h-213l-232 410
q-25 -2 -65 -2h-220v-347h170v-61h-411z" />
    <glyph glyph-name="Rcommaaccent.smcp" unicode="&#xf697;" horiz-adv-x="1087" 
d="M319 467h218q161 0 243 60t82 175q0 116 -83 176t-242 60h-218v-471zM78 0v61h170v877h-170v59h461q132 0 251 -53q144 -64 144 -252q0 -100 -71 -172t-191 -96l209 -363h168v-61h-213l-232 410q-25 -2 -65 -2h-220v-347h170v-61h-411zM612 -162q31 0 55 -22
q23 -22 23 -77q0 -54 -30 -122t-82 -119l-39 29q84 106 84 187t-64 85v17q22 22 53 22z" />
    <glyph glyph-name="Sacute.smcp" unicode="&#xf698;" horiz-adv-x="888" 
d="M346 1137l-24 28l292 262l56 -65zM435 -20q-173 0 -335 49v209h66v-162q125 -35 267 -35t219 50q77 51 77 139q0 155 -214 223q-89 29 -178 61t-152 95q-62 62 -62 167q0 106 83 174t244 68t308 -43v-207h-66v160q-122 28 -246 28t-190 -54t-66 -132t62 -129t152 -81
q88 -30 178 -62t152 -99q62 -66 62 -176q0 -111 -94 -177t-267 -66z" />
    <glyph glyph-name="Scedilla.smcp" unicode="&#xf699;" horiz-adv-x="890" 
d="M594 -210q0 -66 -64 -96q-64 -32 -128 -32t-105 4l16 53q33 -4 66 -4q145 0 145 80t-157 80v31l39 74q-168 6 -306 49v209h66v-162q125 -35 267 -35t219 50q77 51 77 139q0 155 -214 223q-89 29 -178 61t-152 95q-62 62 -62 167q0 106 83 174t244 68t308 -43v-207h-66
v160q-122 28 -246 28t-190 -54t-66 -132t62 -129t152 -81q88 -30 178 -62t152 -99q62 -66 62 -174t-86 -174q-87 -66 -247 -71l-25 -60q60 -4 108 -34t48 -96z" />
    <glyph glyph-name="Scircumflex.smcp" unicode="&#xf69a;" horiz-adv-x="888" 
d="M209 1135l-27 26l254 232h49l254 -232l-26 -26l-252 176zM435 -20q-173 0 -335 49v209h66v-162q125 -35 267 -35t219 50q77 51 77 139q0 155 -214 223q-89 29 -178 61t-152 95q-62 62 -62 167q0 106 83 174t244 68t308 -43v-207h-66v160q-122 28 -246 28t-190 -54
t-66 -132t62 -129t152 -81q88 -30 178 -62t152 -99q62 -66 62 -176q0 -111 -94 -177t-267 -66z" />
    <glyph glyph-name="Scommaaccent.smcp" unicode="&#xf69b;" horiz-adv-x="888" 
d="M435 -20q-173 0 -335 49v209h66v-162q125 -35 267 -35t219 50q77 51 77 139q0 155 -214 223q-89 29 -178 61t-152 95q-62 62 -62 167q0 106 83 174t244 68t308 -43v-207h-66v160q-122 28 -246 28t-190 -54t-66 -132t62 -129t152 -81q88 -30 178 -62t152 -99
q62 -66 62 -176q0 -111 -94 -177t-267 -66zM459 -172q31 0 55 -23t23 -77q0 -54 -30 -121q-30 -68 -83 -119l-39 29q84 106 84 187t-63 85v16q22 23 53 23z" />
    <glyph glyph-name="Tbar.smcp" unicode="&#xf69c;" horiz-adv-x="1017" 
d="M213 465v57h260v416h-346v-190h-68v249h899v-249h-67v190h-346v-416h260v-57h-260v-404h182v-61h-436v61h182v404h-260z" />
    <glyph glyph-name="Tcaron.smcp" unicode="&#xf69d;" horiz-adv-x="1013" 
d="M481 1133l-254 231l27 27l252 -177l252 177l26 -27l-254 -231h-49zM289 0v61h182v877h-346v-190h-68v249h899v-249h-67v190h-346v-877h182v-61h-436z" />
    <glyph glyph-name="Tcommaaccent.smcp" unicode="&#xf69e;" horiz-adv-x="1013" 
d="M289 0v61h182v877h-346v-190h-68v249h899v-249h-67v190h-346v-877h182v-61h-436zM502 -162q30 0 54 -22t24 -77q0 -54 -30 -122t-83 -119l-39 29q84 106 84 187t-63 85v17q22 22 53 22z" />
    <glyph glyph-name="Ubreve.smcp" unicode="&#xf69f;" horiz-adv-x="1210" 
d="M608 1122q-102 0 -168 56t-73 168h61q14 -160 180 -160t180 160h62q-8 -112 -74 -168t-168 -56zM989 319q-1 -163 -105 -251t-278 -88t-280 90t-107 252v616h-170v59h412v-59h-170v-614q0 -143 89 -212t228 -69t226 70q86 70 86 211v614h-170v59h411v-59h-172v-619z" />
    <glyph glyph-name="Uhungarumlaut.smcp" unicode="&#xf6a0;" horiz-adv-x="1210" 
d="M705 1124l-25 21l227 289l58 -56zM432 1124l-24 21l227 289l57 -56zM989 319q-1 -163 -105 -251t-278 -88t-280 90t-107 252v616h-170v59h412v-59h-170v-614q0 -143 89 -212t228 -69t226 70q86 70 86 211v614h-170v59h411v-59h-172v-619z" />
    <glyph glyph-name="Umacron.smcp" unicode="&#xf6a1;" horiz-adv-x="1210" 
d="M381 1157v64h440v-64h-440zM989 319q-1 -163 -105 -251t-278 -88t-280 90t-107 252v616h-170v59h412v-59h-170v-614q0 -143 89 -212t228 -69t226 70q86 70 86 211v614h-170v59h411v-59h-172v-619z" />
    <glyph glyph-name="Uogonek.smcp" unicode="&#xf6a2;" horiz-adv-x="1210" 
d="M733 -340q-72 0 -117 33t-45 96q0 102 119 197q-39 -6 -82 -6q-176 0 -282 90t-107 252v616h-170v59h412v-59h-170v-614q0 -143 89 -212t228 -69t226 70q86 70 86 211v614h-170v59h411v-59h-172v-619q0 -113 -46 -181t-130 -118q-168 -102 -168 -215q0 -90 105 -90
q61 0 114 27l6 -51q-65 -31 -137 -31z" />
    <glyph glyph-name="Uring.smcp" unicode="&#xf6a3;" horiz-adv-x="1210" 
d="M610 1167q55 0 87 34t32 85t-32 85t-87 34t-87 -34q-31 -34 -31 -85t32 -85t86 -34zM610 1116q-84 0 -131 48t-47 122t47 122t131 48t131 -48t47 -122t-47 -122t-131 -48zM989 319q-1 -163 -105 -251t-278 -88t-280 90t-107 252v616h-170v59h412v-59h-170v-614
q0 -143 89 -212t228 -69t226 70q86 70 86 211v614h-170v59h411v-59h-172v-619z" />
    <glyph glyph-name="Utilde.smcp" unicode="&#xf6a4;" horiz-adv-x="1210" 
d="M476 1307q46 -1 134 -51t127 -50q63 0 121 109l37 -21q-49 -115 -101 -141q-28 -14 -70 -14t-130 50t-125 50q-68 0 -119 -106l-39 16q47 106 83 132t82 26zM989 319q-1 -163 -105 -251t-278 -88t-280 90t-107 252v616h-170v59h412v-59h-170v-614q0 -143 89 -212t228 -69
t226 70q86 70 86 211v614h-170v59h411v-59h-172v-619z" />
    <glyph glyph-name="Wcircumflex.smcp" unicode="&#xf6a6;" horiz-adv-x="1622" 
d="M539 1126l-27 27l254 231h49l254 -231l-27 -27l-251 177zM6 938v59h404v-59h-183l283 -836l270 734l-41 102h-151v59h403v-59h-184l309 -836l279 836h-183v59h404v-59h-150l-321 -938h-62l-270 741l-274 -741h-62l-321 938h-150z" />
    <glyph glyph-name="Ycircumflex.smcp" unicode="&#xf6a9;" horiz-adv-x="1097" 
d="M299 1126l-27 27l254 231h49l254 -231l-26 -27l-252 177zM340 0v61h172v320l-352 557h-156v59h410v-59h-178l313 -494l315 496h-176v57h406v-59h-156l-354 -555v-322h174v-61h-418z" />
    <glyph glyph-name="Zacute.smcp" unicode="&#xf6ab;" horiz-adv-x="966" 
d="M369 1126l-25 29l293 262l55 -65zM88 0v55l680 881h-602v-191h-72v252h758v-59l-678 -877h639v203h70v-264h-795z" />
    <glyph glyph-name="Zdotaccent.smcp" unicode="&#xf6ac;" horiz-adv-x="966" 
d="M485 1139q-27 0 -46 18t-19 47t19 47q19 19 46 19t46 -18t19 -48q0 -29 -18 -47q-20 -18 -47 -18zM88 0v55l680 881h-602v-191h-72v252h758v-59l-678 -877h639v203h70v-264h-795z" />
    <glyph glyph-name="Idotaccent.smcp" unicode="&#xf6ad;" horiz-adv-x="567" 
d="M283 1139q-29 0 -47 18t-19 47q1 29 19 47q18 19 47 19t47 -18t18 -48q0 -29 -18 -47t-47 -18zM78 0v61h170v877h-170v59h411v-59h-170v-877h170v-61h-411z" />
    <glyph glyph-name="parenleft.cap" unicode="&#xf6ae;" horiz-adv-x="468" 
d="M86 623q0 237 73 485t206 442h79q-135 -190 -211 -434q-153 -491 0 -986q76 -243 211 -433h-79q-133 195 -206 443t-73 483z" />
    <glyph glyph-name="parenright.cap" unicode="&#xf6af;" horiz-adv-x="468" 
d="M383 622q0 -236 -73 -483q-73 -248 -206 -442h-79q135 190 211 433t75 493q1 249 -75 493t-211 434h79q133 -196 206 -444t73 -484z" />
    <glyph glyph-name="bracketleft.cap" unicode="&#xf6b0;" horiz-adv-x="557" 
d="M174 -303v1853h348v-53h-282v-1747h282v-53h-348z" />
    <glyph glyph-name="bracketright.cap" unicode="&#xf6b1;" horiz-adv-x="557" 
d="M35 -303v53h282v1747h-282v53h348v-1853h-348z" />
    <glyph glyph-name="braceleft.cap" unicode="&#xf6b2;" horiz-adv-x="534" 
d="M364 -330q-62 0 -105 46q-42 46 -42 114t31 232q31 163 31 249q0 266 -261 279v69q260 12 261 279q0 86 -31 249t-31 231t42 115q43 46 105 46t113 -20v-50q-43 16 -84 17q-111 0 -110 -125q-1 -45 29 -212t30 -257q0 -270 -240 -307q240 -37 240 -308q0 -90 -30 -257
t-29 -212q0 -125 110 -124q41 0 84 16v-49q-51 -21 -113 -21z" />
    <glyph glyph-name="braceright.cap" unicode="&#xf6b3;" horiz-adv-x="534" 
d="M172 -330q-62 0 -115 21v49q43 -16 84 -16q111 0 111 124q0 45 -30 212t-29 257q0 270 239 308q-240 37 -239 307q0 90 29 257q30 167 30 212q0 125 -111 125q-41 0 -84 -17v50q51 20 114 20t105 -46q42 -47 41 -115t-31 -231t-30 -249q0 -266 260 -279v-69
q-260 -12 -260 -279q0 -86 31 -249q31 -164 31 -232t-42 -114t-104 -46z" />
    <glyph glyph-name="exclamdown.cap" unicode="&#xf6b4;" horiz-adv-x="454" 
d="M227 1264q29 0 48 -20t19 -49q0 -28 -20 -48q-20 -21 -47 -21t-47 20t-20 49t19 49t48 20zM250 940l18 -940h-82l19 940h45z" />
    <glyph glyph-name="questiondown.cap" unicode="&#xf6b5;" horiz-adv-x="735" 
d="M414 1264q29 0 48 -20t19 -49q0 -28 -19 -48q-19 -21 -48 -21t-48 20q-20 20 -20 49t20 49t48 20zM406 -18q-138 0 -226 76t-88 217q0 142 109 256q45 49 91 93q111 107 109 201q0 66 -26 115h69q20 -41 20 -111t-30 -129q-31 -59 -76 -104l-90 -90q-106 -106 -106 -223
q0 -238 262 -238q102 0 240 47v-63q-120 -47 -258 -47z" />
    <glyph glyph-name="guillemotleft.cap" unicode="&#xf6b6;" horiz-adv-x="1017" 
d="M403 272l-294 349v8l294 348h89l-299 -352l299 -353h-89zM807 272l-295 349v8l295 348h88l-299 -352l299 -353h-88z" />
    <glyph glyph-name="guillemotright.cap" unicode="&#xf6b7;" horiz-adv-x="1017" 
d="M526 272l299 353l-299 352h88l295 -348v-8l-295 -349h-88zM123 272l299 353l-299 352h88l295 -348v-8l-295 -349h-88z" />
    <glyph glyph-name="guilsinglleft.cap" unicode="&#xf6b8;" horiz-adv-x="614" 
d="M403 272l-294 349v8l294 348h89l-299 -352l299 -353h-89z" />
    <glyph glyph-name="guilsinglright.cap" unicode="&#xf6b9;" horiz-adv-x="614" 
d="M123 272l299 353l-299 352h88l295 -348v-8l-295 -349h-88z" />
    <glyph glyph-name="hyphen.cap" unicode="&#xf6ba;" horiz-adv-x="761" 
d="M129 590v67h504v-67h-504z" />
    <glyph glyph-name="endash.cap" unicode="&#xf6bb;" horiz-adv-x="1140" 
d="M129 590v67h883v-67h-883z" />
    <glyph glyph-name="emdash.cap" unicode="&#xf6bc;" horiz-adv-x="1513" 
d="M129 590v67h1255v-67h-1255z" />
    <glyph glyph-name="periodcentered.cap" unicode="&#xf6bd;" horiz-adv-x="393" 
d="M197 549q-29 0 -49 20q-19 20 -19 49q0 28 19 48q18 20 48 20t49 -19t19 -49t-19 -49q-19 -20 -48 -20z" />
    <glyph glyph-name="acute.cap" unicode="&#xf6c9;" horiz-adv-x="708" 
d="M164 1384l-25 31l340 309l56 -69z" />
    <glyph glyph-name="caron.cap" unicode="&#xf6ca;" horiz-adv-x="892" 
d="M424 1399l-293 272l29 31l286 -217l287 217l29 -31l-293 -272h-45z" />
    <glyph glyph-name="dieresis.cap" unicode="&#xf6cb;" horiz-adv-x="892" 
d="M598 1399q-29 0 -47 19t-19 46q0 27 18 46q18 20 48 20q29 0 47 -20q19 -20 19 -46q0 -27 -18 -46t-48 -19zM271 1399q-28 0 -47 19t-19 46t19 46q19 20 47 20t46 -20q19 -20 19 -46q0 -27 -18 -46t-47 -19z" />
    <glyph glyph-name="grave.cap" unicode="&#xf6ce;" horiz-adv-x="708" 
d="M526 1384l-368 271l55 69l340 -309z" />
    <glyph glyph-name="hungarumlaut.cap" unicode="&#xf6cf;" horiz-adv-x="1054" 
d="M516 1389l-29 22l263 340l61 -55zM211 1389l-29 22l262 340l62 -55z" />
    <glyph glyph-name="macron.cap" unicode="&#xf6d0;" horiz-adv-x="858" 
d="M178 1399v63h502v-63h-502z" />
    <glyph glyph-name="breve.smcp" unicode="&#xf6f4;" horiz-adv-x="610" 
d="M313 1122q-102 0 -168 56t-73 168h61q14 -160 180 -160t181 160h61q-8 -112 -74 -168t-168 -56z" />
    <glyph glyph-name="caron.smcp" unicode="&#xf6f5;" horiz-adv-x="747" 
d="M334 1133l-254 231l26 27l252 -177l252 177l27 -27l-254 -231h-49z" />
    <glyph glyph-name="circumflex.smcp" unicode="&#xf6f6;" horiz-adv-x="731" 
d="M106 1126l-26 27l254 231h49l254 -231l-27 -27l-252 177z" />
    <glyph glyph-name="dotaccent.smcp" unicode="&#xf6f7;" horiz-adv-x="401" 
d="M201 1139q-29 0 -47 18t-19 47q1 29 19 47q18 19 47 19t47 -18t18 -48q0 -29 -18 -47t-47 -18z" />
    <glyph glyph-name="hungarumlaut.smcp" unicode="&#xf6f8;" horiz-adv-x="749" 
d="M399 1124l-24 21l227 289l57 -56zM127 1124l-25 21l228 289l57 -56z" />
    <glyph glyph-name="Lslash.smcp" unicode="&#xf6f9;" horiz-adv-x="954" 
d="M248 938h-170v59h428v-59h-187v-403l318 178l29 -51l-347 -195v-406h517v207h65v-268h-823v61h170v367l-139 -78l-31 49l170 95v444z" />
    <glyph glyph-name="ogonek.smcp" unicode="&#xf6fb;" horiz-adv-x="450" 
d="M256 -340q-72 0 -117 33t-45 96q0 137 195 246l39 -25q-160 -102 -160 -209q0 -86 104 -86q61 0 115 27l6 -51q-65 -31 -137 -31z" />
    <glyph glyph-name="ring.smcp" unicode="&#xf6fc;" horiz-adv-x="610" 
d="M303 1167q55 0 87 34t32 85t-32 85t-87 34t-87 -34t-32 -85t32 -85t87 -34zM303 1116q-84 0 -131 48t-47 122t47 122t131 48t131 -48t47 -122t-47 -122t-131 -48z" />
    <glyph glyph-name="Scaron.smcp" unicode="&#xf6fd;" horiz-adv-x="888" 
d="M440 1141l-254 231l27 27l252 -176l252 176l26 -27l-254 -231h-49zM435 -20q-173 0 -335 49v209h66v-162q125 -35 267 -35t219 50q77 51 77 139q0 155 -214 223q-89 29 -178 61t-152 95q-62 62 -62 167q0 106 83 174t244 68t308 -43v-207h-66v160q-122 28 -246 28
t-190 -54t-66 -132t62 -129t152 -81q88 -30 178 -62t152 -99q62 -66 62 -176q0 -111 -94 -177t-267 -66z" />
    <glyph glyph-name="tilde.smcp" unicode="&#xf6fe;" horiz-adv-x="774" 
d="M280 1307q46 -1 134 -51t127 -50q63 0 121 109l36 -21q-49 -115 -101 -141q-27 -14 -69 -14t-130 50t-126 50q-67 0 -118 -106l-39 16q47 106 83 132t82 26z" />
    <glyph glyph-name="Zcaron.smcp" unicode="&#xf6ff;" horiz-adv-x="966" 
d="M465 1133l-254 231l27 27l251 -177l252 177l27 -27l-254 -231h-49zM88 0v55l680 881h-602v-191h-72v252h758v-59l-678 -877h639v203h70v-264h-795z" />
    <glyph glyph-name="exclam.smcp" unicode="&#xf721;" horiz-adv-x="446" 
d="M223 -12q-27 0 -46 18t-19 47t19 47t46 18t46 -18t19 -47t-18 -47q-20 -18 -47 -18zM201 250l-17 747h76l-14 -747h-45z" />
    <glyph glyph-name="ampersand.smcp" unicode="&#xf726;" horiz-adv-x="1128" 
d="M588 815q0 61 -38 103t-108 43q-70 0 -112 -40q-42 -39 -41 -103q0 -64 104 -191l19 -23q88 54 132 102t44 109zM434 41q164 0 277 119l-316 360q-75 -43 -115 -74t-76 -84t-36 -114q0 -100 76 -154t190 -53zM432 -18q-145 0 -238 70q-94 70 -94 185q0 117 66 187
t186 145l-16 21q-26 26 -34 39q-7 12 -37 54q-42 58 -42 136q1 78 57 137q56 60 161 60t159 -62t53 -141q0 -80 -54 -139t-146 -117l299 -346q90 131 114 328h-145v53h338v-53h-127q-25 -229 -137 -377q104 -119 174 -119q27 0 53 12v-65q-35 -10 -64 -10q-90 0 -206 131
q-125 -129 -320 -129z" />
    <glyph glyph-name="question.smcp" unicode="&#xf73f;" horiz-adv-x="663" 
d="M287 -12q-29 0 -47 18t-19 47q1 29 19 47t47 18t47 -18t18 -47t-18 -47t-47 -18zM298 1016q114 0 188 -60t75 -173q0 -114 -92 -208q-39 -39 -78 -73q-92 -81 -92 -162q0 -53 23 -90h-70q-16 33 -16 93q0 61 40 119t86 96q47 38 88 98q40 60 40 134t-56 120t-154 46
t-204 -36v61q108 35 222 35z" />
    <glyph glyph-name="grave.smcp" unicode="&#xf760;" horiz-adv-x="514" 
d="M424 1126l-324 226l56 65l293 -262z" />
    <glyph glyph-name="A.smcp" unicode="&#xf761;" horiz-adv-x="1185" 
d="M373 403h442l-219 527zM6 0v61h154l370 877h-161v59h268l391 -936h156v-61h-408v61h182l-120 283h-490l-119 -283h183v-61h-406z" />
    <glyph glyph-name="B.smcp" unicode="&#xf762;" horiz-adv-x="1042" 
d="M317 537h193q152 0 238 52t86 151q0 98 -82 148t-224 50h-211v-401zM317 59h242q147 1 233 53t87 156q0 104 -89 158t-243 53h-230v-420zM76 0v59h172v879h-172v59h454q166 0 269 -64q102 -65 102 -185q0 -186 -215 -236q133 -20 198 -89t64 -163q0 -124 -108 -192
t-279 -68h-485z" />
    <glyph glyph-name="C.smcp" unicode="&#xf763;" horiz-adv-x="1075" 
d="M622 -20q-222 0 -374 139q-154 139 -154 373t144 380q144 145 403 146q178 0 348 -72v-223h-67v184q-119 49 -273 49q-217 0 -350 -120t-133 -341q0 -222 137 -338t333 -116t361 94v-65q-153 -90 -375 -90z" />
    <glyph glyph-name="D.smcp" unicode="&#xf764;" horiz-adv-x="1171" 
d="M319 61h218q205 0 335 116t129 322q0 207 -130 323t-334 116h-218v-877zM78 0v61h170v877h-170v59h452q227 0 386 -127q159 -128 159 -372t-159 -371t-386 -127h-452z" />
    <glyph glyph-name="E.smcp" unicode="&#xf765;" horiz-adv-x="999" 
d="M78 0v61h170v877h-170v59h813v-258h-66v199h-506v-406h496v-59h-496v-412h508v197h66v-258h-815z" />
    <glyph glyph-name="F.smcp" unicode="&#xf766;" horiz-adv-x="952" 
d="M78 0v61h170v877h-170v59h809v-278h-68v219h-500v-424h457v-57h-457v-396h201v-61h-442z" />
    <glyph glyph-name="G.smcp" unicode="&#xf767;" horiz-adv-x="1206" 
d="M647 -20q-262 0 -407 143q-146 143 -146 373t148 375q148 146 409 147q184 0 369 -72v-213h-68v174q-147 49 -299 49q-227 0 -358 -126t-131 -330t123 -333q123 -128 354 -128q156 0 328 70v335h-285v60h465v-60h-113v-374q-217 -90 -389 -90z" />
    <glyph glyph-name="H.smcp" unicode="&#xf768;" horiz-adv-x="1298" 
d="M78 0v61h170v877h-170v59h411v-59h-170v-401h660v401h-170v59h412v-59h-170v-877h170v-61h-412v61h170v414h-660v-414h170v-61h-411z" />
    <glyph glyph-name="I.smcp" unicode="&#xf769;" horiz-adv-x="567" 
d="M78 0v61h170v877h-170v59h411v-59h-170v-877h170v-61h-411z" />
    <glyph glyph-name="J.smcp" unicode="&#xf76a;" horiz-adv-x="526" 
d="M227 4v934h-170v59h412v-59h-170v-950q0 -154 -209 -252l-31 49q168 82 168 219z" />
    <glyph glyph-name="K.smcp" unicode="&#xf76b;" horiz-adv-x="1144" 
d="M78 0v61h170v877h-170v59h411v-59h-170v-877h170v-61h-411zM690 938v59h402v-59h-148l-438 -430l430 -447h168v-61h-207l-477 502v10l438 426h-168z" />
    <glyph glyph-name="L.smcp" unicode="&#xf76c;" horiz-adv-x="954" 
d="M78 0v61h170v877h-170v59h428v-59h-187v-877h517v207h65v-268h-823z" />
    <glyph glyph-name="M.smcp" unicode="&#xf76d;" horiz-adv-x="1542" 
d="M61 0v61h175l36 877h-172v59h283l389 -854l389 854h283v-59h-172l37 -877h172v-61h-410v61h172l-37 875l-407 -889h-51l-410 889l-35 -875h170v-61h-412z" />
    <glyph glyph-name="N.smcp" unicode="&#xf76e;" horiz-adv-x="1286" 
d="M76 0v61h174v877h-174v59h246l669 -886v827h-174v59h412v-59h-172v-938h-64l-678 897v-836h170v-61h-409z" />
    <glyph glyph-name="O.smcp" unicode="&#xf76f;" horiz-adv-x="1232" 
d="M616 41q203 0 327 127t124 332q0 204 -124 330t-327 126q-202 0 -326 -126t-124 -330t124 -332q124 -127 326 -127zM616 -20q-238 0 -380 147t-142 373t142 371q142 147 380 147t380 -146t142 -372q0 -224 -142 -372t-380 -148z" />
    <glyph glyph-name="P.smcp" unicode="&#xf770;" horiz-adv-x="987" 
d="M319 938v-487h203q160 1 243 65t83 180t-83 178q-83 63 -243 64h-203zM78 0v61h170v877h-170v59h444q136 0 254 -57q62 -31 102 -94q40 -64 40 -152q0 -231 -268 -290q-62 -13 -128 -13h-203v-330h203v-61h-444z" />
    <glyph glyph-name="Q.smcp" unicode="&#xf771;" horiz-adv-x="1232" 
d="M616 41q203 0 327 127t124 332q0 204 -124 330t-327 126q-202 0 -326 -126t-124 -330t124 -332q124 -127 326 -127zM952 -217l-340 197q-236 2 -376 148t-142 372q0 226 142 371q142 147 380 147t380 -146t142 -360q0 -213 -114 -354q-115 -141 -311 -170l274 -150z" />
    <glyph glyph-name="R.smcp" unicode="&#xf772;" horiz-adv-x="1087" 
d="M319 467h218q161 0 243 60t82 175q0 116 -83 176t-242 60h-218v-471zM78 0v61h170v877h-170v59h461q132 0 251 -53q144 -64 144 -252q0 -100 -71 -172t-191 -96l209 -363h168v-61h-213l-232 410q-25 -2 -65 -2h-220v-347h170v-61h-411z" />
    <glyph glyph-name="S.smcp" unicode="&#xf773;" horiz-adv-x="888" 
d="M435 -20q-173 0 -335 49v209h66v-162q125 -35 267 -35t219 50q77 51 77 139q0 155 -214 223q-89 29 -178 61t-152 95q-62 62 -62 167q0 106 83 174t244 68t308 -43v-207h-66v160q-122 28 -246 28t-190 -54t-66 -132t62 -129t152 -81q88 -30 178 -62t152 -99
q62 -66 62 -176q0 -111 -94 -177t-267 -66z" />
    <glyph glyph-name="T.smcp" unicode="&#xf774;" horiz-adv-x="1013" 
d="M289 0v61h182v877h-346v-190h-68v249h899v-249h-67v190h-346v-877h182v-61h-436z" />
    <glyph glyph-name="U.smcp" unicode="&#xf775;" horiz-adv-x="1210" 
d="M989 319q-1 -163 -105 -251t-278 -88t-280 90t-107 252v616h-170v59h412v-59h-170v-614q0 -143 89 -212t228 -69t226 70q86 70 86 211v614h-170v59h411v-59h-172v-619z" />
    <glyph glyph-name="V.smcp" unicode="&#xf776;" horiz-adv-x="1146" 
d="M2 938v59h408v-59h-185l348 -856l347 856h-183v59h408v-59h-154l-383 -938h-69l-383 938h-154z" />
    <glyph glyph-name="W.smcp" unicode="&#xf777;" horiz-adv-x="1622" 
d="M6 938v59h404v-59h-183l283 -836l270 734l-41 102h-151v59h403v-59h-184l309 -836l279 836h-183v59h404v-59h-150l-321 -938h-62l-270 741l-274 -741h-62l-321 938h-150z" />
    <glyph glyph-name="X.smcp" unicode="&#xf778;" horiz-adv-x="1112" 
d="M33 0v59h147l336 447l-317 432h-150v59h397v-57h-174l283 -383l285 383h-172v57h399v-59h-152l-325 -434l328 -445h155v-59h-397v59h170l-293 396l-297 -396h176v-59h-399z" />
    <glyph glyph-name="Y.smcp" unicode="&#xf779;" horiz-adv-x="1097" 
d="M340 0v61h172v320l-352 557h-156v59h410v-59h-178l313 -494l315 496h-176v57h406v-59h-156l-354 -555v-322h174v-61h-418z" />
    <glyph glyph-name="Z.smcp" unicode="&#xf77a;" horiz-adv-x="966" 
d="M88 0v55l680 881h-602v-191h-72v252h758v-59l-678 -877h639v203h70v-264h-795z" />
    <glyph glyph-name="exclamdown.smcp" unicode="&#xf7a1;" horiz-adv-x="442" 
d="M221 1010q29 0 47 -20t18 -46q0 -27 -18 -46t-47 -19t-47 19t-18 46q0 26 18 46t47 20zM244 748l16 -748h-76l15 748h45z" />
    <glyph glyph-name="dieresis.smcp" unicode="&#xf7a8;" horiz-adv-x="638" 
d="M467 1149q-27 0 -44 17t-17 44t17 44q17 18 44 18t44 -18t17 -44q0 -27 -17 -44t-44 -17zM178 1149q-27 0 -44 17t-17 44t17 44q17 18 44 18t44 -18q18 -18 18 -44q0 -27 -18 -44t-44 -17z" />
    <glyph glyph-name="macron.smcp" unicode="&#xf7af;" horiz-adv-x="667" 
d="M113 1157v64h440v-64h-440z" />
    <glyph glyph-name="acute.smcp" unicode="&#xf7b4;" horiz-adv-x="532" 
d="M125 1126l-25 29l293 262l56 -65z" />
    <glyph glyph-name="cedilla.smcp" unicode="&#xf7b8;" horiz-adv-x="483" 
d="M385 -210q1 -66 -63 -96q-64 -32 -128 -32t-106 4l16 53q33 -4 66 -4q145 0 145 80t-157 80v31l65 121l43 -19l-37 -88q59 -4 107 -34t49 -96z" />
    <glyph glyph-name="questiondown.smcp" unicode="&#xf7bf;" horiz-adv-x="665" 
d="M379 1010q27 0 46 -20t19 -46q0 -27 -19 -46t-46 -19t-46 19t-20 46q-1 26 19 46t47 20zM368 -18q-114 0 -189 59t-75 173t93 208q39 39 77 74q92 84 93 161q0 53 -23 91h70q16 -34 16 -94t-40 -118t-87 -96t-87 -99q-40 -60 -40 -134t55 -120t153 -46t206 37v-62
q-108 -34 -222 -34z" />
    <glyph glyph-name="Agrave.smcp" unicode="&#xf7e0;" horiz-adv-x="1185" 
d="M676 1126l-324 226l56 65l292 -262zM373 403h442l-219 527zM6 0v61h154l370 877h-161v59h268l391 -936h156v-61h-408v61h182l-120 283h-490l-119 -283h183v-61h-406z" />
    <glyph glyph-name="Aacute.smcp" unicode="&#xf7e1;" horiz-adv-x="1185" 
d="M451 1126l-25 29l293 262l55 -65zM373 403h442l-219 527zM6 0v61h154l370 877h-161v59h268l391 -936h156v-61h-408v61h182l-120 283h-490l-119 -283h183v-61h-406z" />
    <glyph glyph-name="Acircumflex.smcp" unicode="&#xf7e2;" horiz-adv-x="1185" 
d="M311 1126l-26 27l254 231h49l254 -231l-27 -27l-252 177zM373 403h442l-219 527zM6 0v61h154l370 877h-161v59h268l391 -936h156v-61h-408v61h182l-120 283h-490l-119 -283h183v-61h-406z" />
    <glyph glyph-name="Atilde.smcp" unicode="&#xf7e3;" horiz-adv-x="1185" 
d="M441 1307q46 -1 134 -51t127 -50q63 0 121 109l37 -21q-49 -115 -101 -141q-28 -14 -70 -14t-130 50t-125 50q-68 0 -119 -106l-39 16q47 106 83 132t82 26zM373 403h442l-219 527zM6 0v61h154l370 877h-161v59h268l391 -936h156v-61h-408v61h182l-120 283h-490
l-119 -283h183v-61h-406z" />
    <glyph glyph-name="Adieresis.smcp" unicode="&#xf7e4;" horiz-adv-x="1185" 
d="M709 1149q-27 0 -44 17t-18 44t17 44q18 18 45 18t44 -18t17 -44q0 -27 -17 -44t-44 -17zM420 1149q-27 0 -44 17t-18 44q0 27 18 44q18 18 44 18q27 0 44 -18t17 -44q0 -27 -17 -44t-44 -17zM373 403h442l-219 527zM6 0v61h154l370 877h-161v59h268l391 -936h156v-61
h-408v61h182l-120 283h-490l-119 -283h183v-61h-406z" />
    <glyph glyph-name="Aring.smcp" unicode="&#xf7e5;" horiz-adv-x="1185" 
d="M571 1167q55 0 87 34t32 85t-32 85t-87 34t-87 -34t-32 -85t32 -85t87 -34zM571 1116q-84 0 -131 48t-47 122t47 122t131 48t131 -48q48 -48 48 -122t-48 -122t-131 -48zM373 403h442l-219 527zM6 0v61h154l370 877h-161v59h268l391 -936h156v-61h-408v61h182l-120 283
h-490l-119 -283h183v-61h-406z" />
    <glyph glyph-name="AE.smcp" unicode="&#xf7e6;" horiz-adv-x="1593" 
d="M868 401v537h-20l-381 -537h401zM6 0v61h141l625 877h-141v59h856v-258h-68v199h-481v-406h471v-59h-471v-412h483v197h66v-258h-789v61h170v279h-440l-199 -279h158v-61h-381z" />
    <glyph glyph-name="Ccedilla.smcp" unicode="&#xf7e7;" horiz-adv-x="1075" 
d="M780 -210q0 -66 -64 -96q-64 -32 -128 -32t-105 4l17 53q33 -4 65 -4q145 0 146 80q0 80 -158 80v31l41 76q-219 12 -360 149q-140 137 -140 367t144 374q144 145 403 146q178 0 348 -72v-223h-67v184q-119 49 -273 49q-217 0 -350 -120t-133 -341q0 -222 137 -338
t333 -116t361 94v-65q-145 -88 -348 -90l-24 -60q59 -4 107 -34t48 -96z" />
    <glyph glyph-name="Egrave.smcp" unicode="&#xf7e8;" horiz-adv-x="999" 
d="M618 1126l-323 226l55 65l293 -262zM78 0v61h170v877h-170v59h813v-258h-66v199h-506v-406h496v-59h-496v-412h508v197h66v-258h-815z" />
    <glyph glyph-name="Eacute.smcp" unicode="&#xf7e9;" horiz-adv-x="999" 
d="M420 1126l-25 29l293 262l55 -65zM78 0v61h170v877h-170v59h813v-258h-66v199h-506v-406h496v-59h-496v-412h508v197h66v-258h-815z" />
    <glyph glyph-name="Ecircumflex.smcp" unicode="&#xf7ea;" horiz-adv-x="999" 
d="M270 1126l-26 27l254 231h49l254 -231l-27 -27l-252 177zM78 0v61h170v877h-170v59h813v-258h-66v199h-506v-406h496v-59h-496v-412h508v197h66v-258h-815z" />
    <glyph glyph-name="Edieresis.smcp" unicode="&#xf7eb;" horiz-adv-x="999" 
d="M676 1149q-27 0 -44 17t-18 44q0 27 18 44q18 18 44 18q27 0 44 -18t17 -44q0 -27 -17 -44t-44 -17zM387 1149q-27 0 -44 17t-17 44t17 44q17 18 44 18t44 -18t17 -44q0 -27 -16 -44q-18 -17 -45 -17zM78 0v61h170v877h-170v59h813v-258h-66v199h-506v-406h496v-59h-496
v-412h508v197h66v-258h-815z" />
    <glyph glyph-name="Igrave.smcp" unicode="&#xf7ec;" horiz-adv-x="567" 
d="M416 1126l-324 226l55 65l293 -262zM78 0v61h170v877h-170v59h411v-59h-170v-877h170v-61h-411z" />
    <glyph glyph-name="Iacute.smcp" unicode="&#xf7ed;" horiz-adv-x="567" 
d="M156 1126l-25 29l293 262l55 -65zM78 0v61h170v877h-170v59h411v-59h-170v-877h170v-61h-411z" />
    <glyph glyph-name="Icircumflex.smcp" unicode="&#xf7ee;" horiz-adv-x="567" 
d="M31 1126l-27 27l254 231h49l254 -231l-26 -27l-252 177zM78 0v61h170v877h-170v59h411v-59h-170v-877h170v-61h-411z" />
    <glyph glyph-name="Idieresis.smcp" unicode="&#xf7ef;" horiz-adv-x="567" 
d="M428 1149q-27 0 -44 17t-17 44t17 44q17 18 44 18t44 -18t17 -44q0 -27 -17 -44t-44 -17zM139 1149q-27 0 -44 17t-17 44t17 44q17 18 44 18t44 -18t17 -44q0 -27 -16 -44q-18 -17 -45 -17zM78 0v61h170v877h-170v59h411v-59h-170v-877h170v-61h-411z" />
    <glyph glyph-name="Eth.smcp" unicode="&#xf7f0;" horiz-adv-x="1173" 
d="M322 61h217q205 0 335 116t130 322q0 207 -130 323t-335 116h-217v-406h301v-57h-301v-414zM92 475v57h158v406h-170v59h452q226 0 386 -127q160 -128 160 -372t-160 -371q-158 -127 -386 -127h-452v61h170v414h-158z" />
    <glyph glyph-name="Ntilde.smcp" unicode="&#xf7f1;" horiz-adv-x="1286" 
d="M528 1307q46 -1 134 -51t126 -50q63 0 121 109l37 -21q-49 -115 -101 -141q-28 -14 -70 -14t-130 50t-125 50q-68 0 -119 -106l-39 16q48 106 84 132t82 26zM76 0v61h174v877h-174v59h246l669 -886v827h-174v59h412v-59h-172v-938h-64l-678 897v-836h170v-61h-409z" />
    <glyph glyph-name="Ograve.smcp" unicode="&#xf7f2;" horiz-adv-x="1232" 
d="M688 1135l-323 225l55 65l293 -262zM616 41q203 0 327 127t124 332q0 204 -124 330t-327 126q-202 0 -326 -126t-124 -330t124 -332q124 -127 326 -127zM616 -20q-238 0 -380 147t-142 373t142 371q142 147 380 147t380 -146t142 -372q0 -224 -142 -372t-380 -148z" />
    <glyph glyph-name="Oacute.smcp" unicode="&#xf7f3;" horiz-adv-x="1232" 
d="M494 1135l-25 28l293 262l55 -65zM616 41q203 0 327 127t124 332q0 204 -124 330t-327 126q-202 0 -326 -126t-124 -330t124 -332q124 -127 326 -127zM616 -20q-238 0 -380 147t-142 373t142 371q142 147 380 147t380 -146t142 -372q0 -224 -142 -372t-380 -148z" />
    <glyph glyph-name="Ocircumflex.smcp" unicode="&#xf7f4;" horiz-adv-x="1232" 
d="M365 1135l-27 26l254 232h49l254 -232l-27 -26l-252 176zM616 41q203 0 327 127t124 332q0 204 -124 330t-327 126q-202 0 -326 -126t-124 -330t124 -332q124 -127 326 -127zM616 -20q-238 0 -380 147t-142 373t142 371q142 147 380 147t380 -146t142 -372
q0 -224 -142 -372t-380 -148z" />
    <glyph glyph-name="Otilde.smcp" unicode="&#xf7f5;" horiz-adv-x="1232" 
d="M486 1315q46 0 134 -50t128 -51q63 0 120 109l37 -20q-49 -116 -101 -142q-28 -14 -70 -14t-130 50t-125 50q-68 0 -119 -106l-38 16q47 106 83 132q35 26 81 26zM616 41q203 0 327 127t124 332q0 204 -124 330t-327 126q-202 0 -326 -126t-124 -330t124 -332
q124 -127 326 -127zM616 -20q-238 0 -380 147t-142 373t142 371q142 147 380 147t380 -146t142 -372q0 -224 -142 -372t-380 -148z" />
    <glyph glyph-name="Odieresis.smcp" unicode="&#xf7f6;" horiz-adv-x="1232" 
d="M762 1157q-27 -1 -44 17t-18 45q0 27 18 44t44 17q27 0 44 -17t17 -44t-17 -45t-44 -17zM473 1157q-27 -1 -44 17t-17 45t17 44t44 17t44 -17t17 -44t-16 -45q-18 -18 -45 -17zM616 41q203 0 327 127t124 332q0 204 -124 330t-327 126q-202 0 -326 -126t-124 -330
t124 -332q124 -127 326 -127zM616 -20q-238 0 -380 147t-142 373t142 371q142 147 380 147t380 -146t142 -372q0 -224 -142 -372t-380 -148z" />
    <glyph glyph-name="Oslash.smcp" unicode="&#xf7f8;" horiz-adv-x="1228" 
d="M628 41q188 0 313 127q124 127 124 333t-125 330l-616 -698q116 -92 304 -92zM600 956q-188 0 -312 -126t-124 -330t123 -334l618 696q-117 94 -305 94zM614 -20q-199 0 -333 106l-86 -98l-37 32l86 97q-152 145 -152 377t142 377q142 147 360 147t354 -107l86 97l37 -29
l-86 -98q152 -147 152 -377q-1 -230 -143 -376q-142 -148 -380 -148z" />
    <glyph glyph-name="Ugrave.smcp" unicode="&#xf7f9;" horiz-adv-x="1210" 
d="M680 1126l-324 226l56 65l293 -262zM989 319q-1 -163 -105 -251t-278 -88t-280 90t-107 252v616h-170v59h412v-59h-170v-614q0 -143 89 -212t228 -69t226 70q86 70 86 211v614h-170v59h411v-59h-172v-619z" />
    <glyph glyph-name="Uacute.smcp" unicode="&#xf7fa;" horiz-adv-x="1210" 
d="M504 1126l-25 29l293 262l55 -65zM989 319q-1 -163 -105 -251t-278 -88t-280 90t-107 252v616h-170v59h412v-59h-170v-614q0 -143 89 -212t228 -69t226 70q86 70 86 211v614h-170v59h411v-59h-172v-619z" />
    <glyph glyph-name="Ucircumflex.smcp" unicode="&#xf7fb;" horiz-adv-x="1210" 
d="M356 1126l-26 27l254 231h49l254 -231l-27 -27l-252 177zM989 319q-1 -163 -105 -251t-278 -88t-280 90t-107 252v616h-170v59h412v-59h-170v-614q0 -143 89 -212t228 -69t226 70q86 70 86 211v614h-170v59h411v-59h-172v-619z" />
    <glyph glyph-name="Udieresis.smcp" unicode="&#xf7fc;" horiz-adv-x="1210" 
d="M752 1149q-27 0 -44 17t-18 44q0 27 18 44q18 18 44 18q27 0 44 -18t17 -44q0 -27 -17 -44t-44 -17zM463 1149q-27 0 -44 17t-18 44t17 44q18 18 45 18t44 -18t17 -44q0 -27 -17 -44t-44 -17zM989 319q-1 -163 -105 -251t-278 -88t-280 90t-107 252v616h-170v59h412v-59
h-170v-614q0 -143 89 -212t228 -69t226 70q86 70 86 211v614h-170v59h411v-59h-172v-619z" />
    <glyph glyph-name="Yacute.smcp" unicode="&#xf7fd;" horiz-adv-x="1097" 
d="M442 1126l-24 29l293 262l55 -65zM340 0v61h172v320l-352 557h-156v59h410v-59h-178l313 -494l315 496h-176v57h406v-59h-156l-354 -555v-322h174v-61h-418z" />
    <glyph glyph-name="Thorn.smcp" unicode="&#xf7fe;" horiz-adv-x="968" 
d="M319 276h187q324 0 323 234q0 231 -323 231h-187v-465zM78 0v61h170v877h-170v59h444v-59h-203v-137h187q285 0 366 -166q27 -53 27 -125q0 -246 -293 -287q-49 -6 -100 -6h-187v-156h203v-61h-444z" />
    <glyph glyph-name="Ydieresis.smcp" unicode="&#xf7ff;" horiz-adv-x="1097" 
d="M694 1149q-27 0 -44 17t-17 44t17 44q17 18 44 18t44 -18q18 -18 18 -44q0 -27 -18 -44t-44 -17zM406 1149q-27 0 -45 17q-17 17 -17 44t17 44q17 18 45 18t44 -18q17 -18 17 -44q0 -27 -17 -44t-44 -17zM340 0v61h172v320l-352 557h-156v59h410v-59h-178l313 -494
l315 496h-176v57h406v-59h-156l-354 -555v-322h174v-61h-418z" />
    <glyph glyph-name="s_t" unicode="&#xfb06;" horiz-adv-x="1421" 
d="M1092 225q0 -186 166 -186q84 0 141 22v-59q-75 -25 -121 -25t-64 1q-18 0 -58 14t-66 37t-47 71q-22 48 -21 119v580h-150v61h150v256h-158q-188 0 -188 -158v-315h-66v150q-98 27 -204 27t-167 -44q-63 -43 -63 -116q0 -74 55 -116t135 -65t157 -48q189 -63 189 -239
q0 -102 -88 -158q-90 -56 -235 -57q-145 0 -299 52v198h64v-151q118 -35 232 -35t188 39t73 117q0 79 -55 121t-134 66t-158 50t-134 80q-55 55 -55 151t78 157q79 60 197 60t226 -24v100q0 100 65 160t181 60h234v-318h297v-61h-297v-574z" />
    <glyph glyph-name="zero.lf" horiz-adv-x="1083" 
d="M541 39q356 0 356 585t-356 584q-188 0 -273 -149q-84 -150 -84 -436q1 -584 357 -584zM542 -25q-429 1 -429 649t429 648t429 -648t-429 -649z" />
    <glyph glyph-name="one.lf" horiz-adv-x="636" 
d="M96 0v61h223v1121q-6 -2 -85 -38t-129 -36t-39 49l264 90h61v-1186h217v-61h-512z" />
    <glyph glyph-name="two.lf" horiz-adv-x="980" 
d="M643 45q189 0 195 258h63q-7 -172 -71 -247t-181 -74q-73 0 -223 45t-217 32q5 -35 -15 -59t-54 -23q-34 -1 -51 19t-17 44q0 50 63 122t108 110q44 40 64 58q21 18 67 56q205 168 294 291q90 124 90 257t-81 205q-81 71 -220 71t-238 -55q25 -20 25 -51t-20 -51
q-20 -21 -55 -21q-34 0 -52 22t-19 48q0 68 113 119t267 51t249 -91q96 -91 96 -245q0 -207 -179 -393q-81 -84 -164 -154q-83 -69 -172 -145t-132 -131q84 18 248 -25t219 -43z" />
    <glyph glyph-name="three.lf" horiz-adv-x="968" 
d="M472 -25q-148 1 -265 53t-117 124q0 28 22 50t54 22t50 -22q20 -22 20 -54t-23 -54q107 -57 243 -57t235 77t99 216t-94 213q-96 74 -258 73h-114v62h122q147 0 233 71q85 71 85 199t-83 196q-83 66 -223 66t-235 -53q25 -18 25 -51t-22 -53q-22 -21 -52 -21t-51 20
q-20 20 -21 52q0 68 112 118t266 50t253 -89q101 -89 101 -217t-62 -204q-62 -78 -164 -113q117 -37 185 -118t67 -199q0 -164 -120 -260t-268 -97z" />
    <glyph glyph-name="four.lf" horiz-adv-x="985" 
d="M457 0v61h213v310h-635v51q162 184 261 404t126 444q61 14 61 -49q0 -123 -103 -371t-251 -418h541v225q29 63 51 150h18v-375h183v-61h-183v-310h170v-61h-452z" />
    <glyph glyph-name="five.lf" horiz-adv-x="980" 
d="M891 382q0 -192 -120 -300t-306 -107q-143 0 -264 68t-121 137q0 31 19 51q19 21 53 21t52 -22q19 -22 19 -50t-26 -55q35 -31 107 -59t161 -27q145 0 250 82q104 82 104 250t-90 255q-91 87 -211 87t-208 -47t-138 -117l-53 26q80 283 86 672h633q8 -12 8 -30
q0 -43 -111 -43l-467 14q-16 -354 -65 -526q131 114 297 114t278 -101t113 -293z" />
    <glyph glyph-name="six.lf" horiz-adv-x="1017" 
d="M541 737q-147 0 -245 -92q-98 -91 -99 -243t87 -258t240 -105q152 0 243 93q89 93 89 250t-84 256t-231 99zM526 -25q-186 -1 -302 139t-116 424t103 497q51 109 144 173t210 64t211 -50t94 -118q0 -32 -20 -54t-51 -22t-51 20t-20 52q0 31 26 57q-63 51 -173 51
t-187 -53q-197 -135 -224 -602q33 100 134 174t254 74q154 0 262 -114t108 -299t-108 -299t-294 -114z" />
    <glyph glyph-name="seven.lf" horiz-adv-x="923" 
d="M462 -27q-22 0 -33 23t-11 92q0 205 109 514q110 309 264 551q-59 -27 -126 -27t-190 37t-197 37q-146 0 -163 -217h-68v264h66v-106q43 125 176 125q63 0 185 -40t180 -40t98 16q0 29 19 48q19 20 49 20t49 -18t19 -47q0 -28 -40 -89q-137 -211 -248 -509t-111 -544
q0 -61 3 -86q-8 -4 -30 -4z" />
    <glyph glyph-name="eight.lf" horiz-adv-x="1044" 
d="M821 952q0 108 -81 181t-219 73t-219 -72t-81 -182q0 -108 83 -186t217 -78t217 78t83 186zM522 39q166 0 257 84t91 211t-92 210t-256 83t-257 -83t-93 -210t92 -211t258 -84zM522 -25q-190 -1 -306 95t-116 240t77 233q77 88 200 116q-96 31 -161 109t-64 186
q0 138 104 228t266 90t266 -90t104 -214t-65 -200q-66 -78 -163 -109q126 -29 202 -117t76 -232t-115 -240t-305 -95z" />
    <glyph glyph-name="nine.lf" horiz-adv-x="1024" 
d="M466 -25q-120 -1 -223 57t-104 124q1 28 21 50t51 22t53 -21q22 -20 21 -50q0 -30 -29 -59q94 -59 206 -59q216 0 303 195q75 170 89 468q-33 -104 -134 -172t-251 -68q-151 0 -263 108t-112 287t110 297t298 118q412 0 411 -590q0 -182 -34 -313q-35 -131 -79 -208
t-129 -131t-205 -55zM825 852q1 154 -85 254q-86 102 -238 102t-244 -97t-92 -249t88 -242t232 -92q144 0 242 85q97 85 97 239z" />
    <glyph glyph-name="a.alt" horiz-adv-x="1040" 
d="M160 432q0 -166 80 -278t236 -113q155 0 302 152v487q-49 43 -84 69q-35 27 -93 49t-122 21q-155 -1 -237 -111t-82 -276zM467 -23q-183 -1 -281 131t-98 322t101 322t279 131q178 0 310 -131v108h70v-799h174v-61h-244v121q-129 -144 -311 -144z" />
    <glyph glyph-name="agrave.alt" horiz-adv-x="1040" 
d="M627 1040l-342 252l51 64l315 -287zM160 432q0 -166 80 -278t236 -113q155 0 302 152v487q-49 43 -84 69q-35 27 -93 49t-122 21q-155 -1 -237 -111t-82 -276zM467 -23q-183 -1 -281 131t-98 322t101 322t279 131q178 0 310 -131v108h70v-799h174v-61h-244v121
q-129 -144 -311 -144z" />
    <glyph glyph-name="aacute.alt" horiz-adv-x="1040" 
d="M393 1040l-24 29l315 287l51 -64zM160 432q0 -166 80 -278t236 -113q155 0 302 152v487q-49 43 -84 69q-35 27 -93 49t-122 21q-155 -1 -237 -111t-82 -276zM467 -23q-183 -1 -281 131t-98 322t101 322t279 131q178 0 310 -131v108h70v-799h174v-61h-244v121
q-129 -144 -311 -144z" />
    <glyph glyph-name="acircumflex.alt" horiz-adv-x="1040" 
d="M233 1040l-26 29l272 252h41l273 -252l-27 -29l-266 201zM160 432q0 -166 80 -278t236 -113q155 0 302 152v487q-49 43 -84 69q-35 27 -93 49t-122 21q-155 -1 -237 -111t-82 -276zM467 -23q-183 -1 -281 131t-98 322t101 322t279 131q178 0 310 -131v108h70v-799h174
v-61h-244v121q-129 -144 -311 -144z" />
    <glyph glyph-name="atilde.alt" horiz-adv-x="1040" 
d="M366 1249q44 0 138 -60q94 -61 133 -61t67 27t62 94l41 -22q-23 -49 -38 -76t-52 -57t-86 -31q-49 0 -143 60q-94 61 -133 61q-41 0 -67 -26t-61 -93l-43 20q58 126 110 151q28 13 72 13zM160 432q0 -166 80 -278t236 -113q155 0 302 152v487q-49 43 -84 69
q-35 27 -93 49t-122 21q-155 -1 -237 -111t-82 -276zM467 -23q-183 -1 -281 131t-98 322t101 322t279 131q178 0 310 -131v108h70v-799h174v-61h-244v121q-129 -144 -311 -144z" />
    <glyph glyph-name="adieresis.alt" horiz-adv-x="1040" 
d="M657 1073q-27 -1 -44 17t-17 45t17 44t44 17t44 -17t17 -44t-16 -45q-18 -18 -45 -17zM330 1073q-27 -1 -44 17t-18 45q0 27 18 44t44 17q27 0 44 -17t17 -44t-17 -45t-44 -17zM160 432q0 -166 80 -278t236 -113q155 0 302 152v487q-49 43 -84 69q-35 27 -93 49t-122 21
q-155 -1 -237 -111t-82 -276zM467 -23q-183 -1 -281 131t-98 322t101 322t279 131q178 0 310 -131v108h70v-799h174v-61h-244v121q-129 -144 -311 -144z" />
    <glyph glyph-name="aring.alt" horiz-adv-x="1040" 
d="M487 1085q68 0 105 44q37 43 37 105t-37 106t-105 44q-69 0 -105 -44t-36 -105t36 -105t105 -45zM487 1034q-92 0 -148 58t-56 143q0 86 56 143q56 58 148 58q93 0 149 -58t56 -143t-56 -143t-149 -58zM160 432q0 -166 80 -278t236 -113q155 0 302 152v487q-49 43 -84 69
q-35 27 -93 49t-122 21q-155 -1 -237 -111t-82 -276zM467 -23q-183 -1 -281 131t-98 322t101 322t279 131q178 0 310 -131v108h70v-799h174v-61h-244v121q-129 -144 -311 -144z" />
    <glyph glyph-name="amacron.alt" horiz-adv-x="1040" 
d="M236 1087v62h501v-62h-501zM160 432q0 -166 80 -278t236 -113q155 0 302 152v487q-49 43 -84 69q-35 27 -93 49t-122 21q-155 -1 -237 -111t-82 -276zM467 -23q-183 -1 -281 131t-98 322t101 322t279 131q178 0 310 -131v108h70v-799h174v-61h-244v121
q-129 -144 -311 -144z" />
    <glyph glyph-name="abreve.alt" horiz-adv-x="1040" 
d="M481 1053q-104 0 -174 60t-82 185h62q14 -182 194 -182t195 182h61q-12 -125 -82 -185t-174 -60zM160 432q0 -166 80 -278t236 -113q155 0 302 152v487q-49 43 -84 69q-35 27 -93 49t-122 21q-155 -1 -237 -111t-82 -276zM467 -23q-183 -1 -281 131t-98 322t101 322
t279 131q178 0 310 -131v108h70v-799h174v-61h-244v121q-129 -144 -311 -144z" />
    <glyph glyph-name="aogonek.alt" horiz-adv-x="1040" 
d="M160 432q0 -166 80 -278t236 -113q155 0 302 152v487q-49 43 -84 69q-35 27 -93 49t-122 21q-155 -1 -237 -111t-82 -276zM915 -381q-73 0 -119 35t-46 106q0 133 153 240h-125v121q-129 -143 -311 -143q-183 0 -281 130q-98 132 -98 322t101 322t279 131q178 0 310 -131
v108h70v-799h174v-61h-37q-55 -33 -111 -95t-57 -136q0 -96 113 -97q63 0 125 31l4 -51q-70 -33 -144 -33z" />
    <glyph glyph-name="g.alt" horiz-adv-x="1038" 
d="M488 819q-152 0 -239 -101q-87 -102 -87 -272t87 -275t235 -105t286 133v487q-130 133 -282 133zM840 -139q0 -143 -93 -217t-251 -74t-312 61v64q154 -61 299 -62q287 0 287 240v254q-137 -125 -300 -125q-164 0 -272 122t-108 322t111 318q111 119 279 119t294 -131
v108h219v-61h-153v-938z" />
    <glyph glyph-name="gcircumflex.alt" horiz-adv-x="1038" 
d="M223 1040l-26 29l272 252h41l272 -252l-26 -29l-267 201zM488 819q-152 0 -239 -101q-87 -102 -87 -272t87 -275t235 -105t286 133v487q-130 133 -282 133zM840 -139q0 -143 -93 -217t-251 -74t-312 61v64q154 -61 299 -62q287 0 287 240v254q-137 -125 -300 -125
q-164 0 -272 122t-108 322t111 318q111 119 279 119t294 -131v108h219v-61h-153v-938z" />
    <glyph glyph-name="gbreve.alt" horiz-adv-x="1038" 
d="M485 1053q-104 0 -174 60t-82 185h62q14 -182 194 -182t195 182h61q-12 -125 -82 -185t-174 -60zM488 819q-152 0 -239 -101q-87 -102 -87 -272t87 -275t235 -105t286 133v487q-130 133 -282 133zM840 -139q0 -143 -93 -217t-251 -74t-312 61v64q154 -61 299 -62
q287 0 287 240v254q-137 -125 -300 -125q-164 0 -272 122t-108 322t111 318q111 119 279 119t294 -131v108h219v-61h-153v-938z" />
    <glyph glyph-name="gdotaccent.alt" horiz-adv-x="1038" 
d="M481 1075q-27 -1 -47 19t-20 49t20 48t47 19t47 -19t20 -48t-20 -49t-47 -19zM488 819q-152 0 -239 -101q-87 -102 -87 -272t87 -275t235 -105t286 133v487q-130 133 -282 133zM840 -139q0 -143 -93 -217t-251 -74t-312 61v64q154 -61 299 -62q287 0 287 240v254
q-137 -125 -300 -125q-164 0 -272 122t-108 322t111 318q111 119 279 119t294 -131v108h219v-61h-153v-938z" />
    <glyph glyph-name="uni0123.alt" horiz-adv-x="1038" 
d="M488 819q-152 0 -239 -101q-87 -102 -87 -272t87 -275t235 -105t286 133v487q-130 133 -282 133zM840 -139q0 -143 -93 -217t-251 -74t-312 61v64q154 -61 299 -62q287 0 287 240v254q-137 -125 -300 -125q-164 0 -272 122t-108 322t111 318q111 119 279 119t294 -131
v108h219v-61h-153v-938zM501 1036q-34 0 -59 24q-24 24 -24 82t32 128t87 125l41 -31q-88 -109 -88 -196t65 -91v-16q-20 -25 -54 -25z" />
    <glyph glyph-name="ampersand.alt" horiz-adv-x="1064" 
d="M500 45q150 0 234 86q85 86 85 197v286h-305q-154 0 -248 -76t-94 -214q0 -137 89 -208t239 -71zM887 328q1 -144 -107 -244t-280 -100t-286 87t-114 246q0 117 65 204t185 122q-113 39 -167 122t-54 183q1 142 107 228t278 86t340 -52v-213h-68v166q-131 35 -269 35
t-227 -64t-89 -191q0 -126 82 -198t221 -71h512v-60h-129v-286z" />
    <glyph glyph-name="slash.cap" horiz-adv-x="1081" 
d="M41 -303l930 1853h71l-929 -1853h-72z" />
    <glyph glyph-name="backslash.cap" horiz-adv-x="1081" 
d="M969 -303l-930 1853h72l929 -1853h-71z" />
    <glyph glyph-name="bar.cap" horiz-adv-x="413" 
d="M174 -303v1853h66v-1853h-66z" />
    <glyph glyph-name="brokenbar.cap" horiz-adv-x="417" 
d="M176 -303v788h66v-788h-66zM176 770v780h66v-780h-66z" />
    <glyph glyph-name="bullet.cap" horiz-adv-x="696" 
d="M348 434q-78 0 -133 55t-55 133t55 134q55 55 133 55t133 -55t55 -133q0 -77 -54 -133q-56 -56 -134 -56z" />
    <glyph glyph-name="parenleft.smcp" horiz-adv-x="460" 
d="M330 -240q-113 158 -173 355t-61 385q0 188 61 387q60 199 173 356h73q-240 -324 -239 -743q0 -198 62 -392t177 -348h-73z" />
    <glyph glyph-name="parenright.smcp" horiz-adv-x="460" 
d="M57 -240q115 154 177 348t63 392q0 420 -240 743h74q113 -159 173 -357q118 -390 0 -771q-60 -197 -173 -355h-74z" />
    <glyph glyph-name="braceleft.smcp" horiz-adv-x="520" 
d="M336 -264q-50 0 -86 39t-35 94q0 55 26 184t25 195q0 211 -217 221v61q217 10 217 222q0 66 -26 194t-25 184q0 56 36 95t86 39t103 -17v-47q-33 14 -71 14q-90 0 -90 -98q1 -37 25 -170t24 -203q0 -215 -199 -243q199 -29 199 -244q0 -70 -25 -203t-24 -170
q0 -98 90 -98q39 0 71 14v-47q-54 -16 -104 -16z" />
    <glyph glyph-name="braceright.smcp" horiz-adv-x="520" 
d="M184 -264q-50 0 -104 16v47q33 -14 72 -14q90 0 90 98q0 37 -25 170t-24 203q0 215 198 244q-199 29 -198 243q0 70 24 203q25 133 25 170q0 98 -90 98q-39 0 -72 -14v47q133 40 189 -22q36 -39 36 -95q1 -56 -25 -184q-26 -129 -26 -194q0 -211 217 -222v-61
q-217 -10 -217 -221q0 -66 26 -195t26 -185t-36 -94t-86 -38z" />
    <glyph glyph-name="bracketleft.smcp" horiz-adv-x="526" 
d="M186 -240v1483h297v-49h-231v-1387h231v-47h-297z" />
    <glyph glyph-name="bracketright.smcp" horiz-adv-x="526" 
d="M43 -240v47h231v1387h-231v49h297v-1483h-297z" />
    <glyph glyph-name="bar.smcp" horiz-adv-x="434" 
d="M186 -240v1483h62v-1483h-62z" />
    <glyph glyph-name="at.smcp" horiz-adv-x="1288" 
d="M623 244q91 0 157 84t66 204q0 182 -158 183q-106 0 -179 -82q-73 -83 -73 -183t48 -153t139 -53zM600 193q-106 0 -166 70q-59 71 -59 189t88 216q89 98 231 98t183 -129h2q6 29 30 102h58q-78 -250 -78 -378t92 -128q82 0 137 78t56 211q0 215 -140 349
q-140 135 -358 135q-219 0 -380 -153t-161 -375t154 -368t377 -147q166 0 284 86l27 -39q-141 -92 -311 -92q-244 0 -410 159t-166 403t176 406q176 163 410 163q234 -1 389 -147q154 -146 154 -380q0 -154 -69 -242t-175 -87q-57 0 -97 33t-40 89h-7q-90 -122 -231 -122z
" />
    <glyph glyph-name="ampersand.alt.smcp" horiz-adv-x="935" 
d="M172 258q0 -106 74 -162t199 -57q124 1 193 67t69 156v225h-254q-127 0 -204 -61q-77 -62 -77 -168zM772 256q0 -114 -91 -194t-239 -80t-243 70q-96 70 -97 202q0 94 56 164t155 96q-94 34 -140 100t-46 146q0 116 92 186q93 70 239 70t285 -41v-176h-63v129
q-92 30 -213 30t-196 -51t-75 -151t70 -157q70 -56 185 -56h430v-56h-109v-231z" />
    <glyph glyph-name="uni021A.smcp" horiz-adv-x="1013" 
d="M289 0v61h182v877h-346v-190h-68v249h899v-249h-67v190h-346v-877h182v-61h-436zM502 -162q30 0 54 -22t24 -77q0 -54 -30 -122t-83 -119l-39 29q84 106 84 187t-63 85v17q22 22 53 22z" />
    <glyph glyph-name="T_h" horiz-adv-x="2131" 
d="M1085 0v61h175v1121h-637v-1116h221v-66h-516v66h221v1116h-430v-240h-70v305h1213l10 201h57v-731q172 166 357 166q118 0 184 -73t65 -212v-537h174v-61h-417v61h174v525q0 233 -191 233q-164 0 -346 -174v-584h174v-61h-418z" />
    <glyph glyph-name="c_t" horiz-adv-x="1554" 
d="M1225 225q0 -186 166 -186q84 0 141 22v-59q-74 -25 -120 -25t-64 1q-18 0 -58 14t-66 37t-48 71t-21 119v580h-149v61h149v256h-156q-188 0 -188 -158v-360h-66v184q-102 37 -223 37q-176 0 -269 -106q-93 -107 -93 -283t97 -282t258 -107q161 0 300 94v-67
q-141 -91 -297 -91q-198 0 -314 124t-116 329t117 329t317 124q106 0 226 -37v112q0 100 64 160q65 59 181 60h232v-318h297v-61h-297v-574z" />
    </font>
</defs>
</svg>
